/* XPM */
static char *_7388_22d02d7012695f62e6e2b0d96753e19da6ef4d5e24581f5fb36a6fc836e29343[] = {
/* columns rows colors chars-per-pixel */
"32 60 14 1 ",
"  c black",
". c #4C290D",
"X c #794E24",
"o c #494949",
"O c #A45C34",
"+ c #C6784A",
"@ c #C7784D",
"# c #383880",
"$ c #0B6FAD",
"% c #62418E",
"& c #218887",
"* c #16BFBC",
"= c white",
"- c None",
/* pixels */
"--                        ------",
"--                        ------",
"--  XXXXXXXXXXXXXXXX....  ------",
"--  XXXXXXXXXXXXXXXX....  ------",
"--  XXXXXXXXXXXXXXXX....  ------",
"--  XXXXXXXXXXXXXXXX....  ------",
"--  XX@@@@@@@@@@@@XX....  ------",
"--  XX@@@@@@@@@@@@XX....  ------",
"--  @@@@@@@@@@@@@@@@OO..  ------",
"--  @@@@@@@@@@@@@@@@OO..  ------",
"--  @@==%%@@@@%%==@@OO..  ------",
"--  @@==%%@@@@%%==@@OO..  ------",
"--  @@@@@@OOOO@@@@@@OO..  ------",
"--  @@@@@@OOOO@@@@@@OO..  ------",
"--  @@@@XX@@@@XX@@@@OOOO  ------",
"--  @@@@XX@@@@XX@@@@OOOO  ------",
"--  @@@@XXXXXXXX@@@@OOOO  ------",
"--  @@@@XXXXXXXX@@@@OOOO  ------",
"--                        ------",
"--                        ------",
"------  **********&&&&&&&&  ----",
"------  **********&&&&&&&&  ----",
"------  ************&&&&&&  ----",
"------  ************&&&&&&  ----",
"----    **********  ++++OO  ----",
"----    **********  ++++OO  ----",
"----    **********  ++++OO  ----",
"----    **********  ++++OO  ----",
"--  ++  ********  ++++++OO  ----",
"--  ++  ********  ++++++OO  ----",
"  ++++  ******  ++++++++OO  ----",
"  ++++  ******  ++++++++OO  ----",
"  ++++  ******  ++++++OOOO  ----",
"  ++++  ******  ++++++OOOO  ----",
"  ++++  ******  ++++OOOO  ------",
"  ++++  ******  ++++OOOO  ------",
"--      ********          ------",
"--      ********          ------",
"------  ************&&&&  ------",
"------  ************&&&&  ------",
"----  $$$$$$$$$$$$$$$$&&&&  ----",
"----  $$$$$$$$$$$$$$$$&&&&  ----",
"----  $$$$$$##    $$$$$$##  ----",
"----  $$$$$$##    $$$$$$##  ----",
"----  $$$$##  ----  $$$$##  ----",
"----  $$$$##  ----  $$$$##  ----",
"--  $$$$$$##  ----  $$$$####  --",
"--  $$$$$$##  ----  $$$$####  --",
"--  $$$$####  ----  $$######  --",
"--  $$$$####  ----  $$######  --",
"--  $$####  --------  ######  --",
"--  $$####  --------  ######  --",
"--  ######  --------  ######  --",
"--  ######  --------  ######  --",
"--  oooooo  --------  oooooo  --",
"--  oooooo  --------  oooooo  --",
"  oooooooo  --------  oooooooo  ",
"  oooooooo  --------  oooooooo  ",
"            --------            ",
"            --------            "
};
