/* XPM */
static char *player_left_601702917948[] = {
/* columns rows colors chars-per-pixel */
"60 60 114 2 ",
"   c #875321",
".  c #885422",
"X  c #935E2A",
"o  c #9A652F",
"O  c #867C37",
"+  c #897F38",
"@  c #B47C43",
"#  c #71AE47",
"$  c #73AE4B",
"%  c #73B04B",
"&  c #79B34F",
"*  c #77AF50",
"=  c #77B353",
"-  c #7BB354",
";  c #7EB65A",
":  c #7DB85E",
">  c #7BB662",
",  c #7AB863",
"<  c #87843D",
"1  c #8D823B",
"2  c #8D8C3D",
"3  c #90833D",
"4  c #8F8D40",
"5  c #938544",
"6  c #81BA4F",
"7  c #81B757",
"8  c #83BC54",
"9  c #82B759",
"0  c #83B95B",
"q  c #89BC5D",
"w  c #B3A157",
"e  c #85BB62",
"r  c #8BBC62",
"t  c #8EBE6A",
"y  c #92BB62",
"u  c #92BE6C",
"i  c #BCB660",
"p  c #CB8F51",
"a  c #CD9153",
"s  c #D5975A",
"d  c #D2BB6D",
"f  c #E3A363",
"g  c #EEAD6B",
"h  c #E5BB71",
"j  c #EABC73",
"k  c #F8B571",
"l  c #F1BD75",
"z  c #FFBB76",
"x  c #FFBB78",
"c  c #87C057",
"v  c #86C15B",
"b  c #8CC25D",
"n  c #90C45E",
"m  c #98C05F",
"M  c #92CA5C",
"N  c #9BCB5D",
"B  c #8DC361",
"V  c #8DC961",
"C  c #8FC16B",
"Z  c #8BCE69",
"A  c #92C564",
"S  c #94CC62",
"D  c #9BCE65",
"F  c #92C46A",
"G  c #98C56A",
"H  c #97C96C",
"J  c #99CB6C",
"K  c #9CD16B",
"L  c #9AC772",
"P  c #93CB70",
"I  c #9DCB72",
"U  c #9FD170",
"Y  c #9DD37D",
"T  c #9CD87E",
"R  c #A1CA62",
"E  c #A5D677",
"W  c #A6D579",
"Q  c #A8D57A",
"!  c #C4C369",
"~  c #CEC36A",
"^  c #ECC278",
"/  c #1C93B5",
"(  c #1E96BB",
")  c #2399BB",
"_  c #5F9796",
"`  c #72938C",
"'  c #6C8896",
"]  c #6A8899",
"[  c #74A399",
"{  c #7BA99C",
"}  c #5189A4",
"|  c #709FA7",
" . c #71A0A8",
".. c #39DDB8",
"X. c #38E2BD",
"o. c #79D7A5",
"O. c #7CD8A5",
"+. c #6FD8B0",
"@. c #70D9B1",
"#. c #0C88C6",
"$. c #0087CB",
"%. c #0088CC",
"&. c #1FE6C3",
"*. c #1CE8C5",
"=. c #1FEBCA",
"-. c #00EEDE",
";. c #23E9C8",
":. c #20E7D0",
">. c gray53",
",. c #888886",
"<. c #888888",
"1. c #8B9681",
"2. c #DFC384",
"3. c #E1C283",
/* pixels */
"M M M b 0 0 b S S S E W W W W Q A % % % W W 5 . . . .   . .   . . . . . . 4 M S 0 : 9 0 0 0 v M M M q 9 0 0 9 0 b M M M ",
"M M M c 0 0 b S S S E W W W W Q A % $ $ E W 5 . . . . . . . . . . . . .   4 S S 0 0 8 0 0 0 b M M M 0 0 0 0 0 0 b M M M ",
"M M M q 0 0 b S S S E E W W W W C $ $ $ E E 5 . . . . . . . .   .     . . 4 S S 0 9 ; 9 0 0 b M M M 0 9 9 0 0 0 c M M M ",
"M M M b q e b M S V W E W K J D B ; ; = K K 3       . . .   . . . .   . . 2 M S 0 0 9 0 0 0 A U U K e 0 0 b b b c M M M ",
"M M M B r r q M M N W E W D M M b : 9 0 S S 1 .   .     . . . . . . . .   2 M M q 9 0 0 0 9 F Q W W 0 9 0 b M M M M M M ",
"M M M A r r y M M M E E W D M M M 0 9 0 S S 1   .       . . . . .     .   2 M M 0 0 0 0 0 0 A Q W W 0 9 0 b M M M M M M ",
"M M M b r r B b b b H H H J D K A r r r b b 1   . .     . . . . .     .   2 b b b v b b B v A K K U c b v b M M M b M n ",
"M M M q r r q 9 0 0 9 0 0 H W Q I F u u q 0 O   @ a a p o . . . . . . . . < 0 0 M M M M S S M M M M M M M M M M b 9 : 0 ",
"M M M q r r 0 0 0 0 0 9 0 H W W I u u t e 0 O . s z x x o   . . . .     . 4 0 v M M M M M S M M M M M M M M M M b 0 0 9 ",
"M M M b r t 0 0 0 0 0 q 0 J W W I u u t 0 0 w a g z x x o .   . . . . .   < 0 0 M M M M S S D M S M M M M M M M b 9 9 q ",
"$ % # - 0 0 0 0 0 0 W W W W W Q I u u F 0 0 d x x x x x o . . . . . . .   4 b n : v 0 0 0 q A W Q Q E E E K M M b 0 0 0 ",
"$ $ % - 0 0 0 0 9 0 W W Q W W W I u u F 0 0 d x x x x x g f . . .   .     4 n M 0 9 0 0 0 0 A W Q Q Q Q E D M M b 0 0 0 ",
"$ $ & 7 0 7 9 0 0 0 W W W W Q Q I F u t 0 0 d x x z z z x k . . . . . X . 2 M M 0 0 0 9 0 0 G E E W W W W K M M b 9 9 0 ",
"c 8 8 q r r 0 - - - G F H J D D A r r e b b d x x z x z x z f f f f f f f i M M q 0 0 C H H H C S A L L L A r B b b b b ",
"M M N A u F e $ $ $ r r r b M M b 9 9 9 M M ~ ^ l l 3.3.3.2.3.3.3.j j l ^ ! M M 0 0 0 J W Q H 9 0 9 F u F t r r A M M M ",
"M M M n u u q $ $ * r y r A M M b 7 7 0 M M N R R J ;.:.:.:.:.:.:...y y m D M M 0 0 0 J Q Q H 9 9 0 u u t t r r b M M M ",
"M M N n A M b 8 8 8 B b b b b b q - - 9 b V b M S Z *.-.-.-.-.-.-.&.v b v c b 8 9 9 0 A H H A 9 0 0 B r r B B V b n b B ",
"M M M M n M M M M M M M M b q 0 - - - - 0 0 9 V S Z *.-.-.-.-.-.-.&.V M c % $ * 7 9 9 9 0 0 9 0 0 0 0 0 0 b S S V 0 9 0 ",
"M M M M M M M M M M M M M v 9 0 ; = - - 0 0 0 b S Z *.-.-.-.-.-.-.&.V M c % # $ 9 9 9 0 0 0 0 0 0 0 9 0 0 B S S b 0 0 0 ",
"M M M M M M M M M M M M M b 0 0 - - - = 0 0 0 B S Z *.-.-.-.-.-.-.&.V S 8 # & # 9 0 0 0 0 9 q 0 0 0 q 0 0 V S S B 0 0 0 ",
"E Q Q D M M D E W W r r r 0 0 0 0 q 0 0 = % % G W T ;.-.-.-.-.-.-.;.T W K M M M r r r J E W I S S S M M M M S S S S S S ",
"E Q W J M M K Q E W r r r e 0 0 0 0 0 0 $ $ % F W T =.-.-.-.-.-.-.;.W W U M M M r r r L W W E S S S M M M S S S S S S S ",
"W W W K M M J W Q Q r r r 0 0 0 0 0 0 0 % % # A W W o.@.@.+.@.+.+.O.W W K M M M q r r L W W I S S S M M M M A S S V S S ",
"K K K b 8 8 n K K J n b V n b b q 0 0 0 C A V F F H j z z x x z x h G F M M M M 0 q 0 B P H S M M M M S S B b b B B b B ",
"M M M 8 - - 8 M M M M M M M M M n 0 : q E W W F 9 q h x x x x z x h q 0 q M M M 0 9 9 0 r r M M M M S S M b 0 0 0 0 0 0 ",
"M M M 8 - - 8 M M M M M M M M M b 0 9 q E W W G 9 r j z x x x x z h 0 0 q M M M 9 9 9 e r r B M M M S S S b 0 0 9 0 0 0 ",
"M M M c q 8 c M M M b B c M M M b 0 0 0 H H H V q m j z z x x x z h q 9 c M M M 0 9 9 r r r r b b b B B b A Z F B 0 0 0 ",
"M M M M S S M M M M 9 0 0 b S S b 0 0 0 0 0 0 n S D j z x x x x z j 0 0 b M M M 9 9 9 r u u r 0 0 q 0 9 0 H W W H 0 0 0 ",
"M M M M S S S M M M 0 0 : M S S V 0 0 0 0 0 0 A M N j x x x x z x h 0 9 v M M n 9 9 0 r u u r 0 0 0 0 0 9 I W W I 9 0 0 ",
"M M S M M S M M M S 0 0 0 b S S B 0 0 0 0 0 0 B S D ^ x x x x z x h 9 0 b M M S 0 9 9 r t u r 0 0 0 0 9 9 H W W H 0 q 9 ",
"q 0 0 b M M K E E E 0 0 0 V S S S M S S 0 0 0 q r y j x x x x x x ^ Q W H 9 0 0 u t u : # # - q 0 0 q 9 0 q r r B M M M ",
"0 9 9 M M M K E E E q 0 0 B S S S S S S 0 0 0 q r y j x x x x x x ^ Q E J 9 0 0 u u u 9 % # = 0 0 0 9 0 0 e r r b n M M ",
"0 0 0 b M M D W W W 0 0 0 b S S S S M S 0 0 0 q r y j z x x x x x ^ Q W J 0 0 0 u u F 9 $ % - 9 0 0 0 9 0 q r r B M M M ",
"r t r B b b S W W W b b B B b b b b B v b B b q q y j z x x x x x j F F r - 7 7 q r r q 8 q 0 9 0 0 r r q b b A B B b B ",
"u t C r 0 0 F E W E M M M b : 9 0 0 0 0 M M M b 0 q j z x x x x x h r 9 9 - - - 9 0 0 b S S n 0 0 0 r r r B M M A r r r ",
"u u u e 0 0 F W Q W M M M v q 0 0 0 0 9 M M M v 0 q h z x x x x x h q 0 ; - * - 0 0 0 B S S V 9 0 0 r r r b M M A r r r ",
"L L P F b B C J J J b b b 0 0 0 0 b b c b b b q 0 q h x x x x x x j F F q 7 - 8 0 0 q b M M S b b b H H G M M M b q q q ",
"W W W K S S B 9 9 9 9 9 ; 9 0 0 b M M M 8 9 7 0 9 e [ | | | | |  . .W E J 0 9 9 0 0 9 b M M M S S S W W W D M M b 0 0 0 ",
"W W W K S S b 0 0 q : 8 9 0 0 0 v M M M 9 7 9 9 9 e / $.$.$.$.$.$.) E Q G 9 9 9 0 9 0 b M M M S S S W E W D M M b 0 0 9 ",
"W Q W K S S B 0 0 0 9 9 9 9 v 0 v M n M 9 9 9 0 0 > / $.$.$.$.$.%.) Y Q H 9 9 9 0 0 0 b M M S S S S W E E K M M b 0 0 q ",
"0 q q B S D F u F t 0 0 0 B M M b 8 9 8 - = - - : > / %.%.$.%.%.%.) V M b 9 8 9 0 0 0 H E Q J B q r D S S M M M A r r r ",
"0 0 9 b S M A F F u q 0 0 b M M b 9 9 9 = - - 9 9 > / $.%.$.%.%.%./ b M b 9 ; 9 0 0 q H W W L r r r M S S D M M A r r r ",
"0 0 0 V S S A u u u 0 0 0 b M M b 9 9 0 = - - 9 9 > / $.%.%.$.%.%./ B M b - 9 9 0 0 0 H E Q J r r r S S S M M M n r r r ",
"0 0 9 8 8 8 B I I I b b b b b b B H H H * * * 7 B e / %.%.%.%.%.%./ B B b b b b H H J H F F A A A b S S M A b A 0 - - ; ",
"0 0 0 - # = q W E W M M M v 9 0 F W W E $ % # c M V / %.%.%.%.%.%.) e r M M M M Q W W A 0 0 c M M M S S S A r r 9 $ $ # ",
"9 0 0 = $ # q W W E M M M v 0 0 A W E W $ % % 8 M B ( %.%.%.$.%.%./ e r b M M M Q W W F 0 0 b M M M S S S B r r 9 $ # $ ",
"0 0 0 ; - - e H J H A A A b q B H E W W - - = b K P / %.%.%.%.%.%./ B B n M M M E W W F 0 9 q M S M K K H A 9 0 9 & - - ",
"0 9 8 0 0 0 0 0 0 0 u u F A M M D W W E 0 9 0 J W Y ( %.%.%.%.%.%./ V M M M M M Q W Q A 9 8 b M S S W W Q r - * 7 9 9 9 ",
"0 0 0 0 0 0 0 0 0 e C C u A M M K Q W W 0 0 0 H W Y ( $.$.$.%.%.%.) V M M M M M W W W F 9 9 b S S D Q W W B - - 7 9 9 9 ",
"0 0 0 0 0 0 0 0 0 0 C C F A M M D W W W 0 9 0 J Y Y ( $.%.%.%.%.%./ n M M M M M W W W A 9 ; q S S S W W W B - = - 9 9 9 ",
"M M M b r r e 0 0 0 0 0 0 H Q E I u u u 0 0 0 q e > / %.$.$.%.%.%./ : 0 A W E E q 0 q - $ * 9 u u F A M M b 0 0 - * $ $ ",
"M M M B r r q : 0 0 0 0 9 L W W I u u F e 0 0 0 9 > / $.%.%.%.%.%./ : 9 A W W W 0 9 9 - # $ 9 u u F M M M b 0 0 7 $ $ $ ",
"M M M b r B 0 0 9 9 q 0 0 H Q W I u u F 0 9 9 e 0 , / $.%.%.%.%.%./ : 0 F W Q W q 0 0 - # $ 7 u u F M M M b 9 9 - % % $ ",
"M M M H H I F r r r 9 0 0 B F A r r r r - - - ; 9 , / $.%.%.%.%.%./ B b b B e B - ; - * $ $ * r r q M M M v 0 0 9 ; - 7 ",
"M M M K W Q I C u t 0 9 0 9 0 0 0 0 0 0 $ # # - 9 , / %.%.$.} } } _ S S 0 % # $ = = - * $ # - e 0 0 M b M b 0 0 0 0 9 9 ",
"M M S U Q W I F t F q : q 0 0 9 0 0 q 0 $ $ $ - 9 > / #.$.#.<.,.<.1.S S v $ # * - = - * $ $ * 9 0 e M M M b 0 0 9 0 0 9 ",
"M M M M F A A F A A 0 0 0 0 0 0 e 0 b b $ $ $ 8 q r ` ] ] ' ,.<.<.1.S M M q B e ; ; - - 8 8 8 r r r J D J b 0 0 0 r r r ",
"M M M 7 $ $ 6 M M M q 9 0 0 0 0 b M M M % # % c S S 1.<.<.>.,.<.<.1.S M K Q E E 0 0 9 M M M A u u u W Q W F 0 0 r u F u ",
"M M M - % % 6 M M M 0 9 0 0 0 0 8 M M M % # $ v S H 1.<.>.<.<.<.>.1.M M D Q W W 0 0 0 b M M A u u C Q W W A 0 e r u u u ",
"M M M 6 # % 6 M M M 0 0 0 0 0 0 c M M M % # $ c M G 1.<.<.<.<.<.>.1.M M J W W W 0 0 0 n M M A F u C Q W W G 0 0 r u u u "
};
