/* XPM */
static char *player_601702917948[] = {
/* columns rows colors chars-per-pixel */
"60 60 180 2 ",
"   c #86541F",
".  c #875321",
"X  c #885422",
"o  c #97622E",
"O  c #9A652F",
"+  c #9F6932",
"@  c #996430",
"#  c #A26D34",
"$  c #A6733A",
"%  c #BA7F45",
"&  c #B17940",
"*  c #A97A44",
"=  c #73AE4B",
"-  c #73B04B",
";  c #79B34F",
":  c #77AF50",
">  c #77B252",
",  c #7BB354",
"<  c #7FB658",
"1  c #7E9B6B",
"2  c #6E9B74",
"3  c #72BF6A",
"4  c #7AA578",
"5  c #6FC26F",
"6  c #76C36B",
"7  c #7ED06C",
"8  c #6FC270",
"9  c #70C371",
"0  c #77CA72",
"q  c #8F8D42",
"w  c #928F42",
"e  c #8E9645",
"r  c #96924B",
"t  c #AF8A5D",
"y  c #B48453",
"u  c #81BA4F",
"i  c #84B454",
"p  c #82BC54",
"a  c #81B759",
"s  c #83B95B",
"d  c #89BC5E",
"f  c #89B252",
"g  c #A6A652",
"h  c #86BB60",
"j  c #8BBC62",
"k  c #8EBE6A",
"l  c #80BE69",
"z  c #97BA60",
"x  c #92BE6B",
"c  c #9EBB66",
"v  c #A2BD6D",
"b  c #B9BA67",
"n  c #BCBB68",
"m  c #B4B965",
"M  c #D7985B",
"N  c #C58A4E",
"B  c #DF9F61",
"V  c #C2BC67",
"C  c #C5BA6A",
"Z  c #C9BF6A",
"A  c #D2BA7E",
"S  c #EDAC6B",
"D  c #E7A666",
"F  c #F1AD6C",
"G  c #EEBE7E",
"H  c #F8B571",
"J  c #F5BC75",
"K  c #FEBA76",
"L  c #FFBB78",
"P  c #F7BE7B",
"I  c #8CC25D",
"U  c #90C45E",
"Y  c #92CA5C",
"T  c #9AC55D",
"R  c #A3C85F",
"E  c #8EC262",
"W  c #8FC36A",
"Q  c #81CF6B",
"!  c #92C564",
"~  c #9EC161",
"^  c #94CC62",
"/  c #9ACE66",
"(  c #92C46A",
")  c #97C96C",
"_  c #9ACC6C",
"`  c #9CD06B",
"'  c #83CF7D",
"]  c #9DCB72",
"[  c #9AC772",
"{  c #9FD170",
"}  c #A5C964",
"|  c #A5C66F",
" . c #A5D577",
".. c #A6D579",
"X. c #A8D67A",
"o. c #A4D87A",
"O. c #B4C772",
"+. c #C3C467",
"@. c #C6C16A",
"#. c #007ABE",
"$. c #007FC3",
"%. c #359B8E",
"&. c #3C9C8B",
"*. c #399D93",
"=. c #3E9F98",
"-. c #409E84",
";. c #579F9C",
":. c #6B8898",
">. c #6B8797",
",. c #46A18F",
"<. c #4FAB8F",
"1. c #4AA691",
"2. c #739FA7",
"3. c #5AB3A1",
"4. c #78A1A5",
"5. c #72B594",
"6. c #78D7AF",
"7. c #74D7AB",
"8. c #6FD8B0",
"9. c #6FD7B2",
"0. c #70D9B1",
"q. c #79D8B0",
"w. c #78CCAB",
"e. c #0082C5",
"r. c #0087CB",
"t. c #0088CC",
"y. c #0097CE",
"u. c #009DD0",
"i. c #309FD6",
"p. c #00A4D1",
"a. c #00B6D4",
"s. c #41A7D8",
"d. c #01D9DA",
"f. c #00C6D6",
"g. c #11E7CD",
"h. c #12E9CD",
"j. c #19E9CF",
"k. c #1FE7C2",
"l. c #0CE9D0",
"z. c #00EEDE",
"x. c #0DECD9",
"c. c #10ECD3",
"v. c #01F0DE",
"b. c #28E6CA",
"n. c #20E7D0",
"m. c #21E8D3",
"M. c #35E3C8",
"N. c #4BE0C0",
"B. c #888886",
"V. c #888888",
"C. c gray53",
"Z. c #98B282",
"A. c #99A79A",
"S. c #B8AD8F",
"D. c #ABB09A",
"F. c #B1B39E",
"G. c #BCBC86",
"H. c #8CABAE",
"J. c #94B0B1",
"K. c #D8B485",
"L. c #EAB780",
"P. c #8ED98A",
"I. c #95D885",
"U. c #9ED09F",
"Y. c #A9CD9A",
"T. c #A7CC99",
"R. c #B8C993",
"E. c #94D1A4",
"W. c #D1C78C",
"Q. c #DBC385",
"!. c #C3C791",
"~. c #E0C285",
"^. c #FFCC98",
"/. c #FDD5AC",
"(. c #FFD1A0",
"). c #F6DEC2",
"_. c #FFE1C3",
"`. c #FEE8D1",
"'. c #EFF8FD",
"]. c white",
/* pixels */
"Y Y Y I a s I Y ^ ^  .o. .....X.( = = -  ...r X X X X . . X X X X X X X X e ^ ^ s s a s s s d Y Y Y s s s s s s I Y Y Y ",
"Y Y Y I a s I ^ ^ ^  .......X.X.E - = -  .X.r X X X X . X X X X . X X X X e ^ ^ p s s s s s I Y Y Y s s s s s s I Y Y Y ",
"Y Y Y d s s I ^ ^ ^  . .........W : = - X...r   X X X . X X X X . X X X X e ^ ^ s < < s s s I Y Y Y s s s s s s p Y Y I ",
"Y Y Y I h h I Y ^ ! .. ...` / / E , , , { / w   O # # + # + # # # # # O X e Y Y s s s s s s ! ` ` ` d s s I I I Y Y Y Y ",
"Y Y Y ! j j j Y Y Y .. .X./ Y Y E < s s ! ^ w   M K K K K K K K K K K N . e Y Y s s s s s s ( X...o.a s s I Y Y Y Y Y Y ",
"Y Y Y I j j U Y Y Y ....X./ Y Y I I s h ^ ^ g y D L L L L L K K L L L M y g Y Y s s s s s s ( o.X.o.s < s I Y Y Y Y Y Y ",
"Y Y Y U j j j I I I ) ) ) _ / / ! j j j I E @.L K K P L L L K L P L L L K V I I I I s I I E ! ` ` ` p I I I Y Y Y I I I ",
"Y Y Y d j j d s s s s s s ) ....] W k W s s Z L /.).H.2.L.L L K.4.J._.^.K b s s Y Y Y Y ^ Y Y Y Y Y Y Y Y Y Y Y I s s s ",
"Y Y Y I j j h s s s s a s ) X...] x x W j s C L `.'.i.t.K.L L S.t.s.].).K V s s Y Y Y ^ Y / Y Y Y Y Y Y Y Y Y Y I a s s ",
"Y I Y I j j h a s s s s s ) ....] x x x s a C L ^./.D.A.y % % t A.F./.^.L b s s Y Y Y Y / ^ ^ Y Y ^ T Y ^ Y Y Y I a s s ",
"= = = i s s s s s s ............] x x x s s V L K L L L O X X $ L L L L L +.Y Y I s s s s s ! o. . . .X. ./ Y Y I s s s ",
"= = = , s s s s s s ....X.......] x x k s s V L K H * + B D D M + % L L L +.Y Y s s s s s s ( o.X.X.o.X. ./ Y Y I s s s ",
"= = : i s s s s s s X.....X...X.] x x x s h V L K H + . S K K M X # L L L +.Y ! s s s s s s W o.X.o.....X./ Y Y I s s s ",
"I p p d j j s , < , ( ) ) ) / / ! d d d E I Z L L H + . # # $ O X $ L L L +.Y Y s s s E ] ) ( ! ) ! ) [ [ ) ! E I I I I ",
"Y Y Y U x ( h = = = j j j U Y Q 6 3 3 3 Q Q O.~.Q.K.$ o o o o o O * Q.~.~.O.Q Q 3 3 6 ' I.o.) < a s x x x k j j I Y Y Y ",
"Y Y Y Y x x s = = = j j j ! 7 k.h.g.g.g.h.j.j.n.n.b.A S F F F F F G.m.n.n.h.h.h.h.h.g.h.b.P.) a a a x x W j j j U Y Y Y ",
"Y Y Y U ! ! I u p p I I E I 0 l.v.z.z.z.z.v.z.z.z.x.T.!.P K L G !.E.z.z.z.z.z.z.z.z.z.v.l.P.j a s s j E j E E E I I I I ",
"Y Y Y Y Y Y Y Y Y Y Y Y Y d 3 l.v.z.z.z.z.z.z.z.z.z.z.z.W.K L R.x.z.z.z.z.z.z.z.z.z.z.z.l.3 < s s s s s < Y ^ ^ I s s s ",
"Y Y Y Y Y Y Y Y Y Y Y Y Y I 9 x.z.z.z.z.z.z.z.z.z.z.z.z.Y.W.W.E.z.z.z.z.z.z.z.z.z.z.z.z.l.5 s s s s s s 3 U ^ ^ E s s s ",
"Y T Y Y Y Y Y Y Y I Y Y Y I 3 l.z.z.z.z.z.z.z.z.z.z.z.z.z.z.z.z.z.z.z.z.z.z.z.z.z.z.z.z.l.9 s s s s s s s U ^ ^ ! s s s ",
"X.X.../ Y Y ` X.X...j j j s 9 l.z.z.z.z.z.z.z.z.v.z.z.z.z.z.z.z.z.z.z.z.z.z.z.z.z.z.z.z.c.P.` / ^ ^ Y ^ Y Y ^ ^ ^ ^ ^ ^ ",
" .X.../ Y Y ` X. . .j j j d 3 x.z.z.z.z.z.z.z.z.v.z.z.z.z.z.z.z.z.z.z.z.z.z.z.v.z.z.z.v.c.P.{ ^ ^ Y Y Y Y ^ ^ ^ ^ ^ ^ ^ ",
"X...o.` Y Y / ..X.X.d j j s Q 7.0.8.8.0.8.8.M.z.v.z.z.z.z.z.z.z.z.z.z.z.z.N.8.8.8.0.8.0.7.I.{ ^ ^ ^ Y Y U Y ^ E ^ ^ ^ ^ ",
"_ ` / I p p U ` ` ` U U U U z J L L L L L L 6.z.z.z.z.z.v.z.z.v.z.v.z.z.z.Y.L L K K K L J | ^ T Y Y Y Y ^ Y E I E E I I ",
"Y Y Y p , > p Y Y Y Y Y Y Y R J L L L L L L q.z.z.z.z.z.z.z.z.z.z.z.z.z.z.Y.L L L L L L J c I Y Y Y ^ ^ ^ I s s s s s s ",
"Y Y Y p , > p Y Y Y Y Y Y Y R J L L L L L L w.z.z.z.z.z.z.z.z.z.z.z.z.z.z.Y.L L K L L L J c I Y Y Y ^ ^ ^ I s s a s s s ",
"Y Y Y I p I I Y Y Y I E I Y } J L L L L L L 6.z.z.z.z.z.z.z.z.z.z.z.z.z.z.Y.L L L L L L J c z I I I ! I E ! ! ( ( s s s ",
"Y Y Y Y ^ ^ Y Y Y Y s s a I } J L L L L L L q.z.z.z.z.z.z.z.z.z.z.z.z.z.z.Y.L L L L L L J v j s s s s s s ) ..o.) s s s ",
"Y Y Y Y ^ ^ Y Y Y Y s s s I } J L L L L L L q.z.z.z.z.z.z.z.z.z.z.z.z.z.z.Y.L L L L L L J v j s s s s s s ) o.o.) s s s ",
"Y Y Y Y Y ^ ^ Y Y Y s s s E } J L L L L L L 6.z.z.z.z.z.z.z.z.z.z.z.z.z.z.Y.L L L L L L J v j a s s s s s ) X...) s s s ",
"s s s I Y Y `  ...o.s s s E } J L L L L L L q.z.z.z.z.z.z.z.z.z.z.z.z.z.z.Y.L L L L L L J f ; s s a s s s j j j ! Y Y Y ",
"s s a Y Y Y ` X.o.o.s s s U } J L L L L L L q.z.z.z.z.z.z.z.z.z.z.z.z.z.z.Y.L L K L L L J f , s s s s s s h j j d Y Y Y ",
"s s s I Y Y / ....o.s s s U } K L L K L L L q.v.v.v.z.z.z.z.z.z.z.v.z.z.z.Y.L L L L L L J f ; s s s s s s s j j E Y Y Y ",
"j k k E I I ) .. .o.I I I d ~ J L K L L L K w.d.d.d.d.d.d.d.d.d.d.d.z.z.z.Y.L L L L L L J z p s s s j d j I U I E E E E ",
"x x k j s s ( .. . .Y Y Y I z J K L L L L L 4.t.t.t.t.t.y.t.t.t.t.p.z.z.z.Y.L K L L L L J } E s s s j j j ! Y Y U j j j ",
"x x k h s s ( o... .Y Y Y I z J L L L L K L 4.t.t.t.t.t.t.t.t.t.t.y.f.d.v.Y.K K L L L L J } I s a s j j j I Y Y ! j j j ",
"[ [ [ W I E ! ) ) ) I Y I s z J K K K L L L 4.t.t.t.t.t.t.t.t.t.t.t.t.a.v.T.L L L L L L P R Y I I I ) ) ) Y Y Y I d d d ",
"..X.o.` ^ ! U s s s < a , < d m n O.+.+.b b ;.t.t.t.t.t.t.t.t.t.t.t.t.u.a.5.b b b b b +.O.T Y Y ^ /  ... ./ Y Y I s s s ",
"X.o.o.` Y ^ I s s s s a a s s s I Y Y Y s a =.t.t.t.t.t.t.t.t.t.t.t.t.t.t.,.s a s s s I Y Y Y / ^ ^ .. .X./ Y Y I s s s ",
"X.X. ._ ^ ^ E s s s a a s s s s I Y U Y s a *.r.t.t.t.t.t.t.t.t.t.t.t.t.t.,.a s s s s ! Y Y Y ^ ^ ^ o. . .` Y Y I s s s ",
"s s s E ^ / ! x ( k s s s U Y Y I a p a , > *.t.t.t.t.r.t.t.t.t.t.t.t.t.t.,.a a s s s ) X.X._ j d j ^ ^ ^ T Y Y ! j j j ",
"s s s I Y ^ ! x ( x s s s I Y Y I a a a > , *.t.t.r.t.r.t.t.t.t.t.t.t.t.t.,.a a s s s ) o.X.] j j j ^ ^ ^ ^ Y Y ! j j j ",
"s s s Y ^ ^ ! x x x s s s I Y Y I a s a , > *.t.t.t.r.r.t.t.t.t.t.t.t.t.t.,.s a s s s ) ..X._ j j j ^ ^ ^ Y Y Y U j j j ",
"s s s s p p E ] ] ] I U I I I I ( ) ( ) - > &.r.$.$.$.$.t.t.t.e.#.#.#.e.t.<.I I ) ) _ ) ( ! ! ! U ! ^ Y ^ Y E E s , < , ",
"s s s , = - j .. ...Y Y Y I < s ! ..o. .= = *.t.$.#.#.#.t.t.t.e.#.#.#.$.t.<.Y Y X... .) s s d Y Y Y ^ ^ Y E j j s = = = ",
"s s s , - = I ......Y Y Y I s s (  . ...= : %.t.r.r.r.r.t.t.t.t.r.r.r.r.t.<.Y Y X... .( s s I Y Y Y ^ ^ ^ x j j i = = = ",
"s s s < > > j ) ) ) ! ! ! E s E ) ......: , *.t.t.t.r.r.t.t.t.t.t.t.t.t.t.<.Y Y  . ...( s p d Y ^ Y ` _ / ( s s a ; > > ",
"s s < s s s s s s s x ( ( E Y Y _ ......s s ,.t.t.t.r.r.t.t.t.t.t.r.t.t.t.<.Y Y X... .! a a I Y ^ ! ......E > ; , a s s ",
"s s s s < s s s s h k k x ! Y Y / X.....s s =.t.t.t.t.t.t.t.t.t.t.t.t.t.t.<.Y Y ....X.( , a I ^ ^ ^ X.....E , > < a a a ",
"s s s s I < < s s s W k x ! Y Y ` X.....s s =.t.t.t.t.t.t.t.t.t.t.t.t.t.t.<.Y ! ......( a a d / / ^ X.o. .E , , , a a a ",
"Y Y Y I z d E < s s s s h ) X...] ( x x s s =.t.r.t.t.t.t.t.t.t.t.t.t.t.t.3.o. .d s s , = = a x x ( U Y Y I s s < = = = ",
"Y Y Y E j j d 3 s s s s s ) ..X.] x x x s s =.t.t.t.t.t.t.t.t.t.t.t.r.t.t.3.X.X.s s s > = = a x x x Y Y Y I s s < = = = ",
"Y Y Y E j j s s s s s s s ) ....] x x x h s =.t.t.t.t.t.t.t.t.t.t.t.r.t.t.3.X.o.s s s , = = a x x ( Y Y Y I < s < = = = ",
"Y Y Y / ) ] ) j j j s s s E ( ( j j j j , , *.t.t.t.t.r.t.t.t.t.t.t.t.t.t.1.s E < < , , = = , j j j Y Y Y I s s < , < , ",
"Y Y Y ` X.X.] ( k k s s s s s s s s s s = = %.t.t.t.t.t.t.t.t.t.t.t.t.t.t.&.- : > > , = = = > s s s Y I Y I s < s s a s ",
"Y Y E { X.X.] k W ( s s s s s < s s s s = = %.t.r.t.r.r.r.t.t.t.r.t.t.r.r.&.= : , > , = = = > h s s Y Y Y I s s s s s s ",
"Y Y Y I Y U ! ! ~ ( s s s s s s s d I I = = 2 :.:.:.:.:.:.:.:.:.>.>.>.>.:.4 I E < < , < p p p j j j _ ` / E s s s j j j ",
"Y Y Y p - - u Y Y Y s s s s s s I Y Y Y = - 1 t >.C.V.C.V.V.V.V.B.B.B.B.V.Z.o.o.s s s I T Y ! x x ( ..X.X.! s s j x x x ",
"Y Y Y < - - I Y Y Y s s s s s s p Y Y Y - = 1 B.V.V.V.V.V.V.V.V.V.V.B.B.V.Z.X.X.p s s I Y Y ! x x x X.X...( s s j x x x ",
"Y Y Y ; - - ; Y Y Y s s s s s s I Y Y Y - = 1 B.V.V.V.V.V.V.V.V.V.V.B.B.V.Z.X.X.s s s I Y Y ! x x c I.....( s s j x x x "
};
