/* XPM */
static char *player_right_601702917948[] = {
/* columns rows colors chars-per-pixel */
"60 60 120 2 ",
"   c #87541F",
".  c #875321",
"X  c #885422",
"o  c #8E5A28",
"O  c #905D28",
"+  c #9A6634",
"@  c #867C37",
"#  c #887B37",
"$  c #867D38",
"%  c #897F38",
"&  c #AB723A",
"*  c #71AE47",
"=  c #73AF4B",
"-  c #73B04B",
";  c #79B34F",
":  c #77AF50",
">  c #77B353",
",  c #7BB354",
"<  c #7EB65A",
"1  c #7DB85E",
"2  c #7BB662",
"3  c #7AB863",
"4  c #87843D",
"5  c #8D823B",
"6  c #8D8C3E",
"7  c #90833D",
"8  c #8F8D40",
"9  c #938544",
"0  c #81BA4F",
"q  c #81B757",
"w  c #83BC54",
"e  c #81B75A",
"r  c #83B95B",
"t  c #89BC5D",
"y  c #97BF5E",
"u  c #ACA557",
"i  c #85BB62",
"p  c #8BBC62",
"a  c #8FBE6A",
"s  c #92BB62",
"d  c #92BE6C",
"f  c #C78C50",
"g  c #CB8F51",
"h  c #CE9256",
"j  c #C1AE5F",
"k  c #E3A463",
"l  c #E8A765",
"z  c #ECAB6A",
"x  c #E5BB71",
"c  c #EABC73",
"v  c #F1BD75",
"b  c #FFBB76",
"n  c #FFBB78",
"m  c #87C057",
"M  c #86C05A",
"N  c #8CC25D",
"B  c #90C45E",
"V  c #92CA5C",
"C  c #9ACB5D",
"Z  c #8DC361",
"A  c #8DCA62",
"S  c #8FC16B",
"D  c #8BCE69",
"F  c #92C564",
"G  c #94CC62",
"H  c #9BCE65",
"J  c #92C46A",
"K  c #98C56A",
"L  c #97C96C",
"P  c #99CB6C",
"I  c #9CD16B",
"U  c #9AC772",
"Y  c #93CB70",
"T  c #9DCB72",
"R  c #9FD170",
"E  c #9DD37D",
"W  c #9CD87E",
"Q  c #A1CA63",
"!  c #A5D577",
"~  c #A6D579",
"^  c #A8D57A",
"/  c #C4C369",
"(  c #CDC36A",
")  c #ECC278",
"_  c #1C93B6",
"`  c #1F98B7",
"'  c #1E96BB",
"]  c #2497B4",
"[  c #2399BB",
"{  c #5B9096",
"}  c #72968A",
"|  c #6B8898",
" . c #74A399",
".. c #7BA99C",
"X. c #4C87A5",
"o. c #528AA5",
"O. c #709FA7",
"+. c #71A0A8",
"@. c #39DDB8",
"#. c #38E2BD",
"$. c #79D7A5",
"%. c #7CD8A5",
"&. c #6FD8B0",
"*. c #70D9B1",
"=. c #0087CC",
"-. c #0088CC",
";. c #1FE6C3",
":. c #1CE8C5",
">. c #1FEBCA",
",. c #00EEDE",
"<. c #23E9C8",
"1. c #20E7D0",
"2. c #21E8D1",
"3. c #878785",
"4. c #888886",
"5. c #84888B",
"6. c #888888",
"7. c #869180",
"8. c #8B9581",
"9. c #E1C283",
/* pixels */
"V V V N r r N G G H ! ! ! ! ~ ~ L - * - ! ! 9 X X X X . X X X X X X X X X 6 G G r r r r r r N V V V r q r r r r m V V V ",
"V V V m r r N G G G ! ! ~ ~ ~ ~ S * = - ! ^ 9 X X X X X X X X X X X X X X 8 G G q q 1 r r r t V V V t r r r r r N V V V ",
"V V V t r r N G G G E ~ ~ ^ ! ~ S = = = ^ ! 9 X X X X X X X X X X X X X X 8 G G r q r q r r N V V V t q q r r r m V V V ",
"V V V N t i N V V G ! ! ~ R H H Z > < < I I 5 X X X X X X X X . X X X X X 8 V V r r r q r q F I R I r r r N N N N V V V ",
"V V V F p p p V V V ^ ~ ~ H V V N 1 r r G G 5 X X . X X . X X X X X X X X 6 V V r r r r 1 q J ^ ~ ~ r q r N V V V V V V ",
"V V V Z p p y V V V ! ! ~ H V V N r r r G G 5 . X X X . X . X X X X X   X 6 V V r r r r r r J ^ ~ ~ r r r N V V V V V V ",
"V V V Z p p p N N N L L L P I H G p p p N F 5 . X X X X X X X . X X X X X 6 N N N M Z N Z N J I R R r m M V V V V N N N ",
"V V V N i p t q r r r q r L ^ ~ T J d d r r @   X X X X X X X + g g g & X 4 r r V V V V G G V V V V V V V V V V N q t r ",
"V V V t p p r r r r r e r L ^ ! P a d S r r $ X . . X X X X X & n n n f . 4 r r V V V V G G V V V V V V V V V V N r r r ",
"V V V N p a r r r r r r r Y ^ ^ T d d d r r # X X X   X X X X & n n n l g u r q A V V G G G C V V V V V V V V V N r r r ",
"= = * , r r r r r r ^ ^ ! ! ^ ^ T d d a i r $ X X X X X X X   & n n n n n ( V V r r t q q r J ~ ^ ~ ^ ^ ! H V V t r r r ",
"* = = , r r r r r r ~ ~ ^ ^ ! ^ T d d d r r $ X X . X X X o l z b n n n n ( V G r r r r r r A ^ ! ^ ~ ^ ! H V V N r r r ",
"= = : q r w e r r r ~ ~ ~ ~ ^ ^ T d d d r r $ X o X X X X O n n n n n n n ( V V r r r r r r K ! ~ ~ ! ! ^ H V V N q r r ",
"m w m t p p r , , , K K L L H H F t t p Z N j k k k k k k k n n n b n n n ( V V r r r J L Y L S L G T U U J F Z N N N N ",
"V V V F d J i = = = p s p Z V V N r r q V V ( v ) v 9.9.9.9.9.9.9.9.v c v / V V t r r H ! ~ P , < r J d d a i p B V V V ",
"V C V B d d r = : = p t p F V V N q r r V V C Q Q H #.1.2.2.2.2.1.@.s s y C V V r r r L ^ ^ K r < r d d S a p p N V V V ",
"V V C B F F N w w w N N N N N N r , q , N V N A G D :.,.,.,.,.,.,.:.M N m m m t w r r Z P P d r r r p Z p Z Z Z N N N N ",
"V V V V V V V V V V V V V t r r q > , , r r r Z V D :.,.,.,.,.,.,.#.D V m * = - q r r e r r r r r r r r r V G G Z r r r ",
"V V V V V V V V V V V V V N r r < > > , q r r N G D :.,.,.,.,.,.,.:.A V m - * : , e r r e r r r r r q r r Z G G N r r r ",
"V V V V V V V V B V V V V N r r r , , , r t r N G D :.,.,.,.,.,.,.:.A V w * - - r e r r t r r r r r t r r Z G G Z t r r ",
"! ^ ! H V V I ! ! ^ p p t t r r r q r i - = - J ~ W <.,.,.,.,.,.,.<.W ^ I V V V p p p P ~ ~ R G G G V G V V G A G G G G ",
"^ ^ ^ H V V I ! ! ^ p p a i r r r r r r = = - J ^ W >.,.,.,.,.,.,.<.~ ^ I V V V p p p T ~ ~ R G G G V V V G G G G G G G ",
"~ ~ ^ H V V I ! ^ ^ p p i r r q r r r r = - * J ^ ~ $.&.*.&.*.*.&.%.^ ^ I V V V t p p P ~ ~ T G G G V V V V G G G G G G ",
"I H I Z w w N P I I B N V N F N t r r r J J A J S K c b n n n b b x J J G V V V t r r a K J G G V G V V G Z Z N p N Z N ",
"G V V r > , w V V V V V V V V V Z r r r ! ^ ! J r t x b n n n b n x r r t V V V r e r r t p N V V V G G G N r r r r r r ",
"V V V w > > w V V V V V V V V V N r r t ! ~ ! L r t c b n n n n n x r r N V V V r q r t p p B V V V G G G M r r r r r r ",
"V V V m r w V V V V N N m V V A A q r r P L P J Z B c b b n n n n x t e t V V V e e q i a p p N N N Z N N S L A Z r r r ",
"V V V V G V V V V V r r r V G V Z r r r r q q Z G H c b n n n n n c e q N V V V r e r p d d a r r r r r r L ! ^ L t r r ",
"V V V G G G V V V G r r 1 N G G Z r r r r r r A V H c n n n n b n x r r r V V V e e e p d d a r r r r r q Y ^ ^ Y r r r ",
"V V V G G G V C V V r r r V G G N r r r r r r Z C H c n n n n n n x r r N V V F e e r p d d i q r r r r r P ! ^ P r r r ",
"r r r N V V I ! ! ! r r r V G G G G G G r r q t p s c n n n n n n ) ^ ~ L q r r d a a < * - > t r r r r t i p p p V V V ",
"r r q N V V I ^ ~ ~ r r 1 Z G G G G G G r r r p p s c n n b n n n ) ^ ^ P q r r d d d e * * > t r q r q q i p p Z V V V ",
"r q r N V V H ^ ! ! r r r N G G G G G G r q r t p s c n n n n n n ) ^ ~ L t t r d d d r * = , r r r q q r t a p Z V V V ",
"Z a p Z N N L ! ~ ! N N Z Z M N N N M Z N Z N t t p c b n n n n n c K J p , , q r p p t w N w r r i p p p N B Z N N Z Z ",
"d d S p r r J ^ ^ ! V V V N r r r r r r V V V N r t c b n n n n n x i r e > : , r e r N G G N r r r p p p Z V V B p p p ",
"d d a i r r J ^ ~ ! A V V N r r r r r r V V V m r t x b n n n n n x r r e , , , r r r F G G Z r r r p i p N V V F p p p ",
"U U Y J N p A L Y P N N N r q t t N m t N N t t r p x n n n n n n c K J p , , , r r r N V V G N Z M K L K G V V N t t t ",
"~ ~ ~ I G G Z r t q < r < r r q m V V V e w q r r r  .O.O.O.O.O.+.+.~ ~ P r r r r r r N V V V G G H ! ~ ! H V V N r r r ",
"~ ~ ~ I G G N q q t q r 1 r r r m V V V e q e r r 2 _ =.=.=.=.=.-.[ ! ^ L r q r r q r N V V V G G G ! ! ~ H V V N e r r ",
"~ ^ ~ I G G F r t q r q q r r r t V V V r q e e r 2 _ =.=.=.=.=.-.] E ! L q r < r r q N G V G G G G ! ^ ^ H V V N r t e ",
"t r t B G G G d a S r r r N V V N q w q > > , e 2 2 _ =.-.=.-.-.-.` A V t e , r t q r P ^ ~ P p p t H G G V V V F p p p ",
"r r q Z G G F d J d t r r Z V V N r r < , > ; e r 2 _ =.=.-.-.-.-.] N V N e r q r r t L ! ^ Y p p p V G G G V V F p p p ",
"q r q A G G J d d d r r r N V V N w q q > , > e r 2 _ =.-.-.=.-.-.` A V m w w r r r r L ~ ~ T p p p G G G V V V B p p p ",
"r r r q w w N T T T N N N N N N J L L L : : : w N i ' -.-.-.-.-.=._ p Z N N N N P L T J F K G B F N G G G G Z N t , , , ",
"r r r > * - p ^ ! ~ V V V M r r J ! ! ! - * * m V Z _ -.-.-.-.-.-._ i p F V V V ~ ! ^ J r r t V V V G G V F p p r = = * ",
"r r t > = = Z ! ~ ! V V V m r r S ! E ^ * - - m V Z ' -.-.-.=.-.-.` i p N V V V ^ ! ^ J r r N V V V V G G d p p e = * = ",
"r r r < > , i L P L B F J Z t Z L ! ^ ^ , > > N I L ' -.-.-.-.-.=._ p S N V V V ! ^ ^ A r q t V G G I P P F r r r : : , ",
"r r q q r r r q t r d d d A V V H ^ ! ^ r r < P ^ E ' -.-.-.-.-.-.` V V V V V G ~ ! ^ F r q N V G G ! ^ ^ Z : ; , e e r ",
"r r q r r r r r r i a a d J V V H ^ ^ ! q r r Y ^ E _ =.=.=.-.-.-.` Z V V V V V ^ ! ~ J < q N G G H ~ ~ ^ Z > > q r e e ",
"r r r t r r r r r r S a J F V V I ^ ^ ^ r r r L E E [ =.=.=.-.-.=.` N V V V V V ^ ^ ! S r q t G H G ^ ~ ! Z , , , r e e ",
"V A V N p p i r r r r r r L ^ ^ Y d d d r r r t i 2 _ =.=.=.=.=.=.` 1 r S ~ ! ! p q t , : = 1 d d J B V V N r r q = = = ",
"V V V Z p p t r r r r r r L ^ ^ T d d d r r r r e 2 _ =.=.=.=.=.=._ 2 r J ~ ~ ~ r q e , - * r d d a V V V N r r , : = = ",
"V V V Z i a t q r r r r r L ^ ~ T d d J i r r r r 2 _ =.-.-.-.-.-._ 1 r J ^ ~ ~ r r r , = = e d d d V V V N q r , = = = ",
"V V V H P Y J a p p r r r Z J J S p p p , , > < r 2 _ =.-.-.-.-.-.` i N N M i Z e 1 , : = = , p p i V V V N r r < , < , ",
"V V V I ^ ^ T J d a t q r q r r q r r r = * = , r e { o.o.o.-.-.-.` D G m = * > , : : : = = , r r r V V V N r r r r r r ",
"V V V I ^ ^ T d S J r 1 t r q r r r r r : = = , r i 7.6.6.5.=.-.-.] A G M = = = , , : = = * : r r r V V V N r < r r r r ",
"V V V Z B G G F s J e r r r r r r N r m = = = w t p 8.6.6.6.| | | | s G N p p Z > < , w 0 w q p p a H H H Z q r r p p p ",
"V V V , ; - w V V V r r r q r r N V V V = * - m G G 8.6.6.6.6.6.3.d B V H ^ ! ~ r r r N V V G d d J ^ ^ ^ J r r i J d d ",
"V V V w * - m V V V t e r r r r m V V V - = - m G G 8.6.6.6.6.6.6.3.B V H ^ ^ ^ r r r N V V J d d d ~ ~ ! J r r p d d d ",
"V G V ; * * ; V V V r r r r r r N V V V - * - w G F 8.6.6.6.6.6.6.d B C K ^ ^ E r r r N V V F K d d ~ ~ ^ S r i p d d d "
};
