/* XPM */
static char *_5702_8723474fcbf09dae627e94da30470adcc1da7c25b6f36dff88baa8188216fba6[] = {
/* columns rows colors chars-per-pixel */
"60 60 170 2 ",
"   c #060807",
".  c #080806",
"X  c #0C0C0C",
"o  c #060606",
"O  c #180F08",
"+  c #0F160E",
"@  c #12130E",
"#  c #191009",
"$  c #121B0F",
"%  c #0D0E10",
"&  c #190D1B",
"*  c #121212",
"=  c #161B12",
"-  c #191C14",
";  c #1E141D",
":  c #201408",
">  c #0B2F03",
",  c #083305",
"<  c #1D2416",
"1  c #1D2817",
"2  c #1E2519",
"3  c #1D2818",
"4  c #3F270D",
"5  c #33240F",
"6  c #34370C",
"7  c #21261B",
"8  c #222C1B",
"9  c #26321E",
"0  c #29371E",
"q  c #1F1820",
"w  c #231924",
"e  c #281C26",
"r  c #261828",
"t  c #301E34",
"y  c #242021",
"u  c #2D3A21",
"i  c #303E22",
"p  c #4E3213",
"a  c #523212",
"s  c #593B14",
"d  c #074305",
"f  c #084404",
"g  c #0E5603",
"h  c #105A03",
"j  c #115408",
"k  c #1D6614",
"l  c #227317",
"z  c #2D4022",
"x  c #324325",
"c  c #364929",
"v  c #394B29",
"b  c #384B27",
"n  c #3D542B",
"m  c #3F5D2B",
"M  c #377D27",
"N  c #5A4412",
"B  c #544410",
"V  c #674015",
"C  c #694216",
"Z  c #6A4419",
"A  c #62451B",
"S  c #415C2E",
"D  c #42572C",
"F  c #415031",
"G  c #445A32",
"H  c #485E36",
"J  c #45652D",
"K  c #49642F",
"L  c #536E29",
"P  c #4A6535",
"I  c #4A6336",
"U  c #526F37",
"Y  c #516B3C",
"T  c #527236",
"R  c #54733A",
"E  c #567A3B",
"W  c #527D35",
"Q  c #60652F",
"!  c #69692D",
"~  c #4D1E55",
"^  c #402943",
"/  c #512558",
"(  c #4B3250",
")  c #587242",
"_  c #5B843B",
"`  c #59883A",
"'  c #618D3E",
"]  c #62943F",
"[  c #5A8140",
"{  c #628644",
"}  c #648C44",
"|  c #658E48",
" . c #6A8A4D",
".. c #639742",
"X. c #6D9648",
"o. c #6D9A4B",
"O. c #679543",
"+. c #749E4D",
"@. c #6D8A50",
"#. c #739754",
"$. c #74AE47",
"%. c #75A34E",
"&. c #73AE4B",
"*. c #7CAB4D",
"=. c #75B14C",
"-. c #79B34F",
";. c #7FB84F",
":. c #76A353",
">. c #76AB52",
",. c #7EAE54",
"<. c #7FAC59",
"1. c #77B352",
"2. c #7BB354",
"3. c #7EB952",
"4. c #7FB459",
"5. c #81AF53",
"6. c #81A75C",
"7. c #82AF5C",
"8. c #82B556",
"9. c #82BA55",
"0. c #89BE55",
"q. c #81B75A",
"w. c #83B95B",
"e. c #88BE5D",
"r. c #8EAD6F",
"t. c #86B360",
"y. c #89B463",
"u. c #86BA60",
"i. c #8BBC62",
"p. c #8BB168",
"a. c #8EBE6A",
"s. c #90BF61",
"d. c #91BE6B",
"f. c #96AC76",
"g. c #96A878",
"h. c #87C057",
"j. c #89C256",
"k. c #8DC45C",
"l. c #91C65D",
"z. c #92CA5C",
"x. c #8EC262",
"c. c #8FC861",
"v. c #8EC06B",
"b. c #92C464",
"n. c #94CC61",
"m. c #99CE65",
"M. c #93C36B",
"N. c #9AC46D",
"B. c #95C86A",
"V. c #9ACC6E",
"C. c #9CD16C",
"Z. c #97C772",
"A. c #99C671",
"S. c #9CCD71",
"D. c #9FD173",
"F. c #A0D26F",
"G. c #A0CF74",
"H. c #A3D476",
"J. c #A5D579",
"K. c #A8D67B",
"L. c #8A2D98",
"P. c #A72CBB",
"I. c #815785",
"U. c #A44EB3",
"Y. c #9965A3",
"T. c #BB40CF",
"R. c #C27DCD",
"E. c #A49C91",
"W. c #9CA384",
"Q. c #B59FA1",
/* pixels */
"z.z.z.e.q.q.k.n.n.n.J.J.J.J.J.J.B.&.&.&.H.J.J.N.M.d.a.9.q.e.k.m.n.3.=.$.3.z.n.n.4.4.w.w.w.w.h.z.z.z.q.q.w.q.w.e.h.z.z.z.",
"z.z.z.e.q.q.e.n.n.n.J.J.J.J.J.J.B.=.&.&.J.J.H.A.d.d.a.q.w.e.z.n.n.9.&.&.3.n.n.n.q.q.4.w.w.w.i.z.z.z.e.w.w.w.w.q.h.z.z.z.",
"z.z.z.e.w.q.h.n.n.m.J.J.J.H.J.J.B.&.&.&.J.J.J.N.d.d.a.q.w.e.c.n.z.3.&.&.3.n.n.n.q.3.w.4.w.w.k.z.z.z.q.q.q.q.w.w.h.z.z.z.",
"z.z.z.k.u.u.x.n.n.z.J.J.J.C.m.m.c.4.2.1.m.C.C.V.G.S.B.e.4.w.n.n.n.j.j.j.z.z.z.n.w.w.w.w.q.q.x.D.D.C.e.w.w.k.k.k.k.z.z.z.",
"z.z.z.i.i.y.k.z.z.z.H.J.J.m.z.z.k.4.w.w.n.n.m.H.J.J.S.w.w.w.n.n.n.z.z.z.z.z.z.z.w.w.w.q.w.w.x.K.J.J.h.w.w.k.z.z.z.z.z.z.",
"z.z.z.b.i.i.x.z.z.n.H.J.K.m.z.z.k.w.w.e.n.n.z.D.J.J.V.q.w.u.n.n.n.z.z.z.z.z.z.z.w.q.w.w.w.w.x.K.J.D.u.4.w.k.z.z.z.z.z.z.",
"z.z.z.s.e.i.i.k.k.k.V.S.V.m.m.m.n.y.i.y.c.c.k.B.S.S.M.e.e.u.c.c.b.k.k.k.z.k.k.k.j.e.e.e.h.h.b.D.D.C.h.x.h.k.z.z.z.k.k.k.",
"z.z.z.i.i.i.i.w.w.w.w.w.q.S.J.J.S.M.v.M.w.q.w.w.w.4.e.i.y.i.i.i.i.e.w.w.9.q.w.q.n.z.z.n.b.m.n.z.z.z.z.z.z.z.z.z.k.w.q.w.",
"z.z.z.e.i.i.e.q.w.w.w.w.w.S.J.H.G.d.d.d.e.w.q.o.G m n G G G G G I :.w.q.q.w.q.9.Q.b.z.n.n.n.n.z.z.z.z.z.z.z.z.z.k.w.w.w.",
"z.z.j.s.i.y.u.w.w.w.e.u.k.V.J.J.G.d.d.M.q.w.w.3 * * * * * * * * * 3 <.q.q.e.0.w.b.k.z.z.z.n.n.z.n.z.z.m.z.z.z.z.k.w.w.w.",
"=.&.-.9.q.e.w.w.q.e.S.H.H.H.J.J.G.d.d.d.u.q.:.* * * * * * * * * * . m =.3.z.k.z.w.w.w.e.e.w.x.H.H.H.K.H.H.m.z.z.k.q.w.w.",
"&.$.$.9.w.w.w.w.w.i.H.J.J.J.J.J.G.d.d.d.w.w.o.* * * * * * * * * +   = ..3.z.z.z.w.w.w.w.w.w.v.J.K.K.J.K.H.m.z.z.k.w.w.w.",
"&.&.&.4.q.q.w.w.w.u.H.H.J.J.J.J.G.d.d.d.w.w.o.* * * * * * * * * % X $ ] 9.z.z.l.w.w.w.w.4.w.x.J.K.J.J.J.K.m.z.z.k.w.q.w.",
"j.j.0.i.i.a.w.1.2.2.b.M.B.B.m.m.n.u.u.u.c.k.%.% * * * * * * * * *   < o.w.z.z.n.w.w.e.b.S.S.V.b.x.a.B.A.A.b.x.x.k.k.z.k.",
"z.z.z.b.d.a.e.&.&.1.u.i.y.b.z.z.k.q.q.9.z.z.*.r t t * * * ^ ( / ~ X = :.0.z.z.z.q.e.q.S.J.J.S.4.8.q.a.d.d.a.i.i.k.z.z.z.",
"z.z.z.b.d.d.u.&.&.=.y.e.i.l.z.z.d.f.q.q.z.z.j.I.U.L.* * * Y.R.T.P.& < +.0.z.z.z.q.q.w.V.J.K.V.w.q.w.a.d.d.y.i.i.i.z.z.z.",
"z.z.z.l.d.b.e.9.3.3.k.x.i.k.k.k.0.4.8.8.k.k.k.y w ; * * * q r w ; . - *.0.j.j.0.w.w.w.M.V.V.b.4.4.u.i.x.y.x.c.x.x.k.z.k.",
"z.z.z.z.z.z.z.z.z.z.z.z.z.e.e.w.q.2.1.2.w.w.q.z * * * * * * * * * X x 0.h.&.&.&.q.q.q.9.w.w.w.w.w.4.w.w.w.c.n.n.c.w.w.q.",
"z.z.z.z.z.z.z.z.z.z.z.z.z.e.w.w.4.2.,.1.w.w.q.I * * * * * * % * 7 i 0.z.h.&.$.&.q.t.w.w.w.w.w.w.w.w.w.w.w.c.n.n.k.w.w.w.",
"z.z.z.z.z.z.z.z.l.z.z.z.z.e.q.w.4.1.2.2.w.w.w.2.R R P = . X . K 8.z.z.l.h.=.=.&.q.r.r.w.e.q.w.e.w.w.w.w.w.k.n.n.k.w.w.w.",
"H.J.H.m.z.z.m.K.J.H.i.i.u.e.q.w.w.q.4.w.&.>.=.B.J.J.y.- * * % * | H.J.J.C.z.z.z.i.i.i.D.J.J.C.m.n.n.c.z.z.z.n.n.n.n.z.m.",
"J.J.J.m.z.z.m.K.J.H.i.i.x.u.w.w.w.w.w.w.$.&.=.Z.H.J.@.* * * X * x S.J.K.D.z.c.z.i.i.y.S.J.J.D.n.n.n.z.z.z.n.n.n.n.n.n.n.",
"J.J.J.m.z.z.m.J.J.G.a.e.u.w.w.9.w.w.w.w.&.&.&.B.J.J.F * * * X 8 = <.J.J.C.z.z.z.e.y.i.S.J.J.D.n.n.n.z.z.z.c.n.n.n.c.n.n.",
"m.m.m.k.9.q.j.m.m.m.l.z.k.z.k.k.k.q.w.w.B.B.B.c.b.i.- * * * . ' - Y b.x.c.z.z.k.e.q.w.x.M.Z.b.z.z.n.n.n.n.k.e.x.h.e.x.h.",
"z.z.z.4.2.2.9.z.z.z.z.z.z.z.z.z.z.w.w.4.J.J.J.x.w.o.% * * * X ..m u 4.u.h.z.z.z.q.q.8.e.i.i.x.z.z.z.n.n.n.k.w.4.q.w.q.q.",
"z.z.z.3.1.1.9.z.z.z.z.z.z.z.z.z.k.w.w.w.J.J.J.v.w.T * * * * % W ` * :.4.h.z.z.z.q.q.4.e.y.e.x.z.z.z.n.n.n.h.w.w.e.q.e.q.",
"z.z.z.h.3.h.h.z.z.z.z.k.h.z.n.z.c.4.w.w.V.V.4.l k j d d , + X T &.2 R w.h.z.z.z.4.q.q.i.i.a.x.k.z.k.z.c.c.x.c.v.i.w.w.w.",
"z.z.z.z.n.n.z.z.z.z.w.w.4.c.n.n.c.w.w.w.w.4.M g g g g d > + X n w.z c w.e.n.z.z.q.q.8.i.d.d.a.q.4.w.4.w.w.V.K.K.S.q.w.w.",
"z.z.z.z.n.n.n.z.z.z.w.w.w.k.n.n.c.w.w.w.w.w.L N N N B 6 5 @ X z w.I 8 :.e.z.z.z.q.q.q.a.a.d.a.q.w.w.w.w.w.V.J.J.S.q.q.q.",
"z.z.z.z.n.n.z.n.n.z.w.4.w.k.n.n.c.w.w.w.q.e.! Z Z V Z a O X * 3 4.{ = { h.k.z.z.q.q.4.e.a.a.i.9.w.w.w.w.w.V.D.D.V.e.u.e.",
"w.w.e.k.z.z.m.J.J.D.u.y.w.c.n.n.n.c.n.n.w.q.! C C Z Z p O * + . $.<.*  .V.e.w.u.a.a.d.4.&.=.2.w.w.4.q.w.w.i.v.a.s.l.z.z.",
"w.w.q.z.z.z.m.J.J.H.f.E.w.c.n.n.n.n.n.n.w.q.! Z C V Z p : * % . ..M.* @.S.q.e.q.d.d.a.4.&.&.1.w.w.w.w.w.w.u.i.i.e.z.z.l.",
"w.w.w.c.z.z.m.J.J.D.w.w.q.x.n.n.c.n.n.c.w.w.L s V s s p # X * o ` :.*  .S.w.w.e.a.d.d.4.&.&.1.q.w.q.q.q.w.e.i.i.e.z.z.z.",
"i.i.y.x.k.e.M.J.J.H.c.k.z.h.h.x.x.h.x.h.k.c.+.< - - u % * X * X n G 7 #.u.3.2.2.e.u.e.e.j.k.e.w.w.w.i.u.i.k.b.l.l.i.i.x.",
"d.d.v.u.e.q.a.J.J.H.z.z.k.x.4.u.w.w.q.w.z.z.z.%.{ :.[ * * * X % * * v e.q.2.-.>.e.w.w.x.n.n.c.q.w.e.i.i.i.l.z.z.l.i.i.i.",
"d.M.v.u.q.q.x.J.J.J.n.z.z.k.w.4.w.w.w.4.z.z.z.w.e.q.<.< $ E < o 3 8 } q.2.2.2.2.q.q.w.c.n.n.c.w.q.q.i.i.i.k.z.z.l.i.i.i.",
"A.A.Z.x.h.x.x.S.S.C.c.k.k.h.4.u.e.e.0.e.j.z.k.e.q.q.8.8 7 z.0 . } i.b.b.i.4.2.4.w.q.q.z.z.n.z.e.k.e.M.M.M.l.z.z.l.w.w.e.",
"J.J.D.C.c.n.c.e.w.w.4.w.3.w.w.4.e.z.z.z.q.4.4.e.w.w.q.8 < k.0 X | S.J.K.S.4.q.q.w.w.q.k.z.z.z.n.n.m.H.J.J.n.z.z.k.w.w.w.",
"J.J.J.C.n.z.c.q.4.w.4.4.4.4.w.w.e.z.z.N.p.w.q.q.w.w.2.8 < z.0 + T S.H.J.S.q.q.q.w.w.q.k.z.z.z.n.n.m.H.H.J.m.z.z.k.w.q.w.",
"J.J.J.C.n.n.b.w.w.w.h.4.w.h.4.u.e.z.z.b.u.4.q.w.w.w.4.8 7 z.0 @ P V.J.H.V.q.q.q.e.q.w.k.z.z.n.n.n.m.J.J.H.m.z.z.k.w.w.w.",
"q.e.e.k.n.n.b.d.v.v.w.q.w.k.z.z.z.4.4.q.2.1.2.4.w.w.q.7 2 n.H * Y b.z.z.k.9.q.q.w.w.e.V.H.H.D.e.u.i.m.n.n.z.z.z.k.i.i.i.",
"w.q.q.b.n.z.m.d.d.v.q.e.w.k.z.z.k.4.q.q.1.2.1.q.w.w.w.u 2 n.H * I c.z.z.k.q.q.q.u.q.q.S.J.J.S.i.i.i.z.n.n.z.z.z.l.i.i.i.",
"w.w.w.c.n.n.b.d.d.a.e.q.4.k.z.z.k.4.4.4.1.2.1.4.w.w.0.v 2 n.H * x b.z.z.k.2.q.q.W.g.q.V.J.J.S.a.i.i.n.n.n.z.z.z.l.i.i.i.",
"w.w.q.9.9.3.x.D.H.S.k.k.k.k.k.h.c.V.D.V.1.&.>.0.l.k.k.c - e.R * i e.x.x.k.k.k.k.V.A.S.M.b.x.b.l.c.z.n.n.n.c.x.x.e.4.2.2.",
"w.w.w.1.&.&.w.J.J.H.z.z.z.h.w.w.b.J.J.J.=.&.&.j.z.z.k.x 2 q.[ * 7 q.i.i.s.z.z.z.H.J.J.M.w.q.e.z.z.z.m.n.z.a.y.i.w.$.&.&.",
"w.w.q.-.&.&.w.J.H.J.n.z.z.e.w.q.x.J.J.J.&.&.$.j.z.z.k.x 3 q.| * < q.y.a.b.z.z.z.J.J.K.x.w.w.0.z.z.z.n.n.n.c.i.i.q.$.&.&.",
"q.q.w.2.2.=.q.S.S.S.n.b.b.k.e.h.B.J.J.J.1.-.2.k.m.m.l.x = 5.7.* 7 w.k.i.l.z.z.z.H.K.J.x.w.w.h.n.z.z.m.C.C.k.e.u.4.-.&.>.",
"w.e.q.e.w.q.e.w.q.w.a.a.M.b.z.z.m.J.J.J.q.q.e.V.K.J.F.b * 8.M.* = w.z.z.z.z.z.z.J.K.K.x.4.q.e.n.n.m.H.J.K.u.1.2.2.q.q.4.",
"w.w.q.q.w.w.w.w.q.u.a.a.d.b.z.z.m.K.K.J.q.w.w.A.J.J.H.T * 5.J.7 * 5.z.z.z.z.z.z.J.J.K.x.4.4.e.n.n.m.J.J.J.i.2.1.2.q.e.q.",
"w.e.e.e.w.w.w.w.w.u.a.a.M.b.l.n.m.H.H.K.w.w.w.V.D.D.C.T * } H.7 * } z.z.z.z.z.z.J.D.D.x.4.q.e.n.b.n.H.H.H.e.2.2.4.q.4.q.",
"k.z.z.e.i.u.u.w.q.w.u.w.e.S.H.J.S.d.d.M.q.w.w.e.e.e.q.K * E i.u * E e.w.i.H.J.H.e.u.e.2.1.=.2.M.M.M.n.n.z.e.w.w.4.&.=.=.",
"z.z.z.x.i.i.u.w.w.w.q.w.q.S.J.J.G.d.d.d.e.w.w.q.w.w.2.J * J i.c % R 8.8.b.J.K.K.w.w.q.2.=.&.2.M.v.M.l.z.z.e.q.e.2.&.=.&.",
"z.z.z.x.i.y.u.w.w.w.w.w.w.S.K.K.G.d.a.M.q.q.w.w.w.w.2.` * n u.v * G w.4.a.J.J.K.e.4.w.-.&.&.3.d.d.a.z.z.z.h.q.w.4.=.=.=.",
"z.z.z.m.S.S.B.x.i.i.w.e.w.x.b.x.x.u.i.i.,.2.1.4.w.q.e.| * n b.v * m c.k.k.w.w.e.4.4.2.>.&.&.2.i.u.i.z.z.z.e.w.w.4.4.2.2.",
"z.z.z.D.J.J.S.d.d.a.w.w.w.4.w.w.w.q.q.w.&.&.&.4.e.q.i.#.* i n.T - R n.n.h.&.&.>.2.1.2.&.&.&.1.q.w.e.k.z.z.e.q.e.w.w.w.w.",
"z.z.z.H.K.J.G.d.d.a.w.w.w.w.w.w.w.w.w.q.&.&.&.2.q.q.i.a.) #.c.z.X.j.n.b.k.=.&.&.1.2.>.&.&.&.2.w.q.w.z.z.z.h.w.q.w.w.q.w.",
"z.z.z.n.M.B.b.b.b.i.w.8.q.e.q.q.e.e.e.e.$.&.&.3.x.k.c.b.c.M.c.b.b.z.z.n.z.9.w.4.3.2.2.3.3.3.9.e.i.u.n.m.n.i.w.w.w.i.e.i.",
"z.z.z.3.$.&.9.z.z.z.e.w.q.w.w.w.e.z.z.z.$.&.&.h.n.c.n.b.n.n.i.a.i.b.z.z.m.J.K.J.h.u.w.k.z.z.b.d.M.Z.H.J.J.M.w.w.i.d.d.a.",
"z.z.z.3.&.&.;.z.z.z.w.w.w.w.w.w.q.z.z.z.$.&.&.k.n.n.n.n.n.n.x.i.i.b.z.z.m.J.J.J.w.w.w.k.z.z.c.d.d.d.J.J.J.b.q.q.u.d.d.d.",
"z.z.z.;.&.&.;.z.z.z.w.w.w.w.q.q.e.z.z.z.&.&.&.k.n.n.n.n.n.b.i.i.i.k.z.z.m.K.K.K.w.w.4.z.z.z.b.a.d.d.J.J.J.M.w.e.i.d.d.d."
};
