/* XPM */
static char *_0852_60b24fa95ef06684362f99facaafcb41caf4982a9fa0c64b8dd5e4fca7937391[] = {
/* columns rows colors chars-per-pixel */
"60 60 169 2 ",
"   c #060807",
".  c #080806",
"X  c #0C0C0C",
"o  c #060606",
"O  c #180F08",
"+  c #0F160E",
"@  c #12130E",
"#  c #191009",
"$  c #121B0F",
"%  c #0D0E10",
"&  c #190D1B",
"*  c #121212",
"=  c #161B12",
"-  c #191C14",
";  c #1E141D",
":  c #201408",
">  c #0B2F03",
",  c #083305",
"<  c #1D2416",
"1  c #1D2817",
"2  c #1E2519",
"3  c #1D2818",
"4  c #3F270D",
"5  c #33240F",
"6  c #34370C",
"7  c #21261B",
"8  c #222C1B",
"9  c #26321E",
"0  c #29371E",
"q  c #1F1820",
"w  c #231924",
"e  c #281C26",
"r  c #261828",
"t  c #301E34",
"y  c #242021",
"u  c #2D3A21",
"i  c #303E22",
"p  c #4E3213",
"a  c #523212",
"s  c #593B14",
"d  c #074305",
"f  c #084404",
"g  c #0E5603",
"h  c #105A03",
"j  c #115408",
"k  c #1D6614",
"l  c #227317",
"z  c #2D4022",
"x  c #324325",
"c  c #364A27",
"v  c #364929",
"b  c #394B29",
"n  c #3A4C26",
"m  c #3D542B",
"M  c #3F5D2B",
"N  c #377D27",
"B  c #5A4412",
"V  c #544410",
"C  c #674015",
"Z  c #694216",
"A  c #6A4419",
"S  c #62451B",
"D  c #415C2E",
"F  c #42572C",
"G  c #415031",
"H  c #445A32",
"J  c #485E36",
"K  c #45652D",
"L  c #49642F",
"P  c #536E29",
"I  c #4A6535",
"U  c #4A6336",
"Y  c #526F37",
"T  c #516B3C",
"R  c #527236",
"E  c #54733A",
"W  c #567A3B",
"Q  c #527D35",
"!  c #60652F",
"~  c #69692D",
"^  c #4D1E55",
"/  c #402943",
"(  c #512558",
")  c #4B3250",
"_  c #587242",
"`  c #5B843B",
"'  c #59883A",
"]  c #618D3E",
"[  c #62943F",
"{  c #5A8140",
"}  c #628644",
"|  c #648C44",
" . c #658E48",
".. c #6A8A4D",
"X. c #639742",
"o. c #6D9648",
"O. c #6D9A4B",
"+. c #679543",
"@. c #749E4D",
"#. c #6D8A50",
"$. c #739754",
"%. c #74AE47",
"&. c #75A34E",
"*. c #73AE4B",
"=. c #7CAB4D",
"-. c #75B14C",
";. c #79B34F",
":. c #7FB84F",
">. c #76A353",
",. c #76AB52",
"<. c #7EAE54",
"1. c #7FAC59",
"2. c #77B352",
"3. c #7BB354",
"4. c #7EB952",
"5. c #7EB459",
"6. c #81AF53",
"7. c #81A75C",
"8. c #82AF5C",
"9. c #82B556",
"0. c #82BA55",
"q. c #89BE55",
"w. c #81B759",
"e. c #83B95B",
"r. c #88BE5C",
"t. c #8EAD6F",
"y. c #86B360",
"u. c #89B463",
"i. c #86BA60",
"p. c #8BBC62",
"a. c #8DB369",
"s. c #8EBE6A",
"d. c #90BF61",
"f. c #91BE6B",
"g. c #96AC76",
"h. c #96AD79",
"j. c #87C057",
"k. c #89C256",
"l. c #8DC45C",
"z. c #91C65D",
"x. c #92CA5C",
"c. c #8EC262",
"v. c #8FC861",
"b. c #8EC06B",
"n. c #91C463",
"m. c #94CC61",
"M. c #99CE65",
"N. c #93C36B",
"B. c #9AC46D",
"V. c #95C86A",
"C. c #9ACC6E",
"Z. c #9CD16C",
"A. c #97C772",
"S. c #99C671",
"D. c #9CCD71",
"F. c #9FD173",
"G. c #A0D26F",
"H. c #A0CF74",
"J. c #A3D476",
"K. c #A5D579",
"L. c #A8D67B",
"P. c #8A2D98",
"I. c #A72CBB",
"U. c #815785",
"Y. c #A44EB3",
"T. c #9965A3",
"R. c #BB40CF",
"E. c #C27DCD",
"W. c #ACB08D",
/* pixels */
"x.x.x.r.w.w.l.m.m.M.J.K.K.K.K.K.V.-.%.*.K.K.J.S.f.f.p.e.e.r.z.m.m.0.-.*.2.m.m.m.0.w.w.e.e.e.r.x.x.z.r.w.e.w.e.e.k.x.x.x.",
"x.x.x.r.w.w.r.m.m.m.J.K.K.K.K.K.V.-.*.*.K.K.K.B.f.f.c.e.e.i.m.m.m.4.*.*.j.m.m.m.e.4.w.e.e.e.r.x.x.l.e.e.e.w.e.e.j.x.x.x.",
"x.x.x.r.e.w.j.m.m.m.K.K.K.K.K.K.V.-.*.*.K.K.J.B.f.f.p.e.e.e.v.m.m.4.%.*.4.m.m.m.5.w.w.w.w.e.l.x.x.x.q.e.w.w.e.e.k.x.x.x.",
"x.x.x.l.i.i.c.m.m.m.J.K.K.Z.M.M.v.3.3.2.M.Z.Z.C.J.D.B.e.e.i.x.m.m.k.j.k.k.x.m.x.e.e.w.e.e.w.c.G.J.Z.e.e.e.l.l.l.k.x.x.x.",
"x.x.x.l.p.p.p.x.x.m.J.K.K.M.x.x.v.5.e.e.m.m.M.J.K.K.D.w.e.e.m.m.m.x.x.x.x.x.x.x.e.e.e.e.e.w.b.K.K.K.r.e.e.l.x.x.x.x.x.x.",
"x.x.x.c.p.p.l.x.x.x.J.K.L.M.x.x.l.e.e.e.m.m.x.J.K.K.C.w.e.e.m.m.m.x.x.x.x.x.x.x.e.e.w.e.e.e.c.K.K.F.i.5.e.l.x.x.x.x.x.x.",
"x.x.x.d.p.p.p.l.l.z.C.D.C.M.M.M.m.p.p.p.v.v.l.N.D.D.V.p.i.i.v.m.z.l.l.l.l.x.x.k.j.j.j.r.j.c.v.Z.F.Z.k.c.j.l.x.x.x.l.l.l.",
"x.x.x.p.p.p.p.e.e.w.w.w.e.D.K.K.D.f.s.f.e.e.e.e.w.w.e.p.p.p.p.i.p.r.e.e.w.9.e.e.x.x.m.m.m.m.m.x.x.x.x.x.x.x.x.x.l.e.e.w.",
"x.x.x.d.p.p.i.w.e.w.e.e.e.D.K.K.H.f.N.f.e.e.w.O.H M H H H H H H U >.w.e.e.w.w.e.W.x.l.m.m.m.m.x.x.x.x.x.x.x.x.x.l.e.e.e.",
"z.z.x.r.p.p.i.e.e.e.r.p.r.D.K.K.H.f.f.f.e.w.e.7 * * * * % * * * * 1 <.5.e.e.w.q.x.x.x.z.x.m.m.x.x.x.x.M.x.x.x.x.l.e.e.e.",
"-.-.%.9.e.e.e.e.e.e.D.J.J.J.K.K.H.f.f.f.e.e.>.* * * * * * * * * * X M -.4.x.x.l.r.e.e.r.r.e.c.K.J.K.L.J.J.M.x.x.k.e.e.e.",
"%.%.%.9.e.e.e.e.e.p.J.K.K.L.K.J.H.f.f.N.i.e.O.% * * * * * * * % *   $ X.4.x.x.x.e.e.e.e.e.e.c.K.L.K.K.L.J.M.x.x.l.e.e.e.",
"-.-.%.3.e.w.e.e.e.p.J.K.K.K.K.K.H.f.f.N.e.e.O.* * * * * * * * * * X $ [ 4.x.x.x.e.w.e.e.w.e.c.K.L.K.K.K.L.M.x.x.l.e.w.r.",
"j.j.k.p.p.s.e.2.2.3.n.N.N.V.M.M.m.u.i.e.v.l.&.* * * * * * * * * %   < O.q.x.x.m.e.e.w.N.D.D.C.c.p.c.S.S.S.n.c.p.v.l.l.l.",
"x.x.x.n.f.s.i.*.*.*.p.p.p.z.x.x.l.e.w.9.x.x.=.e t t * * * / ) ( ^ X = &.r.x.x.x.r.w.w.D.K.K.D.w.e.w.f.f.f.p.p.p.r.x.x.x.",
"x.x.x.n.f.f.r.*.*.-.u.p.p.z.x.x.d.g.w.w.x.x.k.U.Y.P.* * * T.E.R.I.& < @.r.x.x.x.w.e.e.C.K.K.C.w.w.e.p.f.f.s.p.p.c.x.x.x.",
"x.x.x.z.N.n.k.9.:.0.r.c.d.l.v.l.r.9.9.9.l.z.l.y w q * * * q e w ; . - &.k.k.j.k.w.e.e.N.D.D.N.w.w.e.p.b.p.p.v.c.v.l.l.l.",
"x.x.x.x.x.x.x.x.x.x.x.x.x.r.w.e.w.2.<.3.5.e.e.z * * * * * * * * * X x k.k.*.%.-.w.w.w.w.e.e.w.w.e.e.w.e.e.v.m.m.v.w.r.e.",
"x.x.x.x.x.x.x.x.x.x.x.x.x.r.e.e.5.2.2.3.e.e.w.I * * * * * * % * 7 i q.x.k.%.%.,.5.u.e.e.e.e.e.w.e.e.e.e.e.v.m.m.l.e.e.e.",
"x.x.x.x.x.x.x.x.x.x.x.x.x.r.w.e.5.3.3.2.e.e.e.3.E T I =   X . L 9.x.z.x.k.%.*.*.w.t.a.e.e.e.e.r.e.w.e.e.w.l.m.m.l.e.w.e.",
"K.J.K.M.x.x.M.L.K.J.p.p.i.e.e.e.e.e.5.e.*.,.-.V.K.K.u.- * * X *  .J.K.L.Z.x.x.x.p.p.p.D.K.K.Z.M.m.m.x.x.m.x.m.m.m.x.m.M.",
"K.K.K.M.x.x.M.L.K.J.p.p.c.i.e.e.e.e.e.e.%.%.-.V.J.K.#.* * * X * x D.K.K.F.x.x.x.p.p.p.D.K.K.F.m.m.m.x.x.x.x.m.m.m.m.m.m.",
"K.K.K.V.x.x.M.K.K.J.p.p.p.e.j.5.e.e.e.e.*.-.*.V.K.K.G * * * X 9 - 1.K.K.Z.x.x.x.r.p.p.D.K.K.J.m.m.m.x.x.z.m.m.m.M.m.m.m.",
"M.Z.M.k.0.w.k.M.M.M.z.z.l.l.v.l.l.e.w.e.V.V.V.b.n.p.- * * *   ] - T c.c.v.x.x.x.e.e.e.p.A.N.n.x.m.x.m.m.m.v.j.r.r.r.j.r.",
"l.x.x.0.2.3.0.x.x.x.x.x.x.x.x.x.v.5.3.c.K.K.K.b.e.O.X * * * X X.M 9 e.e.r.x.x.x.w.w.w.r.p.p.c.x.x.x.m.m.m.l.e.5.e.e.e.e.",
"x.x.x.4.2.3.0.x.x.x.x.x.x.x.x.x.l.e.i.5.K.J.K.b.e.Y * * * * % Q ' * ,.e.j.z.x.x.w.w.w.r.p.r.c.x.x.x.m.m.m.j.i.j.e.w.e.e.",
"x.x.x.j.0.j.j.x.x.x.l.l.k.x.x.x.v.5.5.j.D.C.1.l k j d d , + X R *.2 E e.r.x.l.x.w.w.w.u.p.p.p.l.l.l.z.v.v.v.b.v.p.e.e.e.",
"x.x.x.x.m.m.x.x.x.l.r.e.j.z.m.m.v.j.i.5.j.5.N h g g g d > @ % m e.z v w.r.x.x.x.9.w.e.p.f.f.s.e.e.e.e.5.e.A.K.K.D.w.e.e.",
"x.x.x.m.m.m.m.x.x.x.r.e.5.v.m.m.v.e.e.5.e.e.P B B B V 6 5 @ X z w.I 8 >.q.x.x.m.w.w.w.p.s.f.p.e.e.e.e.e.e.C.K.J.D.e.e.e.",
"x.l.x.x.m.m.x.x.m.v.e.w.e.l.m.m.v.e.i.j.e.e.~ Z Z Z Z a # X * 3 w.} - } j.x.l.x.w.w.5.p.s.s.p.e.e.e.e.e.e.C.K.F.D.e.e.e.",
"e.j.r.l.x.x.M.K.K.F.i.e.e.v.m.m.m.m.v.m.e.e.~ Z Z A Z p O * +   *.1.* ..D.i.i.e.s.s.f.5.*.-.3.e.e.w.e.e.w.p.s.s.p.x.x.z.",
"e.e.j.k.x.m.M.K.K.K.a.h.e.v.m.m.m.m.m.m.e.e.~ Z Z Z A p : * X . X.N.* ..D.e.e.e.f.f.s.5.*.%.2.e.e.e.w.e.e.i.p.i.l.x.x.x.",
"e.w.e.l.x.x.M.J.K.J.e.e.e.v.m.m.m.m.m.m.e.5.! s S s a p # X * . ' >.* ..D.e.e.e.f.f.f.5.%.*.2.e.e.e.e.e.e.e.p.p.p.x.x.x.",
"p.s.p.c.r.r.N.K.K.J.z.l.l.l.c.j.j.r.c.e.l.v.&.= < - 0 X * % % X m H 7 $.r.9.3.3.r.p.r.r.l.j.r.e.e.e.p.r.p.c.z.z.d.r.n.p.",
"f.f.s.i.e.e.c.K.K.J.x.x.l.c.5.5.e.e.e.e.x.x.x.>.} ,.} * * @ X % * * b e.w.2.2.<.e.e.e.c.m.m.n.w.e.e.p.p.p.x.x.x.z.p.p.r.",
"f.s.b.i.e.e.N.K.K.K.m.x.x.j.c.5.e.e.e.w.x.x.x.r.e.w.3.< $ W < . 7 8  .e.w.2.2.3.e.e.e.c.m.m.m.w.w.w.p.p.p.l.x.x.d.p.p.p.",
"S.S.A.v.c.j.c.D.D.F.x.l.k.j.5.c.e.r.k.r.l.l.k.r.e.9.9.7 7 x.0   | r.n.n.p.3.3.3.e.e.e.l.x.m.z.j.r.l.N.N.N.x.x.x.z.e.u.r.",
"K.K.F.Z.m.m.l.r.5.5.4.e.5.e.5.5.r.x.x.x.9.w.e.e.w.e.e.8 < l.0 X  .C.K.L.D.w.w.w.e.e.e.l.x.x.x.m.m.m.J.K.K.m.x.x.k.e.e.e.",
"K.K.K.Z.m.m.v.w.e.e.5.5.5.i.j.5.r.x.x.B.t.w.w.e.e.e.w.8 7 x.0 @ E C.J.K.D.w.w.w.e.5.5.z.x.x.x.m.m.M.J.K.J.M.x.x.k.e.e.e.",
"K.L.K.C.v.m.n.w.e.e.i.4.e.5.5.c.r.x.x.z.i.w.w.e.e.e.3.8 < x.0 @ I C.K.K.C.w.w.w.e.j.e.l.x.x.x.M.M.M.J.K.J.M.x.x.z.e.e.e.",
"w.w.e.z.m.m.N.f.b.b.r.w.w.l.x.x.l.9.9.w.3.2.2.4.e.w.9.7 2 m.J * T x.x.x.l.w.w.w.e.e.5.Z.K.K.F.r.p.p.m.m.m.x.x.x.z.p.p.p.",
"r.r.w.n.m.x.M.N.b.b.w.r.e.l.x.x.l.w.e.4.2.3.3.5.e.e.w.u < M.U * U n.x.x.k.w.w.w.5.e.e.D.K.K.D.p.p.p.x.m.m.x.x.x.z.p.p.p.",
"e.e.e.v.m.m.M.a.b.s.e.e.5.l.x.x.l.w.5.5.2.2.3.5.e.e.r.b 2 m.J % x n.x.x.l.w.e.e.h.a.5.C.J.K.D.p.p.p.m.m.m.x.x.x.n.p.p.p.",
"w.e.e.9.4.4.c.D.J.D.l.l.l.l.l.j.v.A.F.C.2.,.-.r.l.l.l.x < r.E * x p.p.c.l.l.k.z.F.C.F.N.n.b.c.m.v.m.m.m.m.n.c.c.r.3.2.4.",
"e.e.e.2.*.*.e.K.K.J.x.x.x.j.e.e.c.K.K.K.-.*.%.k.x.x.l.x 2 e._ * 2 y.p.p.d.x.x.x.J.K.L.b.e.w.l.x.x.x.m.m.m.f.p.p.e.*.*.*.",
"e.e.e.-.%.%.e.K.K.J.m.x.x.j.e.e.c.K.K.K.*.%.-.k.x.x.l.x 2 e.+.* < 9.p.p.d.x.x.x.K.K.K.n.e.e.r.x.x.x.m.m.x.n.p.p.w.*.*.*.",
"e.e.e.3.2.2.w.D.C.D.m.n.n.l.r.r.V.K.K.K.2.2.3.l.M.M.x.c * 9.8.* 7 e.p.c.x.x.x.x.K.K.K.c.e.e.r.x.x.x.M.Z.Z.l.e.e.3.;.*.,.",
"e.e.e.e.e.e.e.e.e.e.s.s.N.n.x.x.M.K.K.K.e.w.w.D.K.L.G.n * q.f.* = 9.x.x.x.x.x.x.K.K.K.v.5.5.r.m.m.M.J.K.K.p.3.3.3.w.w.w.",
"e.e.e.e.e.e.e.e.w.i.s.s.f.m.x.x.M.L.K.J.e.e.e.C.K.K.F.R * 9.L.7 * 6.x.x.x.x.x.x.K.K.K.c.5.5.j.m.m.V.K.K.K.p.3.2.3.w.w.w.",
"r.e.e.e.e.e.e.e.w.i.b.s.f.n.x.m.M.J.K.K.e.e.e.B.F.J.Z.R @ | H.7 * | x.x.x.x.x.x.K.F.J.c.5.e.e.M.m.M.J.K.J.r.3.3.5.w.w.w.",
"x.x.l.l.p.p.i.e.e.e.i.e.e.C.K.J.H.f.f.f.e.e.e.r.r.i.w.K * W c.u * E e.e.c.J.J.J.i.j.r.3.2.,.3.N.b.b.m.m.m.r.w.e.5.*.2.-.",
"x.x.x.c.p.p.i.e.e.e.e.e.e.D.L.K.H.f.f.f.e.e.e.e.e.e.3.K * D r.b * E e.9.c.K.L.K.e.e.w.;.%.*.4.s.b.N.x.x.x.k.e.e.3.*.*.%.",
"x.x.x.c.p.p.i.w.e.e.e.w.w.D.K.K.J.f.s.N.e.e.e.e.e.e.3.` * m i.b * H e.5.c.K.K.K.e.e.e.3.*.*.3.f.f.N.x.x.x.r.w.e.5.-.-.-.",
"x.x.x.M.D.D.C.p.p.p.r.w.e.c.N.n.p.i.p.i.<.3.,.5.e.e.e.o.* m n.b * M v.l.p.r.r.i.5.3.3.,.%.*.2.p.p.r.x.x.x.r.r.w.w.5.3.3.",
"x.x.x.G.K.K.H.f.f.s.e.e.w.w.e.e.e.e.e.e.-.*.%.5.w.e.p.$.* i m.R - R m.m.j.*.*.,.2.<.2.2.%.*.2.e.w.e.l.x.x.j.w.e.e.e.w.e.",
"x.x.x.J.K.L.D.f.f.f.e.e.e.e.e.e.e.e.e.5.%.*.-.3.w.e.p.s._ $.x.z.o.l.m.v.l.-.*.-.3.2.3.,.*.%.2.e.e.e.l.x.x.r.r.w.e.w.e.e.",
"x.x.x.m.V.N.n.n.n.p.e.e.w.e.e.w.e.r.r.r.-.*.*.5.c.l.v.b.N.N.v.n.n.x.m.m.l.r.e.j.3.3.3.4.:.4.9.r.p.p.m.M.M.r.e.e.e.p.i.p.",
"z.x.x.4.*.*.0.x.x.x.e.e.e.e.e.e.r.x.x.x.%.*.*.j.v.m.m.m.m.m.p.p.p.z.x.z.M.L.K.J.e.e.e.z.x.x.n.f.N.N.K.L.K.N.e.e.p.s.f.f.",
"x.x.x.:.%.*.:.x.x.x.r.e.w.e.e.w.j.x.x.l.%.*.*.l.m.m.m.m.m.m.c.p.p.z.x.x.M.K.K.K.e.e.e.l.x.x.v.s.f.f.K.K.K.n.e.e.i.f.f.f.",
"x.x.x.:.*.%.:.x.x.x.e.e.e.e.e.w.k.x.x.x.%.*.*.l.m.m.m.m.m.m.p.i.p.l.x.x.M.L.L.K.e.e.e.l.x.x.n.N.f.f.K.K.J.N.e.e.p.f.f.f."
};
