/* XPM */
static char *_7515_25a221ff1e0f808e9b673010a5fd5374b69eed6c244e6bcddfdb01a45ee1fcca[] = {
/* columns rows colors chars-per-pixel */
"60 60 167 2 ",
"   c #060606",
".  c #060807",
"X  c #080806",
"o  c #0C0C0C",
"O  c #180F08",
"+  c #0F160E",
"@  c #12130E",
"#  c #191009",
"$  c #12180E",
"%  c #0D0E10",
"&  c #121212",
"*  c #161B12",
"=  c #191C14",
"-  c #1D151E",
";  c #201408",
":  c #0B2F03",
">  c #083305",
",  c #1D2416",
"<  c #1D2817",
"1  c #1E2518",
"2  c #1D2818",
"3  c #33240F",
"4  c #3F270D",
"5  c #34370C",
"6  c #21261B",
"7  c #222C1B",
"8  c #26321E",
"9  c #29371E",
"0  c #211623",
"q  c #241A25",
"w  c #2E1A33",
"e  c #301C35",
"r  c #391F3C",
"t  c #222021",
"y  c #2D3B21",
"u  c #303F20",
"i  c #382C36",
"p  c #362839",
"a  c #3B243E",
"s  c #4E3213",
"d  c #523212",
"f  c #593B14",
"g  c #074305",
"h  c #084404",
"j  c #0D5803",
"k  c #0E5303",
"l  c #105303",
"z  c #105A03",
"x  c #11550C",
"c  c #1D6614",
"v  c #227317",
"b  c #2D4022",
"n  c #334325",
"m  c #364A27",
"M  c #3A4C26",
"N  c #334328",
"B  c #364929",
"V  c #394B29",
"C  c #3C542A",
"Z  c #3F5D2B",
"A  c #3D5730",
"S  c #377D27",
"D  c #544410",
"F  c #5A4412",
"G  c #674015",
"H  c #694216",
"J  c #6A4419",
"K  c #62451B",
"L  c #41572D",
"P  c #425C2E",
"I  c #415031",
"U  c #445B32",
"Y  c #485E36",
"T  c #45652D",
"R  c #49642F",
"E  c #536E29",
"W  c #476333",
"Q  c #4A6535",
"!  c #4C6339",
"~  c #526F37",
"^  c #526B3B",
"/  c #527236",
"(  c #54733A",
")  c #567A3B",
"_  c #527D35",
"`  c #60652F",
"'  c #69692D",
"]  c #422F45",
"[  c #587242",
"{  c #5B843B",
"}  c #59883A",
"|  c #608C3D",
" . c #62943F",
".. c #5A8140",
"X. c #628644",
"o. c #648C44",
"O. c #658E48",
"+. c #6A8A4D",
"@. c #639743",
"#. c #6A9045",
"$. c #649941",
"%. c #6D9648",
"&. c #6D9A4B",
"*. c #749E4D",
"=. c #6D8A50",
"-. c #719452",
";. c #759A55",
":. c #74AE47",
">. c #76A34E",
",. c #73AE4B",
"<. c #7CAB4D",
"1. c #75B04C",
"2. c #79B34F",
"3. c #7FB84F",
"4. c #76A352",
"5. c #76AB52",
"6. c #7DAE55",
"7. c #7FAA5B",
"8. c #77B352",
"9. c #7BB354",
"0. c #7EB952",
"q. c #7FB458",
"w. c #82AF52",
"e. c #82AF5C",
"r. c #82B556",
"t. c #82BA55",
"y. c #89BE54",
"u. c #81B759",
"i. c #83B95B",
"p. c #88BE5C",
"a. c #8EAD6F",
"s. c #86B360",
"d. c #88B362",
"f. c #86BA60",
"g. c #8BBC62",
"h. c #8DB369",
"j. c #8EBE6A",
"k. c #90BF61",
"l. c #91BE6B",
"z. c #95AE75",
"x. c #96AC79",
"c. c #87C057",
"v. c #89C256",
"b. c #8DC45C",
"n. c #91C65D",
"m. c #92CA5C",
"M. c #8EC262",
"N. c #8FC861",
"B. c #8FC36A",
"V. c #91C463",
"C. c #94CC61",
"Z. c #99CE65",
"A. c #93C36B",
"S. c #9AC46D",
"D. c #95C86A",
"F. c #9ACC6E",
"G. c #9CD16C",
"H. c #97C772",
"J. c #99C671",
"K. c #9CCD71",
"L. c #9FD173",
"P. c #A0D26F",
"I. c #A0CE74",
"U. c #A3D476",
"Y. c #A5D579",
"T. c #A8D67A",
"R. c #ACB08D",
/* pixels */
"m.m.m.p.u.u.b.C.C.Z.U.Y.Y.Y.Y.Y.D.,.:.,.Y.Y.Y.S.A.j.g.u.i.p.b.C.C.t.:.,.0.C.m.C.i.q.i.i.i.i.p.m.m.m.p.u.i.i.i.i.c.m.m.m.",
"m.m.m.p.u.u.p.C.C.C.Y.Y.Y.Y.Y.Y.D.1.,.,.Y.Y.Y.S.l.l.j.u.i.p.C.C.C.0.:.,.0.C.C.C.q.t.q.i.i.i.p.n.m.n.i.i.i.i.i.i.c.m.m.m.",
"m.m.m.p.i.u.c.C.C.Z.Y.U.Y.U.Y.Y.D.,.,.,.Y.U.Y.F.l.l.j.p.i.i.C.C.C.0.,.:.0.C.C.C.q.u.i.i.q.i.b.m.m.m.i.i.u.i.i.i.c.m.m.m.",
"m.m.m.b.f.f.M.C.m.C.U.U.Y.G.Z.Z.N.q.q.8.Z.G.F.F.K.U.D.u.q.p.n.C.C.v.c.v.b.m.C.C.i.i.0.i.i.i.M.L.L.G.p.u.i.b.b.v.m.m.m.m.",
"m.m.m.p.g.g.g.m.m.C.Y.Y.Y.Z.m.m.b.q.i.i.C.C.Z.U.Y.Y.F.i.i.i.C.C.C.m.n.m.m.m.m.m.i.i.i.i.i.q.M.Y.T.L.M.q.i.n.m.m.m.m.m.m.",
"m.m.m.V.g.g.b.m.n.m.Y.Y.Y.Z.m.m.m.q.i.i.C.C.m.L.Y.Y.K.u.i.f.C.C.C.m.m.m.m.m.m.m.i.i.i.u.i.i.M.Y.T.L.q.q.i.v.m.m.m.m.m.m.",
"m.m.m.k.g.g.g.b.b.b.F.K.F.Z.Z.Z.C.g.g.g.M.M.n.D.F.K.A.f.p.g.N.V.V.n.n.b.b.b.b.b.c.c.f.b.b.c.C.L.L.L.b.M.c.b.m.m.m.v.b.b.",
"m.m.m.g.g.g.g.i.p.u.u.u.p.K.Y.Y.L.j.j.j.i.i.i.i.i.u.p.f.g.g.g.f.g.p.t.i.i.t.u.p.m.m.m.C.C.C.C.n.m.m.m.m.m.m.m.m.b.i.i.i.",
"m.m.m.k.g.g.p.u.i.i.i.u.i.F.Y.Y.U.l.l.l.i.p.u.%.U A P P U U U U W 4.u.u.i.i.i.t.R.b.m.C.C.C.m.m.m.m.m.m.m.m.m.m.b.i.i.i.",
"m.n.m.p.g.d.f.i.i.i.p.g.p.F.Y.Y.I.l.l.l.i.u.i.1 & & & & & & % % & < 6.u.u.i.t.t.m.m.m.n.m.C.Z.m.C.C.m.m.m.m.m.m.n.t.i.i.",
"1.1.:.r.i.i.f.i.i.f.K.U.U.Y.Y.Y.I.l.l.l.p.i.4.& & & & & & & & & & o Z ,.0.b.m.m.p.p.i.p.p.i.M.U.Y.Y.T.Y.Y.Z.m.m.b.u.i.i.",
":.:.:.r.i.i.i.i.i.f.U.Y.Y.Y.Y.Y.I.l.j.j.i.i.&.& & & & & & & & & & . * @.t.m.m.m.i.q.i.i.i.i.B.Y.Y.Y.T.Y.Y.m.m.m.b.i.p.u.",
"1.1.:.q.u.u.i.i.i.g.U.U.Y.Y.Y.Y.I.l.l.l.i.p.&.& & & & & & & & & & . * @.0.m.m.m.i.i.i.i.u.u.M.Y.Y.Y.Y.Y.Y.Z.m.m.b.i.u.i.",
"c.c.v.g.g.j.i.8.8.9.V.A.A.D.Z.Z.C.i.p.f.b.b.>.% & & & & & & & & & o , &.p.m.m.m.i.i.u.A.K.K.F.M.M.V.H.J.J.V.V.g.b.b.N.v.",
"m.m.m.V.A.j.p.:.1.1.f.g.g.M.m.m.b.i.u.u.m.m.6.& & & & & & & & & & . * 4.p.m.m.m.i.i.u.F.Y.Y.K.u.r.u.j.l.l.g.g.g.g.m.m.m.",
"m.m.m.M.j.l.f.,.:.1.g.g.g.n.m.m.k.x.u.r.m.m.v.i a e & & & a ] r w . , *.c.m.m.m.i.i.u.K.Y.Y.F.u.u.i.j.l.l.j.g.g.M.m.m.m.",
"m.m.m.V.k.V.n.r.0.t.p.b.M.M.b.b.p.r.q.q.b.n.b.t q - & & & - q q - o $ >.v.v.v.c.u.u.p.A.K.F.A.u.i.i.M.g.g.M.M.B.M.b.b.b.",
"m.m.m.m.m.m.m.m.m.m.m.m.m.p.i.i.u.8.8.9.i.q.i.b & & & & & & & & & o n v.v.:.,.5.u.u.u.t.i.i.u.u.q.q.i.i.i.N.m.C.M.i.p.i.",
"m.m.m.m.m.m.m.m.m.m.m.m.m.p.i.i.q.8.9.9.i.i.u.W & & & & & % & + 6 u y.m.v.:.:.,.q.s.i.i.u.i.p.i.f.i.i.i.i.N.C.C.b.u.i.i.",
"m.m.m.m.m.m.m.m.m.m.m.m.m.p.i.i.u.9.8.9.i.i.i.6.( ( ! * o o . R r.n.m.n.v.,.,.,.u.a.a.i.p.u.i.i.i.i.i.i.i.b.C.C.m.u.i.u.",
"Y.Y.U.Z.m.m.Z.Y.Y.U.j.g.f.p.q.i.i.i.q.i.,.,.1.D.Y.Y.d.= & & o & #.U.Y.Y.G.m.m.n.g.g.g.K.Y.Y.U.C.C.C.N.m.m.m.C.C.C.C.m.C.",
"Y.Y.Y.Z.m.m.Z.Y.Y.L.g.f.M.f.i.i.u.u.i.i.:.,.1.D.Y.Y.+.& & & o & N K.Y.Y.L.m.m.m.g.g.g.K.Y.Y.G.C.C.C.m.m.m.C.C.C.C.C.C.C.",
"Y.Y.Y.F.m.m.Z.U.U.U.k.g.M.i.i.i.i.i.i.i.,.1.:.D.Y.Y.I & & & o 8 * 7.Y.Y.G.m.m.m.p.f.g.K.Y.Y.L.C.C.C.m.m.m.m.C.N.C.C.C.C.",
"Z.Z.Z.c.t.t.v.Z.F.Z.n.n.b.b.b.b.b.i.i.i.D.D.D.B.V.g.& & & & o | = ^ M.M.N.m.m.m.p.i.i.j.A.A.D.m.m.m.C.C.C.M.c.M.p.p.M.c.",
"m.m.m.0.9.9.0.m.m.m.m.m.m.m.m.m.n.i.i.i.Y.Y.Y.M.i.&.o & & & o $.Z 8 f.i.p.m.m.m.r.i.r.i.g.g.M.m.m.m.C.C.C.c.f.q.i.i.i.u.",
"m.m.m.0.8.8.t.m.m.m.m.m.m.m.m.m.b.i.i.q.Y.Y.Y.B.i./ & & & & % _ } & 5.i.p.m.m.m.u.r.i.p.g.p.j.m.m.m.C.C.C.v.i.i.i.u.u.p.",
"m.m.m.c.c.t.v.m.m.m.b.b.v.m.m.m.N.q.i.i.F.F.q.v c x g g > + o / ,.1 ^ i.p.m.m.m.q.i.u.g.g.g.M.b.m.v.N.M.N.B.B.N.g.i.i.i.",
"m.m.m.m.C.C.C.m.m.n.p.i.i.n.C.C.N.i.i.i.i.q.S z j l k g : $ % C i.b B i.t.m.m.m.u.q.i.g.l.l.M.u.i.i.i.i.u.F.Y.T.K.u.i.i.",
"m.m.m.m.C.C.C.m.m.m.i.t.i.N.C.N.N.i.i.i.i.u.E F F F D 5 3 $ o y i.W 7 5.i.m.m.m.u.q.u.g.j.j.j.u.i.i.i.i.i.K.Y.Y.K.u.i.i.",
"m.m.m.n.C.C.C.m.C.C.i.i.u.n.C.C.N.i.c.i.i.i.' J H H J d # o + 2 u...= X.c.m.n.m.i.i.q.g.j.j.g.u.i.i.i.i.u.F.U.L.K.p.i.p.",
"i.i.p.m.m.m.Z.U.Y.L.f.i.i.N.C.C.C.C.N.C.i.i.' G J J J d O % % o ,.7.& +.K.p.f.i.h.j.l.q.,.1.9.i.i.u.i.u.i.g.j.g.k.m.m.n.",
"i.i.i.b.m.m.Z.Y.Y.Y.h.x.u.N.C.C.C.C.C.C.i.u.' H J G J s ; & o X  .A.* =.K.i.i.q.H.l.l.q.,.:.8.i.i.i.i.i.i.f.g.g.p.m.n.m.",
"q.q.i.n.m.m.F.Y.Y.U.i.i.i.N.C.C.C.C.Z.N.q.i.E f J f f s O o & X { 4.& =.F.i.i.i.l.j.A.q.1.1.8.p.i.u.q.u.i.p.g.g.p.m.m.m.",
"M.j.g.M.c.p.V.Y.Y.U.n.b.b.b.M.c.f.c.c.M.b.N.*.= = = y % & o % % C P 6 4.p.q.9.q.g.p.f.c.c.c.p.u.i.p.f.g.p.M.V.n.V.g.g.b.",
"l.l.j.f.i.p.M.Y.Y.U.m.m.b.M.q.q.i.i.p.u.m.m.m.>.X.5...& % @ o o & & B u.u.9.8.6.i.u.i.M.C.C.V.u.u.p.g.f.g.n.m.m.n.g.g.g.",
"l.l.B.f.u.u.A.Y.Y.Y.C.m.m.c.M.q.i.i.u.u.m.m.m.p.i.u.6., @ | , X 6 7 O.i.r.9.8.9.i.i.i.M.m.C.C.u.i.u.g.g.g.b.m.m.n.g.g.g.",
"H.J.H.B.c.M.M.K.L.G.N.v.v.c.q.f.p.p.p.c.v.n.v.p.i.u.r.7 , b.9 o o.g.V.k.j.9.9.9.i.u.i.N.C.m.n.c.b.p.A.A.A.m.m.m.n.i.i.p.",
"Y.Y.L.G.C.n.M.i.q.q.q.q.q.i.M.q.i.m.m.m.i.u.u.i.u.p.u.7 6 b.9 o O.F.Y.Y.F.u.r.u.i.i.i.v.m.m.C.C.C.Z.Y.Y.Y.C.m.m.b.u.i.i.",
"Y.Y.Y.G.C.C.N.i.i.i.q.M.q.f.q.q.p.m.m.S.h.i.u.u.i.i.q.7 6 b.9 % ( F.U.Y.K.u.u.u.i.i.q.m.m.m.m.C.m.Z.Y.Y.Y.Z.m.m.b.i.i.i.",
"Y.Y.Y.G.C.C.b.i.q.i.q.0.i.q.0.M.p.m.m.V.f.q.t.i.i.i.q.7 , m.9 $ W F.Y.Y.F.i.u.u.i.i.i.b.m.m.m.Z.Z.m.Y.Y.U.Z.m.m.b.i.i.i.",
"u.p.p.b.C.C.D.l.B.B.i.u.i.b.m.m.n.q.q.i.0.8.9.q.i.i.r.7 1 C.Y & ^ V.m.m.b.u.u.u.i.i.i.F.Y.Y.K.p.f.g.D.C.C.m.m.m.b.j.g.g.",
"i.u.u.M.C.m.C.l.j.B.i.i.i.b.m.m.b.i.i.q.8.8.8.u.i.i.i.9 , Z.Y & ! n.n.m.b.u.u.u.q.i.i.F.Y.Y.K.g.g.M.m.C.C.m.m.m.n.g.g.g.",
"i.i.u.C.C.Z.D.l.l.l.p.i.i.b.m.m.v.q.q.q.8.9.8.q.i.i.p.V , C.Y & n V.m.m.v.u.i.u.z.h.i.K.Y.Y.K.j.g.g.C.C.C.m.m.m.n.g.p.g.",
"i.i.u.t.0.3.g.K.U.K.M.v.b.c.p.b.M.F.L.F.8.,.5.p.n.b.b.N , p.( & n p.M.M.b.b.b.b.F.K.K.A.M.V.V.n.C.m.C.C.m.V.V.M.p.9.9.9.",
"p.i.i.8.:.,.i.Y.Y.Y.m.m.m.c.p.i.M.T.Y.Y.,.,.1.v.n.m.b.n 6 i.) & 2 u.g.g.k.m.m.m.Y.Y.Y.M.i.i.p.m.m.m.C.C.C.g.g.g.i.:.:.,.",
"q.i.i.8.,.:.p.Y.Y.U.m.m.m.c.i.q.M.Y.Y.Y.,.:.:.v.m.m.b.n 6 i.O.& 1 r.d.g.k.m.m.m.Y.Y.T.A.i.i.p.m.m.m.C.C.C.M.g.g.u.:.,.,.",
"i.i.u.q.8.8.u.K.K.K.V.C.V.b.p.c.D.Y.Y.Y.8.2.9.b.Z.Z.m.n & u.e.& 6 i.M.M.m.m.m.m.Y.Y.Y.M.i.i.p.m.m.m.D.G.G.M.i.p.q.2.8.5.",
"i.i.i.u.u.i.i.i.i.i.j.l.B.V.m.C.Z.Y.Y.Y.i.u.i.K.T.Y.P.M % y.l.& & u.m.m.m.m.m.m.Y.Y.Y.M.q.u.c.C.C.C.Y.Y.Y.p.0.8.q.q.q.q.",
"i.i.u.i.u.i.i.i.q.f.j.j.l.V.m.m.Z.Y.Y.Y.i.i.i.F.Y.Y.L./ & r.Y.6 & w.m.m.m.m.m.m.Y.Y.Y.M.q.q.y.C.C.Z.Y.Y.Y.g.8.9.9.u.i.u.",
"p.i.p.p.p.u.i.i.i.s.B.j.A.V.m.C.Z.Y.Y.U.i.i.p.S.L.U.G./ @ o.I.6 & #.n.n.m.m.m.m.U.L.U.M.q.i.p.D.C.C.U.Y.U.p.9.9.q.q.q.u.",
"m.m.b.p.g.g.f.i.i.i.f.i.p.K.Y.I.I.l.l.A.i.i.u.p.p.p.u.T & ) g.u & ) p.i.M.Y.Y.Y.f.p.p.9.8.5.q.A.B.A.C.C.m.p.i.i.q.1.,.1.",
"m.m.m.n.f.g.f.i.i.i.i.i.u.K.Y.Y.I.l.l.l.i.i.i.i.u.i.q.T & P p.V % ( u.r.M.Y.T.Y.i.i.i.2.:.,.9.B.j.j.m.m.m.p.i.i.q.,.,.:.",
"m.m.m.b.g.g.f.i.u.p.u.u.i.K.Y.Y.U.l.j.A.i.i.i.i.i.i.q.} & C f.V @ W q.q.M.Y.Y.T.p.q.i.8.,.,.9.l.l.j.m.m.m.p.u.u.q.1.1.1.",
"m.m.m.D.K.K.D.g.g.g.i.p.u.M.B.M.g.f.g.f.6.5.8.q.u.p.i.O.& C V.V & P N.M.p.p.f.p.q.9.q.1.:.,.8.g.f.p.m.m.m.p.u.p.u.q.9.q.",
"m.m.m.U.Y.Y.I.l.l.j.i.i.i.u.i.i.i.i.i.i.,.,.,.q.i.u.g.;.& n C./ * ( C.C.c.,.,.5.5.9.8.8.:.,.8.i.i.p.m.m.m.c.u.i.i.i.i.i.",
"m.m.m.U.Y.T.K.l.l.l.i.i.i.i.i.i.i.i.f.q.,.:.:.9.u.u.g.j.[ -.m.n.%.p.C.C.c.1.,.,.9.8.9.5.,.:.8.i.i.i.b.m.m.p.p.i.i.u.u.i.",
"m.m.m.C.A.D.V.V.V.V.i.r.i.i.i.u.p.p.p.c.1.:.,.q.b.b.M.B.B.A.M.V.n.m.C.C.m.t.i.i.9.q.q.3.3.9.t.g.f.g.m.Z.C.M.u.u.i.g.f.g.",
"n.m.m.t.,.,.t.m.n.m.p.u.i.i.i.i.p.n.m.n.,.,.,.c.N.C.C.C.C.C.M.g.g.V.m.m.Z.T.Y.Y.i.i.i.b.m.m.n.l.l.H.Y.T.Y.A.u.p.g.j.l.l.",
"m.m.m.3.,.,.3.m.m.m.i.u.u.i.i.i.p.m.m.m.:.,.,.b.C.C.C.C.C.C.M.f.g.V.m.m.Z.T.Y.Y.i.i.u.m.m.m.M.l.l.H.Y.Y.Y.A.i.i.f.l.l.l.",
"m.m.m.3.:.:.3.m.m.m.i.i.p.u.i.u.c.m.m.m.1.,.,.v.C.C.C.C.m.C.j.g.g.b.m.m.Z.T.Y.Y.i.i.i.v.m.m.C.B.l.l.I.Y.Y.k.i.i.g.l.l.l."
};
