/* XPM */
static char *_f589dd3f85144f8dfc3d341048e2d14A31bFvXrpsI8j0XX[] = {
/* columns rows colors chars-per-pixel */
"60 60 232 2 ",
"   c #0B0B0B",
".  c #060506",
"X  c #120D0C",
"o  c #15100E",
"O  c #110F10",
"+  c #151213",
"@  c #1B1515",
"#  c #1E1A1B",
"$  c #1A1819",
"%  c #0A0E11",
"&  c #241C1C",
"*  c #251A1A",
"=  c #3F1517",
"-  c #30211E",
";  c #151E23",
":  c #251D21",
">  c #2A1F21",
",  c #1C2227",
"<  c #1E2730",
"1  c #262124",
"2  c #2C2224",
"3  c #28272B",
"4  c #332523",
"5  c #3B2B2B",
"6  c #3B2826",
"7  c #252E34",
"8  c #292E34",
"9  c #272F38",
"0  c #263037",
"q  c #293136",
"w  c #25323B",
"e  c #2C353C",
"r  c #2E383E",
"t  c #30373D",
"y  c #31393F",
"u  c #343437",
"i  c #312F30",
"p  c #432C2A",
"a  c #4A2C29",
"s  c #552D2B",
"d  c #4A312D",
"f  c #55342E",
"g  c #4A3432",
"h  c #473737",
"j  c #533532",
"k  c #573B38",
"l  c #623E3B",
"z  c #683834",
"x  c #60332E",
"c  c #58403E",
"v  c #4A403F",
"b  c #68443C",
"n  c #78473B",
"m  c #2E3740",
"M  c #2E3B42",
"N  c #273A40",
"B  c #323C43",
"V  c #353F48",
"C  c #373B42",
"Z  c #473E41",
"A  c #354146",
"S  c #394246",
"D  c #354249",
"F  c #3A454B",
"G  c #3D484D",
"H  c #3E4950",
"J  c #2E4148",
"K  c #484547",
"L  c #524443",
"P  c #4E5259",
"I  c #6A4846",
"U  c #744543",
"Y  c #754C45",
"T  c #794C47",
"R  c #69504F",
"E  c #79524B",
"W  c #675557",
"Q  c #795552",
"!  c #684E51",
"~  c #7D615E",
"^  c #595C64",
"/  c #6B5E61",
"(  c #68656A",
")  c #7B6667",
"_  c #71707A",
"`  c #804A3E",
"'  c #844C47",
"]  c #835146",
"[  c #83544D",
"{  c #8B544A",
"}  c #8C5549",
"|  c #915546",
" . c #95584C",
".. c #8C5B54",
"X. c #855957",
"o. c #935C53",
"O. c #9A5E52",
"+. c #975A59",
"@. c #A75C55",
"#. c #A45E4C",
"$. c #9C6254",
"%. c #9C655B",
"&. c #986559",
"*. c #966457",
"=. c #A26354",
"-. c #AA6252",
";. c #A4635A",
":. c #AA655C",
">. c #A46A5D",
",. c #AC6B5D",
"<. c #A76857",
"1. c #B36B5B",
"2. c #B96D5E",
"3. c #B2705E",
"4. c #B05C62",
"5. c #886361",
"6. c #996763",
"7. c #99716D",
"8. c #9A7574",
"9. c #8D7A7C",
"0. c #A46D62",
"q. c #AB6D63",
"w. c #A96868",
"e. c #B26B64",
"r. c #AB736A",
"t. c #AA7266",
"y. c #B57364",
"u. c #BA7462",
"i. c #B3746A",
"p. c #BD7A6C",
"a. c #B8776C",
"s. c #B66F74",
"d. c #A77974",
"f. c #B47472",
"g. c #B47B73",
"h. c #BB7C73",
"j. c #B97B7B",
"k. c #AD6F70",
"l. c #C37869",
"z. c #C27D72",
"x. c #C97777",
"c. c #C0656C",
"v. c #BC837A",
"b. c #BF8A7E",
"n. c #B88277",
"m. c #AB807A",
"M. c #C48374",
"N. c #CA8574",
"B. c #C3837B",
"V. c #C3897D",
"C. c #CC8B7B",
"Z. c #CC8679",
"A. c #D28979",
"S. c #CA8876",
"D. c #767682",
"F. c #C87980",
"G. c #88848E",
"H. c #988B94",
"J. c #978D94",
"K. c #A78585",
"L. c #B88584",
"P. c #A9949A",
"I. c #B49497",
"U. c #9D95A0",
"Y. c #A79BA5",
"T. c #B4A3AD",
"R. c #B7A8AF",
"E. c #B9AAB5",
"W. c #BCB1BD",
"Q. c #ADA3AE",
"!. c #C68D81",
"~. c #CB8E84",
"^. c #C88B8A",
"/. c #D38B87",
"(. c #CB9285",
"). c #CC958B",
"_. c #C8958E",
"`. c #D29185",
"'. c #D39A8D",
"]. c #D2958D",
"[. c #C99A95",
"{. c #D69C92",
"}. c #D49D9A",
"|. c #D99B94",
" X c #E69A8F",
".X c #D9A399",
"XX c #E1A89C",
"oX c #C29EA2",
"OX c #E39EA3",
"+X c #C4A2A5",
"@X c #DDA8A3",
"#X c #C3B3BD",
"$X c #CCB4BC",
"%X c #D7B4B0",
"&X c #E1AAA7",
"*X c #E9B7B2",
"=X c #BDB2C2",
"-X c #C5B9C5",
";X c #CBBAC6",
":X c #CDBDCA",
">X c #C7B5C2",
",X c #D2BDC9",
"<X c #CEC1CE",
"1X c #D3C3CE",
"2X c #CFC2D2",
"3X c #D3C5D3",
"4X c #D6C9D6",
"5X c #D6CADA",
"6X c #DBCDDB",
"7X c #D8C8D6",
"8X c #DED1DE",
"9X c #E0CFDF",
"0X c #E1D2DE",
"qX c #EECCC4",
"wX c #DBCEE3",
"eX c #DED2E3",
"rX c #DFD8EA",
"tX c #E2D4E4",
"yX c #E6D9E6",
"uX c #E3D6EA",
"iX c #E6D9EB",
"pX c #EADCED",
"aX c #E8D9E8",
"sX c #EBDEF1",
"dX c #E6DBF2",
"fX c #EDE1EE",
"gX c #EDE1F3",
"hX c #EDE3F9",
"jX c #F1E4F5",
"kX c #F2E6F9",
"lX c #F7EAF8",
"zX c #FFF3FF",
/* pixels */
"8 e e e q e q q q e e e e q q q q q e e r 7 q e e 7 7 q q q q e r e q q q e e q q q 8 8 q q q 7 q e r 8 q e r q 7 q q r ",
"r B r r B B M B r r r B B r B M B e B M M r B B B r e r e m e B B B B M B B B B B r B M M r r M B B A B B B B e e B r M ",
"r r r e r r r r r r r M r r B r r r B M M r B r r r e r m m q M B B r B B m B B r e r r r r r M M M B M B B B e 9 M e m ",
"e r r r r M B B B B r r B B r r B M B M M r B B V e 8 q 8 7 q y B B B B B B B B r r r B B B B r B M D r B B B r e m e B ",
"7 e e r q e q r e q q r e q q q q r B M B e r r 3 # # # $ & 1 1 3 u u r e q e r r r r q q q e e B M A e q r r e e r e m ",
"e M M M q e e r q r M B q q e e q M M M M r 0 # $ # & # 5 g * & : 2 2 3 u m e B B B r q e r e m M B B e M B M r q m r m ",
"e M M M r e e r q B B B r q m r r M M M B 1 + $ & $ # & g d # # 3 8 1 : 2 i e B B r r e r e r M M B M r B M B r q m r B ",
"r M M M r r r r r B B m e 9 m r r e M B , + + $ $ - f b Y Y j 5 i 3 1 : 1 & 2 u B y r e r e e M B M B M B A B r e m r B ",
"0 e e M e q 0 e e r M B r q m e r r V 7 O     * f  .=.<.=.=.$.$...I g & : : * 2 B B m e r r r m A M D e r r r q e m r B ",
"7 M r r M r r M r q r M e e r r r M r O     6 n =.,.,.3.3.1.y.y.y.a.q...p $ & & i B r q m r m B V A B M B B y e e m r B ",
"q M M M M M r M e r e B r q r r e M , .   6 | =.3.u.u.u.l.l.l.p.p.h.h.M.r.d * > 5 C r e m e B M D y B D B B B r r r r B ",
"e M M M M r e e M M M r e e m r M 0   . * } =.3.p.M.M.N.S.A.N.M.C.!.B.M.).n.j & h k y e M r B r B B D A B B B r r r r B ",
"0 e e e M M e r r e M M 7 q e e B , . o n $.,.u.N.`.`.(.C.S.N.C.~.(.V.M.~.{.n.p h L i 7 r e B q 7 B B B t r B e r m r B ",
"7 w e N e r r r r r r r q 7 q e r + . f O.=.1.p.N.C.C.C.C.C.S.S.M.M.B.M.B.).}.Q 5 h 3 0 e e r q r r B r e M B e r m r M ",
"M M M M M B B r B t r B B q r r e   X b $.=.y.p.N.N.N.N.C.C.C.C.C.C.V.M.B.}.*X7.h 5 3 q m r m M D D B B B A B B e M m m ",
"M M M M r B r r r e e r B e e e q   + b =.=.,.a.0...i.~.C.C.`.n.Q I I E &..XqXL.h 4 & 7 m m r B A B r r M B A y q B m B ",
"M B M M r B r B r r r B B q r e q   o Y $.] X.k & 2 R _.{.{..X5.2 # $ $ : R @X%XR * & 7 r r m r A B B B B B D y q r M B ",
"m M M M e e r r r e e r 0 7 e q 0   o { b g &   2 h Q [.}.}.}.8.Q Y I Q ! k 8.*X7.& @ 7 e e m 8 8 r r r r t M e q q e r ",
"M M M B M M M M M M B r 0 0 m r m % + { 6 & g X.%.;.%.y.(.}.!.q.e.y.z.^.v.d.d.@Xd.g # e m r m q r B B B B B B B B B B B ",
"e M M A r M M M M A e w B q m e B $ X T j ] q.r.*...| =.C.|.v.;.o.Q d l ..g.[..X7.k 7 N r m r B B r B B y B B B B B B B ",
"e M M M r M B M B r e A B r r e M 8 X b } | s p 4 ! z ;.1.u.i.O.U X.s I U %.V..X7.h K L e M B t B B r B B B B A S S B S ",
"M M M B e e r r e M B M M r r e B M ; k =.n z ' ' ' { =.-.2.y.,.>.@.:.w.i.i.h..Xd.d.N.X.w B B e B B B r r B B r e e q t ",
"M M M M y B B B e M M M B r r r m L h l =.<.,.:.:.@.:.#.1.l.].B.f.B.p.a.a.h.!.@X^.&X XQ w B M t V S B r A D S B e B m m ",
"r M M M B B B B e M B M B e r r e ` -.T $.y.a.u.1.a.y.@.2.l.`.B.q.h.N.A.C.`..X@X_.!. XW w B m B B V B r D D F B M B B B ",
"e M M A A B B B r M B B B q m m e U 1.{ $.p.Z.N.e.i.1.-.l.x.z.z.:.e.z.`.|.@X&X.X[.B.l.8.e B B B S B V B D F G B r B B V ",
"M M M B B r r M r M M B B 7 e r w I 1.' =.M.|.`.u.e.:.1.Z././.].`.f.@.Z.&X&X*X)._..X@.;.V e t e y e y q B B B B q m e B ",
"M M M A r e e e q M M B B e M B w X.l.$.O.z.|.~.| :.i.,.h.Z.B.k.^.^.6. .V.{..X(.L.~.z.n.F B B B r B B B B B B B V B B B ",
"M M M B r m r m r M B B M B B B J [ @.i. .1.M.|  .B.,.z { :.6.U [ j.L.6. .z.C.!.r.i.XX_.B B A D S S S S D A F D A D F S ",
"M B M A r m r m r B B B B B B B N I -.,.{ <.O.| >.q.+.j j U k 5 h Q Q X.Y ;.M.n.;.L.}./ M S A B A A A D M B F S A A F S ",
"e M M B e e r m e M M B B r M B N L h.n. .|  .' b Y j > 4 j l p p l l d f } i.t.! W K 0 A B B B B B A A B S B A D F F F ",
"7 q q r q r r r r e r r r r r q r e W 5.I ` #.s a z z U '  .@.4.k.w.s x 0.>.*.7.M w q e r r r e M B B e B y r e r B m B ",
"r B B B B B B B B B B B B B B B B M M M M b | ` ] = .././.|.OX*X*X[.T t.h.%...~ M B B B B B A r G G F B F S F B m B B B ",
"e B B B B B B B B B B B B B B B B r D D J h n $.p.:.o.b.%XqXqX%Xj.w.f.!.g.[ I W B B B B B B B B F F F B S S B B B B B B ",
"r B B B B B B B B B B B B B B B B r D B D r d n %.h.:.@.s./.F.x.F.^.^.L.6.b j W B B B B B B A B F F F B S A S B B B B B ",
"q r r r q q e r e e r e e q r r e r D M A r & 6 n q.i.f.x.c.4.4.k.j.L.k.Y h R W 0 e q r r r e y G G G r r B B r B B B B ",
"N M M B e e e M e B B B y e M M r B D M B M i @ d o.q.%.o.T U U [ w.L.6.c 5 6.( e B r e m m m B G G F M F G F B B B B B ",
"M B M D B m m m B B B B B r B m M B F B B M L 6 * Y q.q.' z z U +.j.L.6.j k b./ e B B r M B B B G F F S G F S B B B B B ",
"M V B A r m m B B B B B r r m r m M D M B M L ] * d 0.a.h.w.+.w.f.f.0.R h 6.{.( e B y e B B B B G F G A G F G S B B B B ",
"e M r M e e r m q B B B y e m r m B B M D r y $.j @ b &.r.6.+...+.[ Q h c v.{.) e S t q M m M B G F G y B B y e r B B B ",
"r r B M M M M M M r B B t e M m M B B D y B K  .o.4 & k I k j k j k k 5 6.b.'.) 0 B e q M m M B G H B B V B B t B B B B ",
"M B B M M B B B B M r B B r M M r M F r r B C } <.[ 2 & 4 4 & * 2 4 * I g.n.'.d.Z S F 7 B B B S H B B F F B S y r B B B ",
"B B M M M B B B B B B r y m M M B B r 7 B K c  .<.>.[ 6 * + O + + & Q v.g.n.).].5.) ) D.7 q e B B B F S S V S B r B B B ",
"r M r M B M M B B M r B 8 r B r m 7 q P U.) b  .;.>.>...b p * 2 5 Q !.n.g.n.(..Xd.K.n 7XY.^ ^ e , B B B B B B y B B r B ",
"7 M M M r q r r r r r r r < 7 9 G _ Q.4X3X) n O.;.>.0.&.*.*.T ] ..r.).b.g.v.]..X8.P.*.3XzXtX6X=XG.P e q B B r r B M r B ",
"M D B D y B B B B B B e r P G.J.T.,X3XtX-X) ] O.>.>.q.%.&.&.&.o.+.t.)._.n.v.).XXd.I.d.uXdXwX3XiXjXtXQ.D.D B S S B m r B ",
"B B M A B B B B B q r P H.;X3X;X#X1X3XeX-X9.{ O.>.>.q.>.0.>.%.&.%.d.).).v.V.'.XXK.P.P.hXuXwX4X6X6X5XyXiXW.( A e m B r B ",
"B B M B B B B q B ( P.>XE.;X4X:X$X7X4X8X2XH.] $.<.0.0.%.0.t.q.0.q.n.).(.v.~.{..XK.K.>XhXuXwXtXtXeXtXyX3XjXlX4XG.B 9 M B ",
"B B M F r 0 q ^ Y.#X;X-XE.3X6X3X,X0X5X8X3XH.5.$.>.>.>.>.>.>.i.r.f.n.V.h.n.(.{.'.7.Y.dXdXuXuXsXyXtXyXuX3XjXpXpXkX5X_ 7 7 ",
"B B M D q ^ U.#X;X:X3X3X;X4X8X7X5XaXtX8XeXY.K.;.>.q.,.<.$.&.;.q.r.g.i.r.v.(.'.n.Q =XgXdXsXsXgXpXuXsX7XtXgXtXeXeXjXlX-X_ ",
"M M w D G.-X4X4X4X4X6X6X3X6XtX9XeXpXiXtXyXT.Q.L.$.t.q.>.$.&.&.;.q.0.>.r.v.!.V.6.9.5XsXsXgXgXhXsXpXtX1XpXpXyXeXtXsXuXpXlX",
"M M B U.:X3X2X6X8X6X6XeX5XtXyXtXtXpXiXpXpX3XP.<Xm.<.q.q.>.$.$.o.*.%.0.r.g.g.t.$XR.5XhXgXgXjXgXpXtX9X0XsXpXaXeXiXsX8XfXlX",
"M M H.;X3XtX6X6XtXtXtXtX6XtXpXuXtXgXpXpXgX5XE.<X7XL.=.<.>.<.>.>.0.t.t.t.0.d.,XeXR.uXgXgXhXkXgXpXyX0XiXsXsXuXtXgXyXyXjXgX",
"0 _ :X<XeXtX6XeXyXyXyXyXtXtXpXyXyXgXpXpXgXtXR.:XeX6X+Xr.=.$.O.$.=.=.<.g.oX6XsX6XE.sXgXgXgXjXgXpXiXtXpXsXpXuXpXjXtXfXpXgX",
"P <X4X6XtXtX8XtXyXsXiXiXtXyXpXpXyXgXpXpXsXgXE.W.yX6XwX4X$X+XI.I.[.+X$X6XdXiXkX<XW.sXsXgXgXgXgXpXtXtXpXsXsXiXkXpXyXsXiXjX",
"_ 5X6XtXyXyX6XtXpXsXpXsXuXiXpXiXuXgXpXpXsXjX:XE.pXgXtXwXeXeXeXrXiXiXiXuXpXgXkX>X<XgXsXgXgXjXjXpXtXtXiXpXsXsXjXyXfXpXpXgX",
"W.5X6XyXpXpX6X0XsXgXsXpXpXiXsXiXuXsXpXpXpXgXtXR.6XkXjXgXiXyXyXyXpXpXpXgXgXjXpX#X5XgXgXsXgXjXgXpXtXpXpXiXgXgXgXaXjXiXpXgX",
"3X4X6XtXpXpXtX7XsXgXsXsXsXpXsXyXtXsXpXpXsXsXpX#XE.fXjXjXgXjXjXgXgXgXgXgXgXkX5XT.tXgXgXgXgXjXjXpXtXgXpXtXpXkXpXpXgXyXjXjX",
"4X6X6XtXyXgXpX4XpXgXgXsXsXsXgXyXeXgXpXpXpXsXgX6XT.tXgXgXsXsXsXpXpXgXgXgXgXgX#XW.pXgXgXgXgXjXjXpXtXjXpX0XpXkXpXgXsXsXkXgX",
"6XtX6XtXtXfXjX6XyXgXgXsXsXsXgXuXeXgXpXpXsXsXgXsXE.#XgXgXgXsXpXpXpXsXgXsXgXpXT.:XgXgXgXgXsXjXjXpXtXjXpX0XsXkXpXgXiXjXsXsX",
"8XtXtX8XyXtXjXtXuXsXsXsXsXsXgXuXeXgXpXpXpXsXsXjX<XY.eXsXgXgXgXgXgXgXsXsXjX;XY.tXgXgXfXgXsXgXjXpXyXkXyX8XgXjXpXgXsXsXiXsX"
};
