/* XPM */
static char *d75945a3fde246f8b10097aadce5616c5AKa1YVhzNvCsnyk[] = {
/* columns rows colors chars-per-pixel */
"60 60 161 2 ",
"   c #262E34",
".  c #282F35",
"X  c #282F39",
"o  c #273037",
"O  c #293136",
"+  c #273139",
"@  c #2C353C",
"#  c #2E383E",
"$  c #30373E",
"%  c #313A3F",
"&  c #5C462E",
"*  c #55432E",
"=  c #584633",
"-  c #5F4931",
";  c #2E3740",
":  c #2E3A42",
">  c #323C43",
",  c #343F48",
"<  c #343B44",
"1  c #2F4047",
"2  c #354046",
"3  c #394146",
"4  c #354149",
"5  c #3A454A",
"6  c #3D484D",
"7  c #264D53",
"8  c #294E53",
"9  c #364E50",
"0  c #265157",
"q  c #295154",
"w  c #275258",
"e  c #29545A",
"r  c #395151",
"t  c #165A7D",
"y  c #1A5B7F",
"u  c #4E4A46",
"i  c #4F4B48",
"p  c #514D4A",
"a  c #4F504A",
"s  c #53524C",
"d  c #6D5742",
"f  c #796145",
"g  c #595D62",
"h  c #575C60",
"j  c #485A66",
"k  c #57656B",
"l  c #606568",
"z  c #86541F",
"x  c #875321",
"c  c #885422",
"v  c #97622E",
"b  c #9A652F",
"n  c #9F6932",
"m  c #996430",
"M  c #A26D34",
"N  c #A6733A",
"B  c #816B56",
"V  c #896F56",
"C  c #8B7157",
"Z  c #8D745A",
"A  c #877159",
"S  c #90755A",
"D  c #9D7E5C",
"F  c #91795D",
"G  c #A87941",
"H  c #BA7F45",
"J  c #B17940",
"K  c #A17F5E",
"L  c #7E8468",
"P  c #9E805E",
"I  c #AF8A5D",
"U  c #B48453",
"Y  c #8A8D6E",
"T  c #C58A4E",
"R  c #D49659",
"E  c #DD9D5F",
"W  c #DF9F61",
"Q  c #C9B97E",
"!  c #DBBB7E",
"~  c #EDAC6B",
"^  c #E7A666",
"/  c #F1AD6C",
"(  c #EBAF71",
")  c #ECB072",
"_  c #EEBE7E",
"`  c #F8B571",
"'  c #FEBA76",
"]  c #FFBB78",
"[  c #F7BE7B",
"{  c #1C5F81",
"}  c #1C6083",
"|  c #16648A",
" . c #19658C",
".. c #156087",
"X. c #007ABE",
"o. c #437F97",
"O. c #007FC2",
"+. c #598D8B",
"@. c #6B8898",
"#. c #709FA7",
"$. c #789FA4",
"%. c #709FA9",
"&. c #79A2A6",
"*. c #08CABD",
"=. c #78CBAD",
"-. c #78D7AF",
";. c #6FD8B0",
":. c #6FD7B2",
">. c #70D9B1",
",. c #6AC9A7",
"<. c #0081C5",
"1. c #0087CB",
"2. c #0088CC",
"3. c #0097CE",
"4. c #009DD0",
"5. c #309FD6",
"6. c #00A5D1",
"7. c #00B7D4",
"8. c #41A7D8",
"9. c #07D7C9",
"0. c #05DBCC",
"q. c #12DFCE",
"w. c #00C5D6",
"e. c #01D9DA",
"r. c #15E0CD",
"t. c #00EEDE",
"y. c #0DECD9",
"u. c #1FE9D1",
"i. c #01F0DD",
"p. c #2DE3CA",
"a. c #20E7D0",
"s. c #35E3C8",
"d. c #4BE0C0",
"f. c #888888",
"g. c #888787",
"h. c #99A79A",
"j. c #B8AD8F",
"k. c #BCBC86",
"l. c #ABB09A",
"z. c #B3B29E",
"x. c #8CABAE",
"c. c #93B0AE",
"v. c #D8B485",
"b. c #EAB780",
"n. c #9ED09F",
"m. c #A7CD9A",
"M. c #A9CD9A",
"N. c #B8C993",
"B. c #94D1A4",
"V. c #D1C78C",
"C. c #DBC385",
"Z. c #C3C791",
"A. c #E0C284",
"S. c #FFCC98",
"D. c #FDD5AC",
"F. c #FFD1A0",
"G. c #F6DEC2",
"H. c #FFE1C3",
"J. c #FEE8D1",
"K. c #EFF8FD",
"L. c white",
/* pixels */
". @ @ @ + + O + O O @ O O + + O + + @ @ # . & c c c c c x c c c c c c c c * O O O O O . + + + . @ @ #   O @ @ O . X + + ",
"# # # # # > > # # # # : > # > # % # : : : # - c c c c c c c c c c x x c c = > > > # > # # # # : : : > > > > > # @ ; ; ; ",
"# # # # : # # : $ # # > # : > # % # > : : : - c c c c z x c c c x c c c c = > > # # # # # # # > : : > > < > > @ + # # ; ",
"# # # # : : : > # > # # % # > # > : > : : # - c b M M M M M M M M M M v x = > > # # # : # : > : > : 4 # , > > $ @ ; # > ",
"O @ @ @ + @ + # @ @ O @ # + + + @ : : : > @ & c R ' ' ' ' ' ' ' ' ' ' T c * # # # # # + + + # : > > 1 @ @ # > # @ # # > ",
"# : : : @ @ # # + > > > # @ # @ @ : : : : # f H ^ ] ] ] ] ] ] ' ] ] ] W H d # > > > # @ # # # : : > : @ > > > # @ # # > ",
"@ : : : # # # # + > > # # + @ # # : : : > ; P ' ] ] ] ] ] ] ] ] ] ] ] ] ' S # , > # # # # # @ : : > : # > > > # @ # # > ",
"; : : : @ # # # # > > > % X # @ # : : : > # P ] D.G.x.%.b.] ] v.#.c.H.F.' Z # , > > # # # # # : > > > : 2 > > # @ ; ; > ",
"+ @ @ ; @ # O + @ : : : % + # # # : : > 4 + D ] J.K.5.2.v.] ] j.2.8.L.H.] Z @ , , > > # # # @ : > > 4 # > % # + @ # ; < ",
"o : : : : ; ; : : @ : : # @ @ @ # : : > # # K ] S.D.l.h.U H H I h.z.D.S.] F : # > > > + ; ; ; > 4 4 > > , > > # # # # > ",
"+ : : : : # # # ; : @ % # @ # # # : > # # > D ] ] ' ] ' b x c N ] ] ] ] ] Z : > + > % # # # > : 4 > > , , > > # # ; ; < ",
"@ : # : : ; @ ; # : : # # @ # # ; # # > > > K ] ] ` J n W ^ ^ R n H ] ] ] Z : : > @ # @ ; # > # % > , , # > > # # # ; < ",
"+ # ; # : : ; : : # : > . + @ # > # . > > > D ] ] ` n c ^ ' ' E c M ' ] ] S < : : > O + # # > # O > > > > > > # # ; ; < ",
"  @ @ ; @ # # # # # # # # + @ @ # + # : # # D ' ] ` n c M M M b c M ' ] ] Z # # > # @ X # # ; + # # : # @ : > # # ; ; > ",
"; : : : # > > # # # # > > @ ; 7 7 q q q q q Y A.A.! N v m v v v v G C.A.A.L q q q q 8 7 7 : ; > 2 4 > > > 2 , > # : : ; ",
"; : : : # > # # > # @ # > @ 7 *.9.9.9.9.9.9.r.a.a.p.Q ~ / ~ ~ ~ ~ k.u.a.a.q.9.9.9.9.9.9.*.8 # > 2 > : : > > 2 > @ : : > ",
"; : ; : # > # > # # # > % + w 0.t.t.t.t.t.t.t.t.t.y.n.Z.[ ] ] _ Z.B.t.t.t.t.t.t.t.t.t.t.0.0 ; ; > > > > > > , > @ ; : < ",
"# : : : @ # # # @ + # # +   7 0.t.t.t.t.t.t.t.t.t.t.t.t.C.] ] N.t.t.t.t.t.t.t.t.t.t.t.t.0.7 # + . # # @ @ # @ # . . + # ",
": : > > # : : : : : : # @ + w 0.t.t.t.t.t.t.t.t.t.t.t.t.M.V.V.B.t.t.t.t.t.t.t.t.t.t.t.t.0.w ; + @ > < , > , , 2 , , , , ",
"@ : : > @ : > > : > # @ 4 # w 0.t.t.t.t.t.t.t.t.t.t.t.t.t.t.t.t.t.t.t.t.t.t.t.t.t.t.t.t.0.w ; , < # > > > > > , , , , 2 ",
"@ : 2 1 @ : > : > # : > > ; w 0.t.t.t.t.t.t.t.t.t.t.t.t.t.t.t.t.t.t.t.t.t.t.t.t.t.t.t.t.0.e > > , > # , > , , 2 , 3 , 3 ",
"; : : 1 @ # # # @ : : > > # w 0.t.t.t.t.t.t.t.t.t.t.t.t.t.t.t.t.t.t.t.t.t.t.t.t.t.t.t.t.0.e < @ , , , # # > > # O O O # ",
"; > : 2 > , > > # > : > > ; 9 ,.;.;.;.>.;.:.s.t.t.t.t.t.t.t.t.t.t.t.t.t.t.d.>.;.;.;.;.;.,.r > > , 2 , > 3 4 3 > : > > > ",
"# : : 2 > > > > @ > > > : # u ( ] ] ] ] ] ' -.t.t.t.t.t.t.t.t.i.t.t.t.t.t.M.] ] ] ] ] ] ( u ; , , 2 2 % 3 4 5 , > > > > ",
"@ : : > > > > > : : > > : @ u ( ] ] ] ] ] ] -.t.t.t.t.t.t.t.t.t.t.t.t.t.t.M.] ] ] ] ] ] ( u : , , , , > 2 5 5 , : > > , ",
"; : : > > > # # # > : , > + u ( ] ] ] ] ] ] -.t.t.t.t.t.t.t.t.t.t.t.t.t.t.M.] ] ] ] ] ] ( i > @ % % < @ , 2 > < ; : # > ",
"; : : 4 # # @ @ + : > > > # a ) ] ] ] ] ] ] -.t.t.t.t.t.t.t.t.t.t.t.t.t.t.M.] ] ] ] ] ] ( s > > > < , , , , , , , > > , ",
": : : 4 # ; # # # : > > > > s ( ] ] ] ] ] ] -.t.t.t.t.t.t.t.t.t.t.t.t.t.t.M.] ] ] ] ] ] ( s 2 2 2 2 2 3 5 , 5 2 2 4 3 3 ",
"; : : , # ; # # # > > > > > s ( ] ] ] ] ] ] -.t.t.t.t.t.t.t.t.t.t.t.t.t.t.M.] ] ] ] ] ] ( s 2 , 2 2 2 3 : > 3 2 2 2 5 5 ",
"@ : : , # # : ; # : > 2 2 : s ( ] ] ] ] ] ] -.t.t.t.t.t.t.t.t.t.t.t.t.t.t.M.] ] ' ] ] ] ) s , , 2 2 2 3 , 5 2 3 3 5 5 5 ",
". + + + @ @ @ # # # @ # # # u ( ] ] ] ] ] ] -.t.t.t.t.t.t.t.t.t.t.t.t.t.t.M.] ] ] ] ] ] ( u # + > > , @ < % @ O @ # # % ",
"O > > > > > > > > > > > > > p ( ] ] ] ] ] ] -.t.t.t.t.t.t.t.t.t.t.t.t.t.t.M.] ] ] ] ] ] ( s < # 5 6 5 , 5 3 3 > > < > , ",
"@ > > > > > > > > > > > > > s ( ] ] ] ] ] ' -.t.t.t.t.t.t.t.t.t.t.t.t.t.t.m.] ] ] ] ] ] ( s > 2 5 6 5 , 5 5 < < > > > , ",
"# > > > > > > > > , > > , , p ) ] ] ] ] ] ] =.e.e.e.e.e.e.e.e.e.e.e.t.t.t.m.] ] ] ] ] ] ( s , < 5 5 5 > 5 3 2 < > > > > ",
"+ # > # @ + # # # # @ # # # u ( ] ] ] ] ] ] &.2.2.2.2.2.2.2.2.2.2.6.t.t.t.M.' ] ] ] ] ' ( i # > 5 6 6 # < < < % > < > < ",
": > : 4 # # # > @ 2 < % > # i ( ] ] ' ] ] ] $.2.2.2.2.2.2.2.2.2.2.3.w.e.t.M.] ] ] ' ] ] ( p ; , 6 5 5 > 6 6 5 , > < > > ",
": > > 4 : : ; # > 2 > > < ; p ) ] ] ' ] ] ] $.2.2.2.2.2.2.2.2.2.2.2.2.7.t.m.] ] ] ] ] ] ) p > 2 6 5 6 2 6 5 5 < > > < < ",
": 4 : 4 : ; ; : % , , > > # 3 B C Z Z A Z Z o.2.2.2.2.2.2.2.2.2.2.2.2.4.7.+.C Z Z Z C V B 3 > 3 5 6 6 , 5 5 5 3 > > > , ",
"@ # ; : @ @ @ # O < , > < # ; # # 2 > : 4 # | 2.2.2.2.2.2.2.2.2.2.2.2.2.2.t # , > , > @ : > > > 5 6 6 % < > > > % , > , ",
"; : > > > > : : > @ , > > # ; ; : > > 4 > >  .2.2.2.2.2.2.2.2.2.2.2.2.2.2.} > # > > # @ : : ; 3 6 6 > < 3 < , % > > < , ",
": > > > > > > > > > # > < # : : # : 4 @ # ,  .2.2.2.2.2.2.2.2.2.2.2.2.2.2.} > > O > > # : > < 4 6 < < 3 5 3 , % % > > > ",
"> > : : > > > > > > > # > # ; : > # > # , > | 2.2.2.2.2.2.2.2.2.2.2.2.2.2.} , > > @ % # # > > , > < 3 3 3 3 2 < % > > > ",
"# > : : > > > > > > > > O @ ; ; > # O , > < | 2.2.2.2.2.2.2.2.2.2.2.2.2.1.} , < > 2 O + # ; < $ O , < < 3 3 , % > > > , ",
"o ; : > # # # % # # # # # + @ + # + : > : > | 2.<.X.X.X.1.1.2.1.X.X.X.<.2.y @ @ # # + X # # ; + # < < > > < > # > > # < ",
": 4 > 4 > > > > > , > > > # ; # ; > , 2 > > | 2.O.X.X.X.1.2.2.<.X.X.X.<.2.} > , , > > # # ; ; 2 5 2 2 2 5 5 2 2 > ; ; > ",
": > : , > > > > > ; > > # @ # # # > 2 > 2 >  .2.1.1.1.1.2.2.2.2.1.1.1.1.2.} > 2 < > > @ # # ; , , , 4 4 4 4 2 2 > ; ; > ",
": > : > % > > > > # $ > > + # # ; # 2 > 2 > | 2.2.2.2.2.2.2.2.2.2.2.2.2.1.y > < % < < + @ @ > # < 2 2 2 , 2 2 < # > > > ",
"> : : 4 # @ @ # @ @ + # +   + X @ O O # # + ..2.2.2.2.2.2.2.2.2.2.2.2.2.2.t # # % > @   X @ # O . # # @ @ # @ + # + . @ ",
": : : 4 # : : : : : > : + + # ; ; O @ > , ,  .2.2.2.2.2.2.2.2.2.2.2.2.2.2.} > > > > + + ; : # O @ > > > > > > > < , , 5 ",
"> : ; > % > : # # : # @ 2 # # : : > > O > > | 2.2.2.2.2.2.2.2.2.2.1.2.2.2.{ : > : > , ; : : > < > + > > > > < < , , > 2 ",
": > > , > > : : : # : > 4 # ; ; > > > > @ >  .2.2.2.2.2.2.2.2.2.2.2.2.1.2.{ : # > , 2 ; ; > > < > > O < < , < < < , < , ",
"; > > 4 # @ @ # @ : > : 2 # ; ; ; > , , > + | 2.2.2.2.2.2.2.2.2.2.2.2.2.2.t # > 2 : , # : ; : > < < > @ > > # # O $ $ # ",
"@ > > 4 > > > > # > : : > # # ; # > , > < #  .2.2.2.2.2.2.2.2.2.2.2.2.2.2.{ @ , > : , > # > : < , < < < 5 5 5 , # > > , ",
"@ > > 4 > , > > % > : : > > # ; # > , > < #  .2.2.2.2.2.2.2.2.2.2.2.2.1.2.{ # , > > , ; ; : ; $ 3 < , > 5 3 6 2 : > > , ",
"@ > > 4 > , > > # > > : , ; # # # > , , , @  .2.2.2.2.2.2.2.2.2.2.2.2.2.2.{ # , > 2 , # ; ; : % 2 < < % 2 3 6 , ; > > , ",
": > > 4 # > > > @ > > > , + @ # # O > > > +  .1.1.1.1.1.1.1.1.1.1.1.1.1.1.y # 2 2 2 > + # # > @ > < < # > , 2 > # > > < ",
": > > 4 # # # # # > > > > # : > > % > , > > k @.@.@.@.@.@.@.@.@.@.@.@.@.@.j + 2 4 2 , % , > > > % < > > , > > , 2 2 2 2 ",
"@ : > 4 # : : # + > > > 2 : > > , 2 2 2 > > l f.f.f.f.f.f.f.f.f.f.g.g.f.f.g # , 2 > , > 2 > > > > 2 2 2 4 , 2 2 2 2 2 5 ",
"+ : : > # : : ; + > > , 5 : > , , , , > > > l g.f.f.f.f.f.f.f.f.f.g.f.f.f.h # 2 2 > > % > : : > > 2 2 5 , 2 2 2 2 2 2 5 ",
"@ : > > ; : : ; # > > , 5 # > , > , , , > > k g.f.f.f.f.f.f.f.f.f.f.f.f.f.g # , : > 2 # > : : > > 2 2 3 2 2 2 2 2 , , 5 "
};
