/* XPM */
static char *player_right1702836825[] = {
/* columns rows colors chars-per-pixel */
"60 60 95 2 ",
"   c #262E35",
".  c #282F35",
"X  c #282F39",
"o  c #273137",
"O  c #293136",
"+  c #273139",
"@  c #2C353C",
"#  c #27383F",
"$  c #2E383E",
"%  c #30373D",
"&  c #313A3E",
"*  c #3B3D3F",
"=  c #5D452D",
"-  c #5F4A2F",
";  c #5E4730",
":  c #5E4830",
">  c #664A2D",
",  c #684B2E",
"<  c #604731",
"1  c #684D30",
"2  c #263741",
"3  c #2E3740",
"4  c #263E42",
"5  c #2E3A42",
"6  c #2D3E48",
"7  c #303741",
"8  c #323C43",
"9  c #393E43",
"0  c #343F48",
"q  c #2C4145",
"w  c #2E4249",
"e  c #354046",
"r  c #3A4145",
"t  c #354149",
"y  c #3A454A",
"u  c #3D484D",
"i  c #424B46",
"p  c #4A4947",
"a  c #4A4B48",
"s  c #47534F",
"d  c #777A7B",
"f  c #797B7D",
"g  c #875421",
"h  c #885422",
"j  c #8E5A28",
"k  c #915E29",
"l  c #9A6634",
"z  c #AB723B",
"x  c #866B4E",
"c  c #9E7B55",
"v  c #90765B",
"b  c #9E7E5D",
"n  c #9F815F",
"m  c #A0825E",
"M  c #C78C50",
"N  c #CB8F51",
"B  c #CE9254",
"V  c #D5A26C",
"C  c #D8A46E",
"Z  c #E3A363",
"A  c #EBAA69",
"S  c #E5AB71",
"D  c #E1BD7F",
"F  c #FFBB76",
"G  c #FFBB78",
"H  c #0677AF",
"J  c #0977AF",
"K  c #0779B0",
"L  c #0C79B2",
"P  c #107BB1",
"I  c #4B7990",
"U  c #607C8A",
"Y  c #658B94",
"T  c #6A8898",
"R  c #64B99B",
"E  c #4C88A4",
"W  c #5289A6",
"Q  c #6F9EA6",
"!  c #709FA7",
"~  c #6FA0A7",
"^  c #06CABD",
"/  c #0BCBBE",
"(  c #2AC9B6",
")  c #6ED7AF",
"_  c #6FD8B0",
"`  c #0087CB",
"'  c #0088CC",
"]  c #08CCC0",
"[  c #00EEDE",
"{  c #20E7D0",
"}  c #888886",
"|  c #85888A",
" . c #888888",
".. c #E0BE81",
"X. c #E0C284",
/* pixels */
". @ @ @ + + O @ O @ O @ O O + + @ @ @ @ @ . > h h h h g h h h h h h h g h = O @ O O O O @ O O . @ @ #   @ @ O O X X X @ ",
"@ $ $ $ $ $ & % % 5 $ 7 8 & & 5 & @ q 5 q & , g g h h h h h h h h h h h g - 8 & & $ & $ $ $ % 5 5 5 8 & 9 7 7 $ @ 7 7 7 ",
"@ $ @ & $ $ $ 5 @ & $ 8 $ $ 8 $ $ 5 8 5 5 $ , h h h h h h h g h g h h h g ; 7 8 7 @ @ $ & @ @ 5 6 5 t 5 8 5 8 @ X 3 3 7 ",
"@ & $ @ $ 8 $ 7 5 & $ & & $ & $ & 5 8 5 q & > h g h h h g h h h h h h h h ; 7 8 7 @ $ 7 5 7 7 6 5 5 t @ 8 * 8 % 2 3 3 8 ",
"o @ @ @ @ @ + @ @ @ O $ @ @ @ X @ 5 6 5 8 @ > h h h h h g h h h h h h h h = @ & $ $ $ + @ @ @ 3 8 5 q O @ $ $ @ 2 3 X 7 ",
"@ 8 6 6 @ @ @ $ + $ & 7 3 X @ @ @ 5 5 5 6 $ , g h h h g h h g h h g h h g < @ 8 8 & @ @ @ @ 3 5 6 t q $ 8 t 5 $ X 3 7 7 ",
"# 8 5 5 2 @ @ 3 + 9 7 % @ @ @ 3 @ 3 6 5 8 $ > g h g h h h h h h g g h h g = $ 8 7 & $ 3 3 3 @ 5 5 t 5 $ e q 8 $ X 3 3 8 ",
"# 6 5 5 @ 3 @ @ @ 8 7 7 & X 3 @ @ 5 5 8 6 $ , g h h h h g h h l N N B z h < @ e 8 & @ @ 3 @ @ 5 t 5 5 $ e e 5 $ 3 5 3 7 ",
"+ # @ # + @ + + @ & $ 7 & + % @ @ 5 6 5 e @ > h h h h h g h h z G G G M g = @ 8 0 7 7 @ @ 3 2 5 8 6 t @ 7 & $ @ @ @ 5 8 ",
"O 5 5 5 8 # 5 8 $ @ 7 & 3 @ @ 3 @ 5 5 t $ @ , h h h h h h h h z G G G A B x 5 @ 8 7 7 @ 3 3 3 0 t t 7 8 9 8 7 $ @ @ 3 8 ",
"@ 5 5 $ 5 $ 4 3 # 5 @ $ 7 X @ 7 @ 6 8 $ $ & , h g h g h h h h z G G G G F n 5 8 O 7 8 3 3 3 8 5 e & 8 e 0 8 8 $ 3 3 3 8 ",
"@ $ # 5 5 # # 3 5 5 5 @ 7 X 3 X & @ $ $ 7 & > h h h h h h j A A G G G G G n 5 5 8 $ 7 X @ 3 7 @ & & 0 e & 8 7 $ 3 3 3 8 ",
"o # $ # 5 $ 3 3 $ 3 5 5 o + @ 2 7 @ . 7 $ 8 > h h g j h h k F G G G F G F n 7 & $ 8 O + 3 @ 7 @ O 8 8 8 & 8 $ $ @ 3 3 8 ",
"o @ @ # @ & $ @ 7 # $ $ @ + @ @ @ + $ & $ $ c Z Z Z Z Z Z Z G G G F G G F b @ @ & $ @ + @ @ 3 @ $ 3 5 $ $ $ 8 $ @ 3 3 8 ",
"# 5 5 6 $ 8 7 & & $ @ & 8 @ @ @ @ 5 6 5 5 5 m S S S ..X.X.X.X.X.X.D S S S v 5 $ 8 8 & + 3 3 @ 0 t t 8 8 e e e & 3 3 5 7 ",
"4 8 6 8 $ 8 $ $ 7 $ @ $ 9 + @ @ 5 $ 6 8 5 & u a a s ( { { { { { { ( i p a r 5 9 & 7 7 @ @ 5 @ 7 e 8 5 5 & 8 q & @ 3 3 7 ",
"3 5 3 6 $ & $ 8 $ @ @ $ 7 X @ @ @ $ 5 $ 7 8 $ 5 8 q ^ [ [ [ [ [ [ / 3 $ & & $ $ $ 8 & @ 3 @ 3 5 8 e 8 8 8 8 e 7 @ @ 7 7 ",
"# q 5 q @ $ @ $ $ @ @ 5 +   @ X @ +   @ O + @ o o q ^ [ [ [ [ [ [ / # # @ @ $ $ # & @   @ @ @ X O @ @ @ @ $ @ @ . o @ % ",
"5 q 8 8 $ 5 6 8 5 $ 5 @ + + 2 3 @ O O 8 8 & $ $ # w / [ [ [ [ [ [ / 4 8 5 8 5 $ q $ o o 7 3 & + O 8 8 e * t 8 0 0 8 8 0 ",
"$ 5 q 5 $ 5 8 q 5 t 5 @ t 3 3 @ 5 & 8 $ 8 7 7 % $ w ^ [ [ [ [ [ [ / q 5 $ 5 # $ $ $ t $ @ 5 7 8 8 % 8 8 7 $ 9 8 8 0 0 r ",
"@ 5 t q $ 5 5 5 5 $ 4 8 0 3 3 @ @ 7 8 9 + 7 & 5 q w / [ [ [ [ [ [ / 4 8 5 8 6 5 # 8 8 @ 3 5 7 8 e 8 $ 8 8 8 e e 9 r 0 r ",
"# q 5 8 @ $ $ $ $ 5 6 8 8 5 3 @ 7 7 0 8 8 @ @ # $ q ^ [ [ [ [ [ [ / # O @ @ @ 5 8 t 6 @ 3 7 0 @ r e r @ $ 7 8 & @ . O @ ",
"5 8 5 t & e 8 8 $ 6 5 8 6 @ @ 3 5 8 8 7 8 8 5 t e e R _ _ _ _ _ _ R $ 8 $ & @ 8 t 8 6 $ 7 7 7 7 0 0 8 & y t 0 9 5 8 7 8 ",
"@ 5 6 q 8 8 7 & @ 8 8 6 5 3 3 @ 5 7 e 9 8 & t 8 q r C G G G G G F C & 7 & $ $ 8 8 w 5 7 7 5 5 0 9 r e & y t y 0 7 8 7 0 ",
"# 8 5 t 8 8 8 & $ t 6 6 5 @ 5 @ @ & 8 e r @ q t t r V F G G F G G C 0 7 8 7 @ 6 t e 8 $ 7 5 $ 8 0 0 8 7 e y y 0 5 7 8 0 ",
"@ 6 6 8 $ 5 & $ @ t 5 8 8 + @ $ 5 @ & & 0 @ 5 8 5 * V F G G G G G C & % $ & @ 8 8 e e @ $ $ & $ & & 9 @ 0 e 8 * 3 7 @ 8 ",
"5 6 5 t @ @ @ @ + 8 6 8 t $ $ 5 5 5 # 5 5 5 q & q r C F G G G G G V % @ @ @ @ 8 t t e $ 0 8 5 & 8 8 0 8 e e t 8 e 8 8 e ",
"5 5 5 8 @ 3 3 @ @ 5 t 8 5 8 6 8 8 8 e 8 t t e q 8 r C F G G F G F V % 5 5 7 @ 8 e t r 8 e 0 e e e r e y y e t e e t e e ",
"3 8 6 8 @ 3 3 3 @ 8 8 6 t 8 q 8 t 8 6 t t t 5 $ $ r V G G G G G F V & 3 7 7 @ 0 y e 0 8 e e e e e e e y 5 8 r e 0 0 r r ",
"# 5 5 e @ 3 3 3 $ 5 6 t t $ 8 8 5 q 8 e 8 6 e 5 5 r C F G G G G F V & 3 $ 7 @ t t y e & e e 8 e e e e y e y e t y u u u ",
"  O @ @ @ @ @ @ & @ @ @ $ @ @ O @ # $ # @ @ $ $ $ * V F G G G G F V * @ $ @ + 3 @ @ + @ % $ $ O 8 8 8 O 8 & $ O @ @ @ & ",
"O 8 8 7 & 0 7 8 8 8 7 8 8 8 8 8 & 3 t e t & e 8 8 * V G G G G G F V r 7 7 8 9 0 & 8 9 8 8 8 8 $ y u u e y r y 8 8 8 7 0 ",
"@ & 8 & 8 7 8 8 & 8 8 8 8 8 8 8 8 $ e t 8 8 8 0 8 * C F G G G G G V 9 @ 5 8 0 7 0 8 9 8 8 8 8 r y u t 0 y y e & 7 8 7 e ",
"@ 8 8 7 7 8 8 8 8 0 e 7 8 e 8 8 e $ t t t 8 8 0 9 r V F G G G F G V 9 $ 9 e 0 9 8 8 8 0 7 0 0 8 u y u 8 y r e 8 8 7 7 0 ",
"O $ $ $ @ + @ 7 @ @ % + % @ % % @ 5 t 8 0 @ @ & & * V F F G G G G V & @ @ & % % & @ % @ @ @ % & y u u $ 8 8 8 % 7 9 7 0 ",
"5 6 5 t 3 @ @ 7 % 0 8 9 7 @ 7 & 3 6 y 6 6 @ e e e r V G F G G G G V 9 @ @ 7 @ 0 9 7 & @ 7 7 & 8 u y y 7 u u r r 8 0 7 8 ",
"5 8 6 8 5 7 5 @ & 0 9 & 8 5 7 3 5 8 y 8 8 8 t 8 8 r V F F G G G G V 8 & 3 3 & 8 0 7 8 $ 7 8 7 r u y u y u y y e 7 7 0 8 ",
"3 t 5 t 7 @ @ 5 & 0 8 8 9 @ 3 3 3 5 t 5 5 8 y 8 8 e Y ~ Q ~ ! ! ! Y 7 3 @ @ & 8 0 9 & @ 7 8 8 t y u u 0 y y y r 8 8 8 8 ",
"# $ # 5 @ @ @ $ @ 9 8 8 0 3 3 @ 3 e q 3 t $ 7 8 8 3 H ' ' ' ' ' ' L @ @ @ @ @ 8 7 8 7 @ 3 5 7 t y u u & e & & 8 & 0 8 e ",
"5 5 8 8 8 6 8 5 $ @ 0 8 7 @ 7 3 5 8 t t & 8 9 8 r 6 H ' ' ' ' ' ' K 6 5 0 e 0 @ 8 8 $ @ 7 7 @ y u u 8 8 r r 8 & & 8 7 0 ",
"$ q 5 e q 5 5 8 8 8 $ 5 8 % 7 5 7 5 t $ @ e 8 8 0 6 K ' ' ' ' ' ` L w 8 e & 8 8 O * 7 $ 5 7 8 t u * 8 r y 9 e & 7 8 0 7 ",
"8 e $ 5 & e t 8 t 5 e $ & @ 3 7 7 # 7 @ 8 8 8 8 8 6 K ' ' ' ' ' ` L q e 8 e e 8 8 @ & 3 3 7 7 0 8 8 r r y 9 e 7 7 7 9 8 ",
"$ 8 5 8 e 8 8 8 $ 8 8 8 + @ 3 3 8 & O e 7 8 8 & 9 6 H ' ' ' ' ' ' J t 8 e 8 8 e & e O + 3 3 8 % O e e 8 9 9 0 * 8 8 7 e ",
"o # # $ @ $ $ & $ $ $ @ @ + @ + @ O 8 8 & 8 & 5 7 2 H ' ' ' ' ' ' L # @ $ & @ @ $ $ O + 3 @ 7 + $ 8 * q 8 0 & $ 8 7 @ 8 ",
"5 t q e 8 8 8 8 9 8 8 8 7 @ 3 @ 7 8 e 8 q e 8 t 8 w K ' ' ' ' ' ' L 8 e e 8 8 0 8 8 8 @ @ 3 3 0 r e e r y y e e 5 5 $ 7 ",
"5 t 5 t & 8 8 8 7 7 & 7 & @ 3 3 @ 0 e 8 e 5 e 8 5 6 H ' ' ' ' ' ' L 8 8 r 8 * e r 8 7 @ 3 3 @ 0 e e r e e r e e 7 7 5 8 ",
"8 8 3 6 & & $ $ 7 $ % 7 7 X @ 3 & @ e 8 e 8 8 7 5 6 H ' ' ' ' ' ' L 8 8 8 8 8 8 & 8 7 + @ 3 7 & 8 e r e e e r e & 7 7 8 ",
"6 6 5 t $ $ $ $ $ @ + % @   @ X @ @ O @ @ o @ @ @ 2 K ' ' ' ' ' ' L # @ O o $ $ $ * @   + @ @ O o @ $ @ O $ O @ $ + O @ ",
"5 8 3 t $ 5 q 8 8 $ t $ # o 3 3 3 O % 8 8 9 8 9 7 w K ' ' ' ' ' ' L 6 8 5 e 5 e e $ @ + 5 3 & O @ 8 8 8 8 8 * 8 8 r 8 y ",
"5 5 @ 6 $ t # $ # 5 $ @ t @ @ 7 8 7 8 @ 8 & 3 5 5 6 K ' ' ' ' ' ' L q 5 8 5 $ $ $ 8 e @ 7 5 7 8 8 O 8 8 8 8 8 8 r 8 8 r ",
"5 5 6 t $ e $ $ 5 $ 5 8 e @ @ 3 7 7 8 8 @ 7 7 8 7 t K ' ' ' ' ' ' L t 8 q $ q $ 8 8 t 5 @ 7 7 8 8 8 O 8 8 0 * & 8 9 0 9 ",
"3 t 8 t $ @ $ $ @ 5 8 q e @ 5 3 5 7 e 8 8 + $ & & 6 K ' ' ' ' ' ' L 3 # @ $ @ 8 e 8 0 @ 7 5 7 8 9 * 8 $ * & $ $ @ % & % ",
"@ 8 6 t & 8 & 8 $ e 5 5 8 @ @ 3 % 8 0 & 0 % e e e t H ' ' ' ' ' ' L 6 7 & 8 @ 8 8 $ e 7 $ 7 7 8 e 8 e & y y y e @ 7 7 t ",
"@ 6 0 t e 8 8 8 $ 8 5 5 0 5 3 5 & 8 8 8 8 % r e 0 w K ' ' ' ' ' ' L t 8 8 & % e 0 8 8 & 5 7 7 & e * e 8 t y u r 5 7 7 t ",
"@ 5 8 t 7 8 8 8 $ 8 8 6 0 @ @ @ @ 8 e e 8 @ e e r t I E W W ' ' ' L t 8 8 & % e 8 e 0 3 @ 7 5 & e * 8 * 0 y u 8 5 5 5 e ",
"5 q 8 t $ & & & $ t 8 8 8 @ @ $ @ O & 8 8 O 8 8 8 0 d  .} | ' ' ` P 8 7 & % % 0 e e 8 + 5 @ & O & 8 8 @ 8 0 t 8 @ & 8 $ ",
"5 8 8 t @ 3 3 @ @ 6 8 0 e $ # & 7 8 8 0 $ $ e & e y d }  . .T T T U % $ @ @ + e y e 0 & 8 & 8 8 & e & e 8 8 t e e e e 9 ",
"@ 6 0 t @ 7 5 @ @ 8 0 0 e $ 8 e e e e e e 8 e 5 $ u f }  . . . . .f 8 7 5 5 @ e e 8 e & e e 8 8 t e e e r 8 t e e e e y ",
"+ 6 6 8 % 3 5 @ O 6 6 t y $ 8 e e e 8 8 & 8 e $ 8 y f  . . .}  . .f & 7 8 7 @ e e 5 8 & e # $ e t e e r t e e e e 9 e y ",
"@ 8 6 t @ 3 3 @ @ 8 6 t t $ t 8 8 8 e e e 8 q 5 5 t f  . . . . . .d 0 8 7 7 $ e 5 e e $ & q 5 8 8 q e r e e e e e e e y "
};
