/* XPM */
static char *player_up_601702917947[] = {
/* columns rows colors chars-per-pixel */
"60 60 150 2 ",
"   c #746D3F",
".  c #746D41",
"X  c #875421",
"o  c #885422",
"O  c #8E5B26",
"+  c #8E5A28",
"@  c #986530",
"#  c #A26B35",
"$  c #857D4E",
"%  c #73AE4B",
"&  c #73B04A",
"*  c #79B34F",
"=  c #76AF50",
"-  c #77B252",
";  c #7BB354",
":  c #7FB658",
">  c #7E996C",
",  c #7C9D66",
"<  c #669E71",
"1  c #649A78",
"2  c #6EC16F",
"3  c #6CC373",
"4  c #70C270",
"5  c #73CC73",
"6  c #7ECF70",
"7  c #7BD171",
"8  c #86833C",
"9  c #8A883E",
"0  c #89853C",
"q  c #868C42",
"w  c #8E8A40",
"e  c #918D44",
"r  c #8E9643",
"t  c #909843",
"y  c #97904A",
"u  c #8E8252",
"i  c #81BA4F",
"p  c #81B757",
"a  c #89B151",
"s  c #82BC54",
"d  c #81B759",
"f  c #83B95B",
"g  c #89BD5E",
"h  c #99BA5F",
"j  c #B9B95F",
"k  c #86BB60",
"l  c #8BBC62",
"z  c #8EBE6A",
"x  c #84BE6A",
"c  c #9DBB66",
"v  c #92BE6B",
"b  c #9FBC68",
"n  c #88A672",
"m  c #ADB965",
"M  c #A2BD6D",
"N  c #AEBA68",
"B  c #BFB462",
"V  c #B1BE66",
"C  c #E6A666",
"Z  c #E7A865",
"A  c #F5BB75",
"S  c #FBBC76",
"D  c #FFBB78",
"F  c #8CC25D",
"G  c #8CCA5D",
"H  c #90C45E",
"J  c #92CA5C",
"K  c #98C95C",
"L  c #9AC05D",
"P  c #A2C25F",
"I  c #87C061",
"U  c #8EC261",
"Y  c #8FC16B",
"T  c #92C564",
"R  c #94CC62",
"E  c #9ACE66",
"W  c #92C46A",
"Q  c #97C96C",
"!  c #9ACC6C",
"~  c #9CD06B",
"^  c #80CF7E",
"/  c #9AC772",
"(  c #9DCB72",
")  c #9FD170",
"_  c #A1C063",
"`  c #A5C962",
"'  c #A9C966",
"]  c #A5C66F",
"[  c #A9C968",
"{  c #B5C565",
"}  c #B8C665",
"|  c #A9CA7B",
" . c #A5D577",
".. c #A6D579",
"X. c #A8D67A",
"o. c #359A93",
"O. c #389C94",
"+. c #3C9F9A",
"@. c #3CA098",
"#. c #4F9D9D",
"$. c #46A28E",
"%. c #4CA98E",
"&. c #4AA691",
"*. c #4FAC91",
"=. c #50AD90",
"-. c #5AB39F",
";. c #6AA58F",
":. c #5B87A0",
">. c #5A88A0",
",. c #749FA6",
"<. c #5CB3A0",
"1. c #75A0A6",
"2. c #5ADCB8",
"3. c #73C9AC",
"4. c #73D8AE",
"5. c #0087CB",
"6. c #0088CC",
"7. c #0090CD",
"8. c #00A0D0",
"9. c #00ABD3",
"0. c #01B4D3",
"q. c #01BED4",
"w. c #00C2D6",
"e. c #00D4D9",
"r. c #00DFDC",
"t. c #0DE0CD",
"y. c #17E7CB",
"u. c #0CEAD2",
"i. c #00E1DB",
"p. c #00EEDE",
"a. c #14EAD3",
"s. c #18E9D4",
"d. c #3DE2C2",
"f. c gray53",
"g. c #898788",
"h. c #878988",
"j. c #888888",
"k. c #98B380",
"l. c #ADAC95",
"z. c #D2BE81",
"x. c #8FD887",
"c. c #8CD989",
"v. c #91D988",
"b. c #A0D481",
"n. c #ACCC9A",
"m. c #ADC498",
"M. c #87D2A7",
"N. c #8AD3A2",
"B. c #88D3A8",
"V. c #D7C388",
/* pixels */
"J J J F p f F R R E  . .........T & & & ....y o o o o o o o o o o o o o o r R R d d f f f f F J J J f f f f f f F J J J ",
"J J J F d f F R R R  . .........Y & % % ....y o o o o o o o o o o o o o o t R R d d d f d f F J J J f f f f f f s J J J ",
"J J J g d f F R R R ) ..........Y - % % .. .y o o o o o o X o o o o o o o r R R f d : f f f F J J K g f f : f f F J J J ",
"J J J F k k F J R R b.....~ ~ E U ; : ; ~ ~ e o o o o o o o o o o o o o o r R J f f d f d p T ) ~ ~ f f f F F F F J J J ",
"J J K F k l T J J K ..) X.E J J G : d f R R w o o o X o o o o o X X X o X r J J f f f f f : Q  ... .f : f F J J J J H J ",
"J J J T l l g J J K ....X.E J J G f f f R R w o o o o o o o o o X X X X o r J J f f f : f f W .... .f ; f F J J J J J J ",
"J J J F l l l H F F Q Q Q ! E E T l l l F U 9 o o o o o o o o o X O X X o 9 F F F F F F U I T ~ ) ) F F F F J J J F G G ",
"J J K g l l g p f f f d f Q ....( W v v f f 8 o o o o o o o o o X X X X O q f g J J J J R R R J J J J J J J J J F f p f ",
"J J J F l l g f f f d f f Q ....( v v Y k f 8 o o o o o o o o o o X o o o q f f J J J J R R J J J J J J J J J J G f p f ",
"J J J g g v f d f f f l g ! ....( v v v f f 8 o o o o o o o o o o o o o o q s d J R J J R J E J J J J J J J J J F p f f ",
"% & % ; f f f f f f ............( v v z f f 8 o o X X X o o o o o o o o o r J J g f f g s f T X.X...X.X. .E J J U f f f ",
"% % & ; f f f f f d ........X.X.( v v W f f 8 o o X X X o o o o o o o o o r J J f f f f f f W .. .X...X. .E J J F f f f ",
"% % % ; g p p f f f ....X.......( v v W s f 0 O O O X X o o o o o O O O O t J J d f f f f f W ..X... ...X.E H J F p d d ",
"F s s g l l f ; ; ; Q Q Q Q E E T g k k F G B C C C @ X o o o o o # Z Z Z j J J f f f Y / ! Q T W T / / ( W T T T F F F ",
"J J J T v Y k % % % l l l H F 6 5 2 4 2 7 7 n.V.V.B u     . . .   u V.V.V.| 6 6 4 4 4 ^ v.X.( p f f W z W z k k F K J J ",
"J J J K v v k % % % l l l T 7 y.u.t.u.u.a.a.a.s.s.s.t.t.t.t.t.t.t.t.s.a.a.a.u.u.u.u.u.u.y.v.Q f : f v v z z l l H H J J ",
"K J H J T T F s : s F F U F 5 u.p.p.p.p.p.p.p.p.p.p.p.p.p.p.p.p.p.p.p.p.p.p.p.p.p.p.p.p.u.^ T p f f l I l I U F F F F F ",
"J J J J J J J J J J J J J F 3 p.p.p.p.p.p.p.p.p.p.p.p.p.p.p.p.p.p.p.p.p.p.p.p.p.p.p.p.p.u.2 p p f f f f g G R R U f f f ",
"J J J J J J J J J J G J J F 3 u.p.p.p.p.p.p.p.p.p.p.p.p.p.p.p.p.p.p.p.p.p.p.p.p.p.p.p.p.u.2 f f f f f f f U R R U f d f ",
"K J J J J J J J J J J J G F 3 p.p.p.p.p.p.p.p.p.p.p.p.p.p.p.p.p.p.p.p.p.p.p.p.p.p.p.p.p.u.2 g f g f f f g F R R F F g d ",
" .....E J J E  . ...U l l g 3 u.p.p.p.p.p.p.p.p.p.p.p.p.p.p.p.p.p.p.p.p.p.p.p.p.p.p.p.p.a.c.) E R R J J J J R R R R R R ",
" .X...~ J J ~ ......l l l k 3 u.p.p.p.p.p.p.p.p.p.p.p.p.p.p.p.p.p.p.p.p.p.p.p.p.p.p.p.p.u.x.) J R R J J J R R R R R R R ",
"X.X...~ K K ~ ..X...l l l f I N.B.B.B.B.B.B.d.p.p.p.p.p.p.p.p.p.p.p.p.p.p.2.M.M.B.B.B.B.N.b.~ Q R R J J J R R T R R R R ",
"! ~ E F s s H ~ ! E J F U G ` S D D D D D D 4.p.p.p.p.p.p.p.p.p.p.p.p.p.p.n.D D D D D D A ] T R J R J J R F U F U I F I ",
"J J J F & - F J J J J J J J P S D D D D D D 4.p.p.p.p.p.p.p.p.p.p.p.p.p.p.n.D D S D D D A c g J J J R R R F f d f f f f ",
"J J J : - - s J J J J J J J P A D D D D D D 4.p.p.p.p.p.p.p.p.p.p.p.p.p.p.n.D D S D D D A M T J J J R R R F f f f f f f ",
"J J J F F s F J J J F U F G ` S D D D D D D 4.p.p.p.p.p.p.p.p.p.p.p.p.p.p.n.D D S S D S A c l J F F F U G Y T W I f f d ",
"J J J J J J J J J J : f : G ' S D D D D D D 4.p.p.p.p.p.p.p.p.p.p.p.p.p.p.n.D D D D S S A M I f f f f f d ! .. .Q g f f ",
"J J J J R J J J J J f f f F [ S D D D D D D 4.p.p.p.p.p.p.p.p.p.p.p.p.p.p.n.D D D D D D A b z f f f f f d ! ..X./ d f f ",
"J K R J R R R J R J f f d G [ A D D D D D D 4.p.p.p.p.p.p.p.p.p.p.p.p.p.p.n.D D D D D D A M l d f f d f f ! ....Q d g d ",
"f f f F J J ~  . . .F f f U [ S D D D D D D 4.p.p.p.p.p.p.p.p.p.p.p.p.p.p.n.D D D D D D A a ; s f f f f g k k z F R J J ",
"f f p G J J ~ .... .d f f U [ A D D D D D D 4.p.p.p.p.p.p.p.p.p.p.p.p.p.p.n.D D D D D D A a ; f f f f d d k l k U J J K ",
"f f f F J J E .... .f f f U [ A D D D D D D 4.p.p.p.p.p.p.p.p.p.p.p.p.p.p.n.D D D D D D A a ; f f f f s f l l l U J J J ",
"l z l U F F W .... .F F U F ` A D D D D D D 3.e.e.e.e.e.p.p.p.p.p.p.e.e.e.m.D D D D D D A h F d f f l f g U F T U U F U ",
"z v Y l f f W X.X. .J J J F c A D D D D D D ,.6.6.6.6.6.i.p.p.p.p.e.5.5.6.l.D D D D D D A ` F d f g l l k J J H T l l k ",
"v v z k f f W ......J J J F h A D D D D D D ,.6.6.6.6.6.0.w.p.i.w.9.5.6.6.l.D D D D D D A ` F f f f l k k T J J T l l l ",
"/ / / Y F U T ! ! ! F F F s c A D D D D D D ,.6.6.6.6.6.6.7.p.e.6.6.6.6.6.l.D D D D D D A ` R F F F Q W W K J J F g k l ",
"X.b...~ R J F f : f d d : p g m V } } } m N #.6.6.6.6.6.6.6.9.8.6.6.6.6.6.;.m m N N m } { R J R R R ......E J J F p f p ",
"X.....~ R R F f f f d : : f f d F J J J p p +.6.6.6.6.6.6.6.6.6.6.6.5.6.6.$.p p f f f F J J G R R R .. ...E J J H f f f ",
"X.....~ R R U f s f f d d f g s s J G R d d +.6.6.6.6.6.6.6.6.6.6.6.6.6.6.$.p p f d d F J J R R E R .. . .~ J J F p g f ",
"g f s T R R Q v W z f f f U J J F p d p ; ; O.6.5.6.6.6.6.6.6.5.6.6.6.6.6.$.p p f f f ! ....! l l g E R Q K J J l l z l ",
"f f f F R J T v v v f f f F J J F p d d ; ; O.6.6.6.6.6.6.6.6.6.6.6.6.6.6.$.d p f f f Q ..X.( l l l K R R J J J K l l l ",
"f f f G R R T v v v d f f F J J F p d : - - O.6.6.6.6.6.6.6.6.6.6.6.6.6.6.&.p p f f f Q ..X.! l k l R R R J G J T k l l ",
"f f f f s s F (  .( U F F F F F T Q Q Q - * o.6.6.6.6.6.6.6.6.6.6.6.6.6.6.%.F G Q ! / Q W T T T T J R R J R T F g ; ; : ",
"f f f - % % l .. ...J J J F : d W  .....% % o.6.6.6.6.6.6.6.6.6.6.6.6.6.6.=.J J X.X...W f f F K J J R R R T l l p % % % ",
"f f d ; % % U  ... .J J J F f f T ......% % o.5.6.6.6.6.6.6.6.6.6.6.6.6.6.=.J J X. ...W f f F J J J J R R l l l d % % % ",
"f f f : - - k Q ! ! T T T U g F Q  . ...- ; O.6.5.6.6.6.6.6.6.6.6.6.6.6.6.=.J J  . ...W d d s J J J ~ ! ! T f f d * = - ",
"f d d f f f f f f f v v W T J G E ..X. .f f +.6.6.6.6.6.6.6.6.5.6.6.6.6.6.=.J J X.....T d p F R Q R ....X.l - - p f p p ",
"f f f f f f f f f k z z z T J J ~ .... .d f +.6.6.6.5.6.6.6.6.6.6.6.6.6.6.=.J R X...X.W : p F J R E ......U - - d d d p ",
"f f f f f f f f f f Y Y v T J K E .... .f f +.6.6.6.6.6.6.6.6.6.6.6.6.6.6.=.J R ......T d d g Q R R .... .U ; ; ; f d d ",
"J R J F l l f f f f f f k Q .. .( v v v f f +.6.6.6.6.6.6.6.6.6.6.6.6.6.6.-. . .g f p ; = % : v v v K R J F f f ; % % % ",
"J J J U l I k f f f f f f / .... .z v z f f +.6.6.6.6.6.6.6.6.6.6.6.6.6.6.-.....f f f ; % % d v v W J J J F f f p % % % ",
"J J J U l l k d f f f f f ! ....( v Y v k f +.6.6.6.6.6.6.6.6.6.6.6.6.6.6.<.....f f f - & % p v v v J J J F d d ; % % % ",
"J J J E ! ( Q l l l f f f U W W Y l k l ; ; O.6.6.6.6.6.6.6.6.6.6.6.6.6.6.&.U l : : : - % % ; l l k J J G F f f p d ; d ",
"J J J ~ ....( Y v Y f f f : f f f f f f % % 1 :.:.>.>.:.:.>.:.>.>.>.:.:.>.< & = ; - ; = % % - f f f J G J F f f f f f f ",
"J J J ) X...( v Y W f f f f d f f d f f % % > g.h.g.h.h.g.h.h.g.j.j.f.f.f., % % - ; = % % & - f p g J J J F f f p f f f ",
"J J J U T T T T T T f p f f f f g g F s & % > f.f.f.f.f.g.h.g.h.j.j.j.j.j.n l I : : : : : s s l l l E ~ E T d f f l l l ",
"J J J s % & s J J J f f f d f f F J J J & & > f.f.f.h.f.h.g.h.g.h.j.g.f.f.k.X...f : : J J K T v v v ..X.X.W d f l v v W ",
"J J J ; & & i J J K g f f f f f F J J J & & > f.j.j.h.h.g.h.j.j.h.g.g.h.h.k.....f f f F J J T v v v X.X...W f f k v v v ",
"J J J i & & i J J T p f f f f d F J J J & & > f.j.j.j.f.h.g.h.j.f.h.g.h.f.k...X.f f f F J J T W v v b.X...W f f k v v v "
};
