/* XPM */
static char *player_up1702836824[] = {
/* columns rows colors chars-per-pixel */
"60 60 130 2 ",
"   c #262E35",
".  c #282F35",
"X  c #282F39",
"o  c #273037",
"O  c #293136",
"+  c #273139",
"@  c #2C353C",
"#  c #2E383E",
"$  c #30373E",
"%  c #313A3E",
"&  c #55432D",
"*  c #5F462E",
"=  c #574433",
"-  c #584732",
";  c #5B4A34",
":  c #61492F",
">  c #614A32",
",  c #746D3F",
"<  c #2E3740",
"1  c #2E3B42",
"2  c #303741",
"3  c #323C43",
"4  c #3A3F45",
"5  c #343F48",
"6  c #2F4047",
"7  c #354046",
"8  c #394146",
"9  c #354148",
"0  c #3A454A",
"q  c #3D484D",
"w  c #254F54",
"e  c #284F56",
"r  c #265156",
"t  c #285457",
"y  c #25565A",
"u  c #295559",
"i  c #26585C",
"p  c #28585A",
"a  c #3D5151",
"s  c #17597B",
"d  c #195B7E",
"f  c #4D4B46",
"g  c #4F4B48",
"h  c #564F47",
"j  c #544E4A",
"k  c #54524C",
"l  c #59544D",
"z  c #55585F",
"x  c #715F53",
"c  c #746D41",
"v  c #72614F",
"b  c #6F6252",
"n  c #756552",
"m  c #796753",
"M  c #776855",
"N  c #7A6A56",
"B  c #445E6F",
"V  c #585C62",
"C  c #4B6878",
"Z  c #616669",
"A  c #875422",
"S  c #885422",
"D  c #8E5B26",
"F  c #986530",
"G  c #A16A34",
"H  c #857D4E",
"J  c #836950",
"K  c #927354",
"L  c #79876E",
"P  c #8D8352",
"I  c #889373",
"U  c #E6A666",
"Y  c #E8A765",
"T  c #EBAF71",
"R  c #ECB072",
"E  c #F3B375",
"W  c #FFBB77",
"Q  c #FFBB78",
"!  c #1C5E81",
"~  c #1D6182",
"^  c #16658C",
"/  c #18678E",
"(  c #19688F",
")  c #186A90",
"_  c #3A7B99",
"`  c #4C7787",
"'  c #5B87A0",
"]  c #5A88A0",
"[  c #749FA6",
"{  c #75A0A6",
"}  c #5ADCB8",
"|  c #74C9AC",
" . c #73D8AE",
".. c #0087CB",
"X. c #0088CC",
"o. c #0090CD",
"O. c #00A0D0",
"+. c #00ABD3",
"@. c #01B4D3",
"#. c #00BED4",
"$. c #08CEC1",
"%. c #06D2C6",
"&. c #05DDCE",
"*. c #00C2D6",
"=. c #05DDD0",
"-. c #00D4D8",
";. c #00DFDC",
":. c #0DE0CD",
">. c #11E2CD",
",. c #03E3D3",
"<. c #0CE3D1",
"1. c #00E1DB",
"2. c #00EEDE",
"3. c #10E5D1",
"4. c #16EAD3",
"5. c #18E9D4",
"6. c #3DE2C2",
"7. c #01EFE0",
"8. c #878988",
"9. c #888888",
"0. c #ACAC94",
"q. c #D2BE81",
"w. c #81C59E",
"e. c #82C99F",
"r. c #ADC498",
"t. c #ACCC9A",
"y. c #87D2A7",
"u. c #88D3A8",
"i. c #D7C388",
"p. c #D8C489",
/* pixels */
". @ @ @ O @ O O O O @ @ O O @ O O @ @ # @   * S S S S S S S S S S S S S S & @ O @ O O O O O O + + @ @   O @ O O X X X O ",
"@ # < # # < % # % # # 2 3 % 2 # % # 1 1 6 % : S S S S S S S S S S S S S S - 2 3 % # % % # # 2 3 1 1 9 1 3 3 3 % < < < < ",
"@ # @ % 1 # # < # # 1 % # # 3 # % # 6 1 6 @ : S S S S S S A S S S S S S S - 2 % % @ @ @ 1 # < 1 6 1 9 < 3 3 3 O X < < < ",
"@ % # @ # 1 # 3 3 % # % % # % # < 1 6 1 6 % : S S S S S S S S S S S S S S - 2 3 # # % 2 2 < < 1 3 1 9 @ 3 2 3 % < < < < ",
"+ < < 1 @ @ @ @ @ @ O @ @ + @ X @ 1 6 1 6 @ : S S S S S S S S S S S S A S & @ @ @ @ @ @ @ @ @ < 6 # 6 @ @ @ % # < < < < ",
"@ 1 1 1 @ @ @ @ O 3 % 3 < X < @ @ < 1 1 6 # > S S S S S S S S S S S S S S ; @ 3 3 2 @ @ @ @ < 1 1 6 6 @ 7 3 3 # + < < < ",
"@ 6 1 1 @ < @ @ O 2 2 < @ @ @ @ @ 1 1 1 1 # ; S S S S S A S S S S S S S S - # 3 3 % $ < @ @ @ 1 1 9 # # 7 # 1 # X < < 2 ",
"1 1 1 1 @ @ < @ # 2 3 2 2 O < @ < 1 1 1 1 1 ; S A S S S S S S S S S S S S = @ 3 3 % @ @ < < < 1 1 6 6 # 9 7 6 # < < < 3 ",
"+ + 1 + + @ + + + # # # < O < < < 1 1 1 9 @ > S S S S S S S S S S S S S S & @ 3 3 2 < < < < < 3 9 1 9 # 2 % @ @ @ @ < 3 ",
"o 1 1 6 6 1 1 1 6 + # 1 < @ < @ < 1 1 9 # # : A S S S S S S S S S S S S S ; 1 # 3 3 < + < < < 3 9 9 3 1 4 3 3 @ @ # < 3 ",
"+ 1 1 1 1 + 1 # # 1 @ # < X + < @ 1 3 # # < : A S S A S S S S S S S S S S ; # 1 @ < < @ < < < 3 7 3 3 7 3 3 3 # < < < 3 ",
"+ 1 @ 1 6 @ @ @ # 1 1 # < @ < < < @ # % # 3 > S S S S A S S S S S S S S S ; 1 1 3 @ < X < < 1 @ % 3 3 3 # 3 2 # < < < 3 ",
"+ 6 1 1 1 1 # 1 1 # 1 3 o @ < @ < @ o # # < : D D D S S S S S S S S D D D ; 3 < # 3 O @ @ @ < @ O 3 3 3 3 % 3 # < < < 3 ",
"  + + + @ @ # @ # # < @ @ o @ + < + # < # # K U Y U F S S S S S S G U U Y J @ @ % # @ + < < < @ # 2 1 # @ # % # @ < < 3 ",
"+ 6 1 6 @ 6 # # # < # # 3 @ 1 r r p i p p p I p.i.R H , , , , , , P p.p.p.L p u p t u r w 1 < 3 7 9 7 % 7 7 7 % < < < < ",
"6 6 6 1 6 1 # # 1 + @ # % @ r %.&.=.&.=.&.,.3.4.4.2.:.:.:.:.:.:.:.>.5.5.5.<.&.&.&.&.&.&.$.w < 3 7 3 1 1 3 3 6 % @ < < 3 ",
"# 6 1 1 # # # 3 1 @ @ 1 < + i ,.2.2.2.2.2.2.2.2.2.2.2.2.2.2.2.2.2.2.2.2.2.2.2.2.2.2.2.2.&.w < < 3 7 3 3 3 3 3 3 @ < 2 3 ",
"# 1 6 6 @ # # # # + @ # O   y ,.2.2.2.2.2.2.2.7.2.2.2.2.2.2.2.2.2.2.2.2.2.2.2.2.2.2.2.2.&.w < O O @ @ @ @ @ % @   . @ 2 ",
"# 1 6 1 # 6 1 1 1 1 1 # @ + i ,.2.2.2.2.2.2.2.2.2.2.2.2.2.2.2.2.2.2.2.2.2.2.2.2.2.2.2.2.&.t 2 O @ % 3 7 3 8 3 8 3 3 3 3 ",
"+ 6 1 7 @ 1 6 # < 9 < < 9 < i ,.2.2.2.2.2.2.2.2.2.2.2.2.2.2.2.2.2.2.2.2.2.2.2.2.2.2.2.7.=.t 2 3 3 % 3 3 2 % 3 3 3 0 3 0 ",
"+ 6 6 6 @ 1 9 6 1 # 1 6 9 < i ,.2.2.2.2.2.2.2.2.2.2.2.2.2.2.2.2.2.2.2.2.2.2.2.2.2.2.2.2.&.u 2 2 8 3 % 3 3 3 0 7 3 0 4 4 ",
"1 6 # 6 @ # @ # @ 1 1 6 1 < i ,.2.2.2.2.2.2.2.2.2.2.2.2.2.2.2.2.2.2.2.2.2.2.2.2.2.2.2.2.=.t 3 @ 3 8 8 @ 2 2 2 % O O O < ",
"# 6 # 6 % 3 3 3 3 1 1 9 3 < a e.u.u.u.u.u.u.6.2.2.2.2.2.2.2.2.2.2.2.2.2.2.} y.y.u.u.u.u.w.a < 3 0 3 3 % 0 9 0 3 < 3 3 3 ",
"# 1 6 6 3 3 3 2 @ 1 9 1 3 @ k E Q Q Q Q Q Q  .2.2.2.2.2.2.2.2.2.2.2.2.2.2.t.Q W Q Q Q Q T g 3 3 3 8 8 % 9 5 0 5 2 2 3 3 ",
"+ 6 6 9 1 3 3 2 # 1 6 1 1 @ j R Q Q Q Q Q Q  .2.2.2.2.2.2.2.2.2.2.2.2.2.2.t.Q Q Q Q Q Q T g % 3 4 5 3 3 8 0 0 3 2 3 3 9 ",
"< 1 1 1 3 < # # @ 9 1 9 1 @ k E Q Q Q Q Q Q  .2.2.2.2.2.2.2.2.2.2.2.2.2.2.t.Q Q Q Q Q Q T g % @ 2 % 3 @ 3 7 7 3 @ < @ 2 ",
"1 1 1 6 @ @ @ @ @ 1 5 1 9 # l E Q Q Q Q Q Q  .2.2.2.2.2.2.2.2.2.2.2.2.2.2.t.Q Q Q Q Q Q T k 3 3 3 3 4 3 3 7 7 7 7 3 3 3 ",
"1 1 6 6 @ < @ < @ 1 6 9 1 3 l E Q Q Q Q Q Q  .2.2.2.2.2.2.2.2.2.2.2.2.2.2.t.Q Q Q Q Q Q T k 7 7 7 9 7 0 q 3 0 7 7 7 0 0 ",
"1 1 1 9 @ < @ < @ 9 1 1 9 1 l E Q Q Q Q Q Q  .2.2.2.2.2.2.2.2.2.2.2.2.2.2.t.Q Q Q Q Q Q T k 9 7 7 7 7 0 3 3 9 7 3 9 0 0 ",
"@ 1 1 7 # < < < @ 7 1 9 9 # l E Q Q Q Q Q Q  .2.2.2.2.2.2.2.2.2.2.2.2.2.2.t.Q Q Q Q Q Q R l 3 3 7 7 7 0 3 0 7 0 0 0 0 0 ",
"+ o @ @ @ @ @ # @ @ @ # # @ h E Q Q Q Q Q Q  .2.2.2.2.2.2.2.2.2.2.2.2.2.2.t.Q Q Q Q Q Q T f # O 3 3 7 O % % @ O @ < < 2 ",
"@ # 2 3 3 3 2 3 3 3 2 3 3 3 l E Q Q Q Q Q Q  .2.2.2.2.2.2.2.2.2.2.2.2.2.2.t.Q Q Q Q Q Q T k 7 # 9 q q 8 8 0 8 7 3 3 2 4 ",
"@ 3 % 2 3 < 3 3 3 3 3 3 3 3 l E Q Q Q Q Q Q  .7.7.2.2.2.2.2.2.2.2.2.2.2.2.t.Q Q Q Q W Q T j 3 7 q q 9 5 0 0 7 % 2 3 2 3 ",
"@ % % 3 3 < 3 2 3 3 3 % 3 3 l E Q Q Q Q Q Q | -.-.-.-.-.2.2.2.2.2.1.-.-.-.r.Q Q Q Q Q Q T k 3 3 9 q 0 3 q 4 8 % 3 2 2 5 ",
"@ < % # @ @ # < @ @ $ % $ $ h E Q Q Q Q Q Q { X.X.X.X.X.1.7.2.7.2.-.X.X...0.Q Q Q Q Q Q R f % 3 q q q # 2 3 3 % 3 3 3 3 ",
"1 1 1 9 @ @ # < @ 8 3 % 3 $ h E Q Q Q Q Q Q { X.X.X.X.X.@.*.2.1.*.@.X.X...0.Q Q Q Q Q Q R g $ 3 q 9 q 3 q q 0 8 3 3 3 3 ",
"< 6 1 6 < < < < 2 7 3 2 % 2 j E Q Q Q Q Q Q { X.X.X.X.X.X.o.2.-.X.X.X.X.X.0.Q Q Q Q Q Q T j < 7 q 0 q 9 0 0 0 8 2 3 5 3 ",
"1 9 1 9 < < < < 2 4 3 3 % $ 4 x n M N n m N _ X.X.X.X.X.X.X.+.O.X.X.X.X.X.` m N N m m v b 4 2 0 0 9 q 9 q 0 0 8 2 3 3 3 ",
"@ # # 1 @ @ @ # @ 3 3 2 3 < $ $ @ 9 1 1 9 # ^ X.X.X.X.X.X.X.X.X.X.X.X.X.X.d $ 3 3 3 % @ < < 2 9 q q q % 7 7 % 2 3 3 3 3 ",
"1 1 1 6 1 9 1 1 % % 4 3 3 @ 2 2 < 9 9 9 % % ( X.X.X.X.X.X.X.X.X.X.X.X.X.X.d 3 # 3 3 # @ 3 < < 8 q f % 4 8 % 3 % 2 3 3 4 ",
"# 6 6 7 7 1 7 3 7 # # 3 % $ < 2 @ 1 9 @ @ 3 ^ X.X.X.X.X.X.X.X.X.X.X.X.X.X.~ 7 % O % 2 2 < 2 3 9 q % % f 8 7 8 % 2 3 3 2 ",
"# 7 # # 1 3 6 3 7 6 6 # % $ < 2 2 # 3 @ 3 3 ^ X...X.X.X.X.X.X.X.X.X.X.X.X.~ 3 7 3 @ % @ < 2 3 3 7 % 8 8 0 4 8 3 2 3 3 3 ",
"# 7 # 6 7 # 3 3 # 7 # 3 O @ < < 3 # O 3 3 3 ^ X.X.X.X.X.X...X.X.X.X.X.X.X.d 3 7 % 3 O @ < < 3 2 O 7 4 % 4 8 3 % 3 3 2 3 ",
"+ # 1 1 @ @ # % # @ # # @ o @ @ @ @ # 3 3 3 ^ X.X.X.X.X.X.X.X.X.X.X.X.X.X.d @ @ % % O O @ < 3 O % % 7 7 3 3 % % 3 2 % 3 ",
"# 6 6 9 3 3 3 3 3 3 3 3 < @ < < < 3 7 9 6 3 ^ ..X.X.X.X.X.X.X.X.X.X.X.X.X.~ 3 3 7 2 < @ < < < 3 8 7 7 7 0 0 7 7 2 < < 3 ",
"1 6 1 9 % % 3 3 3 2 % 2 # @ < @ @ 7 7 3 7 7 ^ X.X.X.X.X.X.X.X...X.X.X.X.X.~ 3 4 3 3 3 < @ < < 5 7 7 7 9 8 7 8 0 3 2 # 3 ",
"5 6 1 1 % 7 2 3 % % 2 2 3 X < @ < < 9 3 7 3 ^ ..X.X.X.X.X.X.X.X.X.X.X.X.X.d 3 3 % 8 2 O @ < < < 7 7 7 7 7 7 9 % # 2 2 3 ",
"1 1 1 9 # @ @ # @ O O $ @   + X @ O O # @ O ^ X.X.X.X...X.X.X.X.X.X.X.X.X.s % % % % @   O @ @ O O @ @ # O # O @ # @ O @ ",
"1 1 1 9 1 1 1 6 # 1 6 # + + < < < O @ 3 3 3 ( X.X.X.X.X.X...X...X.X.X.X.X.~ 7 7 9 # + + < < % O @ 3 3 3 3 4 % 3 3 8 8 0 ",
"1 1 < 5 # 6 # # # 1 # @ 9 # @ < < 3 3 $ 3 3 / X.X.X.X.X.X.X.X.X.X.X.X.X.X.~ # # # 3 7 # < 2 2 3 3 O 3 7 3 % 4 3 3 4 % 8 ",
"1 1 5 6 % 6 # 1 1 # # 9 9 @ # < 3 < 3 3 @ % ^ X.X.X...X.X.X.X.X.X.X.X.X.o.d 6 @ 3 7 8 < < < 3 3 3 % O % % 7 % 4 3 8 3 8 ",
"1 9 1 9 # @ @ # # 1 1 1 9 @ # < < 3 3 3 3 O ^ X.X.X.X.X.X.X.X.X.X.X.X.X.X.d @ % 7 1 7 < 3 < < 3 3 4 7 @ % % % @ @ $ % $ ",
"@ 5 9 9 % 3 % 3 # 7 1 6 9 @ @ < % 3 3 3 3 % / X.X.X.X.X.X.X.X.X.X.X.X.X.X.d @ 7 3 1 7 2 # 3 2 % 8 8 3 3 q 0 0 7 < 3 3 3 ",
"@ 1 5 9 7 3 3 3 # 1 1 1 3 < < # 2 3 3 2 3 $ ( X.X...X.X.X.X.X.X.X.X.X.X.X.~ # 7 9 1 3 @ < 2 2 % 8 % 8 3 0 0 q 8 < 2 < 9 ",
"@ 1 1 9 2 3 3 3 # 9 5 1 9 @ # # $ 3 7 4 3 O C ' ] ] ] ] ] ] ] ] ] ] ] ' ' B % % 3 9 3 < # < # % 7 % 7 % 7 0 q 3 # 2 # 7 ",
"< 6 3 9 % % % % # 1 5 9 3 O @ @ @ O 3 3 3 @ Z 9.9.9.9.9.9.9.9.9.9.9.9.8.8.z % 7 7 7 3 @ < @ # @ % 7 3 @ 3 7 8 2 @ # 3 7 ",
"1 1 6 9 @ @ < + @ 1 9 6 9 @ # 1 2 3 3 7 3 # Z 8.9.9.9.9.9.9.9.9.9.9.9.9.8.z @ 8 0 7 3 2 7 # 1 # % % 7 7 % 7 3 7 7 8 7 7 ",
"@ 1 6 9 @ 1 1 < + 5 5 5 7 # 1 9 7 7 3 7 7 3 Z 8.9.9.9.9.9.9.9.9.9.9.9.9.8.V @ 3 3 9 7 3 7 7 7 7 7 8 7 7 9 7 7 8 7 7 7 0 ",
"@ 1 6 9 @ < < < @ 1 5 6 0 # 6 9 7 7 7 3 3 3 Z 8.9.8.9.9.9.9.9.9.9.9.9.9.8.V # 7 9 % 3 % % # 6 % % 7 7 8 7 7 7 9 8 7 7 0 ",
"@ 1 5 5 < < < < @ 1 5 9 9 # 9 1 3 7 3 7 3 3 Z 8.9.9.9.9.9.9.9.9.9.9.9.9.8.V % 7 1 7 9 @ 7 1 # 7 7 7 7 9 7 7 7 7 7 % 7 0 "
};
