/* XPM */
static char *_29d99c7832243b091c5a354927b526dG4bHNym9pBjVXARE[] = {
/* columns rows colors chars-per-pixel */
"60 60 121 2 ",
"   c #262E35",
".  c #282F35",
"X  c #282F39",
"o  c #273137",
"O  c #293136",
"+  c #273139",
"@  c #2C353C",
"#  c #27383F",
"$  c #2E383E",
"%  c #31373D",
"&  c #313A3E",
"*  c #3B3D3F",
"=  c #5D452D",
"-  c #5E4630",
";  c #5E4931",
":  c #664A2D",
">  c #684C2F",
",  c #604B33",
"<  c #684D30",
"1  c #263741",
"2  c #2E3740",
"3  c #263E42",
"4  c #2E3A42",
"5  c #2D3E48",
"6  c #303741",
"7  c #323C43",
"8  c #393E43",
"9  c #343F48",
"0  c #2C4145",
"q  c #2E4249",
"w  c #354046",
"e  c #3A4145",
"r  c #354149",
"t  c #3A444A",
"y  c #3D484D",
"u  c #414B43",
"i  c #4A4947",
"p  c #4A4B48",
"a  c #46524E",
"s  c #777B7C",
"d  c #7A7B7D",
"f  c #875321",
"g  c #885422",
"h  c #935E2A",
"j  c #9B652F",
"k  c #996631",
"l  c #93714C",
"z  c #8E7153",
"x  c #90765B",
"c  c #B47C43",
"v  c #A0825E",
"b  c #AF885F",
"n  c #B28B62",
"m  c #B08B61",
"M  c #B18C62",
"N  c #CB8F51",
"B  c #CC9052",
"V  c #CE9254",
"C  c #D5975A",
"Z  c #D5A26C",
"A  c #D8A46E",
"S  c #E3A363",
"D  c #E3A461",
"F  c #ECAB69",
"G  c #EEAD6B",
"H  c #E6AB71",
"J  c #E7AA71",
"K  c #E6AB73",
"L  c #E4AC71",
"P  c #E1BD7F",
"I  c #F8B571",
"U  c #FDBA76",
"Y  c #FFBA77",
"T  c #FFBB76",
"R  c #FFBA78",
"E  c #FFBB78",
"W  c #FFBB7A",
"Q  c #FFBB78",
"!  c #0677AF",
"~  c #0977AF",
"^  c #0778B0",
"/  c #0B79B2",
"(  c #4D7B92",
")  c #617B88",
"_  c #658B94",
"`  c #6C8896",
"'  c #6B8899",
"]  c #64B99B",
"[  c #5289A4",
"{  c #6F9EA6",
"}  c #709FA7",
"|  c #6FA0A7",
" . c #06CABC",
".. c #06CABE",
"X. c #0ACABD",
"o. c #0BCBBE",
"O. c #0CCABE",
"+. c #09CCBE",
"@. c #0ACABF",
"#. c #26C7B5",
"$. c #2BC8B5",
"%. c #6ED7AF",
"&. c #6FD8B0",
"*. c #0C88C6",
"=. c #0087CB",
"-. c #0088CC",
";. c #08CCC0",
":. c #00EDDD",
">. c #00EFDC",
",. c #01EDDF",
"<. c #00EEDE",
"1. c #01EFDF",
"2. c #00EEDE",
"3. c #20E7D0",
"4. c gray53",
"5. c #888886",
"6. c #898788",
"7. c #888888",
"8. c #E0BE81",
"9. c #E1C184",
"0. c #E0C284",
/* pixels */
". @ @ @ + + O + O @ @ @ @ + + O + + @ $ @   : g g g g g g g g g g g g g g = @ @ @ O O . + + +   @ @ $   @ @ @ O . + + + ",
"$ $ $ $ $ 6 6 $ $ $ $ 4 6 $ 6 $ & $ 4 4 4 $ > g g g g g g g g g g g g g g ; 6 6 6 $ 6 $ $ $ $ 4 4 4 7 6 7 6 6 $ $ 2 2 4 ",
"$ $ $ $ 4 $ $ 4 % $ 4 6 $ 4 6 $ & $ 7 4 4 $ > g g g g g g g g g g g g g g ; 6 6 $ $ $ $ $ $ $ 7 4 4 7 6 7 7 6 @ + $ $ 4 ",
"$ $ $ $ 4 4 4 6 4 6 $ 4 & $ & $ 6 4 7 4 4 $ : g g f g g g f g g g g g g g ; 6 6 $ $ $ 4 $ 6 6 4 7 4 r $ 9 6 7 % $ 2 $ 6 ",
"O @ @ $ + @ + $ @ @ @ @ $ + + + @ 4 4 4 7 @ : g f g g g g g g g g g g g g = $ $ $ $ $ + @ @ $ 4 7 7 q @ @ $ 6 $ @ $ $ 6 ",
"$ 4 4 4 @ @ $ $ + 6 6 6 $ @ $ @ @ 4 6 4 4 $ < g g g g g g g g g g g g g g - $ 7 6 6 $ @ $ $ $ 4 4 7 4 @ 7 7 7 $ @ $ $ 6 ",
"@ 4 4 4 $ $ $ $ + 6 6 $ $ + @ $ $ 4 7 4 7 $ > f g g g g g g g g g g g f g = $ 9 6 $ $ $ $ $ @ 4 4 7 4 4 7 7 7 $ @ $ $ 6 ",
"1 4 4 4 @ $ $ $ $ 6 6 6 & X $ @ $ 4 4 4 7 $ > g c N B N h g g g f g g f g = $ 9 7 6 $ $ $ $ $ 4 7 7 7 4 w 7 7 $ @ 2 2 6 ",
"+ @ @ 1 @ $ O + @ 6 6 6 & + $ $ $ 4 7 7 r + : g C W W W j g g f g g f g g = @ 9 9 6 6 $ $ $ $ 4 7 7 r $ 6 & $ + @ $ 2 7 ",
"o 4 4 4 4 1 4 6 $ @ 6 6 $ @ @ @ $ 4 4 7 $ $ l V G W W W j g g g g g g g g , 4 $ 6 6 6 + 2 2 2 7 r r 7 6 9 7 6 $ $ 4 $ 7 ",
"+ 4 4 4 4 $ $ $ 1 4 + $ $ @ $ $ $ 4 4 $ $ 6 m W W W W W k f g g g g g g g ; 4 7 + 6 6 @ $ $ 6 4 r 6 7 r 9 7 6 $ $ 2 2 7 ",
"@ 4 $ 4 4 1 @ 2 4 4 4 $ $ @ $ $ 2 $ $ $ 6 6 M W W W W Y F S g g g g g g g ; 6 4 7 @ 4 @ $ $ 6 $ & 6 9 9 $ 6 6 $ $ $ 2 7 ",
"+ $ 1 $ 4 4 1 4 $ 1 4 6 o + @ $ 4 $ . 6 6 6 b W W W W W W I g g g g g g g , 7 4 4 7 O + $ $ 6 $ O 7 6 7 7 6 6 $ $ 2 2 7 ",
"  @ @ 1 $ $ $ $ 4 $ $ $ $ + @ @ $ + @ 4 $ $ m W W W W W W Y S S S S S S S z $ $ 6 $ $ + $ $ 2 + $ $ 4 $ @ 4 7 $ $ 2 2 6 ",
"1 4 4 4 $ 7 6 $ $ $ $ 6 7 @ $ $ $ 4 4 4 4 4 v K K L 8.9.9.9.9.9.9.P L K L x & 6 6 6 & + $ $ 2 7 r r 7 7 7 w 9 6 $ 4 4 2 ",
"1 4 4 4 $ 7 $ $ 6 $ $ $ 7 @ @ @ $ 4 7 4 4 7 e p p a #.3.3.3.3.3.3.$.u i p e 6 6 6 6 6 + $ $ $ 7 r 7 4 4 7 7 w 6 @ 4 4 6 ",
"1 4 1 4 $ 6 $ 7 $ $ $ 4 & + @ @ 2 $ 4 4 6 7 4 7 7 q ..1.1.1.1.1.1.O.1 6 6 6 6 6 $ 6 6 + $ $ 2 $ 7 7 7 7 7 7 9 6 @ 2 4 7 ",
"$ 4 4 4 @ $ $ $ $ + @ $ +   @ + @ +   + + + @ + + 3 ..1.1.1.1.1.1.@.# + @ $ $ $ $ 4 @   @ $ $ + . $ $ @ @ $ $ $     + $ ",
"4 4 7 7 $ 4 4 4 4 4 4 $ + + $ 2 $ + + 7 7 6 $ 6 $ q +.1.1.1.1.1.1.@.3 4 4 7 4 4 7 $ + + 6 2 2 + @ 7 7 9 7 9 9 r 9 9 9 9 ",
"@ 4 4 7 @ 4 7 7 4 7 $ @ r $ $ @ $ 6 7 @ 6 6 6 % $ q ;.1.1.1.1.1.1.@.5 4 4 4 @ $ $ 4 7 2 $ 4 2 7 7 $ 7 6 6 6 6 9 9 9 9 r ",
"@ 4 w w $ 4 7 4 7 $ 4 7 7 4 $ @ $ 6 7 6 $ 6 6 6 & q ;.1.1.1.1.1.1.O.3 4 4 7 7 2 @ 7 7 2 2 4 6 6 9 7 $ 9 7 9 9 r 9 r 9 e ",
"1 4 4 w @ $ $ $ @ 4 4 7 7 2 $ @ 4 6 9 9 6 @ $ @ $ 0 @.1.1.1.1.1.1.O.1 + $ @ $ 4 7 w 7 @ 4 6 7 @ 9 9 9 $ $ 7 7 $ O O O $ ",
"4 7 4 w 6 9 7 6 2 7 4 7 7 $ $ $ 4 6 7 7 6 6 4 7 7 r ] &.&.&.&.%.&.] @ 6 6 6 $ 7 7 7 4 $ 6 6 6 7 9 e 9 6 t r r 7 6 6 6 6 ",
"# 4 4 w 6 9 6 6 @ 7 7 7 4 $ $ $ 2 6 9 7 9 $ r 7 7 e Z W W W W W W Z & 6 6 $ $ 7 7 w 4 4 4 2 4 9 9 r r & r r t 9 6 6 6 7 ",
"@ 4 4 7 7 7 7 6 $ 4 4 7 4 @ 2 2 $ 6 7 7 r @ w 7 7 e Z W W W Y W W Z 8 6 6 6 $ 4 7 r 7 4 4 4 4 7 9 9 9 6 r t t 9 4 6 6 9 ",
"1 4 4 7 6 6 4 4 $ 9 4 7 7 + @ 2 2 + 6 & 9 @ 4 7 4 e Z W W W W W W Z & $ $ $ @ 7 7 r r @ $ $ & @ & & 7 @ 9 r 7 7 2 6 $ 6 ",
"1 4 4 7 $ $ @ @ + 7 7 7 7 $ 4 4 4 4 4 4 7 4 7 7 4 e A W Y Y W Y Q Z % $ @ $ + 7 7 r 9 $ 9 7 7 & 7 7 9 7 9 9 9 9 9 7 7 9 ",
"4 4 4 7 $ 4 2 2 $ 4 7 7 7 7 7 7 7 7 w w w w 7 7 4 e A W Y Y Y Y W Z % 4 4 4 $ 7 r r r 7 r 9 r r r r r e t 9 t r r r r r ",
"1 4 4 9 $ 2 $ $ $ 7 7 4 7 7 7 7 7 7 7 7 w w 7 4 $ e Z Y Y W W W W Z & 4 4 2 $ 7 r r r 7 9 r r r r r r r 4 7 r r r r t t ",
"@ 4 4 r $ $ 4 2 $ 4 7 w r 4 7 4 7 7 w w 7 7 7 7 4 e A Y Q W W W W Z & 4 2 6 $ r r r r $ r r 9 7 r r r r 9 t r r r t t t ",
"  + @ @ @ $ $ $ $ $ $ $ $ $ $ + @ $ 4 @ 1 + $ 6 $ * Z Y W W W W W Z & @ $ $ $ 2 $ $ + $ $ $ @ + 6 7 9 @ 7 & @ O @ $ $ 6 ",
"@ 6 6 6 6 6 6 6 7 6 7 7 7 7 6 6 7 4 r w 7 $ 9 9 6 * Z W W W W W W Z 8 6 6 6 9 7 & 6 9 7 7 9 7 & t y t 7 t e e 7 6 7 6 9 ",
"@ 6 6 6 6 6 6 6 6 7 7 6 9 7 7 7 7 $ r r 7 6 9 9 9 8 Z Q W W W Y Y Z 8 $ 6 7 9 7 7 7 9 7 7 9 7 r t y t 9 t t 9 7 6 6 6 9 ",
"$ 6 6 6 6 6 6 6 7 9 7 7 9 7 7 7 7 $ r 7 r 7 9 9 9 e Z Y W Q Y Y Y Z 8 & 6 9 9 9 9 9 7 7 6 7 9 7 t t t 7 t e r 7 6 6 6 7 ",
"+ $ 6 $ @ + $ $ $ $ $ $ $ $ $ $ @ 4 r 7 7 @ $ & 6 * Z Y Y Q W W W Z & $ $ $ % 4 $ @ @ $ $ $ $ 6 t y y $ 7 7 7 & 6 7 6 7 ",
"4 7 4 r @ $ $ 6 $ r 9 7 6 $ 6 6 4 4 t 7 7 $ r r r e Z Y Y W W W W Z 7 2 2 4 $ 9 7 7 & $ 4 6 2 7 y t t 7 y y t 9 6 7 6 7 ",
"4 w 7 r 4 4 2 $ 6 r 6 6 7 4 4 2 6 7 r 7 7 7 r 7 9 e Z W W W W W W A 7 2 2 2 $ 7 9 9 6 2 6 6 6 r y y y r y t t 7 6 6 9 7 ",
"4 r 4 r 4 2 2 4 6 9 9 7 6 2 2 $ 2 4 r 4 7 7 r 7 7 7 _ } { | } } } _ 4 2 $ $ $ 9 9 7 & $ 6 & 6 r y y y 8 t t t e 6 7 7 9 ",
"@ $ 1 4 @ @ $ $ @ 9 9 6 7 $ 2 $ $ r w 4 r & 6 6 6 1 ! -.-.-.-.=.-.^ @ @ @ $ $ 9 7 9 6 @ 4 4 6 7 t y y 7 7 7 6 6 & 9 7 r ",
"4 4 7 7 7 7 7 4 4 $ 9 7 7 $ 4 2 4 7 w w 6 7 9 7 r 5 ! -.-.-.-.-.-.~ q 4 7 9 7 $ 7 7 $ @ 4 6 4 r y y 7 7 r 9 9 & 6 7 7 9 ",
"4 7 7 7 7 7 7 7 7 7 $ 6 7 $ 4 4 $ 4 r $ @ 9 6 6 9 5 ~ -.-.-.-.-.-.~ q 7 7 7 7 7 O 6 6 $ 4 6 7 r y 7 7 e t e 9 & 6 7 6 6 ",
"7 7 4 4 7 7 7 7 7 7 7 $ 6 $ 2 4 6 $ 6 @ 9 7 7 7 9 5 ^ -.-.-.-.-.-.~ q 9 9 9 9 9 7 @ & $ 2 6 6 9 7 7 e e t e r 7 & 7 9 6 ",
"$ 7 4 4 7 7 7 7 7 7 7 7 O @ 2 2 7 $ O 9 6 7 6 6 6 4 ^ -.-.-.-.-.-.~ q 7 9 9 9 7 7 r O + $ 2 7 % O 7 7 7 e e 9 & 7 7 6 9 ",
"o 1 4 6 $ $ $ 6 $ $ $ $ $ + @ + $ + 6 7 4 6 6 6 6 1 ! -.-.-.-.-.-.^ # $ & & @ @ $ @ + X $ $ 4 + $ 7 7 7 7 7 6 $ 6 6 $ 7 ",
"4 r 7 r 7 7 7 7 6 9 6 6 6 $ 2 $ 2 7 9 9 7 7 7 7 7 q ~ -.-.-.-.-.-./ 4 9 r 7 7 9 9 6 6 $ $ 2 2 r t r r r t t r e 6 2 4 6 ",
"4 w 4 9 6 7 7 7 6 6 6 6 $ @ $ $ $ 7 r 7 r 7 7 7 4 5 ! -.-.-.-.-.-./ 4 9 9 9 6 r 7 6 6 @ $ $ 2 9 9 9 r r r r r r 6 4 2 6 ",
"7 7 4 7 7 6 6 7 6 & % 6 6 + $ $ 4 $ r 7 9 7 7 7 4 5 ! -.-.-.-.-.-./ 7 6 7 7 6 9 & 7 7 + $ $ 6 $ 7 r r r 9 r r 7 $ 6 6 6 ",
"7 7 4 r $ @ @ $ @ @ + $ +   + + @ @ O $ $ o $ $ $ 1 ^ -.-.=.-.-.-./ # @ @ o $ $ & 6 @   X @ $ O . $ @ @ @ @ @ @ $ +   @ ",
"4 4 4 r $ 7 7 7 4 4 7 4 + + $ 2 2 O @ 7 9 9 7 6 & q / -.-.=.-.-.-./ 4 7 4 7 7 7 7 6 + + 2 4 $ O @ 6 7 7 7 7 7 7 7 r 9 t ",
"4 4 1 7 & 7 4 # # 4 $ @ r $ $ 4 6 6 7 @ 6 6 6 6 6 5 / -.-.-.-.-.-./ 4 4 7 7 4 6 4 7 9 2 4 4 6 7 7 @ 7 7 7 6 7 7 9 9 6 e ",
"4 7 7 9 7 7 4 4 4 $ 4 7 r $ 2 2 6 6 7 7 @ 6 6 7 6 r ^ -.-.-.-.-.-./ 4 7 7 7 4 $ 7 9 r 2 2 6 6 7 7 7 + 7 7 9 7 7 7 9 7 r ",
"1 7 7 r $ @ @ $ @ 4 7 4 r $ 2 2 2 6 9 9 6 + $ $ 6 5 ! -.-.-.-.-.-./ 4 $ $ @ $ 6 r 4 9 $ 4 2 4 7 9 7 7 @ 7 6 & & $ % & $ ",
"@ 7 7 r 6 6 6 6 $ 7 4 4 7 $ $ 2 2 7 9 6 9 $ r r r q ! -.=.-.-.=.-./ 4 6 6 7 @ r 7 4 9 6 2 6 4 7 9 7 7 7 y t t 9 $ 6 6 9 ",
"@ 7 7 r 7 9 6 7 & 7 4 4 7 6 $ 2 $ 7 7 7 9 $ r r r r ^ -.-.-.=.-.-./ w 7 6 7 $ r 7 7 9 2 4 4 6 % e 7 9 7 t r y e 4 6 6 9 ",
"@ 7 7 r 6 9 7 7 $ 7 7 4 9 2 $ $ $ 7 9 9 7 @ r r r r ^ -.-.=.[ [ [ ( 9 7 6 6 & 9 7 r 9 $ 2 2 4 & e 7 7 & r r y 9 $ 6 6 9 ",
"4 7 7 r $ 6 6 6 @ 7 7 7 9 + @ $ $ O & 7 7 + 7 6 7 5 ^ =.=.*.7.7.7.d 7 6 6 $ $ r r r 7 + 2 $ 6 @ 7 7 7 $ 7 9 r 6 @ 6 6 6 ",
"4 7 7 r $ $ $ $ $ 7 7 7 7 $ 4 7 6 6 7 9 7 6 7 7 7 t ) ' ' ` 7.7.7.d 6 $ $ @ + 9 r r 9 & 9 6 6 7 7 9 7 7 7 7 7 7 r r r e ",
"@ 7 7 r $ 4 4 $ + 7 7 7 r 4 7 7 9 r r r 7 7 9 7 7 y d 7.7.7.6.4.7.d 6 6 4 4 $ 9 r 7 9 7 r 7 7 7 9 r r r e 9 r r r r r t ",
"+ 4 4 7 $ 4 4 2 + 7 7 9 t 4 7 9 9 r 9 7 6 7 7 4 & t d 7.7.7.7.7.7.d 6 2 6 6 $ r r 7 7 & 7 4 4 7 7 r r r 9 r r r e r r t ",
"@ 4 7 7 2 4 4 2 $ 7 7 9 t $ 7 9 7 9 9 9 7 7 7 4 6 r s 7.7.7.7.7.7.s 9 6 6 6 $ 9 4 7 r $ 7 4 4 7 7 9 r r r r r r r 9 9 t "
};
