/* XPM */
static char *_7812_07c00f09d24bd2482012e76b460e90d879de770455b79c9a1066804a7fcca557[] = {
/* columns rows colors chars-per-pixel */
"60 60 154 2 ",
"   c #060606",
".  c #060807",
"X  c #080806",
"o  c #0C0C0C",
"O  c #180F08",
"+  c #0F160E",
"@  c #11120E",
"#  c #191009",
"$  c #131A0F",
"%  c #0D0E10",
"&  c #121212",
"*  c #161B12",
"=  c #1A1D14",
"-  c #201408",
";  c #0B2F03",
":  c #083305",
">  c #1D2416",
",  c #1D2817",
"<  c #1E2518",
"1  c #1D2818",
"2  c #33240F",
"3  c #3F270D",
"4  c #34370C",
"5  c #21261B",
"6  c #222C1B",
"7  c #27311E",
"8  c #29371E",
"9  c #2D3B21",
"0  c #303F20",
"q  c #4E3213",
"w  c #523212",
"e  c #563814",
"r  c #593D16",
"t  c #074305",
"y  c #084404",
"u  c #0E5303",
"i  c #0D5803",
"p  c #105303",
"a  c #105A03",
"s  c #11550C",
"d  c #1D6614",
"f  c #227317",
"g  c #2D4022",
"h  c #334325",
"j  c #364A27",
"k  c #3A4C26",
"l  c #364929",
"z  c #394B29",
"x  c #3C542A",
"c  c #3E5C2A",
"v  c #377D27",
"b  c #544410",
"n  c #5A4412",
"m  c #674015",
"M  c #694216",
"N  c #62451B",
"B  c #6A4419",
"V  c #41572D",
"C  c #415C2D",
"Z  c #415031",
"A  c #445A32",
"S  c #485E36",
"D  c #45652D",
"F  c #49642F",
"G  c #5F642E",
"H  c #536E29",
"J  c #476333",
"K  c #4A6534",
"L  c #4C6339",
"P  c #526F37",
"I  c #506B3B",
"U  c #527236",
"Y  c #527D35",
"T  c #54733A",
"R  c #567A3B",
"E  c #69692D",
"W  c #587242",
"Q  c #5B843B",
"!  c #59883A",
"~  c #608C3F",
"^  c #62943F",
"/  c #5A8140",
"(  c #628644",
")  c #648C44",
"_  c #658E48",
"`  c #6A8B4D",
"'  c #639742",
"]  c #6A9045",
"[  c #649941",
"{  c #6D9648",
"}  c #6D9A4B",
"|  c #769D4A",
" . c #6D8A50",
".. c #719452",
"X. c #749D53",
"o. c #75A24D",
"O. c #73AE4B",
"+. c #7AAC4D",
"@. c #74B04C",
"#. c #79B34F",
"$. c #7FB84F",
"%. c #75A352",
"&. c #78A550",
"*. c #76AB52",
"=. c #7EAE55",
"-. c #7FAC59",
";. c #77B352",
":. c #7BB354",
">. c #7EB952",
",. c #7EB459",
"<. c #81AF53",
"1. c #81A75E",
"2. c #82AF5C",
"3. c #81B556",
"4. c #82BA54",
"5. c #89BE55",
"6. c #81B759",
"7. c #83B95B",
"8. c #88BE5D",
"9. c #8AB460",
"0. c #86BB60",
"q. c #8BBC62",
"w. c #8EB46A",
"e. c #8EBE6A",
"r. c #90BF61",
"t. c #91BE6B",
"y. c #95AE75",
"u. c #96AD79",
"i. c #87C057",
"p. c #8AC256",
"a. c #8DC45C",
"s. c #91C65D",
"d. c #92CA5C",
"f. c #8EC262",
"g. c #8FC861",
"h. c #8EC06B",
"j. c #91C464",
"k. c #94CC61",
"l. c #99CE65",
"z. c #93C36B",
"x. c #99C56E",
"c. c #95C86A",
"v. c #9ACC6E",
"b. c #9CD16C",
"n. c #97C772",
"m. c #99C671",
"M. c #9CCD71",
"N. c #9FD172",
"B. c #A0D36F",
"V. c #A0CE74",
"C. c #A3D476",
"Z. c #A5D579",
"A. c #A8D67B",
"S. c #ACB08D",
/* pixels */
"d.d.d.8.6.6.a.k.k.l.C.C.Z.Z.Z.Z.v.O.O.O.C.Z.A.x.z.t.e.7.7.8.d.k.k.>.O.O.>.k.k.k.>.6.6.7.7.7.8.d.d.a.6.7.7.7.7.8.i.d.d.d.",
"d.d.d.8.6.6.8.k.k.k.Z.C.Z.Z.Z.C.c.O.O.O.Z.Z.C.x.t.t.f.6.6.8.g.k.k.4.O.O.>.l.k.k.7.6.,.7.7.7.8.d.d.d.8.6.7.6.7.6.i.d.d.d.",
"d.d.d.8.7.6.a.k.k.l.Z.Z.Z.C.Z.C.c.@.O.O.C.C.C.x.t.t.e.7.7.7.k.k.d.>.O.O.>.l.k.k.>.7.7.7.7.7.8.d.d.d.8.6.7.,.7.7.p.d.d.d.",
"d.d.d.a.0.0.f.d.d.k.C.Z.Z.b.b.l.g.,.,.;.b.b.b.M.M.V.x.6.6.0.d.k.k.p.p.p.p.d.d.d.7.7.,.7.7.6.f.N.N.b.6.8.7.a.a.a.a.d.d.d.",
"d.d.d.a.0.q.q.d.d.k.C.Z.Z.l.d.d.a.>.7.7.k.k.l.C.Z.Z.v.6.7.0.k.k.k.d.d.d.d.d.d.d.7.7.7.,.7.7.f.A.Z.N.0.7.6.a.d.d.d.d.d.d.",
"d.d.d.f.q.q.8.d.d.d.C.Z.A.l.d.d.a.0.7.8.k.k.d.N.Z.Z.M.7.7.7.k.k.k.s.d.d.d.d.d.d.7.7.7.,.7.7.f.Z.Z.Z.7.,.7.a.d.d.d.d.d.d.",
"d.d.d.f.q.r.r.a.a.s.v.v.v.v.l.l.k.q.q.q.f.f.a.c.v.M.z.8.0.q.f.k.j.s.a.a.s.a.a.a.i.8.8.a.a.a.g.N.N.b.a.a.i.a.d.d.d.a.a.a.",
"d.d.d.e.9.q.0.7.6.8.6.7.6.v.Z.C.M.e.e.e.7.7.7.7.7.7.8.q.q.0.0.0.q.8.4.7.7.4.6.8.d.d.d.k.k.g.k.d.d.d.d.d.d.d.d.d.a.7.7.6.",
"d.d.d.8.q.q.0.7.7.6.7.7.8.m.Z.Z.V.t.t.z.7.7.7.} A V V A A A A A J *.6.7.8.7.7.4.S.j.d.d.k.k.k.d.d.d.d.d.d.d.d.d.p.7.7.7.",
"s.d.d.r.q.9.0.7.7.7.8.8.8.M.Z.Z.V.t.t.t.7.7.7.5 & & & & & & & % & 1 =.6.7.6.7.4.d.d.d.g.d.k.k.d.k.d.d.l.d.d.d.d.s.7.7.7.",
"@.O.O.3.7.0.7.7.6.0.V.C.C.C.A.A.C.e.t.t.0.7.%.& & & & & & & & & & . c @.>.d.d.a.7.8.7.8.8.7.f.Z.A.C.A.C.C.l.d.d.p.7.7.7.",
"O.O.O.:.7.7.7.7.7.8.Z.Z.Z.A.C.C.V.t.e.t.7.7.} % & & & & & & & & & . * [ >.s.d.d.6.6.7.7.7.7.f.Z.Z.Z.A.A.C.l.d.d.a.7.7.7.",
"@.O.O.3.7.6.7.7.7.0.Z.Z.Z.A.C.Z.V.t.t.t.8.7.} & & & & & & & & & & . > [ >.d.d.d.6.7.7.8.6.7.g.Z.Z.C.Z.Z.A.v.d.d.a.8.6.7.",
"p.p.5.q.q.e.7.;.:.:.j.z.z.c.l.l.j.8.8.8.a.a.| & & & & & & & & & & o * } 5.d.d.d.8.6.6.z.M.M.x.f.e.j.n.m.n.j.f.r.f.a.d.a.",
"d.d.d.j.t.e.8.O.O.*.0.q.q.s.s.d.a.6.,.6.d.d.=.& & & & & & & & & & . > X.i.d.d.d.6.7.6.v.Z.Z.v.6.3.6.r.t.t.e.0.q.8.d.d.d.",
"d.d.d.s.t.t.7.O.O.O.8.0.q.s.d.d.a.6.6.3.d.d.p.& & & & & & & & & & . $ X.a.d.d.d.7.7.6.M.Z.Z.v.6.6.7.e.t.t.q.q.q.f.a.d.d.",
"d.d.d.j.j.j.p.3.$.3.a.f.q.f.a.a.i.3.6.,.a.a.a.* % & & & & & & & & o = &.p.a.5.p.7.7.7.j.M.v.h.6.7.7.f.h.q.f.f.f.f.a.a.a.",
"d.d.d.d.d.d.d.d.d.d.d.d.d.8.7.7.6.;.;.;.7.7.7.9 & & & & & & & & @ X 0 5.5.O.O.O.7.7.6.7.6.8.6.8.,.7.,.7.7.a.k.k.f.7.8.7.",
"d.d.d.d.s.d.d.d.d.d.d.d.d.i.7.7.,.:.:.:.7.7.6.J & & & & & & % & 5 0 5.d.p.O.O.@.6.6.6.7.7.6.6.7.7.7.7.7.7.g.k.k.a.6.7.7.",
"d.d.d.d.d.d.d.s.d.d.d.d.d.8.6.7.,.;.:.:.8.6.7.:.T T L & o X X F 4.s.d.s.p.O.O.O.6.6.6.7.7.6.8.7.7.7.7.7.>.f.k.k.d.7.7.6.",
"C.C.Z.l.d.d.l.A.Z.C.q.0.0.0.8.7.6.7.,.7.@.@.@.c.C.Z.9.* & & % & _ C.A.Z.b.d.d.d.9.e.0.M.A.Z.N.k.k.k.g.d.d.k.k.k.k.d.k.k.",
"A.A.Z.l.d.d.l.A.Z.C.e.0.q.0.7.7.7.7.7.7.@.O.O.c.Z.Z. .% & & o & h M.A.Z.b.d.a.d.q.0.q.M.Z.Z.N.k.k.k.d.d.d.d.k.k.k.k.k.k.",
"C.C.Z.v.d.d.l.Z.Z.C.r.q.q.,.7.,.7.7.7.7.O.O.@.c.Z.Z.Z & & & o 7 * -.Z.Z.C.d.d.d.8.q.0.M.Z.Z.N.l.l.k.d.d.d.k.k.g.k.k.k.k.",
"b.l.l.i.4.4.i.l.l.l.s.s.d.a.g.d.a.7.7.7.c.c.c.h.j.f.= & & & X ) * I h.g.d.d.k.d.7.7.7.e.x.z.j.d.d.d.k.k.g.a.f.a.8.8.8.a.",
"d.d.d.4.;.;.4.d.d.d.d.d.d.d.d.d.g.7.7.,.C.Z.C.h.7.} o & & & o [ c 7 ,.7.8.d.d.d.6.6.6.0.q.0.f.d.d.d.k.k.k.a.7.,.6.7.7.6.",
"d.d.d.>.;.:.4.d.d.d.d.d.d.d.d.d.a.7.0.i.A.Z.C.h.7.P & & & & % Y ! * *.0.i.a.d.d.6.6.6.8.9.8.f.d.d.d.k.k.k.i.7.7.8.6.6.8.",
"d.d.d.i.i.4.i.d.d.d.a.a.p.d.d.d.g.,.0.,.N.v.-.f d s t t : + o U o.1 T 7.i.d.a.d.3.6.6.0.r.e.f.a.a.a.d.g.g.g.z.g.q.6.7.7.",
"d.d.d.d.k.k.k.d.d.a.8.7.7.d.k.g.g.7.i.,.7.,.v i i u u t : @ % x 7.g l 7.a.d.d.d.6.6.6.q.t.t.e.6.7.7.,.7.7.M.Z.Z.M.6.7.7.",
"d.d.d.k.k.k.k.d.d.d.7.6.>.d.k.k.g.7.7.7.7.7.H n n n b 4 2 @ o h 7.J 6 %.i.d.d.k.6.6.6.e.e.t.e.6.7.7.7.6.7.M.Z.Z.v.7.7.7.",
"d.d.d.d.k.k.d.d.k.k.8.7.7.a.k.k.g.7.7.7.7.7.E M M M M w O o o , ,.( * ( a.d.a.a.6.6.6.8.e.e.q.4.7.7.7.7.,.n.Z.N.v.7.8.8.",
"4.7.8.a.d.d.l.Z.N.N.0.0.7.g.k.k.k.g.k.k.7.7.E M M B M q O + & o O.-.& ` x.8.8.7.t.e.t.,.O.@.:.7.7.,.7.7.7.q.e.q.q.d.s.s.",
"7.7.7.a.d.d.l.Z.Z.Z.w.u.7.g.k.k.k.k.k.k.7.7.E B M M B q - & o X ^ z.*  .M.6.7.0.t.t.t.*.O.@.;.7.7.7.7.7.7.0.q.q.s.d.d.s.",
"7.7.8.a.d.d.l.Z.Z.C.7.7.7.f.k.k.g.g.k.g.7.7.G e N r w 3 # o &   ! %.&  .M.8.6.6.t.t.z.,.@.@.;.8.7.7.6.8.6.8.q.q.8.d.d.d.",
"q.q.q.q.8.8.z.Z.Z.C.g.d.d.a.0.i.f.f.i.a.a.g.| = > = 9 & & % & o x A 5 %.0.:.:.,.0.8.0.i.i.i.8.6.6.7.0.0.0.a.j.s.s.r.f.q.",
"t.e.h.0.7.7.f.Z.Z.C.d.a.a.a.,.7.7.7.7.7.d.d.d.*.) &.( & & & X + & & l 6.6.:.#.=.8.7.7.f.k.k.j.6.7.8.q.q.q.s.s.d.s.9.q.q.",
"t.n.h.0.7.7.j.Z.Z.C.k.d.d.a.7.7.,.7.7.,.d.d.d.i.6.6.:.> $ R > X > 6 _ 7.6.;.#.:.7.6.7.f.k.k.k.6.7.8.0.0.q.s.s.d.s.q.q.0.",
"m.m.n.f.a.a.f.M.N.b.g.a.p.i.,.7.7.i.a.8.d.p.i.a.6.7.3.6 > d.8 o _ 0.r.j.q.,.,.:.7.7.7.a.d.d.d.8.8.8.z.z.c.s.d.d.s.0.8.7.",
"Z.Z.C.c.k.k.j.7.,.7.,.7.,.0.7.7.8.d.d.d.,.,.6.7.6.8.6.6 > a.8 o _ M.Z.A.v.6.6.6.7.7.7.a.d.d.d.k.k.l.C.Z.Z.k.d.d.a.7.7.7.",
"Z.Z.Z.b.g.d.g.7.7.7.,.,.,.,.7.7.i.g.d.d.6.6.6.7.6.7.,.6 5 a.8 @ T v.C.Z.M.6.6.6.7.7.0.a.d.d.d.k.k.l.C.A.Z.l.d.d.a.7.7.7.",
"Z.Z.Z.v.k.k.j.6.,.7.i.,.7.0.i.,.a.d.d.d.7.,.,.8.7.7.,.6 > d.8 & K v.A.C.v.6.6.6.7.7.,.a.d.d.d.l.k.l.C.C.C.l.d.d.a.7.7.7.",
"6.8.8.a.d.l.j.t.h.h.7.6.7.a.k.d.a.7.4.6.:.;.;.,.7.7.3.5 < k.S & P j.d.d.a.6.6.6.7.7.6.v.Z.Z.N.8.q.q.k.k.k.d.d.d.s.q.r.q.",
"7.6.6.j.k.d.l.t.z.h.7.8.7.a.d.d.a.6.6.6.:.;.:.,.6.7.7.9 > k.S & L s.d.d.i.6.6.6.7.>.7.M.Z.Z.M.q.0.q.k.k.k.d.d.d.j.q.9.q.",
"7.7.7.g.k.k.c.t.t.e.8.7.7.a.d.d.p.,.6.,.;.:.;.,.8.6.8.z < k.S & h j.d.d.a.6.7.7.y.w.6.v.Z.Z.M.e.q.f.k.d.k.d.d.d.a.e.0.q.",
"7.7.7.3.>.>.a.V.C.M.a.p.a.i.5.8.f.v.N.n.;.O.*.5.s.p.a.h > 8.T & h q.q.f.a.a.a.p.M.M.M.z.j.j.f.s.j.g.k.k.k.a.j.f.8.;.>.;.",
"8.7.7.;.O.O.6.Z.Z.C.d.d.d.8.7.7.g.A.Z.Z.@.O.O.p.d.d.p.h < 6./ & < 6.q.q.r.d.d.d.Z.A.Z.j.7.6.8.d.d.d.l.l.k.t.q.q.7.O.O.O.",
",.7.6.;.O.O.7.Z.Z.Z.d.d.d.i.7.6.f.Z.Z.Z.O.O.O.p.d.d.a.h < 8._ & > 6.q.q.j.d.d.d.C.Z.Z.h.7.7.8.d.d.d.k.d.d.r.q.q.7.O.O.O.",
"7.7.7.,.;.;.6.M.v.M.k.j.j.a.a.8.z.Z.Z.Z.@.#.;.s.b.l.k.h & 3.2.& 5 8.q.q.s.d.d.d.A.A.Z.f.7.7.i.k.d.d.l.b.b.f.7.7.3.#.O.@.",
"7.7.7.6.7.7.7.6.8.7.e.h.e.j.d.d.l.Z.Z.Z.8.6.7.M.C.C.C.k & 3.t.& * 3.d.d.d.d.d.d.A.C.Z.f.,.4.8.k.k.l.Z.C.Z.q.;.;.,.6.6.6.",
"7.7.6.7.7.7.8.6.6.0.e.e.t.j.d.d.l.C.A.C.7.7.7.M.Z.Z.N.U & <.Z.5 & <.d.d.d.d.d.d.Z.Z.A.f.6.6.8.k.k.k.Z.Z.Z.q.;.;.>.,.6.6.",
"8.7.8.7.7.7.7.7.,.0.e.e.z.j.d.l.l.C.Z.Z.7.6.8.x.N.Z.b.U & ) C.5 & ) a.d.d.d.d.d.V.C.C.q.,.6.8.k.l.k.C.C.C.8.:.,.,.6.6.6.",
"d.d.a.a.q.0.0.7.8.7.0.7.8.M.Z.V.V.t.t.z.7.7.6.8.i.8.6.J & R q.9 & T 8.7.f.Z.C.C.8.8.7.,.@.O.6.z.h.z.k.k.d.8.7.6.,.O.@.@.",
"d.d.d.s.9.q.0.7.6.7.7.8.6.M.Z.Z.V.t.t.t.7.7.7.7.6.7.,.D & D 8.z & T 7.3.f.C.A.A.7.7.7.;.O.O.,.t.t.h.d.d.d.8.6.8.,.O.O.O.",
"d.d.d.a.q.q.0.7.7.7.7.6.7.v.A.A.C.t.e.z.7.7.7.7.8.7.:.! @ x 0.z & J ,.,.f.Z.Z.A.7.7.7.;.O.O.,.t.e.z.d.d.d.p.6.8.,.O.@.@.",
"d.d.d.v.M.M.x.q.q.q.7.7.7.f.h.f.e.0.0.q.*.:.*.,.7.7.7._ & x j.z & C g.a.q.8.7.8.,.:.,.O.O.@.#.9.0.8.d.d.d.8.7.6.,.,.:.,.",
"d.d.d.N.Z.Z.M.t.t.e.7.6.7.6.7.7.6.6.6.7.O.O.O.,.7.7.q.X.& h g.P * T k.k.i.O.O.*.;.:.:.O.O.O.;.7.7.7.d.d.a.8.7.7.7.7.7.7.",
"d.d.s.C.Z.A.N.z.t.t.7.7.7.7.7.7.7.7.7.>.O.O.@.,.6.7.q.w.W ..k.d.{ 8.k.g.a.O.O.;.:.;.:.O.O.O.;.8.6.8.a.d.d.8.8.6.7.7.7.7.",
"d.a.d.k.c.c.j.s.r.r.7.6.7.7.7.,.8.5.8.8.O.O.O.4.a.8.f.h.z.h.k.j.s.d.d.k.a.5.7.7.>.,.:.>.4.$.>.0.0.0.l.l.l.q.6.7.7.q.0.q.",
"d.d.d.4.O.O.4.d.d.d.8.7.7.7.7.7.8.d.d.a.O.O.O.p.k.k.k.k.k.k.q.q.q.j.d.d.l.A.Z.C.7.7.7.a.d.d.s.t.t.m.C.A.Z.z.8.6.q.e.e.z.",
"d.d.d.$.O.O.$.d.d.d.7.7.7.7.7.7.8.d.d.d.O.O.@.a.k.k.k.k.k.k.f.q.q.j.d.d.l.A.Z.Z.7.7.7.a.d.d.f.t.t.t.C.Z.Z.r.7.7.0.t.t.t.",
"d.d.d.$.O.O.$.d.d.d.7.7.6.8.6.6.i.d.d.d.O.O.O.p.k.k.k.k.d.k.q.q.q.s.d.d.l.Z.A.Z.7.7.7.a.d.d.g.z.t.t.Z.Z.A.j.7.7.q.t.t.t."
};
