/* XPM */
static char *_1984_bffe86d718812dd9db392d6ee2459f757e21d928ab5eec7a85bae6ee1fb5e48d[] = {
/* columns rows colors chars-per-pixel */
"60 60 167 2 ",
"   c #060606",
".  c #060807",
"X  c #080806",
"o  c #0C0C0C",
"O  c #180F08",
"+  c #0F160E",
"@  c #12130E",
"#  c #191009",
"$  c #12180E",
"%  c #0D0E10",
"&  c #100E11",
"*  c #121212",
"=  c #161A12",
"-  c #191D13",
";  c #201408",
":  c #0B2F03",
">  c #083305",
",  c #1D2416",
"<  c #1D2817",
"1  c #1E2519",
"2  c #1D2818",
"3  c #33240F",
"4  c #3F270D",
"5  c #34370C",
"6  c #20251B",
"7  c #222C1B",
"8  c #26321E",
"9  c #29371E",
"0  c #221724",
"q  c #241B25",
"w  c #391F3C",
"e  c #222021",
"r  c #282129",
"t  c #2D3B21",
"y  c #303F20",
"u  c #372D36",
"i  c #36223B",
"p  c #3A243E",
"a  c #373737",
"s  c #393738",
"d  c gray22",
"f  c #4E3213",
"g  c #523212",
"h  c #563814",
"j  c #593D16",
"k  c #074305",
"l  c #084404",
"z  c #0D5803",
"x  c #0E5303",
"c  c #105303",
"v  c #105A03",
"b  c #11550C",
"n  c #1D6614",
"m  c #227317",
"M  c #2D4022",
"N  c #334325",
"B  c #364A27",
"V  c #364929",
"C  c #394B29",
"Z  c #3A4C26",
"A  c #3C542A",
"S  c #3E5C2A",
"D  c #3D5730",
"F  c #377D27",
"G  c #544410",
"H  c #5A4412",
"J  c #674015",
"K  c #694216",
"L  c #6A4419",
"P  c #62451B",
"I  c #42572C",
"U  c #425C2E",
"Y  c #415031",
"T  c #445A32",
"R  c #485E36",
"E  c #45652D",
"W  c #49642F",
"Q  c #5F642E",
"!  c #536E29",
"~  c #476333",
"^  c #4A6535",
"/  c #4C6339",
"(  c #526F37",
")  c #516B3B",
"_  c #527236",
"`  c #54733A",
"'  c #567A3B",
"]  c #527D35",
"[  c #69692D",
"{  c #423145",
"}  c gray34",
"|  c #587242",
" . c #5B843B",
".. c #59883A",
"X. c #618D3E",
"o. c #62943F",
"O. c #5A8140",
"+. c #628644",
"@. c #648C44",
"#. c #658E48",
"$. c #6A8A4D",
"%. c #639743",
"&. c #6A9045",
"*. c #649941",
"=. c #6D9648",
"-. c #6D9A4B",
";. c #769D4A",
":. c #6D8A50",
">. c #719452",
",. c #759A55",
"<. c #73AE4B",
"1. c #79A74C",
"2. c #75B04C",
"3. c #79B34F",
"4. c #7FB84F",
"5. c #75A352",
"6. c #78A550",
"7. c #76AB52",
"8. c #7EAE55",
"9. c #7FAA5B",
"0. c #77B352",
"q. c #7BB354",
"w. c #7EB952",
"e. c #7FB459",
"r. c #82AF52",
"t. c #82AF5C",
"y. c #82B556",
"u. c #82BA54",
"i. c #89BE54",
"p. c #81B759",
"a. c #83B95B",
"s. c #88BE5D",
"d. c #86BB60",
"f. c #8BBC62",
"g. c #8EB46A",
"h. c #8EBE6A",
"j. c #8AB462",
"k. c #90BF61",
"l. c #91BE6B",
"z. c #95AE75",
"x. c #96AD79",
"c. c #87C056",
"v. c #8AC256",
"b. c #8DC45C",
"n. c #91C65D",
"m. c #92CA5C",
"M. c #8EC262",
"N. c #8FC861",
"B. c #8FC36A",
"V. c #91C464",
"C. c #94CC61",
"Z. c #99CE65",
"A. c #93C36B",
"S. c #99C56E",
"D. c #95C86A",
"F. c #9ACC6E",
"G. c #9CD06C",
"H. c #97C772",
"J. c #99C671",
"K. c #9CCD71",
"L. c #9FD173",
"P. c #A0D26E",
"I. c #A0CE74",
"U. c #A3D476",
"Y. c #A5D579",
"T. c #A8D67B",
"R. c #ACB08D",
/* pixels */
"m.m.m.s.p.p.b.C.C.Z.Y.Y.Y.Y.Y.Y.D.<.<.<.Y.Y.Y.S.l.l.f.a.a.d.C.C.C.w.2.<.w.m.C.C.e.e.u.a.a.a.s.m.m.m.s.a.a.a.a.a.c.m.m.m.",
"m.m.m.s.p.p.s.C.m.Z.U.Y.Y.Y.Y.Y.D.2.<.<.Y.Y.Y.S.l.l.M.a.a.a.m.C.C.u.<.<.w.Z.C.C.a.a.e.a.a.a.s.m.m.m.a.a.a.p.a.a.c.m.m.m.",
"m.m.m.s.a.p.b.C.C.C.U.Y.Y.Y.Y.Y.D.<.<.<.Y.Y.Y.S.l.l.f.a.a.a.C.C.m.u.<.<.w.Z.C.C.a.e.a.a.p.a.s.m.m.n.s.a.p.p.a.a.s.m.m.m.",
"m.m.m.b.d.d.M.m.C.C.U.Y.Y.G.Z.Z.N.e.q.0.Z.G.Z.I.K.U.S.p.a.a.C.C.C.v.v.i.v.m.m.m.a.a.e.a.a.p.b.U.L.Z.a.a.a.b.b.b.m.m.m.m.",
"m.m.m.V.d.f.M.m.m.m.Y.Y.Y.Z.m.m.b.e.a.a.C.C.C.U.Y.Y.K.p.a.d.C.C.C.m.m.m.m.m.m.m.a.a.a.a.a.e.B.Y.Y.Y.a.a.a.b.m.m.m.m.m.m.",
"m.m.m.f.f.j.s.m.m.m.Y.Y.T.Z.m.m.b.a.a.a.C.C.m.U.Y.Y.F.p.a.a.m.C.C.n.m.m.m.m.m.m.a.a.a.e.a.a.M.Y.Y.L.d.a.a.v.m.m.m.m.m.m.",
"m.m.m.M.f.f.f.n.b.n.F.F.F.F.Z.Z.C.f.d.f.V.N.b.D.K.K.A.s.d.d.M.V.V.n.v.b.b.v.b.n.c.c.b.b.M.b.N.G.L.G.b.a.s.m.m.m.m.v.b.v.",
"m.m.m.k.f.f.d.a.a.a.p.p.a.F.T.U.L.h.l.l.a.p.a.a.a.p.s.f.f.f.f.f.f.s.a.a.a.i.a.a.m.m.m.N.C.N.C.m.m.m.m.m.m.m.m.m.b.a.a.a.",
"m.m.m.n.f.f.d.a.a.a.p.a.a.K.Y.Y.I.l.l.l.a.p.p.-.U D T T T T T T R 5.p.a.a.a.p.a.R.C.m.C.C.C.m.m.m.m.m.m.m.m.m.m.n.a.a.a.",
"m.v.m.k.f.f.d.a.a.a.s.s.s.K.Y.Y.I.l.l.l.a.s.p.6 * * * * * * * & + , q.p.a.u.s.u.b.b.m.m.m.C.Z.m.m.C.Z.m.m.m.m.m.v.a.a.a.",
"2.<.<.y.a.a.a.a.a.s.I.I.U.U.Y.Y.I.h.l.l.a.a.5.* * * * * * * & * * o U <.u.m.v.m.s.a.a.s.s.a.M.U.U.Y.Y.Y.Y.Z.m.m.b.a.a.a.",
"<.<.<.q.a.a.a.a.a.d.Y.Y.Y.Y.T.Y.U.l.l.A.a.a.-.% * * * * * * * * * o = *.q.m.m.m.a.p.a.a.a.a.B.Y.T.Y.Y.Y.T.m.m.m.b.a.a.a.",
"2.<.<.y.a.p.a.a.a.d.U.Y.Y.Y.Y.Y.K.l.l.l.a.a.-.* * * * * * * * * * o $ *.w.m.m.m.a.a.p.a.a.a.M.Y.U.T.Y.Y.Y.Z.m.m.b.a.a.a.",
"v.v.i.s.h.f.a.7.q.q.V.S.S.D.Z.C.C.a.d.d.b.b.6.* * * * * * * * * * o = -.u.m.m.m.a.a.a.D.K.K.S.M.k.V.J.J.J.V.f.l.b.b.b.m.",
"m.m.m.V.l.h.d.<.<.7.d.f.s.N.m.m.b.p.a.p.m.m.8.* * * * * * * * * * o = <.s.m.m.m.a.a.a.F.Y.Y.K.p.p.a.f.l.l.f.d.f.b.m.m.m.",
"m.m.m.V.l.l.s.<.<.<.d.s.j.n.m.m.b.p.p.y.m.m.v.u p p } } } { { i i & = ,.b.m.m.m.a.p.a.F.Y.Y.D.p.p.a.l.l.l.h.f.f.f.m.m.m.",
"m.m.n.C.V.V.s.u.u.q.b.M.f.N.b.b.v.p.e.e.b.b.b.e q q a a a r q 0 q o - 1.v.v.v.i.a.a.a.V.F.K.V.a.e.a.f.M.f.M.M.N.b.m.n.b.",
"m.m.m.m.m.m.m.m.m.m.m.m.m.s.a.a.y.0.0.0.a.a.a.M * * * * * * * * * X N i.i.<.<.<.a.a.y.p.a.a.a.a.a.a.a.a.p.N.N.C.N.p.a.a.",
"m.m.m.m.n.m.m.m.m.m.m.m.m.s.a.a.y.0.0.e.a.a.p.~ * * * * * * * * 6 y i.m.v.<.<.2.a.y.p.a.a.p.a.a.a.a.a.a.a.N.C.C.b.a.a.p.",
"m.n.m.m.m.m.m.n.m.m.m.m.m.s.p.a.p.q.q.0.a.a.a.8.` ` / = . o . W u.n.m.m.v.<.2.<.e.a.p.a.a.a.a.a.a.a.a.a.p.b.C.C.M.a.a.a.",
"Y.Y.Y.Z.m.m.Z.T.Y.U.s.d.d.s.a.a.p.p.a.a.<.2.2.D.Y.Y.j.- * * o * $.U.Y.Y.G.m.m.m.f.f.f.K.Y.Y.L.C.C.C.N.m.N.m.C.C.C.C.m.C.",
"Y.Y.Y.Z.m.m.Z.T.Y.U.l.d.f.d.a.a.p.s.a.a.<.<.2.D.Y.Y.:.% * * o * N K.Y.Y.G.m.m.m.d.f.f.K.Y.Y.U.C.C.C.m.m.m.m.Z.C.m.C.C.C.",
"Y.Y.Y.Z.m.m.Z.Y.Y.U.k.f.f.a.a.a.p.p.a.a.<.2.2.D.Y.Y.Y * * * o 8 = 9.Y.Y.P.m.m.m.f.f.f.K.Y.Y.L.C.Z.C.m.m.m.C.C.C.C.C.C.C.",
"C.G.C.v.u.u.i.Z.Z.Z.n.n.b.m.b.b.b.a.a.a.V.D.D.B.V.f.- * * * o X.- ) M.M.N.m.m.C.a.a.a.f.H.A.V.m.m.m.C.C.C.b.s.s.b.f.s.b.",
"m.m.m.u.0.0.u.m.m.m.m.m.m.m.m.m.m.a.e.a.Y.Y.Y.M.a.-.o * * * o *.S t e.a.a.m.m.m.p.p.y.j.f.f.V.m.m.m.C.C.N.b.e.a.a.a.a.a.",
"m.m.m.w.0.q.u.m.m.m.m.m.m.m.m.m.N.a.a.a.Y.Y.Y.B.a.( * * * * % ] ..* 7.a.s.n.m.m.p.p.p.s.f.s.f.m.m.m.C.C.C.b.a.a.a.a.a.a.",
"m.m.m.b.u.a.c.m.m.m.b.b.v.m.m.m.N.e.a.a.F.F.e.m n b k k > + o _ <., ) a.s.m.v.m.y.p.p.d.f.f.M.b.b.b.N.m.N.M.B.M.f.a.a.a.",
"m.m.m.m.Z.C.m.m.m.m.s.a.a.m.V.C.N.a.a.a.a.e.F v z x x l : + % A a.N V a.s.m.m.m.p.p.a.f.l.l.h.p.a.a.p.a.a.K.Y.Y.F.a.a.a.",
"m.m.m.m.C.C.m.m.m.b.s.u.p.N.C.m.N.e.a.a.a.p.! H H H G 5 3 @ o M p.~ 7 7.s.m.m.m.p.p.p.f.l.l.f.a.a.a.a.a.a.K.Y.Y.K.a.p.a.",
"m.m.m.m.C.C.m.C.C.C.a.p.a.b.C.C.N.a.s.a.a.a.[ L K L L g # o @ 2 y.+.= +.v.b.m.m.p.p.a.f.h.h.f.p.a.a.a.a.p.D.L.Y.F.a.a.d.",
"a.a.s.b.m.m.Z.Y.Y.L.d.a.a.N.C.C.C.C.N.C.a.a.[ K K L L f O @ % o <.9.* $.K.a.d.a.h.h.h.e.2.2.0.a.a.e.a.a.a.f.h.f.k.n.n.n.",
"a.a.s.v.m.m.Z.Y.Y.Y.g.x.p.N.C.C.C.C.C.C.a.p.[ L K J L g # * o X %.D.* :.K.a.a.a.l.l.h.e.<.<.0.a.a.a.a.a.a.d.f.f.n.m.m.n.",
"a.e.a.b.m.m.Z.Y.Y.U.d.e.a.N.N.C.N.N.C.N.d.e.Q h P j g f @ o * X ..5.* :.K.a.a.p.l.l.l.e.<.<.0.a.a.a.p.a.a.a.f.j.M.m.m.m.",
"M.h.f.M.s.b.A.Y.Y.U.m.b.m.b.d.b.M.b.b.c.b.N.;.- , - t % * o & o A U 6 5.s.0.e.e.s.s.s.s.v.v.s.a.a.s.j.s.f.M.n.n.n.f.f.M.",
"l.l.h.d.a.a.f.Y.Y.U.m.m.m.b.e.a.a.a.a.a.m.m.m.7.+.6.O.* & * o o & * C a.p.8.0.q.a.a.a.N.C.C.N.a.a.a.d.f.d.n.m.m.n.f.f.f.",
"l.l.B.d.p.p.A.Y.Y.U.C.m.m.b.a.e.e.a.a.e.m.m.m.c.p.a.q., @  .,   6 7 #.p.p.q.3.8.a.a.a.M.C.C.N.a.a.a.f.d.f.n.m.m.n.f.f.d.",
"J.J.H.M.M.b.M.K.K.G.b.m.v.M.e.e.a.b.s.s.b.v.b.s.a.a.y.7 , m.9 o @.f.V.V.d.q.q.q.a.u.a.b.m.C.b.s.s.b.A.A.S.m.m.m.n.a.a.s.",
"Y.Y.L.G.C.N.N.s.e.a.e.e.e.e.e.M.a.m.m.m.u.p.y.a.p.s.p.7 , b.9 o #.F.Y.Y.K.a.p.p.a.a.a.b.m.m.m.C.C.Z.U.Y.Y.m.m.m.b.a.a.a.",
"Y.Y.Y.G.C.m.N.p.a.a.e.a.e.e.e.c.b.m.m.m.p.p.p.a.p.a.e.7 6 m.9 @ ` F.Y.Y.F.p.p.p.a.a.a.b.m.m.m.C.C.Z.U.Y.Y.Z.m.m.b.a.a.a.",
"Y.Y.Y.F.C.C.V.p.a.a.a.e.d.e.M.e.s.m.m.m.p.p.p.a.a.a.e.7 , m.9 * ^ F.Y.Y.K.p.p.p.a.a.a.b.C.m.m.C.C.C.Y.U.Y.Z.m.m.b.a.a.a.",
"p.a.a.N.C.C.Z.l.B.B.a.a.a.b.m.m.b.u.p.p.0.q.0.p.a.a.y.6 , C.R & ) V.m.m.b.y.p.p.a.a.p.F.Y.U.K.f.d.f.Z.C.C.m.m.m.b.k.k.f.",
"a.a.p.N.C.C.V.l.h.B.a.a.p.b.m.m.b.p.p.p.q.0.0.p.a.a.a.t , Z.R * / N.m.m.b.p.p.p.p.a.a.K.Y.T.K.f.d.M.C.C.C.m.m.m.V.f.d.f.",
"a.a.p.C.C.Z.V.l.h.l.s.p.a.b.m.m.b.e.e.a.0.0.q.e.a.a.v.C , C.R * y V.m.m.v.p.p.a.z.g.p.F.Y.Y.I.f.f.f.C.C.C.m.m.m.n.f.f.f.",
"a.a.p.u.w.4.b.L.K.K.N.b.b.v.s.b.N.K.K.D.7.2.<.s.b.v.M.N , s.` * N f.M.M.b.b.b.n.F.K.K.D.V.V.V.n.b.C.C.m.C.M.M.M.s.q.0.0.",
"a.a.a.8.<.<.p.Y.Y.U.m.m.m.c.a.a.V.Y.Y.Y.2.<.<.c.m.m.b.N , a. .* < p.f.f.k.m.m.m.Y.Y.Y.V.a.a.s.n.m.C.C.Z.C.f.f.f.a.<.<.<.",
"a.a.p.2.<.<.a.Y.Y.Y.m.m.m.s.a.p.M.Y.Y.Y.<.<.<.c.m.m.b.N 6 a.#.* , y.f.f.k.m.m.m.Y.Y.Y.B.a.a.s.m.m.m.Z.m.m.l.f.f.a.<.<.<.",
"a.a.a.e.0.8.p.K.F.K.C.V.V.b.s.b.D.Y.Y.Y.2.3.q.N.Z.Z.C.N * y.t.* 6 a.f.l.n.m.m.m.Y.Y.Y.V.a.a.s.m.m.m.Z.G.G.n.s.a.e.2.<.7.",
"a.a.a.p.a.a.a.a.a.a.h.B.h.V.m.m.Z.T.Y.Y.p.a.a.K.Y.Y.P.Z & a.A.* = y.m.m.m.m.m.m.Y.Y.Y.M.e.p.c.C.C.C.Y.Y.Y.f.0.0.e.p.p.p.",
"a.a.a.a.a.a.a.a.p.d.h.h.l.V.m.m.Z.T.T.Y.a.a.a.K.Y.Y.L._ * y.Y.6 * r.m.m.m.m.m.m.Y.Y.Y.f.p.p.s.C.C.Z.Y.Y.Y.s.q.q.e.y.p.p.",
"a.s.a.a.a.a.a.a.p.j.h.h.l.C.C.m.Z.U.I.U.a.a.a.S.Y.L.G._ @ @.I.6 * @.m.n.m.m.m.m.U.U.U.M.e.p.a.C.C.C.U.Y.U.s.q.q.e.p.p.y.",
"m.m.v.b.f.f.d.a.a.a.d.a.a.K.Y.I.I.l.l.S.a.a.a.a.s.a.e.W * ' M.t & ' a.y.b.Y.Y.Y.s.d.s.e.2.<.e.A.A.A.C.C.m.s.a.a.e.<.2.2.",
"m.m.m.V.f.f.a.a.a.a.a.a.a.K.Y.T.I.l.l.l.a.a.a.a.a.a.w.W * U s.C @ ` a.a.M.Y.Y.Y.a.p.p.3.<.<.e.A.l.B.n.m.m.s.a.a.e.2.<.<.",
"n.m.m.M.f.f.d.a.a.a.a.a.a.K.Y.Y.U.l.l.l.a.a.a.a.a.a.y...* A d.C @ ~ e.e.M.T.T.T.a.a.a.0.<.<.e.l.l.B.m.m.m.s.p.p.e.<.2.<.",
"m.m.m.Z.K.K.F.f.f.d.a.a.a.M.V.V.f.d.f.d.q.q.8.e.a.a.p.&.* C V.C * I N.N.f.a.a.s.e.q.q.7.<.<.0.d.d.d.m.m.m.s.s.p.e.e.q.e.",
"m.m.m.P.Y.Y.I.l.l.h.a.a.a.a.a.a.a.a.a.a.<.<.<.0.a.a.d.,.* N C.( = ` C.C.b.<.<.7.0.q.q.<.<.<.0.p.a.a.b.m.m.c.p.a.a.a.a.a.",
"m.m.m.U.Y.Y.I.l.l.h.a.a.a.a.a.p.a.a.p.u.<.<.<.e.a.a.d.l.| >.C.b.=.s.C.N.c.<.2.2.q.0.q.<.<.<.4.a.a.a.m.m.m.s.s.p.a.a.a.a.",
"m.m.m.C.D.V.V.V.V.k.a.a.p.a.a.a.a.s.s.s.<.<.<.w.M.c.M.B.A.A.N.C.n.m.C.m.m.a.a.e.w.w.e.w.w.w.u.f.d.d.C.Z.Z.s.a.a.a.f.d.f.",
"m.m.m.q.<.<.u.m.m.m.a.a.a.a.a.a.s.m.m.m.<.<.<.v.C.C.C.C.C.C.f.f.f.V.m.m.Z.T.Y.Y.a.a.a.v.m.m.V.l.l.J.U.T.Y.V.a.a.f.l.l.l.",
"m.m.m.4.<.<.4.m.m.m.s.a.a.p.a.p.i.m.m.m.<.<.<.b.C.C.C.C.C.C.f.f.f.n.m.m.Z.Y.Y.Y.a.a.a.m.m.m.M.l.l.l.T.T.Y.l.a.a.d.l.A.l.",
"m.m.m.4.<.<.4.m.m.n.a.a.a.a.a.a.s.m.m.m.2.<.<.v.C.C.C.C.C.C.f.f.f.V.m.m.Z.T.T.Y.a.a.a.v.m.m.V.l.l.l.U.T.T.V.a.a.d.l.l.l."
};
