/* XPM */
static char *_0039_91c8bece14293f72591934772afcaeebd3dc4630ae1adf77dce8881fc5aff473[] = {
/* columns rows colors chars-per-pixel */
"60 60 171 2 ",
"   c #060807",
".  c #080806",
"X  c #0C0C0C",
"o  c #060606",
"O  c #180F08",
"+  c #0F160E",
"@  c #12130E",
"#  c #191009",
"$  c #121B0F",
"%  c #0D0E10",
"&  c #190D1B",
"*  c #121212",
"=  c #161B12",
"-  c #1A1C15",
";  c #1E141D",
":  c #201408",
">  c #0B2F03",
",  c #083305",
"<  c #1D2416",
"1  c #1D2817",
"2  c #1E2519",
"3  c #1D2818",
"4  c #3F270D",
"5  c #33240F",
"6  c #34370C",
"7  c #21261B",
"8  c #222C1B",
"9  c #26321E",
"0  c #29371E",
"q  c #1F1820",
"w  c #231924",
"e  c #271D28",
"r  c #261828",
"t  c #301E34",
"y  c #242021",
"u  c #2D3A21",
"i  c #303E22",
"p  c #4E3213",
"a  c #523212",
"s  c #563814",
"d  c #593D16",
"f  c #074305",
"g  c #084404",
"h  c #0E5603",
"j  c #105303",
"k  c #105A03",
"l  c #11550C",
"z  c #1D6614",
"x  c #227317",
"c  c #2D4022",
"v  c #324325",
"b  c #364A27",
"n  c #364929",
"m  c #394B29",
"M  c #3A4C26",
"N  c #3D542B",
"B  c #3F5D2B",
"V  c #377D27",
"C  c #5A4412",
"Z  c #544410",
"A  c #674015",
"S  c #694216",
"D  c #6A4419",
"F  c #62451B",
"G  c #415C2E",
"H  c #42572C",
"J  c #415031",
"K  c #445A32",
"L  c #485E36",
"P  c #45652D",
"I  c #49642F",
"U  c #5F642E",
"Y  c #536E29",
"T  c #4A6535",
"R  c #4A6336",
"E  c #526F37",
"W  c #516B3C",
"Q  c #527236",
"!  c #54733A",
"~  c #567A3B",
"^  c #527D35",
"/  c #69692D",
"(  c #4D1E55",
")  c #402943",
"_  c #512558",
"`  c #4B3250",
"'  c #587242",
"]  c #5B843B",
"[  c #59883A",
"{  c #618D3E",
"}  c #62943F",
"|  c #5A8140",
" . c #628644",
".. c #648C44",
"X. c #658E48",
"o. c #6A8A4D",
"O. c #639742",
"+. c #6A9045",
"@. c #6D9648",
"#. c #6D9A4B",
"$. c #649941",
"%. c #749E4D",
"&. c #6D8A50",
"*. c #739754",
"=. c #74AE47",
"-. c #74A24E",
";. c #73AE4B",
":. c #7BAA4C",
">. c #75B04C",
",. c #79B34F",
"<. c #7FB84F",
"1. c #76A353",
"2. c #78A550",
"3. c #76AB52",
"4. c #7EAE54",
"5. c #7FAC59",
"6. c #77B352",
"7. c #7BB354",
"8. c #7EB952",
"9. c #7EB459",
"0. c #81AF53",
"q. c #81A75C",
"w. c #82AF5C",
"e. c #82B556",
"r. c #82BA54",
"t. c #89BE55",
"y. c #81B759",
"u. c #83B95B",
"i. c #88BE5D",
"p. c #86BB60",
"a. c #8BBC62",
"s. c #8EB46A",
"d. c #8EBE6A",
"f. c #89B462",
"g. c #90BF61",
"h. c #91BE6B",
"j. c #96AD79",
"k. c #95AE75",
"l. c #87C057",
"z. c #89C256",
"x. c #8DC45C",
"c. c #91C65D",
"v. c #92CA5C",
"b. c #8EC262",
"n. c #8FC861",
"m. c #8EC06B",
"M. c #91C464",
"N. c #94CC61",
"B. c #99CE65",
"V. c #93C36B",
"C. c #95C86A",
"Z. c #9ACC6E",
"A. c #99C56E",
"S. c #9CD16C",
"D. c #97C772",
"F. c #99C671",
"G. c #9CCD71",
"H. c #9FD173",
"J. c #A0D36F",
"K. c #A0CE74",
"L. c #A3D476",
"P. c #A5D579",
"I. c #A8D67B",
"U. c #8A2D98",
"Y. c #A72CBB",
"T. c #815785",
"R. c #A44EB3",
"E. c #9965A3",
"W. c #BB40CF",
"Q. c #C27DCD",
"!. c #ACB08D",
/* pixels */
"v.v.v.i.y.y.x.N.N.B.L.P.P.P.P.P.C.;.=.;.L.I.P.A.h.h.M.y.u.u.N.N.N.8.>.=.8.N.v.N.u.u.8.u.u.u.i.v.v.v.u.u.u.u.u.u.z.v.v.v.",
"v.v.v.i.y.y.i.N.N.N.L.P.P.P.P.P.C.>.;.;.P.P.P.A.h.h.a.u.u.u.N.N.N.8.;.;.8.N.N.N.u.9.y.u.u.u.i.v.v.v.u.u.u.y.u.u.l.v.v.v.",
"v.v.v.i.u.y.x.N.N.N.P.P.P.P.P.P.C.;.;.;.P.P.L.A.h.h.d.u.u.u.N.N.N.8.;.;.8.N.N.N.y.y.y.y.u.u.z.v.v.c.u.u.y.y.u.u.r.v.v.v.",
"v.v.v.x.p.p.b.v.N.N.L.P.P.S.B.B.n.9.9.6.S.Z.B.J.K.K.C.y.u.u.v.N.v.x.z.t.x.v.N.v.u.y.u.u.u.u.b.H.H.B.i.u.u.x.x.x.x.v.v.v.",
"v.v.v.x.p.a.a.v.v.N.L.P.P.B.v.v.x.8.u.u.N.N.N.L.P.P.Z.u.u.u.N.N.N.v.v.v.v.v.v.v.u.u.u.u.u.u.b.P.P.P.u.u.u.v.v.v.v.v.v.v.",
"v.v.v.b.a.a.i.v.v.v.L.P.I.B.v.v.n.u.u.u.N.N.v.L.P.P.G.u.u.p.N.N.N.v.v.v.v.v.v.v.u.u.u.9.u.u.m.I.P.H.p.u.u.x.v.v.v.v.v.v.",
"v.v.v.b.a.g.g.x.x.c.Z.Z.Z.B.B.B.M.p.a.a.M.n.x.C.Z.G.V.i.p.p.n.M.c.c.x.x.x.x.v.x.l.x.u.x.x.x.b.S.H.S.l.x.u.x.v.v.v.v.x.x.",
"v.v.v.d.f.a.p.u.u.u.y.u.u.G.I.L.H.d.d.h.u.y.u.u.u.u.i.a.a.a.p.p.a.u.i.u.u.r.y.u.v.v.v.v.n.N.N.v.v.v.v.v.v.v.v.v.x.u.y.u.",
"v.v.v.i.p.a.p.u.u.u.u.u.y.G.P.P.L.h.h.h.u.y.y.#.H N K K K K K K I 1.u.u.u.u.y.y.!.M.v.v.N.N.v.v.v.v.v.v.v.v.v.v.x.u.u.u.",
"c.v.v.g.a.a.p.u.u.u.i.i.a.G.P.P.K.h.h.h.u.i.y.7 * * * * * * * * * < 4.9.y.u.i.r.v.v.v.N.v.N.B.v.v.v.v.B.v.v.v.v.x.u.u.u.",
">.>.=.e.u.u.u.u.y.i.K.K.L.L.L.I.G.h.h.h.u.u.1.* * * * * * * * * * X B >.8.v.v.x.y.i.i.u.i.i.b.L.P.L.I.P.L.B.v.v.x.y.u.u.",
"=.=.=.7.u.u.u.u.u.p.P.P.L.I.I.L.K.h.d.V.u.u.#.X * * * * * * * % *   $ O.8.v.v.v.y.y.u.u.u.9.b.P.P.I.L.I.L.B.v.v.x.u.u.u.",
">.=.;.9.y.u.y.u.u.p.L.L.P.I.P.I.K.h.h.h.u.u.#.* * * * * * * & * * X $ O.7.v.v.v.u.u.y.u.y.i.m.P.P.P.L.I.I.B.v.v.x.u.u.u.",
"z.z.z.a.a.a.p.6.7.9.M.C.V.C.B.N.N.u.p.p.x.x.1.* * * * * * * * * * . < #.t.v.v.n.u.u.y.C.G.G.C.b.g.M.D.F.F.M.M.a.x.x.x.x.",
"v.v.v.M.h.h.p.;.;.;.p.a.a.M.v.v.x.y.y.y.v.v.:.e t e * * * ) ` _ ( X < -.i.v.v.v.u.u.i.Z.P.P.G.y.y.y.d.h.h.a.f.a.b.v.v.v.",
"v.v.v.M.h.h.p.;.;.;.f.a.a.c.v.v.x.y.y.y.v.v.x.T.R.U.* * * E.Q.W.Y.& $ %.i.v.v.v.u.u.u.Z.P.P.Z.y.y.u.d.h.d.d.a.a.x.v.v.v.",
"v.v.v.M.g.M.x.e.<.r.i.b.g.x.c.x.z.7.y.e.x.x.x.y w ; * * * q w w ; . - -.z.z.z.i.u.u.y.C.G.Z.V.y.u.u.p.b.a.b.b.b.b.v.x.x.",
"v.v.v.v.v.v.v.v.v.v.v.v.v.i.u.u.e.7.7.7.u.u.u.u * * * * * * * * * X v t.z.>.;.;.y.y.y.y.u.u.y.y.9.u.u.u.9.n.N.N.n.u.u.u.",
"v.v.c.v.v.v.v.v.v.v.v.v.v.i.u.u.9.6.6.7.u.u.u.I * * * * % * * * 7 i t.v.l.;.;.;.y.y.y.u.u.y.u.u.u.u.u.u.u.n.N.N.x.y.u.u.",
"v.v.v.v.v.v.v.v.v.v.v.v.v.i.y.u.y.7.7.3.u.u.u.e.! ! T = X X o T r.c.v.v.z.=.>.=.y.y.y.u.u.u.u.i.u.u.u.u.u.n.N.N.n.u.y.i.",
"P.P.L.B.v.v.B.P.P.L.a.a.p.u.u.u.u.y.u.9.>.>.>.M.P.P.f.- * * X @ +.L.P.P.H.x.v.v.a.a.a.G.P.P.S.N.N.N.n.v.v.v.N.N.N.N.v.N.",
"P.P.P.B.v.v.B.P.P.L.a.a.a.p.u.u.u.u.u.u.;.;.>.C.I.P.o.* * * % % v G.P.P.S.v.v.v.a.p.p.G.P.P.L.N.N.N.v.v.v.N.N.N.v.N.N.N.",
"P.P.P.B.v.v.B.P.P.L.d.p.p.p.u.u.u.u.u.u.>.>.>.C.L.L.J % * * X 8 = 5.P.P.S.v.v.v.a.a.a.Z.P.P.L.N.N.N.v.v.v.v.N.N.N.N.N.N.",
"N.S.N.x.r.r.z.B.B.B.c.c.x.v.x.x.x.y.u.u.M.C.C.m.M.a.- * * * X { - W m.b.n.v.v.v.u.u.u.d.V.V.M.v.v.v.N.N.N.b.i.i.x.p.i.x.",
"v.v.v.8.7.7.r.v.v.v.v.v.v.v.v.v.v.u.9.u.P.P.P.b.u.#.X * * * X $.B u 9.u.x.v.v.v.y.y.y.i.f.a.c.v.v.N.N.N.N.x.u.9.u.y.u.y.",
"v.v.v.8.6.6.r.v.v.v.v.v.v.v.v.v.x.u.u.u.P.P.P.m.u.Q * * * * % ^ [ * 1.u.l.x.v.v.y.y.y.p.a.i.b.v.v.v.N.N.N.l.u.u.u.y.u.u.",
"v.v.v.x.u.r.l.v.v.v.x.x.z.v.v.v.n.9.u.u.Z.Z.9.x z l f f , + X Q ;.2 ~ u.i.v.v.v.y.y.y.a.a.g.a.x.v.x.v.n.n.b.m.b.a.u.u.u.",
"v.v.v.v.N.N.v.v.v.v.i.i.8.n.N.N.n.u.u.u.u.9.V k h j j f , @ % N u.c n 9.i.v.v.v.e.y.y.a.h.h.d.y.y.u.9.u.u.H.P.I.G.u.u.u.",
"v.v.v.v.N.N.N.v.v.v.i.y.u.x.N.N.n.u.u.u.u.u.Y C C C Z 6 5 @ X c u.I y 3.i.v.v.v.y.y.y.a.d.h.d.u.u.u.9.u.y.Z.P.P.G.u.u.u.",
"v.v.v.v.N.N.v.v.N.n.y.u.9.v.N.N.n.u.u.u.y.u./ D S D D a # X @ 1 9. .< | z.x.v.v.y.y.y.a.d.d.p.u.u.u.u.u.y.Z.P.H.Z.u.u.u.",
"u.u.i.x.v.v.B.P.P.H.p.u.u.n.N.N.n.N.N.N.u.u./ S S D S p O * % X -.4.* o.G.u.p.p.d.d.h.9.;.>.6.u.u.u.u.u.u.a.d.a.a.v.v.c.",
"u.u.u.v.v.v.B.P.P.P.s.j.u.n.N.N.N.N.N.N.u.y./ D S A D p : @ X . O.V.- &.G.y.y.y.h.h.d.9.>.;.6.u.u.u.u.u.u.a.a.p.x.v.v.v.",
"u.u.u.x.v.v.B.L.I.P.u.y.u.n.N.N.n.N.N.C.9.u.U s C d a p @ X * . [ 1.* &.G.u.y.u.h.d.h.9.;.;.6.y.u.u.y.u.u.p.a.f.x.v.v.v.",
"a.a.d.b.z.i.C.L.P.L.n.x.x.x.p.i.p.x.x.l.x.x.%.< 2 - u X * X % X H H 7 1.x.7.7.9.p.p.i.x.z.x.i.u.u.u.p.a.p.x.M.c.M.i.a.g.",
"h.h.d.p.u.u.M.P.P.L.v.v.v.b.y.u.u.u.u.u.v.v.v.3.| 2. .* * @ X X % * n u.y.7.7.7.u.u.u.x.N.N.n.y.u.u.a.a.a.c.v.v.c.a.a.a.",
"h.d.d.p.u.y.d.P.P.P.N.v.v.l.u.y.u.u.y.y.N.v.v.l.i.y.4.< @ ] < . 7 8 X.y.y.3.,.7.u.u.u.M.N.N.M.u.y.u.a.a.a.c.v.v.c.a.a.a.",
"F.F.D.b.x.x.m.Z.G.Z.v.x.x.i.9.u.u.l.x.i.x.x.x.i.u.y.9.7 1 v.0 X ..a.M.g.d.7.7.7.y.y.y.v.v.N.v.i.i.x.V.V.M.v.v.v.c.i.i.f.",
"P.P.H.S.N.n.n.u.u.u.9.u.8.u.u.u.u.v.v.v.r.y.y.u.u.u.r.8 7 x.0 X X.G.P.I.Z.y.y.y.u.u.u.x.v.v.v.N.N.B.L.L.P.B.v.v.x.e.u.u.",
"P.P.P.S.N.N.n.u.9.u.u.8.9.u.u.u.x.v.v.v.e.y.y.u.u.u.9.8 < x.0 @ ! Z.L.P.G.y.y.y.u.u.u.x.v.v.v.N.N.B.P.L.P.B.v.v.x.u.u.u.",
"P.P.P.S.N.N.x.y.u.u.u.9.9.u.u.u.i.v.v.v.y.9.y.u.u.u.9.8 7 v.0 @ T Z.P.L.Z.y.y.y.u.u.u.x.v.v.v.N.N.N.P.I.L.B.v.v.x.y.u.u.",
"u.u.u.M.N.N.M.h.m.m.i.y.y.x.v.v.x.r.y.y.7.6.7.7.u.u.e.8 2 N.L * W M.v.v.x.y.y.y.u.u.y.Z.P.L.H.p.p.a.B.N.N.v.v.v.c.g.a.a.",
"u.u.y.x.N.N.B.h.h.d.u.u.u.x.v.v.x.y.y.y.6.7.6.y.u.u.u.0 < N.L * R x.v.v.x.y.y.e.u.u.u.G.P.P.K.p.p.b.N.N.N.v.v.v.c.a.p.a.",
"u.u.u.N.N.N.N.h.h.d.u.u.y.x.v.v.x.y.y.9.6.7.6.y.u.u.i.m 7 N.L * v M.v.v.z.y.y.y.k.s.u.G.P.I.G.a.a.a.N.N.N.v.v.v.c.a.a.a.",
"y.u.y.r.r.7.b.G.L.G.x.x.x.i.x.z.n.Z.G.Z.;.3.;.i.x.x.x.v < i.! * v a.b.b.x.x.c.x.Z.G.Z.V.M.M.M.c.c.N.N.N.N.c.b.a.i.7.7.7.",
"u.u.u.7.;.;.y.P.P.L.v.v.v.i.u.u.n.P.P.P.>.;.;.t.v.v.x.v 2 u.| * 1 u.a.a.g.v.v.v.P.P.P.m.u.y.a.v.v.v.N.N.N.g.a.a.u.;.;.;.",
"u.u.y.,.;.;.u.P.L.P.v.v.v.z.u.y.m.P.L.P.;.;.>.z.v.v.x.v 7 u...* < e.a.a.M.v.v.v.P.P.I.M.y.u.z.v.v.v.N.N.N.g.a.p.y.;.;.;.",
"u.u.u.7.7.,.u.Z.G.G.N.M.M.x.x.i.C.P.P.P.,.,.7.x.B.B.v.v * e.w.* 7 i.a.g.v.v.v.v.L.P.P.b.u.u.i.v.v.v.B.S.Z.b.u.u.9.,.;.6.",
"u.u.u.u.u.u.u.u.u.u.d.m.d.M.v.v.B.I.P.P.y.y.u.G.I.P.J.M * e.V.* * e.v.v.v.v.v.v.P.P.L.m.9.9.x.N.N.B.L.P.P.a.7.6.9.y.y.y.",
"u.u.u.u.u.u.u.u.y.u.h.d.h.M.v.v.B.P.P.L.u.u.u.F.P.P.S.Q * 0.P.7 * w.v.v.v.v.v.v.P.P.P.b.9.y.i.N.N.N.P.P.P.a.6.7.7.y.u.y.",
"i.u.u.u.u.u.u.u.u.p.d.d.h.M.v.B.B.L.P.P.u.u.u.Z.P.H.H.Q * ..K.7 * ..v.v.c.v.v.v.P.H.L.a.9.y.i.N.N.N.L.L.L.i.7.7.7.y.y.y.",
"v.v.x.x.a.p.p.y.u.u.p.u.i.Z.L.L.K.h.h.V.u.u.u.i.i.i.y.P * ~ a.u * ~ u.u.M.P.P.L.p.i.i.7.,.,.7.V.V.d.N.N.v.i.y.u.9.3.;.>.",
"v.v.v.c.a.a.p.u.u.u.u.y.u.G.I.L.K.h.h.h.u.u.u.u.u.y.8.P * P i.m % ~ e.e.M.P.P.P.u.u.y.,.;.;.7.h.d.D.v.v.v.i.u.u.7.>.;.;.",
"c.v.v.b.g.a.p.y.u.u.u.y.y.Z.P.I.K.h.h.V.f.y.u.u.u.u.e.[ * N p.m % P 9.9.a.I.I.I.u.y.u.,.;.;.7.h.h.V.v.v.v.i.u.u.9.;.>.,.",
"v.v.v.B.G.G.D.a.a.a.i.u.u.b.m.M.m.p.p.p.3.7.7.9.u.u.u.o.* m n.m * H n.x.x.u.u.u.9.9.7.7.;.=.7.p.p.a.v.v.v.z.u.u.u.9.7.7.",
"v.v.v.L.P.P.K.h.h.d.u.y.u.u.u.u.u.u.i.y.;.;.;.7.u.u.p.*.* v N.E - ! N.N.l.>.;.3.7.6.7.3.;.;.6.y.u.u.x.v.v.z.u.u.u.u.u.u.",
"v.v.v.J.I.P.K.h.h.h.u.u.u.u.u.u.u.u.y.y.;.>.;.7.u.u.p.d.' *.N.v.@.i.N.N.x.;.;.6.6.7.6.;.;.;.7.u.u.u.x.v.v.i.u.y.u.y.u.y.",
"v.v.v.N.C.M.M.M.M.g.u.u.y.u.u.u.u.t.i.i.=.;.;.8.b.x.b.m.C.V.n.M.M.v.N.N.v.y.u.u.8.7.9.8.<.7.r.i.a.p.B.B.B.a.y.u.u.a.p.a.",
"v.v.v.<.;.;.r.v.v.v.u.u.u.u.y.u.i.v.v.v.;.=.;.l.N.N.N.N.N.N.a.a.a.c.v.v.B.P.P.P.u.u.9.v.v.v.M.h.h.D.L.I.P.M.u.u.a.d.h.h.",
"v.v.c.<.;.;.<.v.v.v.u.u.u.u.u.u.i.v.v.v.>.;.=.x.N.N.n.N.N.N.b.a.a.c.v.v.B.I.P.P.u.u.u.v.v.v.n.h.h.D.L.L.P.V.y.u.p.h.V.h.",
"v.v.v.<.;.;.<.v.v.v.u.u.u.y.u.u.i.v.v.v.=.;.;.z.N.N.N.N.v.M.a.a.a.c.v.v.B.I.I.P.u.u.9.x.v.v.N.h.h.h.L.I.I.g.u.u.p.h.h.h."
};
