/* XPM */
static char *_1703284162[] = {
/* columns rows colors chars-per-pixel */
"60 60 203 2 ",
"   c #082623",
".  c #072B25",
"X  c #092B25",
"o  c #0C2E28",
"O  c #072722",
"+  c #0C3229",
"@  c #0F3026",
"#  c #12332A",
"$  c #153B2C",
"%  c #193C2B",
"&  c #0D3731",
"*  c #0E3B34",
"=  c #1C3B36",
"-  c #1D3D38",
";  c #163631",
":  c #1E422D",
">  c #0E4239",
",  c #0E453B",
"<  c #1E4232",
"1  c #11463D",
"2  c #24462F",
"3  c #2A4F33",
"4  c #234734",
"5  c #2B5333",
"6  c #25523B",
"7  c #305A34",
"8  c #315736",
"9  c #3A6439",
"0  c #3B6439",
"q  c #426D3D",
"w  c #46723D",
"e  c #4B783F",
"r  c #134D43",
"t  c #125146",
"y  c #13564B",
"u  c #12594D",
"i  c #155F52",
"p  c #195D50",
"a  c #0F4B41",
"s  c #334E4A",
"d  c #3D5652",
"f  c #2C4944",
"g  c #156255",
"h  c #176659",
"j  c #17695B",
"k  c #196B5D",
"l  c #186659",
"z  c #3E6C45",
"x  c #1A6E61",
"c  c #177263",
"v  c #197364",
"b  c #1B7B6A",
"n  c #1F7F71",
"m  c #217C6D",
"M  c #425A57",
"N  c #426B41",
"B  c #4B7644",
"V  c #4D7A43",
"C  c #4B7449",
"Z  c #517E41",
"A  c #506B5E",
"S  c #5A6E6C",
"D  c #1B816E",
"F  c #1C8271",
"G  c #1E8B79",
"H  c #1F947E",
"J  c #288072",
"K  c #248777",
"L  c #348B7D",
"P  c #3A887A",
"I  c #20947F",
"U  c #568444",
"Y  c #59834A",
"T  c #598849",
"R  c #5E914B",
"E  c #5D9147",
"W  c #5C8752",
"Q  c #618E4B",
"!  c #649B45",
"~  c #63934C",
"^  c #66994B",
"/  c #659549",
"(  c #6C9D51",
")  c #6A9556",
"_  c #608D56",
"`  c #6CA54A",
"'  c #73AE4B",
"]  c #71A44D",
"[  c #75B14C",
"{  c #7AB44E",
"}  c #6EA152",
"|  c #73A554",
" . c #76A955",
".. c #74A35A",
"X. c #7BAD5A",
"o. c #7BB353",
"O. c #7FB852",
"+. c #7EB358",
"@. c #77B151",
"#. c #73827F",
"$. c #7DA863",
"%. c #82B757",
"&. c #82BB54",
"*. c #81B759",
"=. c #83B95B",
"-. c #89BD5D",
";. c #81AC65",
":. c #87BA61",
">. c #8BBC62",
",. c #8EBE6A",
"<. c #87B763",
"1. c #91BE6B",
"2. c #90BE66",
"3. c #87C056",
"4. c #8CC45C",
"5. c #8CC558",
"6. c #91C75D",
"7. c #92CA5C",
"8. c #8DC162",
"9. c #8FC16C",
"0. c #91C464",
"q. c #94CC61",
"w. c #99CE64",
"e. c #92C36A",
"r. c #9BCD6B",
"t. c #97C96B",
"y. c #9DD06B",
"u. c #96C472",
"i. c #99C672",
"p. c #9CCC71",
"a. c #9CC47C",
"s. c #9FD272",
"d. c #A0D26F",
"f. c #A0CE74",
"g. c #A3CC7E",
"h. c #A3D375",
"j. c #A5D579",
"k. c #A8D77A",
"l. c #1F9984",
"z. c #1F9481",
"x. c #219582",
"c. c #2A9281",
"v. c #219C86",
"b. c #219F89",
"n. c #2F9887",
"m. c #21A08A",
"M. c #2FA58F",
"N. c #25A992",
"B. c #28A590",
"V. c #33AB95",
"C. c #35AC99",
"Z. c #36AA97",
"A. c #34B29D",
"S. c #38B39E",
"D. c #36B5A0",
"F. c #39B7A2",
"G. c #3BB8A1",
"H. c #469A8D",
"J. c #4B9F92",
"K. c #56A89A",
"L. c #5DAFA1",
"P. c #5FB1A3",
"I. c #5EBAAC",
"U. c #49B6A3",
"Y. c #63B3A6",
"T. c #6CBCAF",
"R. c #68B6A9",
"E. c #6DBCB0",
"W. c #70BDB0",
"Q. c #7CBEB2",
"!. c #748A87",
"~. c #7CC0B5",
"^. c #828E8C",
"/. c #8C9695",
"(. c #939D9C",
"). c #98A1A0",
"_. c #83BFB4",
"`. c #8BBFB6",
"'. c #8CBFB8",
"]. c #94BFB9",
"[. c #90BFB7",
"{. c #A6ACAB",
"}. c #A9AEAD",
"|. c #A1A7A7",
" X c #ACB0AF",
".X c #B3B6B5",
"XX c #B6B9B9",
"oX c #BBBCBB",
"OX c #AFD986",
"+X c #AFD889",
"@X c #B1D887",
"#X c #8CC0B6",
"$X c #85C1B5",
"%X c #93C1B7",
"&X c #94C1B9",
"*X c #9BC1BB",
"=X c #A2C1BC",
"-X c #ACC2BF",
";X c #B9C1BF",
":X c #AEC3C0",
">X c #B3C4C2",
",X c #BCC4C3",
"<X c #C5C5C5",
/* pixels */
"y.7.5.4.*.=.-.q.q.q.h.j.j.j.j.j.p.' ' ' s.j.j.i.1.1.2.*.=.=.q.q.q.&.[ ' { 7.q.q.&.+.&.=.=.=.8.7.q.7.+.=.+.3.+.:.=.q.7.7.",
"y.7.7.4.=.=.-.q.q.w.h.j.j.j.j.k.r.' ' ' h.j.j.i.1.1.2.=.=.=.q.q.q.&.[ ' O.q.q.q.=.=.+.=.=.=.=.7.7.7.8.O.8.+.8.+.3.7.7.7.",
"y.7.7.-.=.=.-.7.q.w.h.j.j.j.j.j.t.' ' ' s.j.j.i.1.1.>.=.=.=.q.q.7.&.' ' o.7.q.q.=.=.=.=.=.=.4.7.7.7.O.:.3.+.+.=.3.6.7.7.",
"y.7.7.4.:.-.8.7.7.7.h.j.j.r.w.w.q.+.o.+.w.y.w.p.h.f.t.=.=.=.6.q.q.5.3.3.5.7.7.q.=.=.+.=.+.+.8.s.s.y.8.+.+.4.4.4.4.7.7.7.",
"y.7.7.8.:.>.>.7.7.7.h.j.j.y.7.7.8.+.=.=.q.*.| X.;.;...T Y Y R R ~ R E U e e U 4.=.=.8.+.=.+.8.k.OXs.8.8.8.4.7.7.7.7.7.7.",
"y.7.7.4.:.>.8.7.7.7.h.h.h.y.7.6.8.3.=.=.q.0 $ $ $ $ # + + + + + + + + + + + # | 3.=.+.+.+.8.8.k.s.s.:.+.+.8.7.7.7.7.7.7.",
"y.7.7.8.>.>.>.4.4.6.r.t.r.w.w.w.w.>.>.:.0.5 o o o o X . . . . .   . X . . . X U 3.3.:.4.8.3.8.s.s.s.8.3.3.5.7.7.7.4.5.6.",
"r.7.7.8.>.>.>.*.=.=.=.-.=.i.k.j.s.9.,.e.=.3 X X . . . X . . o . . . o X . X . V q.6.7.7.q.q.q.7.7.7.7.7.7.7.7.7.4.=.=.+.",
"d.7.7.6.-.>.>.=.=.=.=.=.=.t.j.j.h.1.1.9.-.5 X X . . . . . . X . X X X X X X   B o.}  .7.q.q.q.7.7.7.7.7.7.7.7.7.5.=.=.=.",
"w.5.6.-.>.-.<.%.=.=.=.-.-.i.j.j.h.5 < < : @ X X . o o o X X . X X X X X # & # o o . o / q.q.q.7.7.q.7.q.7.7.7.7.6.=.=.=.",
"=.' [ %.=.=.=.=.=.=.f.f.j.j.j.j.f.+ . o . f ^.^.!.^.^.^.(.).).).).).).).{.}.}.s . . X 9 =.=.8.j.j.j.j.j.h.r.7.7.4.=.*.=.",
"*.' ' o.=.=.=.=.=.=.h.j.j.j.j.j.f.# X X X M <X<X<X<X<X<X<X<X<X<X<X<X<X<X<X<X<Xd . . . 9 *.=.8.j.j.j.j.k.k.w.7.7.6.=.=.=.",
"*.[ ' o.=.=.=.=.=.-.f.k.j.k.j.j.f.@ X X X M <X<X<X<X<X<X<X<X<X<X<X<X<X<X<X<X<XM . . X 9 ( } | h.j.j.j.j.j.r.7.7.4.=.&.:.",
"q.3.5.>.,.>.:.o.o.@.2.e.<.N q N N X   X X M <X<X<X<X<X<X<X<X<X<X<X<X<X<X<X<XoXs . X . . o o + W 8.8.i.i.i.0.4.2.4.4.6.4.",
"r.7.7.0.1.1.:.' ' ' =.>...o o   . d S S S !.=X=X-X=X*X*X=X*X*X*X*X&X&X:XXX:X>Xn.G H z.p . X o 7 *.*.>.1.e.,.>.>.-.7.7.7.",
"y.7.7.0.1.1.>.' ' ' >.-...@   X . {.<X<X<X-XQ.~.Q.~.Q.Q.Q.Q.Q.Q.Q.Q._.:X*XXX].C.N.N.N.g . . . 5 *.=.2.1.1.>.>.>.>.7.7.7.",
"y.7.7.0.2.0.4.O.{ &.-.2...o X X . |.<X<X<X-X~.Q.Q.Q.Q.Q.Q.Q.Q.Q.Q.Q.'.=X=X=X*XC.N.N.N.p . o . 9 +.=.8.9.8.8.8.8.4.4.4.4.",
"y.6.7.7.7.7.7.7.{ w w q 0 X . X . {.<X<X<X:XQ.Q.Q.Q.Q.Q.Q.Q.Q.Q.Q.Q.'.=X=X=X*XC.N.N.N.y . X . 0 =.=.+.3.=.8.q.q.8.=.=.=.",
"y.7.7.7.7.7.7.7./   X o o = - - - }.<X;X,X-XQ.Q.Q.Q.Q.Q.Q.~.#X%X&X=X#XE.E.T.T.D.C.D.D.y X . . N =.=.=.+.=.8.q.q.q.=.=.=.",
"r.7.7.7.7.7.q.7./   X X = {.XXoXXX-X=X=X=X*XQ.Q.Q.$XQ.Q.Q.~.-X<X<X<X&XF.F.D.D.D.F.F.F.r . X X V =.=.=.=.&.4.q.7.8.=.=.=.",
"OXk.j.w.7.7.q.k.) X X . - XX<X<X<X-X=X=X=X&XQ.Q.Q.Q.Q.Q.Q.Q.-X<X<X<X$XF.F.F.F.F.F.F.F.r X X X N } ( / 7.7.q.q.q.q.q.q.q.",
"OXj.k.y.7.7.w.h.$.X . o - XX<X<X<X-X=X=X=X&XQ.Q.Q.Q.Q.Q.Q.Q.>X<X<X<XQ.F.F.F.F.F.F.F.F., . X X X . . X %.7.7.q.q.q.q.q.q.",
"OXj.j.y.7.7.w.j.$.X . . - XX<X<X<X-X=X=X=X&X$X`.#X#X`.$X$X$X-X,X>X,X$XI.T.T.T.G.F.F.F.F b b b * . . X Z 6.7.q.q.q.q.q.q.",
"s.w.q.4.&.&.4.w. .X X . ;  X<X<X<X&X~.Q.~.%X<X<X<X<X=X=X=X=X=X=X=X*X:X*XXX].].F.F.F.F.N.N.N.N.t X X X T q.4.-.-.4.-.4.4.",
"y.7.7.-.@.o.O.7.] o X . # }.<X<X<X%XQ.Q.~.%X<X<X<X<X=X=X=X=X=X=X=X=X=X=X=X=X].F.F.F.F.N.N.N.N., X X . ~ q.-.=.=.=.=.=.=.",
"y.7.7.&.` U e Z 0     X # {.<X<X<X%XQ.$X~.%X<X<X<X<X=X=X=X=X=X=X=X*X=X=X=X=X`.G.F.F.F.N.N.N.N., . X . ( q.4.=.=.=.=.=.=.",
"y.7.q.3.e   X O   # = = 4 {.,X,X,X&X$X$X$X&X>X:X-X-X&X&X&X`.`.%X`.#X#X#X_._.R.c.c.c.K A.A.A.C.* X X . } q.8.8.0.8.=.=.=.",
"y.7.7.7.e X X   ; {..X.X.X'._._.$X-X<X<X<X>XT.T.T.T.T.T.T.T.T.T.E.T.T.T.T.E.K.x v c b F.D.F.C.* . X X | +.i.j.j.p.=.=.=.",
"r.7.7.q.V . . . = <X<X<X<X$XQ.Q.Q.=X<X<X<X;XE.T.T.T.T.T.T.T.T.T.T.T.T.T.T.T.K.v v v D D.F.F.C.* . . X 3 5 8 $.j.s.=.*.=.",
"r.7.7.7.U o o . @ <X<X<X<X#XQ.Q.Q.=X<X<X<X>XT.T.T.T.T.W.T.T.T.T.T.T.T.T.T.T.J.v v c F F.F.F.M.& o + &   . X 4 1.p.=.-.=.",
"e.-.=.5.E   . . X ;X<X<X<X#XQ.Q.~.=X<X;X,X-XW.T.T.T.T.T.T.T.T.T.T.T.T.T.T.T.H.v c v n F.F.F.A.x.z.z.v.X X X o Q 2.7.7.6.",
"9.*.*.4./ o . . X oX<X<X<X%X~.Q._.&X=X=X=X*XW.T.T.T.T.W.T.T.T.T.T.T.T.T.T.T.H.v c c K F.F.D.D.N.N.N.m.. X X o C >.7.7.6.",
"9.*.=.4.^ + . . . ;X<X<X<X#XQ.Q.Q.[..X*X*X*XE.T.T.T.E.T.T.T.T.T.T.T.T.T.T.T.H.v v v K F.F.D.D.N.N.N.x.. X X # ) -.7.7.7.",
"u.,.,.>.^ $ . o X }.<X<X<X[.Q.Q.Q.].*X:X=X*XE.T.T.T.T.T.T.T.E.T.E.T.T.E.T.T.L v v x K D.D.S.C.B.m.b.K . o   %  .6.>.4.8.",
"a.1.,.>.~ # o . X {.<X<X<X=X`.`.`.Q.R.Y.L.P.E.E.T.T.T.T.T.T.T.T.T.E.T.E.T.T.L c v v j i i i i i g u t X . X 3 7.6.>.>.:.",
"a.1.9.:.( $ . . X {.<X<X<X>X=X=X=XL.b.m.l.V.T.E.T.E.T.T.T.T.T.T.T.T.T.T.T.T.L v c v k p i g i i g u t X X X 5 7.6.<.2.>.",
"g.i.u.8.+.% . . X |.<X<X<X:X=X=X=XL.b.v.l.M.T.E.T.T.T.T.T.T.T.T.T.T.E.T.T.T.L c v v j g i i i i g u 1 X X   9 7.6.:.-.=.",
"OXj.j.y.=.: . + o /.<X<X<X-X=X=X=XR.v.m.m.M.R.T.T.T.T.R.R.R.Y.R.Y.P.P.Y.P.L.K D D D v c v b k h h j t o @   w 7.6.=.=.=.",
"OXk.j.y.4.4 . . . /.<X<X<X`.W.W.I.U.A.A.A.V.J J n n n m b m m m b v b v v b x.m.l.m.l.m.m.m.G c v v r @   X e 7.5.=.*.=.",
"+Xj.j.r.q.5 . . . /.<X<X<XQ.F.F.F.D.D.F.D.C.v v c c m x x v c v v v v v v v l.v.m.m.m.m.m.m.F c v v 1 X X   T 7.6.=.=.=.",
"9.=.-.4.q.6 X X   ^.<X<X<X_.F.F.F.F.F.F.F.Z.v v v v c c c x v v v v v v v v v.l.m.m.v.m.m.m.F v x x r + @ # / 7.6.<.>.2.",
"9.=.=.4.q.8 . o o #.<X<X<X_.F.F.F.D.F.G.F.V.b v v v b b v b b b b F D D D F F F F D l.m.v.m.g > & & T X.o.%.5.7.6.>.>.:.",
"9.=.=.8.q. .T Z Y A A d d P F.F.F.n.k x k v v.v.v.v.v.v.m.b.b.v.m.m.m.m.m.l.h i i i G m.m.m.1 . X o  .w.q.7.7.7.6.2.>.>.",
"9.=.*.&.+.&.-.s.p.C . X   v F.F.F.c.g i p j v.v.b.b.b.b.m.m.b.b.m.m.m.l.m.l.h i i g z.l.v.v., X X o o.7.q.6.2.0.-.o.o.@.",
"9.*.=.o.' [ +.k.k.W . o o l F.G.G.c.g i g l v.b.b.b.b.b.b.b.b.b.l.m.m.l.m.l.h p i g z.v.b.v.+ o X # %.q.7.0.<.>.=.' ' ' ",
"9.*.*.o.' ' +.k.k.W . . . p S.F.D.c.p i g l b.b.b.b.b.b.m.b.b.b.m.m.m.m.v.H g g i g v v v b + X   % =.0.w.2.2.<.=.' ' ' ",
"9.=.&.+.o.{ +.p.r.W . . . u N.N.N.x.g p u k v.b.b.b.b.b.b.b.b.b.m.m.m.m.v.l.h i i g v v v c + X X % >.r.r.0.=.=.%.o.[ [ ",
"9.=.=.=.*.=.*.=.-.V . o   u N.N.N.H p g g l b.b.b.m.b.b.b.b.b.b.l.m.m.v.v.x.i i i i v v c x X X o 2 p.k.j.8.o.o.o.%.%.*.",
"9.=.*.=.=.=.=.=.=.R . o . u N.N.N.v.i i i j v.v.m.b.b.b.b.b.b.b.m.m.b.b.v.l.g h h g p i t t w e U | s.j.j.8.o.o.o.=.*.*.",
"9.-.-.=.=.=.=.=.=.| C C C z u u u i k c c v l.m.b.b.b.b.b.b.b.b.m.m.m.m.m.x.v v v j + . X : =.q.0.q.h.j.j.-.o.o.o.*.+.*.",
"r.7.5.4.>.>.:.=.=.=.=.<.=.... o . * v v v b m.m.b.b.b.m.b.b.b.m.l.m.m.m.v.z.v v c j o X X % o.1.e.e.q.7.q.4.=.=.*.' [ [ ",
"y.7.7.8.>.>.:.*.=.=.*.=.=.... . . > v c c b m.m.b.b.b.m.b.b.b.b.m.m.m.m.v.z.v v c h o X o 5 o.1.1.,.q.6.7.-.=.=.&.' ' ' ",
"w.7.7.2.:.>.:.=.=.=.=.=.=.X.< 4 4 6 g g h g v v v v k l h h h y y y y t a > * * & 6  .` ` ` o.1.1.1.q.7.7.-.&.*.*.' ' [ ",
"y.7.7.r.p.p.t.>.>.>.=.=.=.>.:.:.>.~ o X . X X X   o X X X   X X o X X o X X   o X 3 +.{ ' ' @.>.:.:.6.7.7.4.=.=.=.+.+.+.",
"y.7.7.y.k.j.j.1.1.1.=.=.=.=.=.=.=.~   X X o X X   X     X X X X   o o     o o X o 5 @.[ ' ' @.=.=.=.7.7.5.4.=.=.=.=.=.=.",
"d.7.7.d.j.j.f.1.1.1.-.=.=.=.=.=.*.( @ o o @ # # # % % = 4 % 2 5 3 3 3 5 9 7 7 8 0 R @.[ ' ' @.=.=.=.4.7.7.4.*.=.*.=.=.=.",
"w.7.7.q.w.0.t.0.0.0.=.=.*.=.=.=.=.=.| | ! ! ! ' o.X.*.:.>.>.>.0.6.q.7.q.7.=.=.:.o.o.o.O.O.+.&.:.>.>.w.w.w.4.=.=.=.>.>.:.",
"d.7.7.&.' ' { 7.7.7.-.=.=.=.=.=.-.7.7.7.{ ' ' 3.q.q.q.q.q.w.8.>.:.0.7.7.7.j.k.j.8.+.+.5.7.7.7.1.1.1.h.j.j.t.=.=.=.1.e.1.",
"r.7.7.&.' ' { 7.7.7.=.=.=.=.=.=.-.7.7.7.' ' ' 3.q.q.q.q.q.7.8.>.>.8.7.6.q.k.j.k.8.=.:.5.7.7.q.,.1.1.j.j.j.0.=.=.<.1.1.1.",
"d.7.7.&.' ' { 7.7.7.=.=.*.=.=.%.-.7.7.7.' ' ' 3.q.q.q.7.q.q.>.:.>.4.7.7.w.j.j.j.-.=.+.4.5.6.q.9.1.1.g.j.j.t.*.*.=.1.1.1."
};
