/* XPM */
static char *_1703284186[] = {
/* columns rows colors chars-per-pixel */
"60 60 194 2 ",
"   c #061E1B",
".  c #081E1B",
"X  c #06211D",
"o  c #0A221D",
"O  c #0E281D",
"+  c #112A1F",
"@  c #072521",
"#  c #092621",
"$  c #092B25",
"%  c #0A2F28",
"&  c #122C23",
"*  c #162D29",
"=  c #172C27",
"-  c #0C322B",
";  c #193324",
":  c #1E3927",
">  c #133629",
",  c #1A302E",
"<  c #153B2D",
"1  c #173627",
"2  c #0D3C34",
"3  c #0C3730",
"4  c #103933",
"5  c #253836",
"6  c #243D2A",
"7  c #1D432F",
"8  c #0E4137",
"9  c #0F4239",
"0  c #1D4432",
"q  c #11423A",
"w  c #10493E",
"e  c #224129",
"r  c #23432B",
"t  c #244B32",
"y  c #2D403E",
"u  c #304D31",
"i  c #2F5C3C",
"p  c #2B5235",
"a  c #355A34",
"s  c #345C39",
"d  c #325131",
"f  c #3B643B",
"g  c #43653D",
"h  c #537C3F",
"j  c #0F4B42",
"k  c #114E43",
"l  c #0F5145",
"z  c #115145",
"x  c #135549",
"c  c #19554C",
"v  c #13594D",
"b  c #1B594E",
"n  c #145E51",
"m  c #1B5E51",
"M  c #334441",
"N  c #384948",
"B  c #215F54",
"V  c #244F46",
"C  c #156255",
"Z  c #166759",
"A  c #176E5E",
"S  c #186D5E",
"D  c #1C655A",
"F  c #206D5F",
"G  c #29655B",
"H  c #176D60",
"J  c #1B6F60",
"K  c #197464",
"L  c #1A7969",
"P  c #206E61",
"I  c #316D63",
"U  c #247466",
"Y  c #247C6D",
"T  c #287F6F",
"R  c #2F7769",
"E  c #37756A",
"W  c #277D70",
"Q  c #2A7E70",
"!  c #434F4F",
"~  c #42514E",
"^  c #4D5857",
"/  c #4C5958",
"(  c #416A43",
")  c #497544",
"_  c #4F7840",
"`  c #547D44",
"'  c #5B6463",
"]  c #566564",
"[  c #447E73",
"{  c #547D76",
"}  c #616A6A",
"|  c #6D7372",
" . c #727775",
".. c #7B7F7E",
"X. c #777B7A",
"o. c #28816F",
"O. c #288171",
"+. c #268170",
"@. c #328075",
"#. c #3C8276",
"$. c #588644",
"%. c #5A8749",
"&. c #5C8B49",
"*. c #598445",
"=. c #64924C",
"-. c #69964E",
";. c #6D9C4C",
":. c #649A45",
">. c #709E4D",
",. c #638C53",
"<. c #6D985A",
"1. c #699554",
"2. c #719859",
"3. c #73A34F",
"4. c #73AE4B",
"5. c #79AA4F",
"6. c #75B14C",
"7. c #7AB44E",
"8. c #6EA152",
"9. c #73A552",
"0. c #7AAC54",
"q. c #7AA85A",
"w. c #77B151",
"e. c #7BB353",
"r. c #7EB852",
"t. c #7FB25A",
"y. c #498176",
"u. c #4B8279",
"i. c #478175",
"p. c #548279",
"a. c #5B857E",
"s. c #5A897F",
"d. c #63857F",
"f. c #69877F",
"g. c #81B656",
"h. c #82BA55",
"j. c #81B659",
"k. c #83B95B",
"l. c #89BE5D",
"z. c #84AE64",
"x. c #87BA60",
"c. c #8BBC62",
"v. c #8EBE6A",
"b. c #85B563",
"n. c #90BD66",
"m. c #91BE6B",
"M. c #87C056",
"N. c #8CC45C",
"B. c #8EC859",
"V. c #88C158",
"C. c #91C65E",
"Z. c #92CA5C",
"A. c #8DC162",
"S. c #8FC16C",
"D. c #91C464",
"F. c #94CC62",
"G. c #99CE64",
"H. c #93C46A",
"J. c #96C96C",
"K. c #9BCD6C",
"L. c #99C76F",
"P. c #9DD06B",
"I. c #95C570",
"U. c #99C573",
"Y. c #9CCC71",
"T. c #9CC47C",
"R. c #9FD173",
"E. c #A0D26F",
"W. c #A0CE74",
"Q. c #A5CB7E",
"!. c #A3D376",
"~. c #A5D579",
"^. c #A8D779",
"/. c #5A8681",
"(. c #5B8A82",
"). c #638681",
"_. c #6C8481",
"`. c #638A83",
"'. c #6B8A85",
"]. c #6F8C88",
"[. c #718583",
"{. c #7D8383",
"}. c #738A86",
"|. c #7A8886",
" X c #768D89",
".X c #7B8E8B",
"XX c #848685",
"oX c #838E8C",
"OX c #8E8E8E",
"+X c #888888",
"@X c #908E8F",
"#X c #8D908F",
"$X c #8E8F91",
"%X c #AFD987",
/* pixels */
"P.Z.Z.V.k.k.l.F.F.G.!.~.~.~.~.~.Y.4.4.4.R.~.~.U.m.S.n.k.k.k.F.F.F.r.4.4.e.F.F.F.V.t.k.V.t.A.A.F.Z.Z.V.t.A.k.k.k.l.B.Z.Z.",
"P.Z.Z.N.k.k.l.F.F.G.!.~.!.~.~.~.K.4.4.4.!.~.~.L.m.m.c.k.k.k.F.F.F.V.4.4.r.F.F.F.t.k.r.t.V.t.t.B.Z.Z.V.t.t.k.k.k.l.Z.Z.Z.",
"P.Z.Z.V.k.l.l.Z.F.F.!.~.~.~.~.~.Y.4.4.4.R.~.~.Y.m.m.c.k.k.k.D.F.B.r.:.:.7.F.F.F.V.t.k.k.t.V.A.B.Z.B.V.t.k.t.k.t.l.Z.Z.Z.",
"P.Z.Z.l.x.x.c.Z.F.Z.R.~.~.P.G.G.F.e.e.e.G.P.K.Y.W.W.L.k.k.t.0.&.f < % % 7 _ B.F.k.k.t.k.k.t.N.R.R.R.A.r.k.A.B.B.N.Z.Z.Z.",
"P.Z.Z.A.x.c.c.B.Z.Z.!.!.^.G.Z.Z.B.t.k.k.D.F.F.P.^.^.b.*.s 0 > % O @ X X X e B.Z.k.t.V.t.V.t.A.~.~.R.A.k.k.B.B.B.Z.Z.Z.Z.",
"P.Z.Z.N.c.c.A.Z.Z.Z.!.~.~.K.Z.C.B.k.k.k.F.Z.D.b.-.G 0 - % % $ X X   X X X e B.Z.A.V.t.t.A.t.A.^.~.R.A.t.k.N.Z.Z.B.Z.Z.Z.",
"E.Z.Z.A.c.c.c.N.C.C.J.K.K.K.G.G.J.x.c.x.D.C.e.% $ $ # @ X       X         o 7 f 8.V.V.A.V.A.A.R.R.R.A.N.V.B.Z.Z.B.N.N.B.",
"K.Z.Z.A.c.c.x.k.k.k.k.k.k.J.^.~.R.H.v.H.k.k.8.$ & $ X     X         X o 5 y o X h B.F.B.F.F.Z.B.B.B.B.F.B.Z.Z.Z.B.k.k.k.",
"E.B.Z.C.l.c.b.k.k.k.k.k.k.J.~.^.!.m.m.m.x.k.>.$ # # . X         . , ^ ..@X}     h Z.Z.Z.Z.F.Z.Z.F.Z.Z.Z.Z.Z.Z.Z.B.j.k.k.",
"G.B.B.l.c.l.c.k.j.k.k.l.l.L.~.~.!.m.m.m.x.x.>.$ $ $   . o = y ] f.#X@X@X@X}     & a $.A.F.F.G.Z.F.F.Z.G.Z.Z.Z.Z.Z.j.j.k.",
"k.4.6.g.k.k.k.j.j.k.Y.!.~.!.~.~.W.m.v.v.1.) t $ $ $ 5 ! | XX@X@X@X@XOX$X@X} o - % X . 0.k.k.A.~.!.~.^.^.!.G.Z.Z.N.k.k.k.",
"j.4.4.e.k.k.k.k.k.k.!.~.~.~.^.~.!.m.v.1.$ % % $ o , OX@XOX@X#XOXOX@XOXOX@X{ S L 8 X o j.k.k.c.^.^.^.!.^.~.P.Z.Z.Z.k.k.k.",
"k.4.4.g.j.k.j.k.k.l.W.~.~.~.~.~.W.m.m.,.$ $ #   . , @X#XOX@X#X@XOXoX X|. Xu.L L 2 X o h.g.k.l.^.~.!.~.~.~.K.Z.Z.N.k.k.k.",
"F.M.l.l.n.c.c.e.e.0.A.H.H.J.G.G.F.b.c.&.$ # @ .   , #X#XOX#XoX}.`.(./. X}.u.K K 2 X o H.Y.Y.L.D.c.D.J.U.U.D.A.c.N.N.A.B.",
"K.Z.Z.D.m.m.c.4.4.4.k.c.c.N.Z.Z.Z.j.j.%.$ $ #     , #X X'.(.(.(.(.s.(.}.}.u.L Y * . ; J.~.~.W.k.h.j.m.m.m.v.c.c.l.Z.Z.Z.",
"E.Z.Z.D.m.m.c.4.4.6.l.c.c.C.Z.Z.B.9.&.p $ $ # & y ] `.(.(.(.(.(.(./.`._./.#.Y T - . + q.W.~.Y.k.j.j.n.m.m.n.c.c.c.Z.Z.Z.",
"E.Z.Z.D.D.D.A.r.r.r.l.N.c.N.N.N._ > $ % $ X N XX#X#X(.(.(.(.(.s./._.).@.T o.o.O.>   . . 6 2.K.k.k.k.A.A.A.A.A.A.N.N.N.N.",
"P.B.Z.Z.Z.Z.Z.Z.Z.Z.Z.Z.Z.N.k.k.s $ $ O     N #X#X#X(.(.(.(./.a.+XOX).W T T W O.4 2 k . . ` g.g.k.x.t.k.t.D.F.F.D.k.k.k.",
"G.Z.Z.Z.Z.Z.Z.Z.Z.Z.Z.Z.Z.N.j.k.s $ $ @ X   ~ $XOXoX(.(.(.(.s.s.XX+X).Q T o.o.o.H K v . . =.k.g.k.k.t.k.k.D.F.F.D.k.k.k.",
"P.Z.Z.Z.Z.C.Z.Z.Z.Z.Z.Z.Z.l.k.j.s $ $ @ X X N $X#X.X(.(.(.a./.{ +X+Xa.Q u.#.O.T K K n . . -.k.k.k.t.V.k.t.B.F.F.B.k.k.k.",
"%X^.~.G.Z.Z.G.~.~.~.c.c.l.l.g.=.7 % $ @ & 5 ' .X X X(.(.(./.s.).XX{.[.[.[.#.O.W K K v . . z.~.G.F.F.F.B.Z.Z.F.F.F.G.F.F.",
"%X^.^.P.Z.Z.G.!.~.~.c.c.l.G = O $ # # N {.$X#X X X X(.(./.a.d.d._.[.[.[.[.#.O.W Y Y c   # q.W.F.F.F.Z.Z.Z.Z.F.F.F.F.F.F.",
"%X~.~.K.Z.Z.G.~.~.~.D.c.k.0 % $ # X X ] @XOXOX X X X(.`.}._._._._.[.f.[.[.E D n W W c . . # u 0.F.F.Z.Z.B.F.F.F.F.F.F.F.",
"R.G.G.N.h.h.l.G.F.G.C.C.V.0 % $ X X X ' @X$XOX}.].].$X+X+X_._.X...[.f.a.p.D j x W Y c # 4 o . -.Z.Z.Z.F.F.N.l.N.k.N.l.N.",
"P.Z.Z.k.e.7.r.Z.Z.Z.Z.Z.Z.t % $ X     ] $X@XoX(.(.`.OX+XXX[.[._.).p.u.u.u.b k c W W S H C X . >.Z.Z.F.F.F.N.t.k.k.k.k.k.",
"P.Z.Z.k.w.e.r.Z.Z.Z.B.Z.B.p % % X     ' @X@X.X(.(.`.OX+XXX_.a.u.[ u.u.u.{ m z v O.W U K n O o 5.Z.Z.F.F.F.N.k.k.k.k.j.k.",
"P.Z.Z.V.l.h.h.Z.Z.Z.N.N.N.t $ $ X   X ' @X#XoX(.(.`.oX'.a.u.y.[ u.u.u.u.u.b z v W W Y K v X o 3.B.N.A.A.F.D.D.S.A.k.k.k.",
"P.Z.Z.Z.F.F.F.Z.Z.B.l.k.h.t $ % X   X ' #X@XoX(.].].p.u.y.u.y.y.[ u.[ u.u.v z v W W H x 3   O 9.V.k.h.V.t.K.R.^.Y.k.k.k.",
"P.Z.Z.Z.F.F.Z.Z.Z.Z.l.k.k.t $ $ X   X ] #X#X.XOXOX|.u.u.u.u.u.y.u.u.u.u.u.z l m P c 9 2 -   O 9.k.k.k.k.k.J.R.R.W.k.k.k.",
"P.B.Z.Z.Z.F.F.F.Z.D.l.j.9.t $ $ X X = ] '.(.`.#X+X|.u.u.u.u.y.y.y.u.u.u.u.x z j q 9 9 9 -   & 0.k.k.k.k.k.J.%XR.Y.k.k.l.",
"S.l.k.B.Z.Z.G.!.~.Y.%.p > % $ $ y } +X X(.(.'.OX+X|.u.u.u.p.y.y.i.u.u.u.u.z z j 9 9 9 9 - X > e.k.k.k.k.t.A.A.A.c.Z.N.Z.",
"S.k.k.B.Z.Z.G.^.~.v.< % % # o o  .@X#X.X(.s.'.OX|.f.u.u.u.y.[ y.i.u.u.u.y.c z j 9 z l l - X 1 e.k.k.t.k.k.t.S.x.c.Z.Z.Z.",
"S.t.k.N.B.B.G.~.~.I.< - $   X    .#X@X.X(.(.`.}.[._.u.u.u.u.u.i.y.u.u.u.y.x x v Z S x l - o a k.k.j.k.k.k.k.b.c.n.C.Z.Z.",
"U.v.v.A.l.N.D.~.~.I.0 $ $ X   X | @X#X.X(.s.`.[.[.d.u.u.y.u.u.y.i.y.u.u.E C S S A S x j f >.V.k.k.j.c.l.c.A.D.C.C.l.l.C.",
"T.v.v.x.t.k.A.~.~.U.0 - $ X      .OX#X X(.s.a.[._.a.u.u.u.u.y.i.y.[ I m x A A A S A 2 X ;.F.F.t.k.j.l.c.c.C.Z.Z.C.c.c.c.",
"T.v.S.x.k.k.A.~.~.Y.0 % $     X | #X@X.Xs././.a.E R u.u.u.u.y.[ E m z z x A A S A Z O   8.F.F.k.k.k.c.b.c.C.Z.Z.C.c.n.c.",
"%Xm.I.A.N.N.A.J.Y.K.t % $ X X   | OX@X X(.).p.K J R y.u.u.[ G c k k z z x C x C S C o o 3.Z.Z.V.l.N.H.H.H.F.B.Z.C.b.c.l.",
"%X~.!.K.D.F.F.k.t.h.0 % $ X X   | @X@XoX.X|.p.A A U [ E B z z k k z l v C 9 9 n H C o o 0.Z.Z.F.F.F.!.~.~.P.B.Z.Z.j.k.k.",
"%X~.~.P.F.F.F.k.k.r.0 % $ X     } OX@XoX X}.p.A A K c k z z k k z v S S C 9 8 v C z . o w.Z.Z.G.F.G.!.^.^.G.Z.Z.B.k.j.k.",
"%X~.~.K.F.F.F.t.k.t.0 % $ X   X } $X$XoX X[.p.U +.U z z k z z n Z S S S C 9 9 z z w   + g.D.Z.F.F.F.!.!.^.G.Z.Z.Z.j.k.j.",
"S.k.l.A.F.F.F.v.S.S.s % % X X X } @XOXoXa.i.O.W +.U z z x n S S A A A A C 9 q k z w : ,.~.~.!.l.c.c.F.F.F.Z.Z.Z.C.c.c.c.",
"S.t.k.N.F.D.H.m.v.H.s % % X   X ' @XOX'.O.+.o.O.+.U x C A A A Z K A A A C 9 q w z V 0.J.~.~.W.l.c.c.D.Z.F.F.Z.Z.C.c.c.b.",
"S.k.l.N.F.F.F.v.m.m.s % O X X   ' @XOX'.O.O.O.W F b S K A H S S A S A A v 9 8 3 O a k.L.~.~.W.c.c.c.F.F.F.Z.Z.Z.C.n.c.c.",
"S.k.k.h.r.h.l.R.Y.R.N 3 $ X     ' @XOX'.O.O.Y k 9 z H A A S S A A A A A C w z # o g L.F.m.D.D.C.C.D.F.F.F.C.D.A.l.e.e.e.",
"S.k.k.w.4.4.t.~.~.~.) % % X X X / @X$X).O.o.F 9 9 z A A A A S S A A A A C k k $ = 2.~.H.k.k.l.Z.Z.Z.F.F.F.D.c.c.k.4.4.4.",
"S.k.k.7.4.4.r.~.~.~.) $ % X X X ^ X.! V O.O.F 8 9 z A A A A A A A A A A C z z s b.!.~.H.j.k.l.Z.Z.F.F.F.D.D.c.c.j.4.4.6.",
"S.k.k.e.7.7.t.Y.J.Y.t.i - X X X * @ . q O.O.U 8 q z A A A A S A A A A A n 2 ; g.!.~.~.H.j.k.k.Z.Z.Z.G.P.P.A.k.k.j.7.w.5.",
"S.k.k.k.k.k.k.k.k.k.A.S.1.f $ X #     w O.+.Z q q z A A A Z S A A A Z z $ . + g.~.~.~.D.j.h.l.F.F.F.~.~.^.A.0.e.e.j.g.h.",
"S.k.k.k.k.k.k.k.j.b.v.v.m.q.$ $ @     2 L L Z 2 9 j H A A A A A A v # . . . + g.R.%XR.H.r.t.k.F.F.F.!.^.~.A.e.w.e.k.j.j.",
"S.k.l.k.k.k.k.k.k.k.v.v.m.t.$ $ @     2 L L S 9 w z K A A S Z k - o   . o d ;.Z.R.R.R.H.t.t.V.F.G.F.!.^.!.A.e.e.e.j.j.j.",
"P.B.Z.N.c.c.x.t.k.k.k.k.k.t.$ $ @     2 L L n j z v S A A k % .     . e -.!.!.!.A.x.A.t.7.6.e.S.S.S.D.Z.D.N.k.k.g.4.4.4.",
"P.Z.Z.N.c.c.x.k.k.k.k.k.k.b.% % @     2 x $ # z z v A k $   . .   : -.g.l.~.~.~.A.t.r.7.6.6.e.S.S.S.Z.Z.Z.N.k.k.j.6.4.4.",
"K.Z.Z.D.c.x.x.k.k.k.k.k.k.J.<.p $ X @ #   . @ z j w %   .   X : ` h.k.t.c.~.~.~.c.x.t.7.4.4.e.H.m.v.Z.Z.Z.N.k.k.g.4.4.6.",
"P.Z.Z.K.Y.Y.L.c.c.c.k.k.j.c.D.c.&.= # #     $ 2 O .   . . : &.N.D.D.B.A.N.l.k.l.e.e.t.w.4.4.w.x.c.l.C.Z.Z.V.k.k.k.t.t.r.",
"K.Z.Z.K.^.~.~.v.m.m.k.k.k.k.k.k.k.8.s $ . o @ . . . o 6 ,.c.F.F.F.F.F.F.N.4.4.w.w.e.w.w.4.4.w.t.j.k.C.Z.Z.N.k.k.k.k.k.k.",
"P.Z.Z.P.^.~.W.m.m.m.x.k.k.k.k.k.k.k.k.%.* # # . o + g z.m.m.F.F.F.F.F.F.N.4.4.4.e.e.e.6.4.4.6.k.j.k.N.Z.Z.V.k.k.k.k.k.k.",
"P.Z.Z.G.F.F.D.n.D.D.k.j.j.k.k.k.k.l.l.h.:.d O ; _ 0.A.H.J.D.D.D.D.Z.Z.F.B.V.t.x.t.e.e.r.r.r.k.c.c.c.F.G.G.N.k.k.k.c.c.x.",
"E.B.Z.h.4.4.g.Z.Z.Z.l.k.k.j.k.k.l.Z.Z.Z.6.4.:.r.F.F.F.F.F.F.c.c.A.A.Z.Z.F.^.^.^.A.r.t.N.Z.Z.B.I.m.m.~.^.~.J.k.k.k.m.H.m.",
"E.B.Z.h.4.4.7.Z.Z.Z.k.k.k.k.k.k.l.Z.Z.Z.6.4.6.M.F.Z.F.F.F.Z.A.c.c.A.B.Z.G.^.~.~.A.k.x.B.Z.Z.D.v.m.m.W.~.~.H.k.k.k.m.m.m.",
"P.Z.Z.h.4.6.7.Z.Z.B.l.k.k.k.k.h.l.Z.Z.Z.6.4.4.M.F.F.F.F.F.D.A.c.c.F.Z.Z.F.~.~.~.V.k.t.N.Z.B.D.S.m.m.~.~.~.H.j.b.b.m.m.v."
};
