/* XPM */
static char *_1703284208[] = {
/* columns rows colors chars-per-pixel */
"60 60 199 2 ",
"   c #061F1B",
".  c #081E1B",
"X  c #07211E",
"o  c #08221E",
"O  c #072520",
"+  c #082621",
"@  c #0A2B25",
"#  c #0A2F28",
"$  c #072C25",
"%  c #132D21",
"&  c #0C332B",
"*  c #0D382F",
"=  c #163224",
"-  c #143A2D",
";  c #15382B",
":  c #0D3A33",
">  c #103D34",
",  c #1D3E39",
"<  c #193F30",
"1  c #213B38",
"2  c #1A412E",
"3  c #17402E",
"4  c #0E4037",
"5  c #0F4239",
"6  c #11493F",
"7  c #174030",
"8  c #26472C",
"9  c #244B32",
"0  c #264B33",
"q  c #2A5234",
"w  c #285538",
"e  c #355A36",
"r  c #3A633B",
"t  c #3A6438",
"y  c #426839",
"u  c #50793F",
"i  c #125247",
"p  c #13574D",
"a  c #195E52",
"s  c #154A40",
"d  c #2F4D47",
"f  c #314E49",
"g  c #385E40",
"h  c #166355",
"j  c #166659",
"k  c #176B5C",
"l  c #186D5E",
"z  c #196458",
"x  c #1A614F",
"c  c #21624C",
"v  c #1A7364",
"b  c #1B7C6C",
"n  c #1B7867",
"m  c #1A7669",
"M  c #425D58",
"N  c #486D43",
"B  c #4B7642",
"V  c #537B43",
"C  c #45605B",
"Z  c #4F6863",
"A  c #536A67",
"S  c #5A736D",
"D  c #577D77",
"F  c #6A7E7A",
"G  c #617573",
"H  c #1B806E",
"J  c #1D8372",
"K  c #1E8B79",
"L  c #1F947F",
"P  c #208D7B",
"I  c #228372",
"U  c #22917E",
"Y  c #5A8649",
"T  c #5C9143",
"R  c #638E4F",
"E  c #63944B",
"W  c #699B4D",
"Q  c #638F50",
"!  c #6B9356",
"~  c #6D9B54",
"^  c #689355",
"/  c #719B58",
"(  c #6BA14C",
")  c #69A146",
"_  c #73AE4B",
"`  c #74A64D",
"'  c #75B14C",
"]  c #7AB34E",
"[  c #79AE56",
"{  c #76A756",
"}  c #76B151",
"|  c #7BB353",
" . c #7FB852",
".. c #7EB459",
"X. c #6D817D",
"o. c #7DA661",
"O. c #81B757",
"+. c #82BB55",
"@. c #81B759",
"#. c #83B95B",
"$. c #89BE5D",
"%. c #87BA60",
"&. c #8BBC62",
"*. c #8EBE6A",
"=. c #89B468",
"-. c #91BE6B",
";. c #90BE66",
":. c #87C056",
">. c #8CC45C",
",. c #8BC457",
"<. c #91C65E",
"1. c #92CA5C",
"2. c #8DC262",
"3. c #8FC16C",
"4. c #91C464",
"5. c #94CC61",
"6. c #99CE64",
"7. c #93C36B",
"8. c #96C96B",
"9. c #9ACC6C",
"0. c #9DD06B",
"q. c #99C573",
"w. c #9CCC71",
"e. c #99C576",
"r. c #9FD173",
"t. c #A0D16E",
"y. c #A1CF74",
"u. c #A5CB7E",
"i. c #A3D476",
"p. c #A5D579",
"a. c #A8D77A",
"s. c #219B86",
"d. c #229E89",
"f. c #2F9E8B",
"g. c #3A9686",
"h. c #369C8B",
"j. c #24A48E",
"k. c #25AB93",
"l. c #2BA893",
"z. c #32A591",
"x. c #33AB96",
"c. c #29B59D",
"v. c #27B59D",
"b. c #37B39D",
"n. c #28B6A0",
"m. c #2CB9A1",
"M. c #38BAA2",
"N. c #37BBA3",
"B. c #6F8280",
"V. c #788885",
"C. c #50AB9A",
"Z. c #53AFA0",
"A. c #57BEAC",
"S. c #61BCAC",
"D. c #6DBFB1",
"F. c #3DC6AD",
"G. c #36C0A7",
"H. c #3EC6B0",
"J. c #55C0AE",
"K. c #47C7B0",
"L. c #56C9B4",
"P. c #40C6AE",
"I. c #6BC3B3",
"U. c #68CABA",
"Y. c #75CCBC",
"T. c #79CCBE",
"R. c #7CC4B8",
"E. c #899694",
"W. c #899793",
"Q. c #9FA9A8",
"!. c #A4ADAC",
"~. c #ACB3B3",
"^. c #B6BCBB",
"/. c #A6AEB0",
"(. c #AFD987",
"). c #83CDBF",
"_. c #90C3BC",
"`. c #87CDC2",
"'. c #8ACEC3",
"]. c #94CFC5",
"[. c #9ACFC7",
"{. c #99CFC8",
"}. c #94D0C5",
"|. c #9DD0C7",
" X c #97D0C9",
".X c #A2CFC8",
"XX c #ABC8C3",
"oX c #A3D0C9",
"OX c #ADD1CB",
"+X c #B2D2CD",
"@X c #B9D4CF",
"#X c #BED3D0",
"$X c #BCC0C1",
"%X c #C9CCCB",
"&X c #C0C2C1",
"*X c #C3D4D1",
"=X c #CCD5D3",
"-X c #D5D5D5",
";X c #C2D2CF",
/* pixels */
"0.1.1.>.@.#.$.5.5.6.i.i.p.p.p.p.w._ _ _ r.p.a.q.*.-.&.#.#.#.5.5.5.:._ _ | 5.5.5.:. .....#.#.2.1.1.1.#.#.#.#.#.#...1.1.1.",
"0.1.1.:.#.#.$.5.5.6.i.i.p.p.p.p.w._ _ _ r.p.p.w.-.-.*.#.#.#.5.5.5.+._ _ ] 5.5.5.2.....2.#...#.1.1.1.#. .#.#.#.#.>.1.1.1.",
"0.1.1.$.#.#.$.1.5.5.i.i.p.p.p.p.w.' _ _ r.i.p.=.N e 2 w Y ..4.1.1.+._ _ ] 5.5.5.#.#. ...#.#.:.5.1.1.#.#.#...#.#.>.1.1.1.",
"0.1.1.>.%.%.&.1.5.1.i.p.p.0.6.6.4.| | | 6.0.0.! & # & & & - B [ 1.,.:.:.,.1.1.1.#.#...#.#...2.0.r.0.2.#.#.>.>.>.>.1.,.1.",
"0.1.1.2.&.&.&.1.1.1.i.p.a.9.1.1.>.#.@.#.5.5.5.Q # # # # # # # & q Y ,.1.1.1.1.1.#.#.#.#.#.#.2.a.(.r.2.#.#.>.1.1.1.1.1.1.",
"0.1.1.2.&.&.2.1.1.1.i.i.i.9.1.1.>.#.#.#.6.| e < # & # # # # # & & & q V :.1.1.1.$.#.#.+...#.2.a.r.r.#...#.>.1.1.1.1.1.1.",
"9.1.1.>.&.&.%.>.<.<.8.w.9.6.6.6.6.%.&.&.2.E # f Z , # # # # # # @ o o . W 1.,.,.$.$.$.$.2.:.2.r.r.r.>.$.$.,.1.1.1.>.>.1.",
"0.1.1.2.&.&.&.#.#.#.#.#.#.9.a.p.r.7.*.*.~ y & Z -X$XB.7 # # # # # X   . E @.#.#.1.1.1.1.5.5.5.1.1.1.1.1.1.1.1.1.1.#.....",
"t.1.1.<.&.&.%.#.#.#.#.#.@.8.p.p.y.-.7.! $ $ # C -X-X-X%XB., # # #       E #.#.#.1.1.1.1.5.6.1.1.1.1.1.1.1.1.1.1.,.#.#.#.",
"6.,.,.$.&.$.%.#.@.#.#.$.&.9.p.p.i.-.*.^ # i H X.-X-X-X-X-X%XV.f # O O   Y #.#.$.<.<.1.1.1.5.5.1.5.5.5.5.1.1.1.1.<.#.#.#.",
"#.' ]  .#.#.#.#.#.#.y.y.i.i.p.p.i.*.3.Q # p v.J.#X=X-X-X-X-X-X-XE.# $ $ & t ` 1.#.#.#.$.#.#.2.i.a.i.a.a.i.6.1.1.>.#.@.#.",
"#._ _ | #.#.#.#.#.#.r.p.p.a.p.p.y.*.3.^ & p v.J.OXOX|.=X-X-X-X-X~.& # O o . 8 1.$.#.#.#.#.#.&.a.a.a.a.i.a.6.1.1.1.#.#.#.",
"#._ _ O.#.#.@.#.#.$.i.i.p.p.p.a.y.-.-.^ # a c.J.OXOX`.`.oX*X-X-X/.& & $ . . e 1.#.#.+.#.#.#.&.a.i.i.i.p.a.0.1.1.,.#...:.",
"8.+.:.$.*.*.$.} ] [ ;.7.7.8.6.6.5.#.{ N # a F.J.oXOX`.`.'.'.oX*X!.& $ $ . . y 1.#.#.#.7.w.9.8.;.2.2.q.q.e.2.4.&.&.>.4.>.",
"0.1.1.4.;.-.&._ _ _ &.$.&.>.1.1.>.W @ @ & h H.H.K.Y. X`.`.'.`.'./.A * O . X e 1.#.#.#.8.p.p.y.@.#.#.*.-.7.*.&.&.>.1.1.1.",
"0.1.1.4.-.-.&.` _ _ #.&.&.<.1.1.>.~ # i l z F.H.H.K.*XoX`.`.`.`.{.-XE.9 o o # t W @.#.8.p.p.y.#. .#.&.-.-.&.&.&.&.1.1.1.",
"0.1.1.4.4.4.2. . . .>.&.2.>.4.>.:.W # i c.c.P.P.P.L.-X=X'.`.`.`.{.-X%XC # @ + O # { #.7.w.w.4.@...#.2.2.2.2.2.2.>.>.>.>.",
"0.1.1.1.1.1.1.1.1.1.1.1.1.,.#.#.#.E # s n.m.F.L.U.U.-X=X'.`.`.`..X-X%Xg # @   X % { @.#.#.#.#.#.$.#...#...4.5.5.2.#.#.#.",
"0.1.1.1.1.1.1.1.1.1.1.1.1.:.#.#...E # s m.m.F.U.OXOX=X=X`.`.`.`.{.=X&Xd # @ . . = { @.#.#.@.#.#.#.#.#.#...4.1.5.4.#.#.#.",
"6.1.1.1.1.1.1.1.1.1.1.1.1.>.#.#.Y 9 $ s F.G.N.U.+XOXOX+X'.`.`.`.].+XXXS & + . . = { @.#.#.#.#.$.#.#.#.#.#.>.1.5.<.#.#.#.",
"(.a.i.0.1.1.6.a.r.p.*.&.%.%.#.#.2 * 5 6 P.M.J Z.OXOX+XOX+X.X].`. XOX+X=X^.f + + @ q R q.p.p.i.1.5.5.1.1.1.5.5.5.5.6.5.5.",
"(.p.p.0.1.1.6.i.p.i.&.&.&.%.#.#.9 5 j.J P.M.H g.).[.OX+XOX+X=X+X|.OX+X-X-XV.$ @ @ + + R p.p.i.1.1.5.1.1.1.1.5.5.5.5.5.5.",
"(.p.i.0.1.1.6.i.i.i.&.&.2.#.>...9 5 k.m.P.N.H g.Y.T.'.oX+X+X=X-X@X[.+X=X-XF # # + o o N p.p.i.6.5.5.1.1.,.5.5.5.1.5.5.5.",
"r.8.6.>... .>.6.0.6.1.4.>.>.>.>.q 5 k.m.F.M.H g.T.Y.Y.T.`..X-X-X+X'.[.-X-XF # # o o o V 7.7.7.1.5.1.1.1.5.2.>.$.>.$.$.>.",
"0.1.1.#.} }  .1.1.1.1.1.1.1.1.1.9 * n j.F.M.H g.Y.Y.Y.Y.Y.T.oX-X+X`. X-X-XF # # O X . V &.&.2.1.1.1.5.5.5.>.#.#.#.#.#.#.",
"0.1.1.:.}  . .5.1.1.1.1.1.1.1.1.t & h l f.M.b g.Y.Y.Y.Y.Y.Y.Y.].|.`.].-X-XG # &   o X V &.&.&.1.1.1.5.5.5.>.#.#.#.#.#.#.",
"0.1.1.,.#.+.$.1.1.1.>.>.,.1.1.1.t * h j j v b g.Y.T.Y.Y.Y.Y.Y.Y..X#X.X-X-XZ # # O     Y &.&.&.>.>.>.2.>.5.2.2.4.2.#.#.#.",
"0.1.1.1.5.1.1.1.5.1.#.#.#.>.5.5.r : l k z k b g.Y.Y.Y.Y.Y.Y.Y.Y..X-X#X.X=XZ # # .     R -.7.*.#.#.#.#.#.#.8.(.r.w.#.#.#.",
"0.1.1.5.5.5.1.1.1.1.>.#...2.5.5.r * v b n k b g.Y.Y.Y.Y.Y.Y.Y.Y.OX-X#X`.'.D = &       ! 7.-.*.#.#.#...#.+.8.r.(.w.#.#.#.",
"8.1.1.1.5.1.1.5.5.5.#...:.>.5.5.[ w m b k.L H g.Y.Y.Y.Y.Y.Y.Y.Y..X=X;X'.'.;X~.M O O + q / &.&.#.#.#.#.#...8.r.r.w.#.#.$.",
"7.#.#.,.1.1.6.a.a.r.2.#...4.5.1.5.#.c b k.k.j.f.Y.Y.Y.Y.Y.Y.Y.T.{.+X+X'.'.*X-X^.@ @ @ @ & q } #.#.#.#.#...2.3.2.;.<.1.1.",
"3.#.#.1.1.1.5.p.r.r.>.#...4.5.5.5.>.3 4 k.k.k.s.g.D.Y.Y.Y.Y.Y.Y.{.OX.X'.'.*X-X^.# # @ O X - } ..#.#...2.....%.2.$.1.1.<.",
"3.#.#.>.1.1.6.p.a.i.%.#.#.2.5.5.5.>.7 * k.k.j.s.b I Z.Y.Y.Y.Y.Y.].OX.X).'.*X-X^.& # # o X = ' #.#.#.#.#.#.%.&.&.;.1.1.1.",
"e.&.*.2.#.>.2.a.a.i.5.>.1.>...>.%...< * k.d.v s.b b b g.I.Y.Y.Y.A.R.[.'.).=X-X!.# # + o X 8 :.#.#.@.#.&.%.>.<.4.<.$.>.;.",
"(.*.*.%.#.#.2.p.i.p.1.1.1.2...2.#.[ - * j.d.j b s.b b b b C.I.Y.b.k.S.].`.=X-X!.# # + o . q 5.#.#.#.&.&.&.>.1.1.<.=.&.&.",
"-.*.*.&.#...2.p.a.p.5.1.1.>.....#.| 7 & J P j b k.s.b b b b h.I.b.k.S.OX{.-X-X!.# # + o o q 4.#.@.#.&.&.&.2.1.1.<.&.;.%.",
"(.-.q.2.>.%.2.9.r.9.>.>.,.#...#.+.#.B - b m j J k.k.j.K b b b I x.l.I.OXOX-X-XW.# # + X o t <.,.>.$.7.7.7.5.1.1.1.$.$.%.",
"(.e.i.0.5.5.5.#. ...>.....>.#.#.$.1.1.} v b j b k.k.k.k.s.J b b b.G.I.OXOX-X-XW.# & + X o y 1.5.5.5.i.p.i.6.1.1.<.#.#.#.",
"(.r.p.0.5.5.4.#...2..... .#.#.#.$.1.1.$.* j j b k.k.k.k.k.k.K b b.F.K.Y.OX-X-XW.# # + X . u 1.5.5.5.i.a.a.6.1.1.:.#.@.#.",
"(.(.p.9.5.5.5.......>.....#.#.#.$.1.1.1.& : k b k.k.k.k.k.k.j.U b.F.F.F.L.-X-XV.# # +   o V 1.5.5.5.i.i.a.0.1.1.1.#.#.#.",
"3.#.$.>.5.5.5.*.3.3.#.#.#.>.1.1.1..... .9 : n K k.k.k.k.k.k.k.k.b x.F.F.L.-X-XX.# # O o o ! y.&.$.&.4.5.5.1.1.1.<.=.&.;.",
"3.#...>.5.5.6.-.3.3.$.#.#.>.1.1.1.....#.( w b K k.k.k.k.k.k.k.k.v k x.F.L.-X-XX.# # O O o ^ y.&.&.&.1.5.5.5.1.1.<.&.&.#.",
"3.#.#.4.5.5.4.-.3.-.%.#.#.>.1.1.,...#...| ( z K k.k.k.k.k.k.k.k.v z z.F.L.-X-XS # # +   o { w.&.&.*.5.5.5.1.1.1.<.&.*.&.",
"3.#.#... . .$.i.r.w.4.,.>.:.$.$.>.w.w.w.} ( - i s.k.k.k.k.k.k.k.v j z.P.x.X.%XS # $ O   o / 4.<.<.4.5.5.5.<.4.&.$.O.| } ",
"3...#.| ' _ ..p.a.p.1.1.1.#.#.#.2.i.p.p.] ) - & 5 b k.k.k.k.k.k.v z x.F.f.& d d # # o o @ ~ #.<.1.1.5.5.1.4.;.$.O._ _ _ ",
"3.#.#.| _ _  .p.p.i.6.1.1.>.#.#.2.i.p.p.] ' t & & * H k.k.k.k.k.l z j.G.f.# # o o # o 1 V @.#.1.1.1.5.6.5.;.&.&.#.' _ _ ",
"3.#.#. .} ] ..w.9.9.4.4.2.>.$.>.2.a.p.p. .} } Y - # # h j.k.k.k.l j j.c.U & # X X X R -.#.#.$.1.1.1.6.9.9.4.#.#.@.] ' ] ",
"3.#.#...#.#.#.#.#.#.*.*.7.2.1.1.6.p.p.p.#.#.#.9.=.g & $ > P k.k.H v j.m.J # # X X o / 4.O.#.$.1.5.5.i.p.p.4.[ ] [ @.@.@.",
"3.#.#.#.#.#.#.#.#.#.*.*.-.4.1.1.5.a.a.p.$.#.#.q.p.p.g # # & J k.b b b k.J # # X     o.4.@.@.#.6.5.5.i.p.p.2.| | | @.@.@.",
"3.#.#.#.#.#.#.#.#.#.*.*.-.4.1.5.6.p.a.a.$.@.#.7.i.y.9.B & & # j n b * 5 h # # X o O o.7.....#.5.5.6.i.p.i.2.| | | @.@.@.",
"0.1.1.>.&.%.%...#.#.#.#.%.8.p.i.y.-.7.-.#.#.#.#.#.$.#.| T 3 # # 4 l * # $ O # X = y ..| _ _ ..7.-.4.6.5.1.>.#.#.@._ ' _ ",
"0.1.1.>.&.&.&.#.#.#.#.#.#.8.p.p.y.-.-.-.#.#.#.#.#.#.O._ _ ) q # # & $ # O X X N #.#.#. .' _ } -.-.-.>.1.1.$.#.#.#._ _ _ ",
"9.1.1.4.&.&.%.#.#.#.#.@.#.9.p.p.y.-.-.-.#.#.#.#.#.#.O._ _ } ..r & # o + O e ! w.$.#.#.} _ _ } 3.-.-.<.1.1.:.#.#..._ _ _ ",
"0.1.1.6.w.w.8.*.&.&.$.#.@.&.7.2.;.%.&.&.O.[ [ O.#.#.#.#.&.#.4.2.E -   % t @.#.#.....| [ _ ' } %.&.&.<.1.1.$.#.#.#..... .",
"0.1.1.9.a.p.y.-.-.-.#.#.#.#.#.#.#.#.#.#.' _ _ ] #.#.%.*.-.-.5.1.1.>.$.>.<._ _ _ | } } } _ _ } #.#.#.1.1.1.$.#.#.#.#.#.#.",
"0.1.1.r.p.p.y.-.-.-.#.#.#.#.#.@.#.#.#.#.' _ _ | #.#.#.-.-.-.5.5.5.5.5.5.2._ _ _ | | | ' _ _ } #.#.#.,.1.1.>.#.#.#.#.#.@.",
"0.1.1.5.6.4.8.4.4.4.#.#.@.#.#.#.#.$.$.$.' _ _ +.:.>.&.7.4.7.4.5.4.5.1.5.1.#.#.#. .....|  . .+.%.#.&.6.6.6.>.#.#.#.&.%.&.",
"t.1.1.+._ _ ] 1.1.<.#.#.#.#.#.#.#.1.1.1.' _ _ :.1.6.1.5.5.5.&.&.&.2.1.1.5.p.p.a.2...#.,.1.1.5.-.-.-.i.p.p.7.#.#.$.*.-.-.",
"6.1.1.+._ _ ] 1.1.1.$.#.#.#.#.#.$.1.1.1.' _ _ :.5.5.5.5.5.5.2.&.&.2.1.1.5.p.i.a.2.....,.1.1.4.*.-.-.p.p.p.7.#.#.#.-.-.-.",
"t.1.1.+._ ' ] 1.1.1.#.#.@.#.#.+.$.1.1.1.' _ _ :.5.5.5.5.5.1.&.&.&.>.1.1.6.p.a.a.2...>.>.1.1.>.3.-.-.y.p.p.7.#.%.&.-.-.-."
};
