/* XPM */
static char *_1703284228[] = {
/* columns rows colors chars-per-pixel */
"60 60 198 2 ",
"   c #061E1B",
".  c #081E1A",
"X  c #07211D",
"o  c #0B221D",
"O  c #10251C",
"+  c #082622",
"@  c #0A2C26",
"#  c #0A2F28",
"$  c #072420",
"%  c #122D23",
"&  c #0B3129",
"*  c #13342C",
"=  c #14392C",
"-  c #183728",
";  c #0D3C33",
":  c #0E3731",
">  c #193B35",
",  c #133630",
"<  c #233D27",
"1  c #1C422E",
"2  c #1E492E",
"3  c #0E463B",
"4  c #1E4531",
"5  c #11453C",
"6  c #34522D",
"7  c #244B33",
"8  c #24443A",
"9  c #314E32",
"0  c #2B5335",
"q  c #27523C",
"w  c #345534",
"e  c #395B3A",
"r  c #366138",
"t  c #3B643B",
"y  c #3D693C",
"u  c #3E6236",
"i  c #436A3A",
"p  c #426638",
"a  c #45713F",
"s  c #114D43",
"d  c #13564A",
"f  c #13594D",
"g  c #115246",
"h  c #155F52",
"j  c #2A4A44",
"k  c #35534D",
"l  c #3B5853",
"z  c #17675A",
"x  c #17695A",
"c  c #196A5C",
"v  c #166355",
"b  c #1A6F62",
"n  c #1A7363",
"m  c #1A7E6D",
"M  c #1C7566",
"N  c #445D59",
"B  c #456C45",
"V  c #4C7847",
"C  c #527E43",
"Z  c #576D6A",
"A  c #486E67",
"S  c #667A77",
"D  c #53853E",
"F  c #1A806D",
"G  c #1C8572",
"H  c #1D8976",
"J  c #1E8C7A",
"K  c #1E937E",
"L  c #258C7A",
"P  c #278977",
"I  c #20937E",
"U  c #3E867A",
"Y  c #5C8A4A",
"T  c #598749",
"R  c #5D8B4C",
"E  c #628F48",
"W  c #63934C",
"Q  c #69974C",
"!  c #6C9E50",
"~  c #679553",
"^  c #668D54",
"/  c #73AE4B",
"(  c #72A34F",
")  c #75B14B",
"_  c #7AB44E",
"`  c #6FA252",
"'  c #73A653",
"]  c #7AAD55",
"[  c #7AA958",
"{  c #77B251",
"}  c #7BB353",
"|  c #7FB852",
" . c #7EB359",
".. c #7BA964",
"X. c #81B757",
"o. c #82BA55",
"O. c #81B65A",
"+. c #83B95B",
"@. c #89BE5D",
"#. c #87B960",
"$. c #8BBC62",
"%. c #8EBE6A",
"&. c #85B463",
"*. c #91BE6B",
"=. c #90BD66",
"-. c #87C056",
";. c #8CC45C",
":. c #8EC859",
">. c #8AC256",
",. c #91C65E",
"<. c #92CA5C",
"1. c #8DC162",
"2. c #8FC16C",
"3. c #91C463",
"4. c #94CC61",
"5. c #99CD64",
"6. c #93C46B",
"7. c #96C96C",
"8. c #9ACD6C",
"9. c #9DD06B",
"0. c #95C570",
"q. c #99C673",
"w. c #9CCC71",
"e. c #9CC47C",
"r. c #9FD272",
"t. c #A0D16E",
"y. c #A0CE75",
"u. c #A5CB7E",
"i. c #A3D376",
"p. c #A5D579",
"a. c #A8D77A",
"s. c #239482",
"d. c #2D9483",
"f. c #219A86",
"g. c #279F8B",
"h. c #359785",
"j. c #23A48C",
"k. c #22A88F",
"l. c #24AD95",
"z. c #2AAA94",
"x. c #30A793",
"c. c #31AC97",
"v. c #29B69D",
"b. c #39B69F",
"n. c #27BBA1",
"m. c #29BBA2",
"M. c #36BAA3",
"N. c #3CB9A3",
"B. c #788986",
"V. c #6F8381",
"C. c #46A594",
"Z. c #47BAA6",
"A. c #59B7A7",
"S. c #3BC3AC",
"D. c #35C3AA",
"F. c #3FC9B2",
"G. c #3EC7B0",
"H. c #46C0AB",
"J. c #41C9B2",
"K. c #52CBB7",
"L. c #57CBB8",
"P. c #69C8B7",
"I. c #76CEBE",
"U. c #78CFBF",
"Y. c #74C4B7",
"T. c #76D0BF",
"R. c #78D1BF",
"E. c #79CFC1",
"W. c #7BD0C0",
"Q. c #879794",
"!. c #8A9795",
"~. c #94A09E",
"^. c #A4ADAC",
"/. c #AEB8B7",
"(. c #AFD987",
"). c #86CDBF",
"_. c #89D1C5",
"`. c #85D1C4",
"'. c #92D2C6",
"]. c #95D3C9",
"[. c #9CD3C9",
"{. c #B8C3C2",
"}. c #A3D4CB",
"|. c #ACD5CD",
" X c #B2D5CF",
".X c #B9D7CF",
"XX c #B5D6D0",
"oX c #BBD6D2",
"OX c #BDD8D3",
"+X c #A6D2CC",
"@X c #C7CAC9",
"#X c #CED0CF",
"$X c #C3D7D5",
"%X c #CAD7D5",
"&X c #CBD8D5",
"*X c #D5D9D8",
"=X c #D9D9D9",
"-X c #D6D8D6",
/* pixels */
"9.<.<.@.+.+.@.4.4.5.r.p.a.p.p.p.w./ / / i.i.i.q.*.*.=.+.+.+.4.4.4.-./ / _ 4.4.4.-.|  .#. .1.1.:.4.<.-. .#. .+.+.@.:.<.<.",
"9.<.<.;.+.+.@.4.4.4.i.i.p.p.p.a.7.) / / i.p.p.w.*.*.%.+.+.+.4.4.<.o./ / _ 4.4.4.#. . .+.#. . .4.<.<.+.-. .1.+.+.@.<.<.<.",
"9.<.<.>.+.+.@.<.5.5.i.p.p.i.p.p.w./ / / r.i.i.q.*.*.*.+.+.+.3.<.4.@./ / | 4.4.4.-. . .-. .-.;.<.<.:.-. .+. .+.+.@.<.<.:.",
"9.<.<.@.#.+.1.<.<.4.i.i.p.r.5.5.4.} } } 5.9.8.8.w.y.7.+.+.+.4.4.<.;.>.o.>.<.<.<. . .1. .#. .-.r.r.r.1. .+.;.;.;.:.<.<.<.",
"9.<.<.1.$.$.$.:.<.<.i.i.a.8.<.<.;. . .+.4.3.W q k B T T ! ] 3.4.:.<.<.<.<.<.<.<.1. .+.+.+.+.1.a.(.r.1.+.+.;.<.<.<.<.<.<.",
"9.<.<.;.$.$.1.<.<.<.i.i.i.8.<.<.4.+.+.+.4.} = & & # @ # = 4 0 y T W / o.:.<.<.<.@.+.+. .+.+.1.a.r.r.1. .+.;.<.<.<.<.<.<.",
"t.<.:.1.$.$.$.;.,.,.7.w.8.5.5.5.4.$.$.$.1.' & # # # @ & & @ & & # # # # % i ;.;.-.1.+.;.-.1.1.r.r.r.;.;.-.:.<.:.:.1.>.:.",
"9.<.<.1.$.$.$.+.+.+.O.+.+.8.p.p.r.2.%.^ y t # # # # & & @ & & & # # # # X 6 +.+.4.:.:.<.4.4.4.<.:.:.:.4.<.<.<.<.:.+.+.+.",
"8.<.<.;.$.$.#.+.+.+.O.+.+.7.p.p.i.*.B @ @ # & # # # & & & # # @ # # # # . p O.+.<.<.<.<.5.<.4.<.<.<.<.<.<.<.<.<.:.O.O.O.",
"5.<.:.@.@.$.#.O.+.+.+.@.$.w.p.p.y.*.7 # # k #X/.~.B.Z l q > & @ # # @ @   p X.O.;.<.<.<.4.3.4.<.4.<.<.5.<.<.<.<.<.O.+.+.",
"+.) ) X.+.+.+.+.+.+.y.i.p.p.i.i.~ V > @ # k =X*X*X=X=X-X#X{./.!.V.Z k > X * > 0 i } +.+.+.+.1.p.a.p.p.p.a.5.<.<.;.&.+.+.",
"O./ / } O.+.+.+.+.+.i.i.a.i.q.e @ @ # # # k *X=X-X-X=X=X=X=X=X=X=X=X=X#X8 @ # @ o ! +.+.+.+.1.p.a.a.p.p.i.9.<.<.<.+.+.+.",
"+./ / } +.+.O.+.+.+.i.i.i.a.0.8 # # H s.m U &X*X=X=X=X=X=X=X=X=X=X=X=X@X8 # # @ o ' O.O.+.+.1.i.a.i.i.a.i.9.<.<.;.o.+.+.",
"3.-.>.=.$.%.@.} } } =.6.6.7.@.7 # # H m.n.H. X.X.X[.}. X$X&X=X=X=X=X=X{.> # # + O ' +.6.w.q.8.%.1.=.0.q.w.6.1.$.;.;.;.3.",
"9.<.<.3.*.*.$./ / / $.#.$.;.o.0 # & H m.n.H. X X X'._._._._._.'.[.+XXX{.k > & @ o w i ~ *.p.y.+.O.O.=.*.*.%.$.$.;.<.<.<.",
"9.<.<.3.*.*.$./ / / @.$.$.,.o.7 # & L m.m.H. X X X'._._._._._._._._._.'.@X^.!.N @ # @ + u y.8.O.X.O.=.*.*.$.$.$.$.<.<.:.",
"8.<.<.3.3.3.1.| | | ;.1.$.;.] 7 # # d.F.F.J.P.E._.]._._._._._._._._._.].=X=X=X!.& & & + w 6.7.X.+.+.1.1.2.1.1.1.;.;.;.;.",
"9.<.<.<.<.<.<.<.<.<.:.<.W - + # # & d.F.F.F.F.F.F.XX=X*XXX`._._._._._.].=X=X=XB.& & # X e +.+.+.+.+.+.+.+.1.4.4.3.+.+.+.",
"9.<.<.<.<.<.<.<.<.<.<.<.1 @ & s s ; d.F.F.F.F.F.F.XX=X=XoX_._._._._._.].&X=X=XV.# # # X 6 ' [ +. .+.| +.+.;.4.4.4.+.+.+.",
"8.<.<.<.<.<.<.<.<.<.<.<.1 & & J n.l.M.F.F.J.K.F.F.XX=X=XoX_._._._._._.'.XXXXXX/.V.Z k @ @ % > 7 ~ +.+.+.+.;.4.4.;.+.+.+.",
"(.a.i.9.<.<.4.a.i.p.1.$.4 # & J n.n.G.F.F.K. X|.].XX&X&XoX_._._._._._.]. X XXX$X=X=X=Xk # # @ . W <.<.<.4.<.4.4.4.5.4.4.",
"(.p.i.9.<.<.5.i.i.i.%.$.8 # & I n.n.M.F.F.K. X XXX XXX XXX|.}.].].'._.]. X X.X&X=X=X=Xj # # # o ] 4.<.<.:.<.4.4.4.4.4.4.",
"(.i.i.9.<.<.5.i.i.i.%.+.0 & & d.S.M.M.M.F.K.+XXX X X X X X XXXXX*X&X%XXX].|.|.&X=X=X=X> # # @   | 5.<.<.:.<.4.4.<.4.4.4.",
"r.5.9.;.o.+.>.5.9.[ 9 @ & & & P F.F.z.G G d.`.].}.}. X X X XXXXX=X=X=X$X_._._.oX=X=X=X, # # @ . <.<.<.4.4.1.;.@.;.@.@.;.",
"9.<.<.o.} _ | <.<.0 @ X g 3 # P F.G.x.m F L Y.T.E.E.`.`._.[.|. X=X=X=XOX_._._.$X=X=X=X= # # + O :.<.4.4.4.1.+.+.+.O.+.+.",
"9.<.<.+.{ } | <.<.7 & & K k.s.c.F.G.x.m F L I.I.I.I.T.I.U.R.R.`.[.|.$X|.`._._.&X=X=X@X@ # # + - <.<.4.<.<.;. .+.+.+.+.+.",
"9.<.4.>.+.+.-.<.<.r # # H n.n.D.F.F.x.F m P I.I.I.I.T.E.R.I.U.U.E.E.I.}.*X$X X.X&X*X@X@ # # + % ' } $.;.3.1.1.3.1.+.+.+.",
"9.<.<.<.4.4.<.<.<.e # # G n.n.D.F.F.x.F F L Y.I.E.I.U.I.I.U.U.U.I.I.I.[.-X=X=X'._.'.[.Q.S N * + @ % 1 T | w.p.p.w.+.+.+.",
"9.<.<.<.4.4.<.<.5.r # # g M I z.S.J.x.F m L P.I.I.U.I.U.I.R.I.I.I.I.R.}.=X=X=X[._._.[.=X=X=XB.@ @ @ + u +.7.p.p.y.+.+.+.",
"9.:.<.<.4.4.4.<.4.V # # d z z c x M F F m L I.I.E.U.T.T.U.I.I.U.T.T.I.}.&X*X*X]._._.[.=X=X=XB.& & & o u #.7.i.r.w.O.+.+.",
"6.+.@.>.<.<.4.a.i.V # @ s c z z z c n F F L Y.W.I.T.E.I.I.I.E.I.T.T.E.]. X XXX_._._.}.=X=X=XS # # # X T  .$.2.1.%.<.,.<.",
"2.+.+.:.<.<.4.a.i.V # & d n b c z c c m m L I.I.I.U.I.I.T.I.U.T.T.E.E.].XXXX|._._._.}.=X=X=XZ # # # X W +.#.$.$.@.<.<.<.",
"2.+.+.;.:.<.5.i.a.R # & f m m K j.s.H H G H I.E.E.I.I.I.I.I.I.I.I.I.R.'.|. X|._._._.|.=X=X=XA @ # @   ` O.+.$.$.=.<.<.<.",
"q.%.%.$.-.1.1.a.p...7 & f m m s.l.l.l.l.l.j.h.A.P.I.I.I.I.I.I.I.I.I.I.Z.N.A.Y.'._._.|.=X=X=XN # # #   [ $.1.,.,.@.=.@.,.",
"e.%.%.#.+.+.1.p.p.p.4.>.T f x H l.l.l.l.l.k.F m F G h.C.A.P.I.E.T.T.U.Z.l.l.b.|..X|.$X=X=X=Xk # # @ . O.$.,.,.<.,.=.$.$.",
"e.2.%.$.+. .1.p.p.p.4.<.R # # h l.l.l.k.l.k.G m m m m m m P h.C.A.P.Y.N.l.z.b.|. X X$X=X=X=Xj @ @ @ O $.@.,.<.<.,.=.$.$.",
"u.0.q.2.-.;.1.w.w.8.1.>.Y & & f l.l.f.b m H H G m F F m m F m m F P L M.M.v.Z. X X X%X=X=X=X> # # @ % 6.6.3.<.<.;.+.$.@.",
"(.i.i.9.4.4.4.| +.+.+.+.T & # f l.l.f.z v b l.l.k.g.K J G F m m m m P M.F.F.J.K.P.`.OX=X=X=X, # # # < p.i.5.:.<.<.+.+.+.",
"(.p.p.9.4.4.3.+.+.+.+.| W & & g K j.f.z z n l.l.l.l.l.l.l.j.K H F m G M.F.F.F.F.J.J.|.=X=X-X# # & + 9 a.p.9.<.<.;.+.O.+.",
"(.p.p.9.4.4.3.+.+.+. .| W @ @ 3 m m m z z n l.l.l.l.l.l.l.l.l.l.k.j.s.x.S.F.F.F.J.J.|.=X=X@X# # # + w i.a.9.<.<.<.O.O.O.",
"2.+.@.;.4.4.3.*.%.%.+.+.' r 7 5 m m m z z n k.l.l.l.v.l.l.l.l.l.l.l.j.M c M x.J.F.J.OX=X=X{.# # # + i 4.4.<.<.<.,.$.$.$.",
"2.+.+.;.4.4.4.*.*.*.+.+.+.;.-.! d n n c z n l.l.l.l.l.l.l.l.l.l.l.l.j.b c v d.J.F.F.A B.{.^.& # # + E 4.4.5.<.<.,.$.$.@.",
"2.+.+.3.4.4.3.*.*.*.+.+.+.>.<.' # & s n n n l.l.l.l.l.l.l.l.l.l.l.l.k.b z z g.J.F.S.s # * > - V e y 4.4.4.<.<.<.<.$.$.$.",
"2.+.+.| o.o.@.i.w.i.3.:.;.;.-.` # @ : m m G k.l.l.l.l.l.l.l.l.l.l.l.j.b z z g.F.F.N.5 @ # + < 1.,.3.4.<.4.,.1.,.@.] } } ",
"2. .+.} / / X.i.p.a.4.<.<.-.+.} T B s m F F k.l.l.l.l.l.l.l.l.l.l.l.j.b z z f.m.m.c.; # # + 9 <.<.<.4.4.<.3.=.$.+./ / / ",
"2.+.+.{ / / X.i.p.i.<.<.<.;.+.#.2.r.&.s v n k.l.v.l.l.l.l.l.l.l.l.l.g.z x x k.n.n.l.; & # + 6 <.<.<.4.4.4.=.$.$.+./ / / ",
"2. .+.| _ { O.w.w.8.4.3.3.;.@.;.1.i.%.; # & ; f n K k.l.l.l.l.l.l.l.j.M n n f.v.n.l.= & # o i <.<.<.8.8.8.3.+.+.O.{ { _ ",
"2.+.+.+.+.+.+.+.+.+.%.%.6.2.<.:.5.i.7.1 # # # & # # 3 f n s.k.l.l.l.j.m F F 3 s c n & & # % ( 5.5.<.a.p.p.$.} ] _ O.X.O.",
"2.+.+.+.+.+.+.+.+.&.%.%.6.3.<.<.5.i.p.*.B 7 # # # # # # # # : v H k.k.F F m ; # # @ o &.C E @.<.4.4.i.i.i.1.} } [ +.O.O.",
"2.@.+.+.+.+.+.+.+.+.$.%.%.3.<.4.5.i.a.a.+.O.O.~ V 0 = # # # # # & & 3 3 v n : # & @ w 3.+. .@.3.4.5.i.i.p.1.}  .} O.O.O.",
"8.<.:.;.$.$.#.+.+.+.+.+.#.7.p.i.y.*.6.*.&.+.O.+.+.+.` T y 2 & # & # # # # & X e y 0 [ } / { } %.6.6.4.4.4.>.+.+.O./ / { ",
"9.<.<.;.$.$.#.+.+.+.+.+.+.8.p.p.i.*.*.*.@.+.+.+.+.+.| / / /  .^ k = # # # + . [ $.+.+.} / / } *.%.%.,.<.<.@.+.+.O./ / / ",
"8.<.<.1.$.$.&.+.@.+.+.o.+.7.p.i.i.*.*.*.+.+.+.+.+.+. ./ / ) +.$.$. .W V 0 1 B i.$.+.+.} / / { %.*.%.<.<.<.@.+.+. ./ ) / ",
"t.<.<.5.w.w.8.$.$.$.+.+.+.$.6.1.%.$.$.$.] } ] | +.+.+.+.@.#.3.3.4.;.;.1.;.] +.@. .} } { / / { $.$.@.<.<.<.>.+.+.+. .| | ",
"9.<.<.8.a.i.y.*.*.*.+.+.+.+.+.+.+.+.+.+./ / / } +.+.#.*.*.*.4.4.4.4.4.4.;.) / / { { { { ) / ) +.O.+.,.<.<.@.+.+.+.+.+.+.",
"9.<.<.i.a.p.y.*.*.*.+.+.+.+.+.+.O.+.+.+./ / / | +.+.#.*.*.$.4.4.4.4.4.4.;./ / / } } { ) / / { +.+.O.,.<.<.>.+.+.+.O.+.+.",
"8.<.<.4.4.3.3.3.=.3.@.O.O.+.+.+.+.@.@.@.) / / +.;.@.1.3.6.1.4.3.3.4.<.4.:.-. .+. . . .| o.| o.$.$.$.3.9.9.;.+.+.+.$.$.$.",
"t.<.<.o./ ) o.<.<.<.+.+.+.+.+.+.@.<.<.:.) / / -.4.4.4.4.4.4.$.$.$.1.:.:.5.p.a.a.1. . .:.<.<.<.*.*.*.i.a.i.7.+.+.+.*.*.*.",
"9.<.<.o./ / _ <.<.<.@.+.+.O.+.+.-.<.<.<.) / / -.4.4.4.4.4.4.$.$.1.1.4.<.5.p.p.p.1.-.+.:.4.<.3.2.*.*.i.i.p.6.+.+.+.*.*.*.",
"9.<.<.o./ ) _ <.<.<.+.+.+.+.+.o.@.<.<.<.) / / -.4.4.4.4.<.4.1.$.$.:.<.<.4.p.a.p.#. . .:.:.:.3.2.*.*.p.p.i.6.O.+.@.*.*.*."
};
