/* XPM */
static char *coin1702839007[] = {
/* columns rows colors chars-per-pixel */
"60 60 177 2 ",
"   c #011107",
".  c #031309",
"X  c #04180D",
"o  c #09160D",
"O  c #041C11",
"+  c #0B1C13",
"@  c #0E1D18",
"#  c #082217",
"$  c #0F201A",
"%  c #14241E",
"&  c #062F21",
"*  c #162622",
"=  c #192724",
"-  c #172822",
";  c #1A2925",
":  c #1C2C29",
">  c #1E272C",
",  c #063021",
"<  c #053629",
"1  c #093828",
"2  c #12372F",
"3  c #1C312A",
"4  c #043F30",
"5  c #133B31",
"6  c #202C2D",
"7  c #23342E",
"8  c #252E33",
"9  c #282F35",
"0  c #262F38",
"q  c #263134",
"w  c #293236",
"e  c #2D3C35",
"r  c #273139",
"t  c #2C353C",
"y  c #223E3E",
"u  c #2E383E",
"i  c #30373E",
"p  c #313A3F",
"a  c #06412F",
"s  c #054334",
"d  c #094231",
"f  c #084837",
"g  c #074C39",
"h  c #094C3C",
"j  c #13483E",
"k  c #2E3740",
"l  c #2E3A42",
"z  c #303741",
"x  c #323C43",
"c  c #343F48",
"v  c #0A4E41",
"b  c #0C5142",
"n  c #065542",
"m  c #1F584F",
"M  c #2F4047",
"N  c #354146",
"B  c #394146",
"V  c #354248",
"C  c #3A444A",
"Z  c #3D494C",
"A  c #3E4B44",
"S  c #076B56",
"D  c #026F59",
"F  c #02715C",
"G  c #037A63",
"H  c #057662",
"J  c #404D46",
"K  c #4D5C55",
"L  c #5C6765",
"P  c #5D6864",
"I  c #6C7771",
"U  c #6C7972",
"Y  c #04826A",
"T  c #078670",
"R  c #018F74",
"E  c #0A8A71",
"W  c #009377",
"Q  c #029478",
"!  c #04997D",
"~  c #049F82",
"^  c #0C9F85",
"/  c #04A183",
"(  c #04A789",
")  c #04AB8C",
"_  c #0CA38B",
"`  c #12AC91",
"'  c #07B494",
"]  c #0BB396",
"[  c #03B897",
"{  c #05BB9A",
"}  c #0CBD9D",
"|  c #04B799",
" . c #498D82",
".. c #7B8682",
"X. c #7F8B87",
"o. c #03C6A4",
"O. c #09C4A4",
"+. c #04C8A4",
"@. c #15C7AE",
"#. c #14C9AF",
"$. c #18CEB5",
"%. c #13C9B0",
"&. c #04D6B2",
"*. c #04D9B3",
"=. c #09DAB3",
"-. c #12DDBF",
";. c #36C7B6",
":. c #3FC9BC",
">. c #02E2BB",
",. c #05E2B9",
"<. c #09EFC9",
"1. c #05E5C0",
"2. c #1FE7C6",
"3. c #1FE7CC",
"4. c #05F5CB",
"5. c #0AF2CB",
"6. c #0CF8D4",
"7. c #0FF8D8",
"8. c #07F5D1",
"9. c #1DF7DF",
"0. c #13FAD9",
"q. c #13F6D5",
"w. c #20E4D0",
"e. c #20EBD5",
"r. c #37EED8",
"t. c #38EFDB",
"y. c #33E9D3",
"u. c #1EF7E2",
"i. c #1DFDE4",
"p. c #1DFFE9",
"a. c #21FCE5",
"s. c #21FFE9",
"d. c #3AFDEA",
"f. c #4AD2C4",
"g. c #7EDCCC",
"h. c #56FEEF",
"j. c #58FFEE",
"k. c #55FBE5",
"l. c #64EFEA",
"z. c #65F0EB",
"x. c #78F7E4",
"c. c #7BF9EA",
"v. c #7EF7F0",
"b. c #79FDF1",
"n. c #75FFFF",
"m. c #818C86",
"M. c #87928C",
"N. c #ADB7B6",
"B. c #86F2E3",
"V. c #8AF4E8",
"C. c #82FDF2",
"Z. c #87FFFE",
"A. c #8BFFFE",
"S. c #95FCF3",
"D. c #96FFFF",
"F. c #99FFFE",
"G. c #BAE1E0",
"H. c #A0FEFD",
"J. c #ABFEFE",
"K. c #A7FCF5",
"L. c #B3FEFE",
"P. c #BCFEFB",
"I. c #C3C9C7",
"U. c #D4D9D7",
"Y. c #DBDFDE",
"T. c #C9E2DF",
"R. c #DCE0DF",
"E. c #C6FDF7",
"W. c #C3FEFD",
"Q. c #CBFEFB",
"!. c #D1FEFD",
"~. c #DBFEFD",
"^. c #E4EDEC",
"/. c #E5FFFE",
"(. c #EBFEFD",
"). c #F5FFFE",
"_. c #FEFFFF",
/* pixels */
"9 w w t t w t t t w t t w w w w w w u t w r t t w w 0 0 t t 9 t t t w w w t w t w w w 9 t w t 8 w u t 8 w t t w 0 0 0 w ",
"u z u u t z p t t p i p z i z k x u M l N p k p p p t k t z 9 i p z p x p x x z p i z i u u t k l l c x c z p t k k z z ",
"u t u p l u u k p u p z u z x u l k l l l l x k t t t t k z w z p x l x p p i x z t p t k u k l l l c k x x x t 0 k k k ",
"t u k t u k u x l z u p p u p u k l V l M u x l z u t k t i w x z x p k z x x z p t p z k k l l V l M k x p x i k k k z ",
"3 l k k w t w k t w t t i r t 0 t l c l M t l t k t t k k z t t k l w t t t t p t p k t t t t k N l M w t p p t k k k k ",
"l l l l u t t k t i p p z t t k t l l l l u V l l t k k t k k l c M t k t t t x x z t t t t k l l M M t x x x p r k k k ",
"k l l l t k k t t z z i t 0 r k t l l l M u l M l k k k k k l l l V t k t z u x x u t t t t t k l M l l N M l u 0 k k x ",
"l l l l t t k t t x z z i t k t t k l M l l l l N u t t k k l l l c k k t z t x x p p t k k k l l N l u N N l u k k k z ",
"r k y k r k r r t z p z i t t t l l l l V w t p u e t t t l t u u M t u u u e c N z k t k k k l V c V t z p p w t k k c ",
"r l l k l l l l y t k p k k t k t l l c u t z 7     .                   3 N l t x z k t k k k l M V x l x x z u t k t x ",
"2 l l l l t k y l k t t k r k r t l c u u z x 6                         q l u M w z k k k k x l V p c c N x x u k k k x ",
"k l k k l k t k l l l t k 0 k k k u t p B Z C B e e e e e e e e e e e e C V C V x u k t k t z t p z x x u z x u k k k x ",
"0 l k k k l l l l u k x r t t t k t 8 z ; + + X._._._._._._._._._._._._.M.@ + 7 u x w r t k k t w x x x x p x u k k k c ",
"8 k y l k k t u k t u u w r t t k r u l %     .._._._._._._._._._._._._.m.    ; p u t t t k k t u z l u u u u u t k k x ",
"k l l M k l l t k u u z x t t t t l c l - o X .._._._._._._._._._._._._.m.X X 3 x x u w k t u z N V x p N N x x t k k k ",
"l l l l k l u l l t t u x t t t t 7 : : N.I.I.G.L.L.L.L.J.L.L.L.L.~.(.^.B.} } ` : ; : r k t k c N N l l u N N u t k z x ",
"l M l l u u u x u u t l z r t t w X     Y._._.!.F.D.D.D.D.D.D.D.F.W././.c.4.4.=.  . o 8 k k k t x x x x p x c z w i z z ",
"y l M l w u u l u r t u t 8 t r 8 .     R._._.Q.D.D.D.D.D.D.D.D.F.W././.x.4.4.=.  . . > t t t 0 9 i i i i i i i 9 9 i p ",
"k l M M l c l l l l l u t t p x Z I U U ^._.).Q.D.D.D.D.D.F.P.Q.W.K.S.S.k.q.7.-.    X 8 z k i w t x x x x x x B x c x c ",
"y l l N w l M l l l u t V w X   A _._._./././.W.D.D.D.D.D.D._._._.b.s.a.s.s.s.3.    o 0 t k i x p i x x x p x x c c c c ",
"t l l M u l c l M u l c M w     A _._._.(././.W.D.F.F.F.D.F._._._.b.p.s.s.i.a.w.  . . r k l x x c x p x c c c c x B c B ",
"t c l M w u u u t l M l N w .   J )._._.~.!.!.W.L.L.L.J.J.L.).)._.S.h.j.d.s.s.e.v v h M u u x w c x B i z z p p w w 9 i ",
"l V l V p N c x k l l l c w X   J _._._.K.D.D.E._._.)./././././././././.C.s.s.p.5.4.4.g   . q x c c x p J c c z p c z c ",
"k l l M z x p x u l M N x t .   J _._._.J.D.D.E._._.)./././././././././.C.s.s.i.4.4.5.h   . r x x c B p c c J c z z z c ",
"t l l M c c x z u M N V M u - % K ).).).L.H.F.E.).).(.~.~.~.~.~.~.~.~.~.v.u.u.9.6.4.5.h   . q x J c c p J c J x z z z c ",
"l l l M l k u u t c q - % P U.U.T.K.J.J./.(.).W.A.D.A.Z.A.A.Z.Z.A.Z.Z.A.f.( ( ' i.a.a.b     q t p i p i c c x x z z i x ",
"l l l M t t t t t l =     P _._./.F.D.D.)._._.W.n.n.n.n.n.n.n.n.n.n.n.n.:.Q Q ~ a.s.a.b   . w x z z c x B x c c c c x c ",
"l l l M t k k t k l =     P _._./.F.D.D.)._._.W.n.n.n.n.n.n.n.n.n.n.n.n.:.Q Q ~ s.p.a.b .   u V c J c c J c B c B c c C ",
"l l l N t k k k t c -     P _._./.F.D.D./.).).L.n.n.n.n.n.n.n.n.n.n.n.n.:.Q W ~ s.s.s.` E E m q 8 i c J z c B c c c J C ",
"t l l N t k k k u c *     P _._./.F.D.D.~././.J.n.n.n.n.n.n.n.n.n.n.n.n.:.W W ~ s.s.a.6.4.4.S     = c c c c B B c B J c ",
"q r t t t t t u t t -     P _._./.F.D.D.~././.J.n.n.n.n.n.n.n.n.n.n.n.n.:.Q W / s.s.p.6.4.4.S     % c i x z i w i z z z ",
"w k x z p x z c x z =     P _._./.P.L.L.V.B.B.v.n.n.n.n.n.n.n.n.n.n.n.n.:.Q R ~ @.@.@.O.{ } n     = c x J J B x z z z B ",
"t x x z x x x x x x =     P _._.).(././.2.*.>.t.n.n.n.n.n.n.n.n.n.n.n.n.:.Q Q R D D F F D D 1     * c c J c c i x z x x ",
"u z p x z k z x x x =     P _._._./././.3.>.>.r.n.n.n.n.n.n.n.n.n.n.n.n.:.Q W W D D F F F F 1     * Z x J c B x z x z c ",
"w k p u t t w u t t =     P _._.).Q.Q.E.3.>.1.y.l.l.z.z.z.z.l.l.z.z.z.z.;./ ! ! Y Y Y F F F <     > C i x c z z x x x x ",
"l l l V t k k c t B ;     P _._.!.d.d.d.i.i.i.$.^ ^ ^ ^ / ^ ^ ^ ^ ^ ^ ^ } *.*.*.&.&.&.! W W a     = J x J C C B x x x x ",
"l V l V l k k k z B ;     P _._.Q.a.s.s.p.s.p.%.Q W W W W W W W W W W W { ,.>.>.>.>.>.) Q W s .   = C c J C B B z x x c ",
"l M l V k l k k z N ;     P _._.Q.s.s.s.s.s.s.#.Q W W W W W W W W W W W { ,.>.>.>.>.>.) W W d     > J c C B J B z x x x ",
"t l t k t t t k t x u w w A P L  .a.s.s.] _ _ ] +.+.o.o.o.o.o.o.O.O.o.o.' Q Q / ,.>.>.S s a y w z C C z c x p x z x z B ",
"l l l M l l l l p u c x c r .   h a.s.s.T F D ( >.>.>.>.>.>.>.>.>.>.>.>.) D F Y >.>.*.g     r C Z J x c B B x p z B x B ",
"u M N M l l x x x M u x z w X   h a.a.s.T D D ( >.>.>.>.>.>.>.>.>.>.>.>.) F F G ,.,.,.h   X w V J c x B J c B i p x x x ",
"u N u l M N N x M p x p p t .   f q.0.0.Y D D ( ,.>.>.>.>.>.>.>.>.>.>.>.) F F G [ { ' a     w x x x c B B B B p p z c z ",
"u M k l N p x x p x p x w w .   f 5.4.4.Y F H ( ,.>.>.>.>.>.>.>.>.>.>.>.) F F H Q W Q 1     w p w x x x B B B p x c z c ",
"r u l x w u i p u u t u i 7 .   f 5.4.4.Y F D ( >.>.>.>.>.>.>.>.>.>.>.>.) D F F Q Q Q 1     q t p p B N x x i i z z i c ",
"u N M V x x x x x x x x i w % % v O.O.O.Y F F ) >.>.,.>.>.>.>.>.>.>.>.>.) G F G G H G 5 % % t B C N N B A B B B z i z x ",
"l M l V p x x x x z i z i t k k w # O O Y Q Q { ,.>.>.,.>.>.>.>.>.>.>.>.{ W Q Y X X O r t k t x x N B V V N B B x z i z ",
"c M l l p p z p x p i z z 0 t k w +     Y Q Q [ >.>.>.,.>.>.>.>.>.>.>.>.{ Q Q Y   .   8 k t z u x N N V c N N x z z x z ",
"l l l V u u u t t t t i t 8 t 0 r +   . Y Q Q { >.>.>.>.1.>.>.>.>.>.>.>.{ Q ! Y .   o > r t k w w u t w t t w t u t 9 t ",
"l l l V l l M l l l M l r w u k k w i p 2 & , 1 d d d d d d a d d d d d 1 & , 5 M u q r u k p t t p x x x x p x x B x B ",
"l l l l u l l u u l u w V k k k k c x t $                           X       . % u x B t z k z x x w x x x x x x B x p J ",
"l l c V l N l u l k l N V t k k z x x x $                                     % x N N k k x z x x p i p p x p B x c x N ",
"l M c M u u w u t l l l N t k k k x x x p q w w w r 8 q 7 8 w u t e r w q q q x N l N k k k k x x x x p B i i p t i p p ",
"t l l V x x z x u N l M x t k k p x x x x p B N N x t z u x t N x B p x p x i x x l N k k z z p B x B x J C J c k z c x ",
"t c V V x x x x u l l l N k k t p x x x x u N N B x z k k k x N x C p x p x t B N l B t k z z p B p B x C C J c k z k N ",
"y x l V z x x x u N c l N t u l i x c x x w V N N x k k k z x B N N x x p x p B x N N k k k k p B p x p c c C c u z z N ",
"k l c V p p p p u l N l c t r u i 9 x x x w N p c z t t t c x V V N p z p u w B N N c w k u k e B p x i c c c z t x l l ",
"l c l V t t k k t c c c N t u u z z x N u l x u l l N u p x x N N C t k k t w N V N c u x u x u i z x x x x x N N B N B ",
"k l c V t l k k r l M l V l M N N B N N N N N N N B V V N N N V C C x z k k k N N N N p N N x N x J B c C x N B N N N B ",
"r l c c t k k t t l M V C k l N N N x x u u N l u N B N B B N V C C z k x z u N N l x u N u M u x c x J x B B B N B N C ",
"l c M l k k k k t c c M V u V l l x B N N N l l x x N N V V u V V C z x k z u N l N N u p M u N x c c c B B c B N N N C "
};
