/* XPM */
static char *_782a1c210744989cd3502ffab79ee49M4rGKaGNQM88sBUk[] = {
/* columns rows colors chars-per-pixel */
"60 60 186 2 ",
"   c #252E34",
".  c #282F35",
"X  c #252F38",
"o  c #263036",
"O  c #293137",
"+  c #273239",
"@  c #2C353C",
"#  c #2E383E",
"$  c #3C3B36",
"%  c #30373E",
"&  c #313A3F",
"*  c #3D3D3A",
"=  c #423E39",
"-  c #4F4333",
";  c #43433C",
":  c #4B453B",
">  c #4B493E",
",  c #564B37",
"<  c #544D3C",
"1  c #5B4C38",
"2  c #5D5139",
"3  c #67552D",
"4  c #6A502B",
"5  c #745B2E",
"6  c #7D5D2B",
"7  c #645636",
"8  c #6B5634",
"9  c #6C5A35",
"0  c #685338",
"q  c #6C5A3B",
"w  c #63553B",
"e  c #725930",
"r  c #7A642E",
"t  c #756035",
"y  c #7E6431",
"u  c #70603C",
"i  c #7A633A",
"p  c #2E3740",
"a  c #2E3B42",
"s  c #303741",
"d  c #323C43",
"f  c #383E43",
"g  c #343F48",
"h  c #2F4047",
"j  c #354046",
"k  c #394146",
"l  c #354148",
"z  c #3A454A",
"x  c #3E484D",
"c  c #434641",
"v  c #4B4C47",
"b  c #685841",
"n  c #AA751C",
"m  c #A47B1F",
"M  c #AF7D1C",
"N  c #B37A1B",
"B  c #BA7F19",
"V  c #8F6E21",
"C  c #81642C",
"Z  c #876C29",
"A  c #8A682B",
"S  c #916924",
"D  c #9D6F24",
"F  c #956E29",
"G  c #986D28",
"H  c #9D7123",
"J  c #97772A",
"K  c #806633",
"L  c #A47122",
"P  c #A57E23",
"I  c #AD831D",
"U  c #BD8E17",
"Y  c #B68B1D",
"T  c #AD8626",
"R  c #A28029",
"E  c #B38C2B",
"W  c #B38A25",
"Q  c #BF932A",
"!  c #D5900F",
"~  c #DB930D",
"^  c #CC8516",
"/  c #C88618",
"(  c #C1881F",
")  c #CD8C14",
"_  c #D58B13",
"`  c #C3901D",
"'  c #CD9E14",
"]  c #D49015",
"[  c #DE9512",
"{  c #D89D1B",
"}  c #D59B15",
"|  c #E0960F",
" . c #EB9E0B",
".. c #F39E05",
"X. c #F29E08",
"o. c #F09216",
"O. c #F2951B",
"+. c #F49D18",
"@. c #DEA00F",
"#. c #D6A410",
"$. c #EFA209",
"%. c #E2AC0D",
"&. c #F5A404",
"*. c #F6AB04",
"=. c #F8AD05",
"-. c #F4A50B",
";. c #F5AA0C",
":. c #F8AE0F",
">. c #EDB508",
",. c #F6B305",
"<. c #F9B504",
"1. c #F6BA05",
"2. c #FABB03",
"3. c #F5B309",
"4. c #F9B40C",
"5. c #F6BA09",
"6. c #FABD0A",
"7. c #E2A911",
"8. c #F3A516",
"9. c #F5AB12",
"0. c #F9AE15",
"q. c #F2A41A",
"w. c #F5AD19",
"e. c #E7B111",
"r. c #F5B313",
"t. c #F7B811",
"y. c #F9BA15",
"u. c #F6B31B",
"i. c #F6BE1F",
"p. c #F9BB1D",
"a. c #FAB615",
"s. c #C0972E",
"d. c #F2A325",
"f. c #F4AC26",
"g. c #F2A42C",
"h. c #F4AA2D",
"j. c #F6B423",
"k. c #F8B524",
"l. c #F7BB26",
"z. c #F9BC24",
"x. c #F5B728",
"c. c #F9BE2A",
"v. c #F5BD2C",
"b. c #F3A731",
"n. c #F4AB34",
"m. c #F4AD39",
"M. c #F5B034",
"N. c #F7BF34",
"B. c #F6B43C",
"V. c #F7BC3C",
"C. c #FCC303",
"Z. c #FECC01",
"A. c #FAC10B",
"S. c #FECD0A",
"D. c #FCC010",
"F. c #FECE11",
"G. c #F7C01F",
"H. c #FAC319",
"J. c #FBCE19",
"K. c #FFD014",
"L. c #FED21D",
"P. c #F8C722",
"I. c #FCCC24",
"U. c #FAC32E",
"Y. c #FCCD2C",
"T. c #FED324",
"R. c #FED42D",
"E. c #F8C533",
"W. c #F9C232",
"Q. c #FDCB33",
"!. c #FBCD3C",
"~. c #FED635",
"^. c #FED837",
"/. c #FCD43C",
"(. c #FED93B",
"). c #F5B542",
"_. c #F7BB44",
"`. c #F5BB49",
"'. c #FACF44",
"]. c #F6C14F",
"[. c #F9CF49",
"{. c #FCD345",
"}. c #FDD943",
"|. c #FDD84B",
" X c #F8C657",
".X c #FACC5D",
/* pixels */
". @ @ @ + + O + O @ @ @ @ + + O O + # # @ O + @ @ O . + + @ . @ @ @ + + + + @ @ @ O O O + + +   @ @ #   @ @ @ O . + + + ",
"# # # # # s s # # # # a s # s # & # a a d a d & s # @ # # s O s s s s s s d s s s # s # # # # a a a d s d s s # # p p a ",
"# # # # a # # a % # a s # a s # & # d a a a s s # # # # # s o s s s s s s s s s # # # # # # # a a a d s d d s @ + # # a ",
"# # # # a a a s a s # a & # & # s a d a a s d s s # @ # # a O s d s & & s s s d # # # a # s s a d a l # g s d % # p # s ",
"O @ @ @ + @ + # @ @ @ @ # + + + # a a a d @ # # p + @ p # a + @ # a + # @ @ @ # # # # + @ @ # a d d h @ @ # s # @ # # s ",
"# a a a @ @ # # + s s s # @ # @ @ a a a a # d d a # # p # # @ d d d @ # # # # g s s # @ # # # a a d a @ d d d # @ # # s ",
"@ a a a # # # # + s s # # + @ # # a a a d # a a d # # # # p a a d d # # # # # g s # # # # # @ a a d a a d d d # @ # # s ",
"p a a a @ # # # # s s s & + # @ # a a a d # d a d # # # # s # d a d # # # p # g d s # # # # # a d d d a j d d # @ p p s ",
"+ @ @ p @ # O + @ a a a & + # # # a a d l @ # # # + @ # # s @ @ a s @ @ @ # @ g g s s # # # @ a d d l # s & # + @ # p d ",
"o a a a a p p a # @ a a # @ @ @ # a a d @ # s a s @ @ # # s   a d d a a d j d # d s s @ p p p d l l d d g d s # # a # d ",
"+ a a a a # # # p a + # # @ # # # a d # # s s s s # # # # s @ a d d a d d d a d + s s @ # # s a l s d j g d s # # p p d ",
"@ a # a a p @ p a a a # # @ # # # # # # s s s & 1 6 L N ( Q s.s.E R C < d a a a d # # @ p # s # & s g g # s s # # # p d ",
"+ # p # a a p a # p a s o + @ # s #   s s : C _ -.w.Q.{.{.Y.I.Y.!.'.I.C.} r > a s d O + # @ s # O d s d d s d # # p p d ",
"  @ @ p @ # # # a # # # # + @ @ # + # ; S ~ ;.z.U.p.r.,.2.2.2.5.2.2.2.2.2.2.%.V ; # # + @ # p + # # a # @ a d # # p p s ",
"p a a a # d s # # # # s d @ # # # d 8 ] -.c.U.u.=.2.2.2.2.<.2.5.,.=.*.<.2.2.2.2.#.9 s @ # # p d j l d d d j g s # a a p ",
"p a a a # d # # s # # # d @ @ @ = H  .w.E.w.*.2.2.<.u.u.-.B.h._.V.f.j.a.=.*.<.6.2.1.P $ # # # d j d a a d d j s @ a a s ",
"p a p a # s # s # # # s & + @ = B -.u.E.-.<.2.2.<.f.B.m.g.h.b.).n.d.m. Xu.C.5.*.2.2.2.U ; # p # g g d d d g g s @ p a d ",
"# a a a @ # # # @ + @ # +   # n -.9./.X.2.<.2.u.-.d.g.h.d.n.B.O.n.d.n.B.t.r.u.C.&.2.2.C.I % # O . # # + @ # # @     + # ",
"a a d d # a a a a a a # @ + 6 $.w./.-.<.2.2.+.g.m.b.g.M.B.`.B.h..Xn..X`.h.m.b.A.2...<.2.1.C p + @ d d g g g g g g g g g ",
"@ a a d @ a d d a l # @ l - | -.E.-.=.2.C.,.q.g.g.q.d.f.:.&.<.*...8.g.g.d.b.g.A.R.6.&.,.2.e., g d & g s s s s g g g g j ",
"@ a j h # a d a d # a d k N -.l.u.&.C.2.Z.Z.&.w.6.Z.2.<.*.<.2.2.2.1.4.C.*.-.D.Z.S.(.2.&.6.2.U d d d # g d g g f g z g k ",
"p a a h @ # # # @ a a d 9 $.;.U.&.C.<.Z.Z.Z.Z.S.C.&.*.C.K.R.~.S.Z.Z.C.2.C.Z.Z.Z.Z.S.}.r.*.2.1.5 g g g # # d s # O O O # ",
"p d a j & g d s # a a g ^ *.j.u.=.2.C.Z.Z.Z.S.2...2.L.}.~.S.Z.Z.Z.Z.Z.Z.2.2.Z.Z.Z.Z.T.P.&.2.2.@.k g d & z l z d a s s s ",
"# a a j s g s s @ d d 2 &.&.U.-.2.2.Z.Z.Z.Z.<.&.2.T.T.S.Z.Z.Z.Z.Z.Z.Z.Z.Z.2.2.Z.Z.Z.S.R.=.*.2.C.9 j j & z z z g s s s d ",
"@ a a d d d s s # d a H *.9.z.&.2.C.Z.Z.Z.2...2.T.L.Z.Z.Z.Z.Z.Z.Z.Z.Z.Z.Z.Z.C.C.Z.Z.Z.T.H.&.2.C.I g g s l z z g a s s g ",
"p a a d s s # a # d a ] *.u.u.*.2.Z.Z.Z.Z.&.,.L.L.Z.Z.Z.Z.Z.Z.Z.Z.Z.Z.Z.Z.Z.Z.2.Z.Z.Z.S.Y.&.<.<.%.& d @ g j d d p a # s ",
"p a a l # # @ @ + a k &.*.c.;.2.2.Z.Z.Z.2.&.Z.R.S.Z.Z.Z.Z.Z.Z.Z.Z.Z.Z.Z.Z.Z.Z.C.2.Z.Z.Z.R.=.*.,.A.c g d j g d g g d d g ",
"a a a l # a # # # d < &.&.W.&.2.C.S.Z.Z.*.*.K.L.Z.Z.Z.Z.Z.2.Z.Z.<.Z.Z.Z.Z.S.Z.Z.2.Z.Z.Z.T.4.&.5.C.w l l z d z j j l z z ",
"p a a g # p # # # d 8 *.&.W.&.5.A.Z.Z.Z.&.<.T.K.Z.Z.S.Z.Z.Z.<.<.S.~.L.S.Z.Z.Z.Z.2.Z.Z.Z.L.y.-.C.2.t g z a d z j j j z z ",
"@ a a l # # a p # a 8 *.*.W.&.5.C.Z.Z.Z...2.^.S.Z.S.Z.Z.Z.Z.2.C.}.S.Z.S.Z.Z.Z.Z.2.Z.Z.Z.L.i.-.C.2.K j k d z j z z z z z ",
"  + @ @ @ # # # # # 4 *.&.N.;.2.C.Z.Z.Z.&.2.^.S.Z.Z.Z.Z.Z.Z.2.Z.}.Z.S.Z.Z.Z.Z.Z.2.Z.Z.S.L.p.&.C.2.y g # d & # @ @ # # s ",
"@ s s s s s s s d d 0 *.-.W.&.2.C.Z.Z.Z...2.^.S.Z.Z.Z.Z.Z.Z.2.Z.}.S.Z.Z.Z.Z.Z.Z.2.Z.Z.S.T.y.&.C.2.i z g z k k d s d s g ",
"@ s s s s s s s s d < -.-.W.&.2.C.Z.Z.Z...2.^.S.Z.Z.Z.Z.Z.Z.2.C.|.Z.Z.Z.Z.Z.Z.Z.2.S.Z.Z.T.4.*.2.C.b z g z z g d s s s g ",
"# s s s s s s s d g k -.&.c.;.2.2.Z.Z.Z...2.^.S.Z.Z.Z.Z.Z.Z.2.Z.}.Z.Z.Z.Z.Z.Z.Z.2.Z.Z.Z.R.=.*.<.C.v z d z k j d s s s d ",
"+ # s # @ + # # # # # _ *.u.u.*.2.Z.Z.Z.-.<.R.F.Z.Z.Z.Z.Z.Z.2.Z.}.Z.Z.Z.Z.Z.Z.Z.2.Z.Z.S.Y.&.<.<.7.x z # d d d & s d s g ",
"a d a l # # # s @ j g H *.9.l.&.2.C.Z.Z.*.*.K.T.Z.Z.Z.Z.Z.Z.2.C.}.Z.Z.Z.Z.Z.Z.Z.6.Z.Z.L.H.&.2.C.T z z d x x z g s d s g ",
"a j d l a a p # # j s 1 &.&.W.-.2.<.Z.Z.C...2.T.T.S.Z.Z.Z.Z.2.Z.}.S.Z.Z.Z.S.Z.6.C.Z.S.R.=.*.2.C.q z z j x z z g s s g d ",
"a l a l a p p a s g g d ^ &.j.u.*.6.C.Z.Z.,...2.L.}.R.F.Z.Z.<.C.S.(.^.K.Z.Z.C.2.Z.Z.L.H.&.2.2.{ c z x k z z z k s d d g ",
"@ # p a @ @ @ # @ g d s 9  .;.W.-.C.<.Z.Z.Z.2.&.*.C.J.S.C.2.<...=.C.S.F.A.5.2.Z.Z.S.(.3.*.2.3.u z z x & d d s s & g s j ",
"a a d d d d a a a # g d f n &.x.u.&.C.2.Z.Z.Z.Z.<.,.2.2.C.Z.Z.Z.2...3.=.3.Z.Z.Z.S.^.2.&.2.6.Y z z x d g z d g & s d d g ",
"a d d d d d d d d d # s s : [ -.W.;.*.2.C.Z.Z.1.f.m.j...M.&.f.M.g.`.n.g.n.x.Z.S.(.6...,.5.%.< z z d d k z k g & s d s s ",
"d d a a d d j d d d d # s # e $.-.!.-.,.2.C.Z.:.n.o.h.M.g.n.n..X`.g.).n.O.M.C.T.6...1.5.5.r s d d d k k z k j d & d g s ",
"# d a a d d d d d d d g + @ % L &.&.!.X.<.2.A.C.8.B.). Xg.).g.g.)._.g.h.V.t.Z.2.&.2.5.6.m s d % O g d d k k g & s d s g ",
"o p a s # # # s # # # # # + @ $ N &.9.E.-.,.2.2.2.;.B..Xn.].).n.).).B.A.C.C.<.*.2.5.1.Y * # a + # d d d d d s # s s p g ",
"a l d l d d d d s g s s s @ p # * G  .-.W.u.&.1.2.2.2.A.y.v.x.p.,.y.C.C.<.=.2.2.2.>.H $ p p p j z j j j z z j j s p a s ",
"a j a g s d d d s s # s # @ # # # d 7 ) -.x.W.u.*.2.2.2.2.6.C.C.2.<.=.,.2.2.2.2.' 7 d @ # # p g g g l l l l j j s a p s ",
"a d a d s s s d s & s s s + # # a # j c A ! -.k.U.z.0.=.5.1.2.2.2.2.6.y.C.1.#.Z ; g d + @ # s # d j j j g j j d # s s s ",
"d a a l # @ @ # @ @ + # @   @ X @ @ O # @ $ 5 / -.8.U.{.[.!.Q.Q.!.{.(.G.` 3 * # & & @   + @ p O . # # @ @ # @ @ # @ o @ ",
"a a a l # d a a a a d a + + # p p O @ s g g g & > 5 F L M W E W T J 5 > d d d d d s + + p a # O @ s d d d d d d d j g z ",
"a a p d & d a # # a # @ j # # a s s d @ s s # s s # s s s d # d a d s a d d a & a d g p a a s d d @ d d d s d d g g s k ",
"a d d g d d a a a # a d l # p p s d d d @ & s d s d s % # s # a a d d d d d a # d g j p p s s d d d + d d g d d d g d j ",
"p d d l # @ @ # @ a d a j # p p # s d g d + # # s p + O + @ # d a d # # # @ @ s j a g # a p a d g d d # d s & # # % & # ",
"@ d d l s s s s # d a a d # # p p d g s g # l g l s # s p d # d a j s s d s @ j d a g s p s a d g d d d z z z g # s s g ",
"@ d d l d g s d & d a a d s # p p d g s g # l j j d p p p a s j j l d g s s # j d d g p a a s % k d g d z z z k a s s g ",
"@ d d l s g d d # d d a g p # # # d g g d @ j j l d # p a s d l j j d d s s & j d j g # p p a & k d d & j z z g p s s g ",
"a d d l # s s s @ d d d g + @ # # @ s d d O d s d s # @ # s d l l l & s s # # j j j d + p # s @ d d d # d g j s # s s d ",
"a d d l # # # # # d d d d # a d s s d g d s d d d d d s d d g l j z # # # @ + j l j g & g s s d d g d d g d d g j j j j ",
"@ d d l # a a # + d d d j a d d g j j j d d g d d j l l l g g z z z s s a a # g j d g d j d d d g j j j l g j j j j j z ",
"+ a a d # a a p + d d g z a d g g j g d s d d a s j j j g j d z z z s a s s # j j d d & d a a d d j j z g j j j j j j z ",
"@ a d d p a a p # d d g z # d g d g g g d d d a d d j j j l s l z z s s s s # g a d j # d a a d d g j z j j j j j g g z "
};
