/* XPM */
static char *diam_601702917715[] = {
/* columns rows colors chars-per-pixel */
"60 60 200 2 ",
"   c #011107",
".  c #031209",
"X  c #041A0E",
"o  c #09190D",
"O  c #09160D",
"+  c #0C1E13",
"@  c #031B12",
"#  c #0D2417",
"$  c #233C1F",
"%  c #062F22",
"&  c #192821",
"*  c #053223",
"=  c #06362A",
"-  c #093828",
";  c #023F2F",
":  c #063F30",
">  c #253C27",
",  c #2D3C35",
"<  c #054233",
"1  c #094232",
"2  c #074C3B",
"3  c #094D3C",
"4  c #094837",
"5  c #08432F",
"6  c #294225",
"7  c #2E4C2A",
"8  c #2B4627",
"9  c #324E27",
"0  c #314A2D",
"q  c #35532B",
"w  c #3A562E",
"e  c #3C592D",
"r  c #254A33",
"t  c #375133",
"y  c #225238",
"u  c #52773D",
"i  c #4D723C",
"p  c #0A4E41",
"a  c #0D5343",
"s  c #065444",
"d  c #3F4C45",
"f  c #056C55",
"g  c #026F59",
"h  c #02715C",
"j  c #236245",
"k  c #037A62",
"l  c #037762",
"z  c #404D46",
"x  c #4D5C55",
"c  c #557A40",
"v  c #5D6864",
"b  c #5C6765",
"n  c #6C7771",
"m  c #677969",
"M  c #3C8357",
"N  c #04826A",
"B  c #048066",
"V  c #018F73",
"C  c #098871",
"Z  c #009377",
"A  c #029478",
"S  c #04997D",
"D  c #5A8A40",
"F  c #52884C",
"G  c #638D4C",
"H  c #608A4B",
"J  c #66914C",
"K  c #6A944C",
"L  c #6F9E4D",
"P  c #719F4E",
"I  c #628454",
"U  c #678F50",
"Y  c #6C9352",
"T  c #6E9C53",
"R  c #669050",
"E  c #729C54",
"W  c #739C58",
"Q  c #73AE4B",
"!  c #71A04F",
"~  c #73B04A",
"^  c #79B34F",
"/  c #78A756",
"(  c #7BB354",
")  c #7FB658",
"_  c #77B353",
"`  c #699A62",
"'  c #7DA461",
"]  c #81BA4F",
"[  c #82BC54",
"{  c #81B659",
"}  c #83B95B",
"|  c #88BC5E",
" . c #88B266",
".. c #87BB60",
"X. c #8BBC62",
"o. c #8EBE6A",
"O. c #85B364",
"+. c #92BE6C",
"@. c #83AA67",
"#. c #87C059",
"$. c #8CC25D",
"%. c #8AC257",
"&. c #90C45E",
"*. c #92CA5C",
"=. c #8EC262",
"-. c #8FC16B",
";. c #92C563",
":. c #94CC62",
">. c #9ACE66",
",. c #92C36A",
"<. c #97C96C",
"1. c #9ACC6C",
"2. c #9CD16B",
"3. c #98D065",
"4. c #95C070",
"5. c #9DCB72",
"6. c #9AC772",
"7. c #9FD170",
"8. c #A5D677",
"9. c #A6D579",
"0. c #A8D67B",
"q. c #049F82",
"w. c #0C9F85",
"e. c #04A183",
"r. c #04A789",
"t. c #04AA8C",
"y. c #0CA38B",
"u. c #11A990",
"i. c #0BB396",
"p. c #05BB9A",
"a. c #08B998",
"s. c #15B295",
"d. c #498D82",
"f. c #7C8783",
"g. c #03C6A4",
"h. c #0AC5A5",
"j. c #04C8A4",
"k. c #14C9AF",
"l. c #15C7AD",
"z. c #16CCB3",
"x. c #04D6B1",
"c. c #06D9B3",
"v. c #12DDBF",
"b. c #3FC9BC",
"n. c #36C7B6",
"m. c #02E2BB",
"M. c #08E0BB",
"N. c #1FE7C6",
"B. c #1FE7CC",
"V. c #05F5CB",
"C. c #0AF3CB",
"Z. c #0DF8D5",
"A. c #1DF7DF",
"S. c #13F8D7",
"D. c #05E5C0",
"F. c #20E8D3",
"G. c #36EDD7",
"H. c #1DFDE4",
"J. c #1EFFE9",
"K. c #1EF7E2",
"L. c #21FCE5",
"P. c #21FFE9",
"I. c #3AFDEA",
"U. c #4AD2C4",
"Y. c #7EDCCC",
"T. c #56FDEB",
"R. c #64EFEA",
"E. c #65F0EB",
"W. c #7AF8E8",
"Q. c #75FFFF",
"!. c #7BFBF1",
"~. c #818C86",
"^. c #87928E",
"/. c #B1BEB7",
"(. c #BAE1DE",
"). c #87F2E4",
"_. c #87FFFE",
"`. c #8BFFFE",
"'. c #82FDF2",
"]. c #96FFFF",
"[. c #99FFFE",
"{. c #95FCF3",
"}. c #ABFEFE",
"|. c #A4FDF9",
" X c #B3FEFE",
".X c #B8FEFC",
"XX c #C2C8C6",
"oX c #D4D8D7",
"OX c #DBDFDE",
"+X c #C9E2DF",
"@X c #C2FEFD",
"#X c #CCFEFB",
"$X c #C6FDF7",
"%X c #D4FEFD",
"&X c #DCFEFD",
"*X c #E5FFFE",
"=X c #EBFEFE",
"-X c #F5FFFE",
";X c #FEFFFE",
":X c #E3ECEB",
/* pixels */
"*.*.*.$.{ { $.:.:.:.8.8.9.9.8.0.,.~ ~ ~ 8.9.0.6.,.+.X.} } } :.:.:.[ Q Q [ :.:.:.} { { } } } $.*.*.*.} } } } } } $.*.*.*.",
"*.*.*.%.} } $.:.:.:.8.8.9.9.0.8.=.~ Q ~ 8.9.8.6.+.+.X.} } } :.:.:.[ Q Q [ :.:.:.} ) } } } } } *.*.*.} } } } } { #.*.*.*.",
"*.*.*.| } } $.:.:.:.8.9.9.8.9.8.-.Q Q Q 8.9.8.6.+.+.o.} } } :.:.:.[ ~ ^ [ :.:.:.} { ) } } { $.*.*.*.} } } { } } $.*.*.*.",
"*.*.*.$.....$.*.*.:.8.8.9.7.1.1.=.( ( ) 2.2.2.2.5.5.,.} } } :.:.*.*.] [ %.*.:.*.} } } } } } =.7.8.2.} } } $.$.$.%.*.*.*.",
"*.*.*.;.X.X.X.*.*.*.0.8.0.>.*.*.=.) } } :.:.:.7.0.0.6.} { } 3.:.:.*.*.*.*.*.*.*.} } } } } } ;.8.0.9.{ } } $.*.*.*.*.*.*.",
"*.*.*.&.X.X.&.*.*.*.8.8.9.>.*.*.$.#.{ } :.:.:.2.8.8.<.} } } :.:.*.*.*.*.*.*.*.*.} } } ) } } <.9.9.9.} { } %.*.*.*.*.*.*.",
"*.*.*.&.X.X.X.$.$.$.6.,.<.1.>.>.<...X.X.=.=.&.<.6.,.;.......;.:.&.&.$.$.$.%.$.$.$.#.$.$.=.#.:.2.2.7.#.#.#.*.*.*.*.$.$.$.",
"*.*.*.X.X.X.} } { } } [ { 6.9.0.7.-.+.+.{ } } } } } | X.X.X.....| | } } } } } } *.*.*.*.:.:.:.&.*.*.*.*.*.*.*.*.$.} } } ",
"*.*.*.$.X.X.| } } } } { } <.8.9.5.+.+.+...} } / T L E / W W W E W W T T / } } } *.*.*.*.:.:.*.*.*.*.*.*.*.*.*.*.$.} } { ",
"%.*.*.$.| X.| { } } } | } 6.9.9.5.+.+.,.} } } c       .     .           i } } } *.*.:.*.:.:.:.*.*.:.*.*.*.*.*.*.$.} } } ",
"Q Q Q ] } } } } } } 9.9.9.8.0.8.5.+.+.X...} { c                         u *.*.*.} } } } | } ;.8.8.8.0.8.8.>.*.*.$.} } } ",
"Q Q Q ( } } } } { { 8.9.0.0.8.0.5.+.+.-.O.O.) I , , , , , , , , , , , , I &.=.&.} } } } } } ,.0.8.0.0.0.0.:.*.*.$.} } } ",
"Q Q ^ { } { { } } | 8.0.8.0.8.0.5.+.+.+.0 + + f.;X;X;X;X;X;X;X;X;X;X;X;X^.+ + r } } } } } } ;.0.0.0.8.0.8.2.&.*.$.} } } ",
"[ [ [ X.o.X.} ( ( ( <.4.<.1.>.>.:.| ....$ .   f.;X;X;X;X;X;X;X;X;X;X;X;X~.. . > } } } ;.1.6.,.;.,.;.<.6.5.;.;.;.$.$.$.$.",
"*.*.*.;.+.+.} Q Q Q X.X.X.&.*.*.| { } } 6 O X f.;X;X;X;X;X;X;X;X-X;X;X;X~.X . > } } } 1.9.9.,.{ { } ,.+.+.o.....&.*.*.*.",
"*.*.*.:.+.+.| Q Q Q X.X.X.&.*.*.( t 0 0 /.XXXX(. X X X X X}. X X X&X=X:X).a.h.s.7 t t  .9.9.1.} { } +.+.+.o.X.X.$.*.*.*.",
"*.*.*.&.;.&.$.[ [ [ $.$.$.=.$.$.P o     OX;X;X#X[.].].].].].].].].@X*X*XW.V.V.c.  . o / 6.1.;.} } } =.-.=.=.=.=.$.$.$.$.",
"*.*.*.*.*.*.*.*.*.*.*.*.*.$.} { K o     OX;X;X%X].].].].].].].].].#X=X*XW.V.V.c..   O K } } } } } } ) } ) $.:.:.;.} } } ",
"*.*.*.*.*.*.*.*.*.*.*.*.*.} H I I n n n :X-X-X#X].].].].[.[..X#X@X|.{.{.T.S.Z.v..   o K } } } } } } } } ) =.:.:.&.} } } ",
"*.*.*.*.*.*.*.*.&.*.*.*.*.K .   d ;X;X;X=X*X*X.X].].].].].[.-X;X;X!.P.P.J.J.L.B.    o Y } } | } } } ) ..#.=.:.:.&.} } } ",
"0.0.8.>.*.*.>.8.8.9.X.X.X.J . . z ;X;X;X=X*X=X@X].].].].].[.;X;X;X!.J.P.L.J.P.F.. . + O.8.8.7.:.:.:.*.:.*.:.:.:.:.:.:.:.",
"0.0.0.>.*.*.2.0.8.8.X.X.X.R . . t ;X;X;X%X%X#X@X.X.X X}.}. X-X-X;X{.T.T.I.P.J.F.3 3 a `  . .<.*.:.:.*.*.*.*.:.:.:.:.:.:.",
"0.0.0.>.*.*.1.8.8.8.X.X.X.R .   z ;X;X;X}.].].#X;X;X-X=X*X*X*X=X*X*X*X*X'.P.J.J.V.V.C.3   . E <.:.:.*.*.*.:.:.:.:.:.:.:.",
"1.>.>.$.} [ &.2.2.2.&.&.&.K .   z ;X;X;X}.].].$X;X;X-X*X*X*X*X*X*X*X*X*X'.P.J.H.V.V.V.3   . K *.*.*.*.*.:.=.=.#.=.=.#.=.",
"*.*.*.[ ( ( [ *.*.*.*.&.&.E & & x -X-X-X}.|.[.$X-X-X=X&X&X&X&X&X&X&X&X&X!.A.K.K.V.C.C.3     K *.*.*.:.:.:.$.) } } } } } ",
"*.*.*.[ ( ( [ *.*.*.u 6 6 m oXoX+X}.}.}.=X=X-X@X].`.`._.`._._._._._.`.`.U.r.r.i.H.H.L.a     J *.*.:.:.:.:.$.} } { { } } ",
"*.*.*.$.#.} %.*.*.*.q     v ;X;X*X].].].-X;X;X@XQ.Q.Q.Q.Q.Q.Q.Q.Q.Q.Q.Q.b.Z Z q.L.P.L.a     K $.$.$.;.$.$.,.<.=.;.} } } ",
"*.*.*.*.*.:.*.*.*.*.q     v ;X;X*X[.].].-X;X;X@XQ.Q.Q.Q.Q.Q.Q.Q.Q.Q.Q.Q.b.Z Z w.P.J.L.a   O J } } ) } } } <.0.9.<.} } } ",
"*.*.*.*.:.:.*.*.*.&.q   . v ;X;X*X[.].].*X-X-X.XQ.Q.Q.Q.Q.Q.Q.Q.Q.Q.Q.Q.b.A Z q.P.P.P.u.C C M u c D } } } <.9.9.6.} } } ",
"*.:.*.*.:.:.:.*.:.*.q     v ;X;X*X[.].].&X*X*X}.Q.Q.Q.Q.Q.Q.Q.Q.Q.Q.Q.Q.b.Z Z q.P.P.P.Z.V.V.f   . 7 } } } <.9.9.<.} } } ",
"} } } $.*.*.2.8.9.8.q     v ;X;X*X].].].%X*X*X XQ.Q.Q.Q.Q.Q.Q.Q.Q.Q.Q.Q.b.S Z e.P.J.J.Z.V.V.f   . 7 } } } } =.X.&.*.&.*.",
"} } { *.*.*.>.0.0.9.q     v ;X;X=X.X.X.X).).).!.Q.Q.Q.Q.Q.Q.Q.Q.Q.Q.Q.Q.b.Z Z S l.l.l.h.p.p.s     7 } } } ..X...| *.*.*.",
"} } } $.*.*.2.8.8.9.q     v ;X;X-X=X*X*XN.c.m.G.Q.Q.Q.Q.Q.Q.Q.Q.Q.Q.Q.Q.b.Z Z V g g g g g g =     8 } } } } X.X.=.*.*.*.",
"X.o.X.=.#.$.<.8.8.9.w     v ;X;X-X*X=X*XB.m.m.G.Q.Q.Q.Q.Q.Q.Q.Q.Q.Q.Q.Q.b.A Z Z h g h h h g =     9 | | | | &.;.$.=.&.=.",
"o.+.-.X.} } <.9.9.9.w .   v ;X;X-X#X#X#XB.m.D.G.R.R.E.E.E.E.R.R.R.R.R.E.n.e.q.q.B B B l h h =     9 X.| X.&.*.*.;.X...X.",
"+.+.+...} } =.0.8.9.e . . v ;X;X#XI.I.I.H.H.H.z.w.w.w.w.w.w.w.w.w.w.w.w.p.c.x.c.x.x.x.e.Z Z <     9 X.X.X.&.*.*.;.X.X.X.",
"6.6.6.-.$.=.=.<.<.1.q     v ;X;X#XL.L.P.J.P.J.k.Z Z Z Z Z Z Z Z Z Z Z Z p.m.m.m.m.m.m.r.Z Z <     9 <.<.<.*.*.*.| | | | ",
"9.0.9.2.:.:.=.} } { q . . v ;X;X#XP.P.P.P.P.P.k.A Z Z Z Z Z Z Z Z Z Z Z p.m.m.m.m.M.M.t.Z Z 1 .   q 8.9.0.3.*.*.$.} } } ",
"9.9.9.2.:.:.$.} } } ! J J I v v d.L.J.P.i.y.y.i.j.j.j.g.g.g.g.g.g.g.g.g.i.A S e.m.m.M.f ; : F E ! { 8.0.0.>.*.*.$.{ [ } ",
"9.9.9.2.:.:.$.} } } { { { H .   3 L.P.P.C h h r.m.m.m.m.m.m.m.m.m.m.m.m.t.g g k m.m.m.2     L :.*.<.8.8.0.>.*.*.$.| } | ",
"} } } ;.:.:.;.,.,.,.} } } J . . 2 L.L.P.C h g r.m.m.m.m.m.m.m.m.m.m.m.m.t.h h k M.m.m.4   . Y X.X.X.:.:.:.*.*.*.;.X.X.X.",
"} } } $.:.:.;.+.+.+.} } } J . . 4 S.S.S.N g h r.m.m.m.m.m.m.m.m.m.m.m.m.t.h h k p.p.a.5   . Y ....X.:.:.:.:.*.*.;.X.X.X.",
"} } } &.:.:.;.o.+.,...} } J . . 4 C.V.V.N h h r.m.m.m.m.m.m.m.m.m.m.m.m.t.h h l Z Z A *   . Y X.X.X.*.:.:.*.*.*.&...X.X.",
"} } } [ } [ =.5.5.5.$.$.$.K . . < V.V.V.N h g r.m.m.m.m.m.m.m.m.m.m.m.m.t.g h h Z Z A -   . K &.&.;.:.:.:.:.&.X.| ( ( ( ",
"} } } ^ Q Q ..9.9.9.*.*.*.! 6 6 j h.h.j.N h h t.m.m.m.m.m.m.m.m.m.m.m.m.t.k k h k k k y 6 6 P *.*.*.:.:.:.=.X. .} Q Q Q ",
"} } } ^ Q Q =.8.9.9.*.*.*.$.{ { / & # X N Z Z a.m.m.m.m.m.m.m.m.m.m.m.m.p.Z Z N X . # E } } | *.*.*.:.:.:.;.X.X.{ Q Q Q ",
"} } } ) ( _ ..1.<.1.;.;.:.&.$.=./ +     N A A a.m.m.m.m.c.m.m.m.m.m.m.m.p.A A N .   o E { [ %.*.:.:.1.1.1.;.{ { { ^ ^ _ ",
"} } } } } } } } } } o.,.-.=.*.&./ #   . N A A a.m.m.m.m.m.m.m.m.m.m.m.m.p.Z S N .   o E } { $.:.:.:.0.8.9.=.^ ^ { { { { ",
"} } ) } } } } } } ..-.o.+.;.:.*.>.+.+.+.r % % - 1 1 1 1 1 1 1 1 1 1 1 1 - # * y +.+.+.+.( } $.*.:.>.0.8.9.=.( ( } { } { ",
"} } } } #.} } } } } -.-.,.;.*.*.>.0.8.8.>                       . . .         > 9.9.0.,.} { | :.>.:.8.8.8.=./ ( ( { { { ",
"*.*.*.$.X.....) } } } } ..<.8.8.5.+.+.+.>                             .       > | } } ( Q Q { +.+.-.*.*.*.$.} } { Q Q ^ ",
"*.*.*.=.X.=.....} } } } { 6.8.0.5.+.+.+.E J G J K G H D D D Y U Y G H H Y ' ' @.} } } ^ ~ Q { +.+.+.*.*.*.$.} } ( Q Q Q ",
"*.*.*.$.X.X...) } { } } } 1.9.9.5.+.+.,.{ } } { } } ( Q Q Q | X.X.} { { ,.0.8.9.} } } ^ Q Q { +.,.,.*.*.*.$.) ) ( Q Q ~ ",
"*.*.*.<.<.5.,.-.X.X.} } } X.,.;.-.....X.( ( ( { } } } } | } ;.;.;.;.&.$.$.X...=.( { { ^ Q Q ( ..X...&.*.*.$.} } } ) ( ( ",
"*.*.*.2.9.9.5.-.+.o.} } } } } } } { } } Q Q Q ( [ | | +.+.+.:.:.:.:.*.:.#.Q Q Q / ( ^ Q Q Q ( } } } *.*.*.$.} } } } { } ",
"*.*.*.8.9.8.5.,.+.,.} { { } } } } } } } Q ~ ~ ( } } X.+.+.+.:.*.:.:.<.:.#.Q Q Q _ _ _ Q Q Q ( } } ..*.*.*.$.} } { } } { ",
"*.*.*.*.;.;.;.;.;.+.} } } } } } } $.$.} ~ Q Q [ | $.;.;.,.;.:.;.&.*.*.:.&.$.#.=.) ( ) ) [ [ { X.X.X.1.2.2.=.{ } } ..X.X.",
"%.*.*.[ ~ ~ [ *.*.*.} } } } } } $.*.*.*.~ ~ Q [ *.:.:.:.:.:.o.X.X.;.*.*.>.0.8.9.) ..} $.*.*.;.+.+.,.8.9.9.,.} } X.,.,.+.",
"*.*.*.[ Q Q ^ *.*.*.| { } } [ { #.*.*.*.~ ~ ~ #.*.:.:.:.:.:.X.X.| =.*.*.>.0.8.0.} } } $.*.*.;.+.+.+.9.9.8.,.{ ..X.+.+.+.",
"*.*.*.[ ~ ~ ] *.*.*.} } } } } | %.*.*.*.~ ~ Q #.:.:.:.:.:.:.X...X.;.*.*.2.8.8.0.} { { *.*.*.;.,.+.+.0.9.8.-.} } X.+.+.+."
};
