/* XPM */
static char *enemies_601702920772[] = {
/* columns rows colors chars-per-pixel */
"60 60 176 2 ",
"   c #010101",
".  c #0A0A0A",
"X  c #101010",
"o  c #1E1D1D",
"O  c #282828",
"+  c #323232",
"@  c #77250D",
"#  c #78260E",
"$  c #7F2911",
"%  c #7B3D18",
"&  c #444444",
"*  c #4C4C4C",
"=  c #555555",
"-  c #585657",
";  c #5D5C5C",
":  c #565658",
">  c #656564",
",  c #6E6D6D",
"<  c gray47",
"1  c gray46",
"2  c #842A12",
"3  c #8C2D14",
"4  c #922F15",
"5  c #922F18",
"6  c #8F3118",
"7  c #923017",
"8  c #9D3216",
"9  c #943119",
"0  c #9B3218",
"q  c #A53415",
"w  c #AA3413",
"e  c #A43519",
"r  c #AD3619",
"t  c #A9381A",
"y  c #B53715",
"u  c #B43816",
"i  c #BA3A14",
"p  c #B03719",
"a  c #B83718",
"s  c #B63919",
"d  c #BB3A19",
"f  c #C33C17",
"g  c #C23C19",
"h  c #CD3F1A",
"j  c #CA3F16",
"k  c #D13F1A",
"l  c #90421E",
"z  c #8D4220",
"x  c #8D4C25",
"c  c #914322",
"v  c #934A24",
"b  c #9A4F23",
"n  c #924E29",
"m  c #8B5C2E",
"M  c #9D5326",
"N  c #9A5E2C",
"B  c #935228",
"V  c #A14F27",
"C  c #A35224",
"Z  c #AC5527",
"A  c #A65528",
"S  c #AA542A",
"D  c #B35524",
"F  c #BF5627",
"G  c #BB5B27",
"H  c #B45829",
"J  c #BC5B29",
"K  c #9E622E",
"L  c #9C682F",
"P  c #9B7A37",
"I  c #A6652C",
"U  c #AB642C",
"Y  c #B4662E",
"T  c #BA662E",
"R  c #A76430",
"E  c #B36631",
"W  c #B36932",
"Q  c #BA6A31",
"!  c #B67439",
"~  c #BB703C",
"^  c #CE401A",
"/  c #D2411B",
"(  c #DC431A",
")  c #C15625",
"_  c #CA5625",
"`  c #CB5927",
"'  c #C75C28",
"]  c #CC5B2A",
"[  c #C1662F",
"{  c #CC6028",
"}  c #C46B31",
"|  c #7DA34E",
" . c #73AE4B",
".. c #73B04A",
"X. c #79B34F",
"o. c #7EAF54",
"O. c #7DB355",
"+. c #7EB558",
"@. c #81A64F",
"#. c #80AB4F",
"$. c #81A651",
"%. c #83AC53",
"&. c #83B454",
"*. c #8CB356",
"=. c #82BC53",
"-. c #8BB856",
";. c #83B65A",
":. c #8BB458",
">. c #83B95B",
",. c #8BBC5C",
"<. c #93BD57",
"1. c #91BB5D",
"2. c #81817F",
"3. c #87B960",
"4. c #8BBB63",
"5. c #8DBD6A",
"6. c #93BE62",
"7. c #92BE6C",
"8. c #9CBF61",
"9. c #93BC70",
"0. c #87C057",
"q. c #87C059",
"w. c #8CC25D",
"e. c #8CC457",
"r. c #94C35C",
"t. c #92CA5C",
"y. c #8FC362",
"u. c #91C463",
"i. c #94CC62",
"p. c #9BCD67",
"a. c #93C46A",
"s. c #9BCE6C",
"d. c #9DD16C",
"f. c #9AC772",
"g. c #9CCB73",
"h. c #9DD071",
"j. c #A1C667",
"k. c #A5D677",
"l. c #A6D57A",
"z. c #A8D67B",
"x. c #848483",
"c. c #8D8B8C",
"v. c #949393",
"b. c #A9AC99",
"n. c #AEA5A3",
"m. c #AFAFAF",
"M. c #B1A7A4",
"N. c #B1A8A3",
"B. c #ACB5A3",
"V. c #BBB3AE",
"C. c #AFAFB1",
"Z. c #B1AFB0",
"A. c #AFB1B0",
"S. c #B0B0B0",
"D. c #BCBCBC",
"F. c #BDB6B0",
"G. c #C2B9B3",
"H. c #B4C0AC",
"J. c #BECAB6",
"K. c #B9C2B1",
"L. c #C2CDB5",
"P. c #C0C0BE",
"I. c #CCC3BC",
"U. c #C4CDBB",
"Y. c #C2C2C1",
"T. c #C8CEC1",
"R. c #CECECD",
"E. c #D1CEC9",
"W. c #CFD0CB",
"Q. c #D3D3CF",
"!. c #CECED0",
"~. c #D6D4D4",
"^. c #D9D5D6",
"/. c #DFD9DB",
"(. c #E2D7DB",
"). c #E1D8DB",
/* pixels */
"t.t.t.q.>.>.w.t.i.i.l.k.l.l.k.z.a. . ...l.l.l.f.a.7.4.>.>.>.i.i.i.=.....=.i.i.i.>.>.+.>.>.>.w.t.t.t.>.>.>.>.>.>.0.t.t.t.",
"t.t.t.,.>.>.w.i.i.i.k.k.l.l.z.k.y... . .l.l.k.s.5.7.4.>.>.>.i.i.i.=. . .=.i.i.i.>.+.>.>.>.>.,.t.t.t.>.>.>.>.>.>.w.t.t.t.",
"t.t.t.w.>.>.w.i.i.i.k.l.l.k.k.k.y. . . .k.l.k.f.7.7.4.>.>.>.i.i.i.=.....=.i.i.i.>.+.=.>.>.>.,.r.t.t.>.>.>.>.>.>.,.t.t.t.",
"t.t.t.w.3.3.w.t.i.t.l.l.l.g.d.p.y.O.+.+.d.d.j.g.g.g.a.>.>.q.i.i.i.e.=.=.w.t.i.t.>.>.>.>.>.>.w.k.d.d.>.>.>.w.w.w.e.t.t.t.",
"t.t.t.w.! } T T T T E E E U N N R Q Q } Q Q T W Y W I N K K } } } } Q Q Y U U U N N N E [ } ~ ~ ~ ~ I I I L L P e.t.t.t.",
"t.t.t.1.{ ( / g h g i i i p q e d ( ( ( h j h f i i p e e e ( ( ( ^ g j f i i i e e e h ( ( / h j g i i i w e C r.t.t.t.",
"t.t.t.4.] ( ( g g h u y y w e e s ( ( ( g g h a y y r e e 8 ( ( ( / g f d y y y 8 e 8 j ( ( k g g h y i y e 0 M <.w.e.w.",
"t.t.t.u.] ( / g g f r w w 8 7 7 p ( ( ( g g g p w w 8 6 9 9 ( ( ( / f g i w w q 7 7 7 g ( ( h f g d w w w 0 9 v -.>.>.>.",
"t.t.t.1.] ( / g g ^ q w w 8 4 7 u ( ( ( g g g u w w 8 7 7 7 ( ( ( h g g p w w q 5 6 5 h ( ( h g f g w w w 8 4 v :.>.>.>.",
"t.t.t.,.] ( / f f g w w w 8 7 7 p ( ( ( g g g u w w 8 7 7 7 ( ( ( h g g u w w w 5 9 9 g ( ( / f g g w q w 8 4 v -.>.>.>.",
" . . .%.] ( / g g f w w w 8 7 7 p ( ( ( g d g y w w 8 7 7 7 ( ( ( ^ g g u w w q 7 7 9 g ( ( h g f d w w w 7 4 v -.;.>.>.",
" . . .O.' ( / g f f r w w 8 7 7 p ( ( ( g g d u w w 8 7 7 0 ( ( ( h g g u w w w 7 7 9 g ( ( h g g g w w w 0 7 v :.>.>.>.",
" ... .%.' ( / g g ^ r w w 8 7 7 p ( ( ( g g g u w w 8 7 7 0 ( ( ( ^ g g u w w w 4 7 7 f ( ( / g g g w w w 8 5 c :.>.>.>.",
"0.=.,.,.` ( / g d d w w w 8 7 7 p ( ( ( g g g u w w 8 7 7 7 ( ( ( h d g u w w q 9 7 9 g ( ( h f f d w q w 4 5 v *.w.w.w.",
"t.t.t.8.] ( / g g d t w w 8 4 7 p ( ( ( g g g u w w e 7 7 9 ( ( ( h f f u w w q 5 9 9 g ( ( h g g g w w w 8 3 z *.t.t.t.",
"t.t.t.r.] ( / g g ^ r w w 8 7 7 p ( ( ( g g d u w w 8 7 7 9 ( ( ( h f f u w w q 7 9 9 g ( ( h g g g w w w 8 5 v *.t.t.t.",
"t.t.t.r.] ( / g g g w w w 8 4 9 p ( ( ( g g g y w w 8 7 7 7 ( ( ( ^ g g p r w q 4 5 9 g ( ( / f g d w w w 4 4 x -.w.w.y.",
"t.t.t.r.{ ( / g f f r w w 8 9 0 p ( ( ( d f g p w w q 7 7 7 ( ( ( ^ g g u q w w 5 4 9 g ( ( ^ g g f w w w 8 5 v ,.>.>.>.",
"t.t.t.r.{ ( / g g f r w w 8 7 4 p ( ( ( f g f y w w 8 7 9 9 ( ( ( ^ d f u w w q 9 9 5 g ( ( k g g g w w w 8 9 v *.>.>.>.",
"t.t.i.r.{ ( / g g g w w w 8 7 5 t ( ( ( g g g p w w 8 7 9 0 ( ( ( ^ g f d w w q 9 9 9 g ( ( h g g d w w w 9 9 b :.>.>.>.",
"z.z.k.j.L.T.E.E.R.R.E.T.T.R.E.!.~.).).).).).).).(.(././././.R.R.R.~.).).).(.(.^.R.R.!.R.R.R.~.).(.(.).(.).Q.Q.L.s.i.i.i.",
"z.z.z.d.J.Q.Q.T.W.R.R.Q.W.R.R.R.~././.)./././././././.^././.R.R.!.^.)./.)./././.R.R.W.!.R.R.~././././././.Q.W.L.s.t.i.i.",
"z.l.l.d.L.R.W.R.E.T.R.T.R.W.R.R.~./././././././././././././.R.R.R.~./.)././././.!.R.R.R.R.R.~././././././.Q.W.U.s.u.i.i.",
"d.p.d.u.J.E.T.R.Q.E.; - - = - - - ; ; ; ~.Q.~.c.; ; v.~.~.~.^.~.~.c.; ; v.~.~.R.- = : - - : ; ; - , /.)./.Q.W.J.a.y.q.y.",
"t.t.t.3.J.!.R.R.R.R..                   R.R.W.:     ; !.!.~././.).=     > R.!.D.                  o (././.Q.R.L.5.+.>.>.",
"t.t.t.q.J.W.R.R.T.R..                   R.R.!.=     ; !.!.R./././.=     > R.!.P.                  o /././.~.R.L.5.>.>.>.",
"t.t.t.w.J.R.R.W.R.R.> ; ; O     O ; ; ; R.!.R.:     + < 1 < ~.~.~.*     > R.R.Y.; ; ; o     + ; ; , ^.^.~.~.R.U.a.3.>.>.",
"t.t.t.i.L.R.R.R.R.R.R.!.Q.>     * R.R.!.R.R.R.-           . !.R.R.*     > !.!.R.R.R.R.&     , !.R.R.R.R.R.R.R.T.g.>.+.>.",
"t.t.t.p.L.!.R.!.R.!.R.!.!.;     = R.R.R.R.R.R.=           . ~.R.!.*     > R.R.R.R.R.!.&     , R.R.R.R.!.R.R.R.T.g.>.>.>.",
"t.t.t.i.L.!.R.R.R.!.R.R.!.;     = R.R.!.!.R.!.-       . . . R.Y.Y.* .   > R.!.R.R.R.R.&     , !.R.!.R.R.R.R.R.T.g.;.>.3.",
">.>.>.y.L.!.R.R.R.R.!.R.!.>     * !.R.!.R.!.R.-     ; ~.!.Y.            > !.R.!.!.R.!.&     , R.!.R.R.R.R.!.R.T.a.i.t.t.",
">.>.>.y.J.R.R.R.!.R.R.R.R.;     = R.R.R.R.R.R.-     ; R.R.R.            > R.R.!.R.R.R.&     , !.!.R.R.!.R.!.!.J.a.t.t.t.",
">.>.>.y.L.!.R.!.!.!.R.R.R.;     * R.!.!.!.R.R.-     ; R.R.R.            > !.R.R.R.!.R.&     , R.R.R.R.R.R.R.!.U.5.t.t.t.",
"5.5.4.y.J.R.Y.D.D.D.D.D.D.=     = R.R.R.D.D.D.*     ; R.R.R.x.x.x.+     > R.R.!.R.R.R.&     > D.D.D.D.D.D.Y.R.T.a.y.y.y.",
"7.7.5.5.J.!.Y.C.m.S.S.S.S.*     = R.R.!.C.Z.A.*     ; !.!.R.R.!.R.*     > !.R.!.R.R.R.&     ; C.S.S.S.S.A.R.!.U.a.4.4.3.",
"a.7.5.5.L.!.Y.C.C.S.S.S.S.=     = !.R.!.Z.A.Z.*     ; R.R.R.!.!.R.*     > R.R.!.!.R.!.&     ; C.S.S.S.Z.C.Y.R.U.a.4.4.4.",
"f.f.f.a.H.Y.D.C.C.S.K.D.D.x.; - x.D.P.P.P.D.D.x.: : x.J.Y.Y.P.P.P.x.> > v.J.Y.Y.P.P.P.x.> > c.S.S.S.S.S.C.D.P.K.a.,.,.4.",
"l.z.k.d.B.A.S.S.S.m.R.W.W.D.S.A.S.Z.Z.A.W.W.R.D.S.S.S.S.C.C.Z.Z.S.Y.R.W.P.Z.Z.A.C.Z.Z.T.R.W.K.S.A.Z.S.S.C.C.C.B.a.;.>.>.",
"z.l.l.g.B.S.S.A.S.S.R.R.R.D.C.A.m.Z.m.m.W.R.W.K.S.S.S.S.C.Z.C.Z.S.Y.E.W.P.Z.Z.Z.Z.C.Z.Y.E.Q.P.S.Z.A.S.S.C.S.m.B.4.>.>.>.",
"l.l.l.g.b.n.N.N.N.n.I.I.I.V.n.n.n.N.N.N.I.I.I.F.n.n.n.n.n.n.n.M.N.G.I.I.V.n.n.n.n.n.n.G.I.G.G.M.M.N.n.n.n.n.n.b.a.;.>.>.",
">.>.-.1.Z s p w w w 7 7 9 2 @ @ 4 a s s w w w 8 7 7 2 @ # @ s s u u w w 8 7 4 4 @ @ @ 8 a s r w w q 4 5 5 2 @ % *.5.4.4.",
">.>.>.,.D s u w w w 7 4 7 2 @ @ 4 s s s w w w 8 7 4 2 @ @ @ d s s w w w 8 7 7 7 @ @ @ e s a r w w w 5 4 4 $ @ % %.4.4.4.",
">.>.>.1.Z a p w w w 7 4 4 2 @ @ 4 s s a w w w 0 9 7 2 @ @ @ s s d r w w 8 7 7 4 @ @ @ e s s p w w q 4 4 7 # # % *.4.4.4.",
">.>.>.%.F k j d d d q q e 7 3 3 e / k k d d d w q e 0 3 3 3 h k / g d d w q e 8 3 3 3 s / / f i a y q 8 e 4 3 l %.&.+.+.",
">.>.>.%._ ( / f d ^ w w w 8 7 4 p ( ( ( g g f p w w 8 4 7 9 ( ( ( h f f y w w q 4 5 9 h ( ( h f g g w w w 0 9 c $. . . .",
">.>.;.o._ ( / f f g w w w 0 7 7 a ( ( ( g f f u w w 8 4 5 9 ( ( ( h d f u w w w 9 6 9 g ( ( ^ f g g w w w 0 5 c $. . . .",
">.>.>.#.` ( / g f g w w w 8 7 7 p k ( ( g g d u w w 8 7 9 9 ( ( ( ^ g f u w w q 5 7 9 g ( ( h g f d w w w 8 5 z | X.o.X.",
">.>.>.*.] ( / d d ^ w w w 0 7 4 p ( ( ( g g f u w w e 4 4 0 ( ( ( ^ g g u w w q 9 4 9 g ( ( k f g g w w w 4 4 z $.;.>.>.",
">.>.>.*._ ( k g g g r w q 8 7 4 p ( ( ( f f g p w w 8 7 7 9 ( ( ( h g f s q w q 6 9 4 g ( ( ^ g d g r w w 8 4 l $.;.+.>.",
">.>.;.*.` ( / g g f w w w 8 7 7 p ( ( ( g g g p w w 8 7 7 9 ( ( ( ^ g g u w w w 4 9 9 g ( ( ^ f g d w w w 7 4 l $.>.>.;.",
"t.t.t.1.] ( / g g f r w w 8 4 9 p ( ( ( g g f u w w 8 9 9 9 ( ( ( h g g u w w q 7 4 9 h ( ( / g g g w q w 7 7 l |  . . .",
"t.t.t.,.` ( / f f f r w w 8 7 7 p ( ( ( d f f u w w 8 9 7 9 ( ( ( h g d u w w q 7 9 6 g ( ( h f g g w w w 0 4 l $. . . .",
"t.t.r.1.` k k h f g w w w 8 5 5 p ( ( ( g g f s w w e 4 4 7 ( ( ( ^ ^ f u w w q 7 7 7 f ( ( h f g g w w w 0 7 c |  . . .",
"t.t.t.8._ h f a d s w e e 8 5 4 w h h h s s a r e e 0 5 7 7 h h ^ s p s u q r e 7 7 7 u h h f a u u t q w 7 4 l $.+.+.+.",
"t.t.t.p.) f d a p p q q q 0 5 5 q f f f p r r t e e 8 7 7 0 f f g u p u w 8 e e 7 7 7 y f f i r p p e e e 0 9 c %.>.;.>.",
"t.t.i.j.~ F H S S A M M M b v x M D G D C C C C b M M n n n G J G H A Z A b b b x x x C D D Z S A A A M M B x m %.>.>.>.",
"t.t.e.u.1.6.1.1.6.6.&.:.;.&.;.;.:.-.-.,. . . .&.,.1.6.6.6.6.u.6.w.r.r.r.r.,.3.3.O.O.&.O.=.&.-.4.4.4.p.p.p.w.>.;.>.4.4.4.",
"t.t.t.=. . .=.t.t.r.>.>.>.>.;.>.w.t.t.t... . .=.t.i.i.i.i.i.4.4.4.u.t.t.d.k.k.l.>.>.>.e.t.t.u.7.a.7.l.k.l.a.>.>.4.7.7.7.",
"t.t.t.=.....O.t.t.t.>.>.>.>.>.>.w.t.t.t... ...q.t.i.i.i.i.i.4.4.,.u.t.t.p.k.z.k.>.>.;.t.t.t.u.7.a.u.l.l.l.a.>.>.3.7.a.5.",
"t.t.t.=.....=.t.t.t.>.>.>.>.>.>.w.t.t.t... . .=.i.i.i.i.i.i.4.4.6.u.t.t.s.l.k.k.>.;.>.y.t.t.u.7.a.i.b.l.l.a.>.+.4.7.7.7."
};
