/* XPM */
static char *f352c695769b4ff497bde51e26a192f8rsvCFET9jfRRbYFO[] = {
/* columns rows colors chars-per-pixel */
"60 60 151 2 ",
"   c #000001",
".  c #060807",
"X  c #06050A",
"o  c #08050E",
"O  c #070809",
"+  c #0A0613",
"@  c #0B0815",
"#  c #0F071C",
"$  c #0F0819",
"%  c #110513",
"&  c #100718",
"*  c #11091D",
"=  c #140C24",
"-  c #170D29",
";  c #190E2C",
":  c #1D0F30",
">  c #1C1033",
",  c #1F1339",
"<  c #211337",
"1  c #22133B",
"2  c #242C2F",
"3  c #252D34",
"4  c #282F35",
"5  c #272E38",
"6  c #263035",
"7  c #2A3236",
"8  c #273139",
"9  c #2C353C",
"0  c #2E383E",
"q  c #30373E",
"w  c #313A3E",
"e  c #261643",
"r  c #281646",
"t  c #271843",
"y  c #281648",
"u  c #2B194B",
"i  c #311C57",
"p  c #341D5E",
"a  c #2E3740",
"s  c #2E3A42",
"d  c #323C43",
"f  c #353F48",
"g  c #371E60",
"h  c #381F63",
"j  c #3A2065",
"k  c #3D236C",
"l  c #40246F",
"z  c #422573",
"x  c #43267A",
"c  c #432678",
"v  c #442779",
"b  c #46267B",
"n  c #47277C",
"m  c #45267A",
"M  c #48277E",
"N  c #48277E",
"B  c #48287D",
"V  c #48287D",
"C  c #364146",
"Z  c #384146",
"A  c #344149",
"S  c #3A4449",
"D  c #482780",
"F  c #462880",
"G  c #4A2982",
"H  c #4B2A83",
"J  c #4C2B86",
"K  c #4C2A85",
"L  c #4E2C8B",
"P  c #4E2C8B",
"I  c #512D8F",
"U  c #502C8C",
"Y  c #522E91",
"T  c #57309A",
"R  c #59329D",
"E  c #59329F",
"W  c #58339D",
"Q  c #5A33A0",
"!  c #5B33A3",
"~  c #5B34A1",
"^  c #5C34A4",
"/  c #5C34A4",
"(  c #5E36A8",
")  c #5E36A8",
"_  c #702FA5",
"`  c #7A2AA2",
"'  c #6533A6",
"]  c #6A31A7",
"[  c #6035A8",
"{  c #6D37B6",
"}  c #6539B4",
"|  c #663AB5",
" . c #653BB7",
".. c #673BB7",
"X. c #673BB6",
"o. c #673BB7",
"O. c #6A39B7",
"+. c #683AB7",
"@. c #6C38B7",
"#. c #6F38B7",
"$. c #6B39B7",
"%. c #6C37B9",
"&. c #653BB9",
"*. c #673AB9",
"=. c #673AB9",
"-. c #6839B9",
";. c #693BB9",
":. c #7435B7",
">. c #7435B6",
",. c #7D32B3",
"<. c #7934B3",
"1. c #7B32B5",
"2. c #7F32B4",
"3. c #7E33B4",
"4. c #7C33B6",
"5. c #7934B5",
"6. c #7C34B4",
"7. c #7C33B5",
"8. c #7038B7",
"9. c #7336B8",
"0. c #7B34B8",
"q. c #7139B8",
"w. c #8727A4",
"e. c #8E24A2",
"r. c #8E23A4",
"t. c #8C26A2",
"y. c #802BA4",
"u. c #8128A1",
"i. c #9124A3",
"p. c #952AAE",
"a. c #982AAF",
"s. c #852FB4",
"d. c #862FB2",
"f. c #8F2BB1",
"g. c #882EB2",
"h. c #892FB3",
"j. c #8D2DB2",
"k. c #8B2EB3",
"l. c #9C27B3",
"z. c #9529B0",
"x. c #932BB1",
"c. c #9C28B1",
"v. c #9A29B1",
"b. c #8132B2",
"n. c #8530B2",
"m. c #8730B3",
"M. c #8631B3",
"N. c #8131B4",
"B. c #8330B4",
"V. c #8331B3",
"C. c #8A30B4",
/* pixels */
"4 9 9 9 8 3 .                                                                                             . 3 7 5 8 8 8 ",
"9 0 0 0 0 7 .   - H                     > v                     = c @                   ; z X             X 7 9 9 a a a ",
"9 9 9 9 d 6 .   - L     X - X           > M     o =             = B @   + ;             ; x X   X -       X 8 9 9 a 9 s ",
"9 0 0 9 s 4 .           - I $ o X               > J + o +               y ! o X X               ; E   o o X 8 q 9 a 9 d ",
"7 9 9 9 8 3 .           X $   k i               X $   x z               X *   j h               X $   c x X 7 9 9 9 9 d ",
"9 s s s 9 3 .                 - *                     ; ;                     - -                     - ; O 9 0 9 9 9 d ",
"9 s s s 9 3 .   @ u u @   X e @         * u u *   X e +         + u u $     y *         $ u u +     u @   . 9 0 9 9 9 d ",
"a s s s 9 3 .   >  . .;   @ E ,         e &. .y   * ~ -         ;  . .,     ( e         e  . .;      .;   . 9 0 9 a a d ",
"8 9 9 a 9 3 X F B @ @       + X       k k @ @ X     +         v H @ @ X     $         j c @ @       @     X 7 9 9 9 a d ",
"6 s s s s 6 X > >       * h +         ; ;       - h X         > >       > z X         ; ;       * k       X 7 9 9 a 9 d ",
"8 s s s s 6 .           * j +                   - h X                   > c X                   = k       X 7 9 9 a a d ",
"9 s s s s 6 .                       + % + + % + @ @ @ @ + @ % % % + % + @ @ + @ @ +                       X 7 9 9 9 a d ",
"8 0 a 0 s 8 .                       r.c.M.@.c.6.+. . .&. .+.c.c.f.@.z.<. . . . .&.!                       . 8 0 9 a a d ",
"3 9 9 a 9 3 X   * k                 e.k.b.M.,.B.4. . . . .+.c.M.4.s.4.B.5. . . . .!     = p X             X 8 9 9 a a d ",
"a s s s 0 8 .   = n     o > X       y.4.4.k.+.,.M.:.+. . .-.j.4.4.k.@.B.B.5.+. . .^     ; k X   + <       . 9 d 9 s s s ",
"a s s s 0 7 .           = P $ + o   ' d.B.+.+.@.1.x.9.-. . .#.k.k.+.;.@.B.z.9.+. .^             ; T   @ @ X 9 d 9 s s d ",
"a s s s 0 6 .             +   k p   w.4.@.+.+.M.k.:.x.:. .+.z.5.@. .+.k.s.@.x.5.-.^               @   x v X 9 d 9 a s d ",
"0 s s s 9 3 .                 * @   ] d.B.@.x.4.,.j.:.-.9.x.9.k.M.@.k.4.B.x.:.@.:.u.                  = = X 3 9 3 3 8 w ",
"s s d d 0 8 .   o > > o   X ; +     ( 4.M.<.x.4.4.k.+.9.4.j. .B.k.5.k.4.B.j.+.9.4.u.    + > > X     > o   . 9 f f f f f ",
"9 s s d 9 8 .   > -. .;   @ E ,     ^  .1.z.+.M.k. .+.x.j. .-. .:.z.#.j.M. . .k.C.^     1  . .;     +.;   . 8 f f f f A ",
"9 s s A 0 8 X I J                   (  .&.@.c.6. .8.p.:. . . . . .@.z.5.+. .z.6. .^   k v                 . 9 A f Z f Z ",
"s s s A 9 3 X - -       = c @       (  . .+.:.+.&.@.z.:. . . . . .-.9.@. .+.z.0. .^   * =       - K       X 8 0 7 7 7 0 ",
"s d s A 0 9 .           = B @       (  .+.;. . . .8.z.:.+. . . .+.&.+.+. .+.z.5. .^             - L       X w d s d d d ",
"0 d d A d 9 .                       ' @.-.+.+.+. .@.x.:.+.+.@.@.+.+.@.+.+.;.x.5. .^                       . d d d d d d ",
"9 s s d d 9 .                       w.p.B.@.z.5. . .@.+. .+.z.p.k.@.j.:. . .@.+. .^                       O d f s d d f ",
"a s s d d 7 X   = n                 e.M.,.k.:.B.B. . .;. .+.c.B.5.k.1.M.4. . .;. .^     ; k o             . 9 d a s 9 d ",
"a s s d 9 3 X   * k     + e o       ` B.B.B. .1.B.6.@.+.+.+.d.4.4.B.@.6.b.,.+. . ./     - p X   @ u       X 9 d f d d f ",
"s s s d 9 3 X           ; ! $       ( h.k. . . .5.z.@.+. . . .x.x.+. . .4.c.@. .+.^             >  .      X w A A A Z Z ",
"a s s d 9 3 .           X +   z p   t.4.+. . .b.k.:.x.9. . .z.:.@. . .k.M.@.x.5. .^               @   n M O w A A A S S ",
"9 s s A 9 3 .                 ; -   _ B.4.+.k.B.4.d.4.@.@.k.1.s.B.+.B.B.B.k.4.@.:.`                   > > X 9 Z Z S S S ",
"4 8 9 9 9 3 .   + y e +   X 1 @     ( 4.B.4.k.B.4.B.+.<.4.h. .4.M.6.d.4.B.k.+.:.B.`     @ e t +     e +   . 4 9 8 9 9 w ",
"9 d d d d 7 . o 1 ^ ^ -   + P >     ( &.5.x.%.d.d.+.@.j.k. .+. .9.x.9.k.B. .@.k.s.^   X e ^ ! -     ^ -   . w d d d d f ",
"8 d d d d 7 X I J                   [  . .@.l.6. .8.z.9.+. .+. . .@.z.1.+.+.a.6.+.^   k v                 . 9 d d d d f ",
"9 d d d d 7 X 1 <       $ g +       ^  . .+.,.8.+.8.z.9. . . . . .+.5.q.+. .a.6. .^   ; >       * k       X 9 d d d d d ",
"8 9 0 0 9 2 X           * k +       (  . .+. .;. .8.z.9. . . . . .+.+. . .&.z.5. .!             = n       X 9 w d d d d ",
"s d s d 9 3 X                       ' #.#.+.#.+. .@.x.9. . .9.#.@.+.8.+. . .x.:. .^                       X w f d d d d ",
"s d d A s 5 .                       w.z.M.@.z.1.-.+.@. . .+.z.z.j.@.x.<.+. .@.+. .^                       X d f d d d d ",
"s A s A d 3 .   - L                 e.s.4.j.9.M.b. . .+. .+.c.4.1.j.:.d.4. . . . .^     ; x o             . d Z d d d f ",
"9 0 a s 9 3 X   - H     X ;         y.,.4.k. .4.d.9.+. . .+.j.4.1.k.@.B.B.<.+. . .^     ; z o   o >       X 7 w w f d f ",
"0 s d d d 7 .           ; / *       ( k.C. . . .5.z.@. . . . .x.x. . . .4.c.@. . .^             > }       . 9 w d d d f ",
"s d d d d 7 .                 M j   i.5. . .-.d.h.8.z.9. .+.c.:. . . .j.d. .z.6.&.^                   L J O 9 w w d d d ",
"s d s s d 7 .                 = *   ] M.4.+.x.B.4.k.5.+.9.j.:.C.M.@.C.4.B.j.5.%.:.u.                  - - X 9 w w d f d ",
"0 d d s d 7 .   X ; ; X     - o     ( B.M.:.x.4.,.k.+.8.1.x.+.d.k.5.j.4.B.x.@.9.4.u.    o ; - X     ; X   . 9 d d d d f ",
"6 s s s 9 3 . o , ! ~ -   + L >     ^ +.5.x.@.d.s.+.@.j.k.+.+.+.9.x.:.k.B. .@.d.M.^   o e ! E -     ~ -   X 7 0 d d 9 f ",
"s A d A d 8 X v v * $       $ X     (  .+.9.z.4.@.@.x.:.@. . .+.+.9.x.1.+.&.x.6.@.^   p z * # X     * X   X 0 Z d 9 a d ",
"d d s d d 8 X ; ;       * l +       (  .+.+.5.8. .8.z.9. . . . . .+.:.@. . .z.6. .^   = =       = n       X 0 A d a a d ",
"d d s d d 7 X           $ p +       [ +.-. . . . .q.z.9. . . . . . . . . .&.z.1. ./             * k       O 9 d 9 d d d ",
"d d s d 9 3 .                       ( +.+.+. . . .@.z.9. . . . . . .;. . . .z.6. .^                       . 3 9 9 8 3 9 ",
"s s s A 0 9 X                       + @ @ @ @ @ @ + % + @ @ @ @ @ @ @ @ @ @ % + @ +                       X 8 d d A d S ",
"s s a d 0 9 X   * l                     ; j                     * h +                   - h X             . 7 d f f d Z ",
"s d d A d 9 .   * k     + 1 X           ; j     @ < X           * h +   * e             - h X   @ e       . 9 d d f d f ",
"a A d A 9 3 X           - Y & o X               > P + o +               u ^ o o X               ; !   o o X 7 0 9 q q 9 ",
"9 d d A d 8 .                 M j                     I J                     x c                     L U O d f 9 d d f ",
"9 d d A d 8 .                 < -                     1 <                     > ;                     < < X d Z s d d f ",
"9 d d A d 7 .   o , , o     > +         @ , , $   X > o         o < < +     > @         + , < o     , o   X d f 9 d d f ",
"a d d A 0 7 . @ 1 E ! -   + J >       + u E E 1   $ L =       @ < T E :     Y ,       + y E T -     E -   X 9 d 9 d d d ",
"s d d A 9 3 X n v + @       +         k k @ @ X   X +         x n @ @       + X       h z @ @       @     . 9 A A A A A ",
"9 d d A 9 3 X * *       = B @         * $       > x o         = =       1 I X         $ *       - P       X 9 A A A A S ",
"8 s s A 0 3 X           = c @                   ; z o                   1 J X                   - J       . 9 A Z A A S ",
"9 d s d a 5 X                                                                                             X 9 A A f f S "
};
