/* XPM */
static char *_a61b85e891f423aa8f1333f1a1e250cZ8FNuGEuKfAh0XvE[] = {
/* columns rows colors chars-per-pixel */
"60 60 156 2 ",
"   c #232C33",
".  c #252E33",
"X  c #232C35",
"o  c #252E35",
"O  c #242F35",
"+  c #252E37",
"@  c #272E36",
"#  c #262F36",
"$  c #252F38",
"%  c #262F38",
"&  c #273035",
"*  c #253036",
"=  c #273037",
"-  c #263137",
";  c #273039",
":  c #273238",
">  c #27313A",
",  c #26333B",
"<  c #27343C",
"1  c #293038",
"2  c #283138",
"3  c #2A3139",
"4  c #293239",
"5  c #283339",
"6  c #28313A",
"7  c #28323B",
"8  c #29323B",
"9  c #2B323A",
"0  c #2A333A",
"q  c #2C333B",
"w  c #29343A",
"e  c #28353B",
"r  c #2B343B",
"t  c #2A353B",
"y  c #29333C",
"u  c #2A333C",
"i  c #28353D",
"p  c #2A343D",
"a  c #2B343D",
"s  c #2B363C",
"d  c #2B353E",
"f  c #29363E",
"g  c #2A373F",
"h  c #2D343C",
"j  c #2C353C",
"k  c #2E353D",
"l  c #2D363D",
"z  c #2C373D",
"x  c #2E373C",
"c  c #2C353E",
"v  c #2C363F",
"b  c #2D363F",
"n  c #2F363E",
"m  c #2E373E",
"M  c #2F383D",
"N  c #2D383E",
"B  c #2C393F",
"V  c #2F383F",
"C  c #2E393F",
"Z  c #30373F",
"A  c #30393E",
"S  c #313A3F",
"D  c #2D3740",
"F  c #2E3740",
"G  c #2B3840",
"H  c #2C3941",
"J  c #2E3841",
"K  c #2F3841",
"L  c #2F3A40",
"P  c #2E3B41",
"I  c #2F3942",
"U  c #2D3A42",
"Y  c #2E3B43",
"T  c #2F3C42",
"R  c #2F3C44",
"E  c #313840",
"W  c #303940",
"Q  c #323941",
"!  c #313A41",
"~  c #303B41",
"^  c #323B40",
"/  c #303942",
"(  c #303A43",
")  c #313A43",
"_  c #333A42",
"`  c #323B42",
"'  c #343B43",
"]  c #333C41",
"[  c #313C42",
"{  c #303D43",
"}  c #333C43",
"|  c #323D43",
" . c #343D42",
".. c #353E43",
"X. c #313B44",
"o. c #323B44",
"O. c #303D45",
"+. c #323C45",
"@. c #333C45",
"#. c #313E44",
"$. c #333E44",
"%. c #333D46",
"&. c #313E46",
"*. c #323F47",
"=. c #353C44",
"-. c #343D44",
";. c #363D45",
":. c #353E45",
">. c #343F45",
",. c #363F44",
"<. c #343D46",
"1. c #343E47",
"2. c #353E47",
"3. c #363F46",
"4. c #383F47",
"5. c #353F48",
"6. c #363F48",
"7. c #334046",
"8. c #374045",
"9. c #354046",
"0. c #374047",
"q. c #364147",
"w. c #384146",
"e. c #394247",
"r. c #334048",
"t. c #344149",
"y. c #364049",
"u. c #374049",
"i. c #374248",
"p. c #37414A",
"a. c #35424A",
"s. c #36434B",
"d. c #384148",
"f. c #394249",
"g. c #384349",
"h. c #3A4348",
"j. c #38414A",
"k. c #39424B",
"l. c #3A434A",
"z. c #3B4449",
"x. c #39444A",
"c. c #3B444B",
"v. c #3A454B",
"b. c #3C454A",
"n. c #3D464B",
"m. c #3A434C",
"M. c #3B464C",
"N. c #3C454C",
"B. c #3D464D",
"V. c #3E474C",
"C. c #3D464F",
"Z. c #3E474E",
"A. c #3F484D",
"S. c #3F484F",
"D. c #40494E",
"F. c #404950",
/* pixels */
"5 t s s t 5 5 t 5 5 r z z z 5 5 y 5 ~ s L y F s L 5 % y y 5 y F t s s s z z s s 5 5 5 5 r r 5 5 t t C # s t C - y s z z ",
"z z z C C C C C z z C A ~ ~ z z z z $.F $.F ~ L ~ s y z z y z ~ C C L L L L L L z z z z A A z z ~ ~ 9.C $.~ $.z s s F F ",
"C z z C [ [ [ L ~ ~ ~ ~ ~ ~ ~ ~ L L 2.~ 2.F o.L ~ z y z F z z ~ [ [ ~ ~ ~ ~ [ [ ~ C C C ~ ~ ~ ~ ~ [ g.L 2.~ $.C s z z F ",
"s s z C C C C C z A ~ ~ A z z z F F $.L $.F o.F ~ s y F F y z F ~ L C C C C L L C z z z z z z z C ~ 9.s L z ~ s s z F F ",
"t z C C t 5 t z 5 z z z z 5 5 r z s $.F $.s L F o.z y z z y z F L C z s s s C C z z t r z z z z [ [ 2.t C z [ C y z z F ",
"t C [ C t - 5 z 5 z A z z 5 5 5 s s o.F $.F ~ L 2.F s z F z F o.[ L C s t z C L ~ z t 5 t z z z $.[ 2.t ~ L 2.C y y z F ",
"C ~ [ ~ z t t z r z ~ A z 5 r z s s o.F $.F $.~ 6.F s z F z ~ 2.$.[ L z z C L [ [ ~ z r z z z z [ ~ $.s 2.[ 2.s s z F L ",
"~ ~ ~ L C C z z z z ~ ~ z 5 r z y s o.F 2.L $.~ 6.F s z z z ~ 2.9.$.~ C C C ~ [ 2.~ z z z z z z [ ~ 2.C x.9.9.t z z L ~ ",
"- s L C s t t t 5 z ~ ~ z 5 5 z z F $.p.$.s s o.F 5 ; z F F y y C z t t t z C C 2.2.z r ~ ~ z z p.9.[ C L ~ C t y s z L ",
"- s L C z C C z t z z C z 5 5 z y L $.o.F F F F ~ y 5 z F F z F [ ~ C C L ~ ~ ~ A ~ z 5 z z z ~ 2.2.[ ~ ~ [ C t z z L o.",
"t C [ [ L ~ ~ L ~ z z C z z 5 z s o.$.L F o.$.F $.z 5 z F z F ~ [ [ [ [ $.$.[ [ z ~ C z z z z 2.[ 2.9.$.$.$.[ C s z L ~ ",
"t C ~ L C C C z ~ ~ z C z z t z z L L F F o.$.L $.z y z L z F o.~ ~ [ [ $.[ ~ C A ~ z t z A z 2.z ~ $.$.[ [ ~ C s z F ~ ",
"- t s t t s s t z z z z 5 = 5 z z 5 ; s F z z L ~ z s F L z z ~ C C L ~ [ ~ C s C C 5 # z z 5 z t C L L C L C s z F ~ o.",
"- t s s C L ~ C z z z z r 5 5 z F 5 y F L s s ~ L s s F L z z ~ ~ L L L ~ L C z ~ ~ 5 # z z 5 z C ~ ~ L ~ [ ~ C z z F ~ ",
"z L L L ~ $.[ ~ C z z ~ A z z z L L L o.o.~ ~ o.~ z y F z y z o.$.[ ~ L L ~ L L [ [ z 5 z z z ~ 9.9.$.[ [ 9.2.[ y y z F ",
"[ [ [ L L ~ C s A t 5 z ~ z r 5 s o.$.L L o.o.L o.F y z z y F 2.9.$.~ C L ~ ~ [ ~ ~ z 5 z z z [ g.9.[ C ~ 2.2.[ y z F ~ ",
"s L R L G G L L F F L L z ; 5 z z z L ~ ~ ~ ~ ~ 2.A 5 5 z z ~  .o.$.F s ~ ~ F F ~ $.F 5 s z z ~ ~ 2.2.A ~ 9.w.~ 5 z C ~ ",
"G R $.Y G G L L F s s s 5 % ; y 5 5 5 t z z z z z 5 # 5 t z z ~ o.o.s y L F s z ~ F % X s L y 5 r A ~ z z ~ ~ z 5 5 t z ",
"G R $.Y G L o.~ o.L z z s y y z 5 5 s z z z z z z r z z A z ~  .o.o.F y L L z F ~ F 5 # F ~ z y z z ~ ~ ~ ~ ~ ~ 2.2.2.2.",
"s L R Y L L $.$.$.o.L o.~ F z z z z ~ ~ ~ ~ ~ ~ ~ ~ ~ ~ ~ A ~ 2.$.$.L F $.o.L o.z o.~ z F F F o.[ ~ 2.2.2. .2.w. . .2.2.",
"s L $.Y L L o.o.L L L o.o.F s y z ~ ~ ~ ~ z z C ~ z z z 5 t z [ ~ $.L F o.o.L o.z 2.o.z F z z o.2.[ ~ [ ~ ~ ~ 2.w.g.g.g.",
"L $.$.Y G G F F F F ~ $.o.F y 5 z ~ ~ ~ C z z A C z 5 5 5 5 z 2.s L z y F F s L 2.2.F s ~ $.L F 9.2.~ C ~ ~  .[ 5 5 5 t ",
"L R *.R L L L L L L $.6.$.F s z z ~ 2.[ ~ ~ ~  .~ z 5 5 t z ~ 2.z L F s F F s L p.p.~ z ~ o.~ F g.w.2.~ [ g.2.~ z z ~ ~ ",
"G Y $.R Y R $.$.L L o.$.L s s F z ~ 2.2.~ ~ [ 2.2.~ t r z z z ~ L $.L F o.L L $.o.g.6.F z y z 2.2.g.2.~ 2.Z.g.~ C ~ [ 2.",
"G Y $.$.$.Y Y Y F o.6.$.F y s F C L p.[ 9.~ 9.9.9.~ z s z C L [ s o.o.$.6.o.s z 6.6.6.y ~ z ~ ~ g.9.2.2.g.Z.g.2.~ ~ [ 2.",
"G Y $.$.R L L L F o.$.$.L F F F 5 5 L t L 5 C C ~ s 5 5 t t s C o.$.F s F F F o.o.o.o.5 ~ y z z z C z z ~ ~ ~ z t z z C ",
"s L R R G s s s s L $.$.L F F ~ ~ L 2.L 9.L $.[ 9.[ C L ~ L ~ [ $.$.s % 5 y z $.6.g.g.F p.~ $.o.~ 2.2.[ 2.2.9.2.~ [ 2.2.",
"L L $.R L G s s s L $.$.o.L ~ $.2.[ 9.[ g.[ 9.[ [ ~ C C L C C L o.$.F s F z s ~ g.g.g.F g.$.2.2.[ 2.9.2.2.9.g.w.2.2.9.g.",
"L R $.$.L G F L F L $.$.$.$.$.2.2.[ 9.[ g.[ 9.[ [ C C C L C C L o.$.~ F ~ L F o.m.m.g.F g.2.p.p.2.9.g.2.2.9.g.9.g.g.g.b.",
"s G L L s s s F y z L L L L L ~ [ L 9.L 9.L [ L $.L C L ~ L L ~ L ~ z y z F z ~ 6.6.2.s 6.$.2.o.2.9.2.2.2.2.2.[ 9.g.g.g.",
", s s s s < s F s z F F z z z z t t ~ t L 5 z s C t ; 5 t 5 t s z F s y F F s ~ s z z # o.z z 5  .[ ~ A A ~ ~ z z z A ~ ",
"s G Y R Y L o.$.o.o.o.$.o.~ ~ ~ ~ [ g.[ 9.L 2.2.[ C s z z z C L F o.~ o.6.o.L $.~ $.6.~ Z.6.2.C Z.Z.g.9.g.x.g.[ z A ~ ~ ",
"s C L L ~ ~ L L [ ~ ~ ~ ~ ~ ~ ~ L C 9.2.x.L $.2.2.z t z z z z ~ ~ ~ C C ~ 2.2.2. .2.~ C 2.' ~ ' x.g.b. .g.w.g.~ C C ~ ~ ",
"C L [ [ ~ ~ ~ [ 2.2.2.2.2.2.2.2.~ L 9.2.g.C [ [ ~ z 5 z z t z C ~ L C L ~ [  . .[ 2.~ C 2.' ~ 2.b.x.b.A g.2.g.~ ~ ~ ~ [ ",
"5 s C C s t s C t t z z z z z z L C 9.[ 9.s L L ~ z 5 z z r z C C C z C A A C z ~ ~ z t E E z ~ b.g.w.z 2.2.g.~ [ [ [ [ ",
"t C [ L s 5 t z ~ ~ ~ ~ ~ C z z L C 9.[ 9.C [ ~ 2.C t z z z z [ [ L C z z z z z ~ ~ z 5 z Z z ~ b.x.b.A g.9.x.2.~ ~ ~ ~ ",
"[ 9.p.9.~ C C ~ 2.2.2.2.[ ~ ~ ~ ~ [ g.[ p.~ 9.2.g.~ t t z z ~ 2.9.$.L z z ~ ~ ~ 2.2.C z ~ ' ~ 2.S.Z.D.9.S.Z.F.g.~ ~ ~ [ ",
"~ [ 2.[ L z z C A ~ ~ ~ z z 5 5 C L 9.L 2.L 9.[ 9.C 5 5 r r C 2.2.~ C s z C ~ ~ 2.2.C z E ~ ~ 2.b.b.S.2.Z.g.b.2.~ ~  .2.",
"t z C C z t t s C ~ 2.2.~ z z C z C 9.z [ C [ L 2.z 5 t t 5 z ~ C C s s z z C C [ ~ z 5 Z Z Z =.b.g.x.A 2.[ 2.z ~ ~ 2.2.",
"C C L ~ ~ ~ ~ ~ z C  . .~ z z ~ L [ g.L $.C 2.~ ~ z 5 z z r z ~ C C C ~ ~ [ ~ ~ 2.2.z 5 Z Z E 2.D.b.b.C 2.~ 2.z ~ ~  .2.",
"~ [ [ ~ [ 9.2.~ [ ~ ~ ~ A z z ~ t [ 2.z s $.9.~ g.~ r z z z z ~ C $.$.[ 2.2.~ 2.z z z z E Z E 4.b. .A w.Z.g.[ ~ ~ ~ ~ ~ ",
"~ [ [ [ [ 9.9.[ 2.~ ~ ~ ~ z z ~ z C C C L [ [ ~ 2.C r z z z z ~ ~ 2.[ [ g.2. .2.~ ~ z t ~ ~ ~ =. .2.w.g.Z.Z.g.2.~ ~ ~ ~ ",
"s C ~ L C ~ ~ ~ ~ C C C z 5 5 z C t t L $.~ C L [ z r z z z z ~ ~ [ L C 2.[ A ~ ~ A 5 - z Z q z - C  .~ [ 2.2.z ~ ~ ~ [ ",
"t C L C C C C L C z z z t 5 = 5 z t z [ $.[ C C ~ z 5 z z r z ~ $.$.C z ~ ~ z z ~ ~ 5 # q h 5 q A  .w. .2.9.2.C ~ ~ ~ ~ ",
"~ [ $.$.[ ~ [ $. .~ ~ ~ C z r z s ~ 2.2.2.2.2.[ 2.z t z z t ~ 2.p.p.[ L 2.2.~ ~ ~ 2.~ 5 z Z Z ~ b.w.2.g.g.g.2.2.z z z z ",
"2.$.2.9.2.[ [ 2.~ ~ ~  .~ z z z s $.p.9.2.9.9.$.2.~ z z z z ~ g.9.9.[ ~ 2.9.2.9.~ 4.~ q h Z ~ 2.b. .~ w.g.2.2.g.~ z z ~ ",
"2.[ ~ $.[ ~ C ~ z z z C z 5 5 5 C C L [ $.[ ~ [ ~ z z z z z ~ g.[ $.L C ~ ~ ~ 2.~ 2.z # 5 z z z 2.2.9.w.g.g.g.g.~ ~ ~ ~ ",
"9.~ L [ [ ~ z z z r z z z 5 5 5 C - - L [ s t C z 5 5 z z 5 z 2.[ 9.~ z z z z ~ ~ ' t   5 z z 5   z ~ z r z z 5 z z z z ",
"R $.G $.L r.L L $.F ~ y F % F ~ z 5 ~ z 9.~ 2.~ ~ ~ ~ ~ ~ z ~ 2.$.7.L C [ [ L 2.[ z z # ~ z Z @ Z ~ ~ [ [ ~  .2.g.9.2.g.",
"L R L r.L r.L L L F $.F ~ ; F L ~ z ~ z [ C 2.[ ~ ~ ~ ~ ~ ~ ~ 9.L $.[ T 2.[ C ~ ~ C ~ 5 ~ z ' Z z Z ~ ~ [ [ 2.2.2.2.[ 2.",
"L $.L r.L $.F L F z $.~ $.y F z ~ C 2.z ~ z ~ ~ ~ C A C C z ~ 2.C [ L L $.~ z L ~ ~ 2.z ~ z 2.' ~ ~ z ~ ~ 2. .~ w.2.2.9.",
"L $.R r.s L s F F F 2.o.6.s F z z z 9.~ 2.t ~ ~ ~ z t r 5 5 z ~ [ $.C t C C z [ 2.2.9.z ~ r ~ ~ 2.[ ~ ~  .2.~ z z z C ~ ",
"G $.R r.G Y F o.L F 6.~ 2.y L F z A g.[ 2.z [ 2.2.~ z r t z z ~ $.2.L s C C C [ 2. .2.r ~ z ~ z g.2.~ ~ 2.g.g.~ t z C ~ ",
"G $.R p.Y r.$.p.o.L 6.L $.y F F ~ ~ g.~ 2.C g.g.g.2.C z z ~ [ 2.$.9.$.[ 2.[ C [ 2.~ ~ 5 ~ ~ 2.z 2.2.2.[ g.Z.Z.g.~ ~ 2.9.",
"G R L p.L r.$.6.~ L 6.~ $.5 z z ~ ~ 2.A [ z 2.9.g.2.z z C ~ 2.g.2.p.2.[ 2.[ L [ 9.[ ~ 5 ~ z [ z 2.2.[ ~ 2.Z.Z.9.5 z ~ ~ ",
"L R L p.L $.L L L L 6.o.2.5 s y t z 2.C 2.z ~ z 2.~ 5 5 z ~ 2.g.p.p.[ C L L L 2.9.[ [ 5 z 5 ~ z  .2.[ z ~ 2.2.~ 5 z ~ ~ ",
"G $.$.r.s L y s s $.$.p.o.s ~ ~ [ [ ~ ~ ~ ~ L C L [ ~ L [ L L p.g.9.z 5 z z z [ p.2.$.s 9.~ [ ~ ~ [ [ $.[ [ [ [ 9.2.2.9.",
"s $.R $.s L s z y $.$.p.$.z $.o.2.2.2.2.2.$.[ [ [ 9.2.2.9.$.$.M.g.g.~ z C ~ C $.g.9.2.z g.[ [ [ 2.9.9.p.9.9.9.9.g.9.p.x.",
"< R L $.s Y G L 5 o.$.p.$.F 6.2.$.$.$.$.[ [ [ ~ [ 9.2.9.p.$.[ x.g.g.[ C ~ ~ ~ 2.9.$.[ s 9.L ~ ~ $.9.9.p.9.9.9.9.9.2.9.x.",
"< R L $.s Y G L 5 o.$.p.2.L p.6.[ [ [ [ [ ~ L L C [ $.2.9.[ ~ 9.g.g.~ C ~ ~ C ~ [ [ [ t 2.C L L [ [ 9.9.2.2.2.2.$.[ 2.g."
};
