/* XPM */
static char *_9dd337dc9c648ecdcc40687147cb8650THMtA89IPFVdWXZ[] = {
/* columns rows colors chars-per-pixel */
"60 60 99 2 ",
"   c #060301",
".  c #0B0602",
"X  c #0F0905",
"o  c #140B05",
"O  c #1B0E05",
"+  c #140D08",
"@  c #190F08",
"#  c #1E1006",
"$  c #1C120A",
"%  c #200F05",
"&  c #241206",
"*  c #2B1507",
"=  c #24140A",
"-  c #2C1609",
";  c #2D190C",
":  c #341B0A",
">  c #3B1E0A",
",  c #221710",
"<  c #241911",
"1  c #2C1E14",
"2  c #341F11",
"3  c #3C210E",
"4  c #2F2016",
"5  c #322217",
"6  c #3D2311",
"7  c #372519",
"8  c #39261A",
"9  c #3D291C",
"0  c #401F0A",
"q  c #44220C",
"w  c #4B260D",
"e  c #4F280F",
"r  c #532A0E",
"t  c #5B2D0F",
"y  c #5F300F",
"u  c #432612",
"i  c #482711",
"p  c #472813",
"a  c #4B2913",
"s  c #402B1D",
"d  c #542E14",
"f  c #5D2E10",
"g  c #573017",
"h  c #5B3115",
"j  c #563119",
"k  c #5C3318",
"l  c #5F381E",
"z  c #602F0F",
"x  c #602F10",
"c  c #643211",
"v  c #6F3712",
"b  c #6D3815",
"n  c #623619",
"m  c #66391B",
"M  c #6C3C1C",
"N  c #703712",
"B  c #723913",
"V  c #793E17",
"C  c #713F1E",
"Z  c #7B3F18",
"A  c #7C4217",
"S  c #75411F",
"D  c #7D421A",
"F  c #754120",
"G  c #7B4420",
"H  c #83451C",
"J  c #87481E",
"K  c #89491F",
"L  c #844922",
"P  c #8C4C22",
"I  c #914F23",
"U  c #945225",
"Y  c #975427",
"T  c #985326",
"R  c #985427",
"E  c #9B5C25",
"W  c #9F5D27",
"Q  c #975428",
"!  c #995528",
"~  c #9D5729",
"^  c #9F5829",
"/  c #A0592A",
"(  c #A25D2B",
")  c #A45F2B",
"_  c #A36029",
"`  c #A6612B",
"'  c #A6612C",
"]  c #A9672B",
"[  c #A8622C",
"{  c #AA662D",
"}  c #AC672D",
"|  c #AF6B2E",
" . c #B06B2F",
".. c #B06C2F",
"X. c #B36F2F",
"o. c #B3702F",
"O. c #B4702F",
"+. c #B36F30",
"@. c #B57130",
/* pixels */
"j s s 9 7 + & c N v v v N v v v N V H V v v v v v v v v v N N v v v N V q n ^ ~ ( ..@.@.../ ~ T B v v B H R ~ ! k X > : ",
"j s 7 $ X X w N B H D D V V A K E _ ^ U Z v v v v v v v v v v N Z H P I > d ^ ~ ) @.@.@...( ~ T Z v B P R ~ ~ ~ M O . . ",
"j 4 + + + O t N H ~ ( | ] ] | O.@.@.{ ^ P N N v v v v v B V V H T ~ ^ ~ p 3 T ~ ^ | ..@. ./ ~ ~ P A P ~ ~ ~ ~ ~ ! G a O ",
"u X 2 F k + t B I / | @.@.@.@.@.@.@.| ^ T Z N N V D H J U T T ! ~ ~ ~ / S O g ! ~ ^ ) ' ( ~ ~ ~ ! U ! ~ ~ ~ ~ ~ ~ I v O ",
": a P / G O d B T ( ..@.@.@.@.@.@.@.../ ~ P H J T ! ~ ~ ~ ~ ~ ~ ~ ~ ~ ^ U 3 o h ! ~ ~ ~ ^ ^ ~ ~ ~ ~ ~ ~ ~ ~ ~ ~ U Z f O ",
"d Q ^ ^ P : d B U [ @.@.@.@.@.@.@.@.@.) ~ ~ ~ ~ ~ ~ ~ ^ ^ ~ ~ ~ ~ ~ ~ ~ ^ M o + G ~ R U J J T ~ ~ ~ ~ ~ ~ ~ ~ T D N q o ",
"D ~ ~ ~ ! u r B P ' ..@.@.@.@.@.@.@.@.[ ~ ~ ~ ~ ^ ( { | } ' ' ' ' ) / ~ ^ Y u . d H Z B N N P ^ ~ ~ ~ ~ ~ T J Z N c O * ",
"H ~ ~ ~ R 3 q N H ^ { @.@.@.@.@.@.@.@.| ^ ~ ~ / { ..@.@.@.@.@.@.@.@.| ^ ~ ^ G o q N v N N v H ~ ~ ~ ~ U H Z N N v - # G ",
"Z T ~ ^ T : q N V T ^ ' ..@.@...@.@.@.../ / ' ..@.@.@.@.@.@.@.@.@.@...( ~ ^ L O q N v v v v Z R ! I H B v v N c : o h ~ ",
"N I ^ ~ R q q N v H ! ~ ( | @.@.@.@.@.| ` | @.@.@.@.@.@.@.@.@.@.@.@...( ~ ^ P = q N v v v v N H H B v v v N t * + : V T ",
"v J ~ ~ ^ m q v v B I ~ ~ ( | @.@.| ' ) | @.@.@.@.@.@.@.@.@.@.@.@.@.+.( ~ ~ Y p - v N v v v v v v v v v v r * > * w V U ",
"v H ~ ~ ^ D - t N v D R ^ ~ ( } | ( ~ ^ } @.@.@.@.@.@.@.@.@.@.@.@.@.../ ~ ~ ^ n . > v v v v v v v v N v q = k k * c B I ",
"v Z T ~ ^ I : : v v N J ~ ~ ~ ^ ^ ~ ~ ~ / [ } | ....@.@.@.@.@.@.@.@.} ^ ~ ~ ~ m . o t N v v v v N v t : > S Q u q v B I ",
"N B I ~ ~ ~ n O r N v B P ~ ~ ~ ~ ~ ~ ~ ~ ~ ^ ^ / ) ' { } | | | | { ( ~ ~ ~ ~ k X o : v N N N N t : # p P / U u t v N J ",
"v N P ^ ~ ~ P - - v N v B P R ~ ~ ~ ~ ~ R T U I I I T ! ^ ^ / ^ ^ ^ ~ ~ ~ ~ ! u + 6 # > t c c q + = m Y ^ ^ U p c v v Z ",
"v N P ~ ~ ~ R h o r N v v N Z H P P H D Z V B B B B V D H P T ! ~ ~ ~ ~ ~ ^ P * = 9 # o O = # O u L ~ ~ ~ ^ U 6 f v v N ",
"v N J ~ ~ ~ ~ U > & v N v v v v N N v v v v N N v v v v v N V D H H H P ! ^ C O 1 9 = = d d k G ( { ' / ~ ~ ! p q v v v ",
"v N H ~ ~ ~ ~ / S O q v v v v v v v v v v v v v v v v v v v v v v v v B H ! L : $ 9 < o S / )  .@.@.@.| ^ ~ ^ S q c N v ",
"v N J ~ ~ ~ ~ ^ T a % r N v v v v v v v v v v v v v v v v v v v v v v v B H ! M @ 1 < O S ( | @.@.@.@.| ^ ~ ~ T d q v v ",
"v v J ~ ^ ^ ^ ~ ~ H > O t N v v v v v v v v v v v v v v v v v v v v v N v N H U 6 + o > T ) o.@.@.@.@.' ~ ~ ~ R h O t N ",
"v v H U T U P J H Z y O & c N v v v v v v v v v v v v v v v v v v v v v v v N H d . = G ^ ( ..@.@.@.| ^ ~ ~ ! H c & w N ",
"v v N B B B B N v v N w . : v N v v v v v v v v v v v v v v v v v v v v v v v N w # D ^ ~ ^ { @...[ ^ ~ ~ ~ P B v > q N ",
"v v v v v v v v B N N v > . 3 v N v v v v v v v v v v v v v v v v v v v v v v v > i ! ~ ~ ~ ^ ` ) ^ ~ ~ ~ I B v v : > v ",
"t N v v v v v v N N v N v : o > c N v v v v v v v v v v v v v v v v v v v v v N > d ~ ~ ~ ~ ~ ~ ~ ~ ~ ~ R D v v v & > v ",
"q v v v v v v v v v v v N v q . - t v N v v v v v v v v v v v v v v v v v v v N > p ! ~ ~ ~ ~ ~ ~ ~ ~ ^ T B v v v : O q ",
"; r v v v v v v v v v v N c > .   O q c N N v v v v v v v v v v v v v v v v v N q a ~ ^ ^ ~ ~ ! R T I P H N v v v t * o ",
"2 - w v v v v v v v v N t & . o < $ X O w v N N v v v v v v v v v N N N N N N N > d U P J H H D Z V B N N v v v v N c r ",
"j > O w f v N N N N v r & 3 u + , 5 5 # o - t v v v v v v v v v v c c c c t w w O q B N N v v v v v v v v v v v v v N N ",
"u =   . o : w t f t > # h Q Q C 6 $ , 7 1 o o & * : : : - - * * * # O O O o . . . e N v N v v v v v v v v v v v v v N v ",
"+ & > : & o o O & - - r P ^ ~ ^ U l = # 1 $ X : 0 > : : : - * - : : > > > > & o X f N v v v v v v v v v v v v v v N v : ",
"w c v N v t r r f v v Z I ~ ~ ~ ^ ~ L u # X u H B N v v v v v v v v v v v N c : o d N v v v v v v v v v v v v v v v > . ",
"N N N v N N N N N Z P T ~ ~ ~ ~ ~ ~ ^ U k = G ~ H N N N v v v v v v v v v v N t O * f v N v v v v v v v v v v v v w o 6 ",
"v v v v v v N Z P R ~ ~ ^ ) ` ^ ~ ~ ~ / G # m ~ U Z v v v v v v v v v v v v v v h ; # > v N v v v v v v v v v N t O ; L ",
"v v v v N Z P R ~ ~ ~ ^ { ..../ ~ ~ ~ ^ P ; > T ^ T H V N v v v v v v v v v v B I P k = : c B v v v v v v v N x * + m ^ ",
"v v v N H R ~ ~ ~ ~ / { @.@.| ( ' { ( ~ ^ C = k R ^ ~ T P H D Z B B N N N B Z P ~ ^ ^ P 6 = w c N v v v v v t & o # D ( ",
"v v v B I ^ ~ ~ ~ ^ } @.@.@... .@.@.{ ^ ~ ! u + S ^ ~ ~ / ) ^ R T I P P P I T ~ ~ ~ ~ ^ T n # - v N N N v r & : h = d ! ",
"v v v N J ~ ~ ~ ^ { @.@.@.@.@.@.@.@.{ ~ ~ ^ P ; a ~ ~ ^ { @.| / ^ ^ ~ ~ ~ ~ ~ ~ ~ ~ ~ ~ ~ ^ S = > h f q : > h P T d + n ",
"v v v v H ~ ~ ^ [ @.@.@.@.@.@.@.@.@.' ~ ~ ~ ~ d 6 ! ^ ' ..@.@.[ { ) ~ ~ ~ ~ ~ ~ ~ ~ ~ ~ ~ ~ ^ d + + # 3 k P ~ ^ ^ D O w ",
"v v v v D ~ ~ ( ..@.@.@.@.@.@.@.@...( ~ ~ ~ / m 6 ^ } @.@.@.@...+.| ^ ~ ~ R T T ~ ~ ~ ~ ~ ~ / m o * n P ~ ^ ~ ~ ^ D * t ",
"v v v v Z R ~ ) ..@...@.@.@.@.@.@. ./ ~ ~ ~ / M p ( @.@.@.@.@.@.@.@.( ~ R H B Z H T ~ ~ ~ ~ / C = S ! ^ ^ ) ) ^ ~ n q v ",
"v v v v V T ~ / | @.@.@.@.@.@.@.@.} ^ ~ ~ ~ / S k ( | ....@.@.@.@.@.[ ~ P N v v v Z P ! ~ ~ / C ; U ^ ~ / | | / L > t N ",
"v v v v B I ^ ~ ( {  .+.@.@.@.@.@.{ ^ ~ ~ ~ / S d ~ ^ / ( ) { ..@.@.{ ! D v N v v v B H T ~ / m > T ^ ~ ^ ( ( ~ k : v N ",
"v v v v N P ^ ~ ~ ^ / ) { ..@.@.@.{ ^ ~ ~ ~ / S u I R ~ ~ ~ ^ ( { | ( U B v N v v v v N D P ! d p ! ~ ~ ~ ~ ~ ! d w N Z ",
"v v v v v J ~ ~ ~ ~ ~ ~ ^ / { ....` ~ ~ ~ ~ / C > B Z P R ~ ~ ~ ^ ^ ! H N v v v v v v v v N D u m ^ ~ ^ ~ ! T P u r N V ",
"v v v v v H ~ ~ ~ ~ ~ ~ ~ ~ ~ ( ) ^ ~ ~ ~ ~ / C : v v N D T ~ ~ ~ ~ P B v v v v v v v v v N f 3 L ~ T I J D V v > t N v ",
"v v v v v D ! ~ ~ ~ ~ ~ ~ ~ ~ ~ ~ ~ ~ ~ ~ ~ / M * c N v v D T ^ ~ P B v v v v v v v v v N v > h T H Z N v v v c * r v v ",
"v v v v v B J ! ~ ~ ~ ~ ~ ~ ~ ~ ~ ~ ~ ~ ~ ~ / M o q N v v N D P J B v v v v v v v v v N v q : L I N v v v v N c & w v v ",
"v v v v v v N H U ~ ~ ~ ~ ~ R T ~ ~ ~ ~ ~ ~ ^ M + O t N v v v N N v v v v v v v v N N v > & M ~ T Z v v v v v v - : v v ",
"N v v v v v v v V J ! ~ ! P Z Z P ~ ~ ~ ~ ~ ^ C o . O t N v v v v v v v v v v v N v t - X w Z J T H v v v v v v : O c N ",
"v v v v v v v v v N H P H B v v B H R ~ ~ ~ ! d . & o O t N v N v v v v v v v N c q = O - v v N Z V v v v v N v *   q N ",
"v v v v v v v v v v v N v v v v v N A P ~ ~ M = : r w O O r v N v v v v N N v w * = 1 + q N N v v v v v v N N r O X O c ",
"v v v v v v v v v v v v v v v v v v v B L M = q v v N z : + : c v v v v c e ; # 1 9 7 o w N N v v v v N N b i + @ > O : ",
"v v N N v v v v v v v v v v v v N v t q : & q v v v v N v q O # : : > q = O 1 8 8 1 $ . : v v v v N N c r * + # @ n a o ",
": > t c v v v N N N N N N v v v t : & - q t v v v v v v N N t > - & : > - # 8 1 + ; u u & w v B B v w - & & + + ; D B : ",
"> > O O - - > w t f t r q > > - O & q c v N v v v v v v v v N N v v v v w o < + 6 L T U d & > a 3 * & : r t : + u ! P v ",
"v v r > > : = o o + O # * : - q t c v N v v v v v v v v v v v v v N v v r o X = P / ^ ~ Z w - & * q t v v B A 3 > T ~ J ",
"v B J U P P C + . q r f v v v N N N v v v v v v v v v v v v v v v v v N r . o n ~ ~ ~ ~ P B v c v v N v V P ! M = L / R ",
"v D ! ^ ~ ^ G & > v N N v v v v v v v v v v v v v v v v v v v v v v v N q . d T ~ ~ ~ ~ ! P H Z B B B Z P ~ ^ P > G / ~ ",
"B U | ( ~ ! p : v v v v v v v v v v v v v v v v v v v v N V N v v v v N : # L ^ ~ ~ ~ ~ ~ ~ ~ R T R W ` ( ^ ~ T 6 g ~ ~ ",
"U | @.| / L # w N v v v v v N v v v v v v v v v v v v B H P V v v v v v * = P ~ ~ ~ ~ ^ / ( ( [ | +.@.@.| / ~ ! p * U ^ "
};
