/* XPM */
static char *_1b0e2326baf4cf3ec25bc1e09e23450sqZHzAiW1X0qrh57[] = {
/* columns rows colors chars-per-pixel */
"60 60 222 2 ",
"   c None",
".  c #0C0A0B",
"X  c #070707",
"o  c #151213",
"O  c #1C1414",
"+  c #1D191A",
"@  c #120E0F",
"#  c #231B1C",
"$  c #2B1E1C",
"%  c #2D201F",
"&  c #251F22",
"*  c #281F21",
"=  c #2B2223",
"-  c #2B2429",
";  c #282327",
":  c #332424",
">  c #3C2B2B",
",  c #372828",
"<  c #3D2F31",
"1  c #432D2C",
"2  c #422824",
"3  c #522A26",
"4  c #4D322E",
"5  c #43312F",
"6  c #5B362E",
"7  c #443333",
"8  c #4C3433",
"9  c #4D3C3C",
"0  c #4D3837",
"q  c #553633",
"w  c #5A3735",
"e  c #563934",
"r  c #5B3936",
"t  c #533B3A",
"y  c #5D3C39",
"u  c #513739",
"i  c #613531",
"p  c #683C37",
"a  c #703E37",
"s  c #5B413F",
"d  c #64423B",
"f  c #6B433E",
"g  c #6D453B",
"h  c #73453C",
"j  c #7C493E",
"k  c #634542",
"l  c #6C4D4B",
"z  c #694744",
"x  c #714542",
"c  c #754943",
"v  c #7C4D44",
"b  c #724C4A",
"n  c #7B4947",
"m  c #7C544D",
"M  c #7A504A",
"N  c #735453",
"B  c #7C5552",
"V  c #795956",
"C  c #774F50",
"Z  c #7D6869",
"A  c #844B3E",
"S  c #824D43",
"D  c #864D4B",
"F  c #8A5345",
"G  c #8A544C",
"H  c #8C584D",
"J  c #84554A",
"K  c #935B4D",
"L  c #9B5D4F",
"P  c #945547",
"I  c #835552",
"U  c #8D5A52",
"Y  c #895956",
"T  c #935C53",
"R  c #9A5D53",
"E  c #9A595A",
"W  c #944D40",
"Q  c #A05C4D",
"!  c #A35D55",
"~  c #9D6355",
"^  c #94635C",
"/  c #9B645B",
"(  c #996459",
")  c #8D655F",
"_  c #A46454",
"`  c #AB6355",
"'  c #A2655A",
"]  c #AB665B",
"[  c #A46A5D",
"{  c #AA6B5D",
"}  c #B36D5D",
"|  c #B56A5E",
" . c #B3705E",
".. c #A8604F",
"X. c #B25F64",
"o. c #AC5D60",
"O. c #886767",
"+. c #9B6B65",
"@. c #946865",
"#. c #9B706C",
"$. c #96716D",
"%. c #9C7876",
"&. c #A46463",
"*. c #A46C62",
"=. c #AA6D62",
"-. c #AC6E6B",
";. c #A76765",
":. c #B46D62",
">. c #B06E6E",
",. c #BA6968",
"<. c #AB7165",
"1. c #AD746B",
"2. c #A87369",
"3. c #B37264",
"4. c #BA7564",
"5. c #B4746A",
"6. c #BD7B6B",
"7. c #B7766B",
"8. c #AC7A73",
"9. c #A67673",
"0. c #B47572",
"q. c #BB7473",
"w. c #B37C74",
"e. c #BB7D72",
"r. c #B27D7A",
"t. c #BB7E7C",
"y. c #AD6F72",
"u. c #C27B6B",
"i. c #C37768",
"p. c #C17D73",
"a. c #CC7B79",
"s. c #AB817D",
"d. c #BC8276",
"f. c #B4817A",
"g. c #BC847A",
"h. c #BD897D",
"j. c #C58373",
"k. c #CA8373",
"l. c #CB8875",
"z. c #C4857A",
"x. c #C48A7E",
"c. c #CC8B7B",
"v. c #CA8479",
"b. c #D28A7E",
"n. c #CA8876",
"m. c #917C80",
"M. c #C67B83",
"N. c #9C8B92",
"B. c #9B8185",
"V. c #AC8785",
"C. c #B78683",
"Z. c #A88D91",
"A. c #BA979A",
"S. c #AF9395",
"D. c #AE9FA9",
"F. c #AB9CA5",
"G. c #B3A3AE",
"H. c #BAABB5",
"J. c #BCAEBA",
"K. c #B6A7B3",
"L. c #BFB2BC",
"P. c #AFA0A9",
"I. c #C38582",
"U. c #C38A84",
"Y. c #CC8C82",
"T. c #CC8B89",
"R. c #D28D82",
"E. c #CA9285",
"W. c #C4928D",
"Q. c #CC948A",
"!. c #C7958B",
"~. c #D3978D",
"^. c #D39A8E",
"/. c #D59286",
"(. c #CC9A94",
"). c #C79997",
"_. c #D49C94",
"`. c #D79994",
"'. c #E09E9F",
"]. c #DCA29C",
"[. c #D8A298",
"{. c #C39FA3",
"}. c #C4A3A7",
"|. c #D9ABA5",
" X c #C2B2BD",
".X c #CCB1B9",
"XX c #DCB4B1",
"oX c #E3ACA9",
"OX c #E3B2AD",
"+X c #E7BBB7",
"@X c #E9C5BD",
"#X c #C5B6C2",
"$X c #CAB6C2",
"%X c #CABAC6",
"&X c #CCBECA",
"*X c #C6B8C5",
"=X c #D1BFCB",
"-X c #CEC1CE",
";X c #D4C3CF",
":X c #D3C4D2",
">X c #D6C8D5",
",X c #D9C9D7",
"<X c #D7C9DA",
"1X c #DBCDDB",
"2X c #D6C7D9",
"3X c #DED1DE",
"4X c #E0D1DE",
"5X c #E0CFDD",
"6X c #DBCEE1",
"7X c #DED1E2",
"8X c #DFD4E8",
"9X c #E3D4E4",
"0X c #E6D8E6",
"qX c #E3D6EA",
"wX c #E6D9EB",
"eX c #EADDED",
"rX c #E8D9E7",
"tX c #E6DAF2",
"yX c #EBDEF1",
"uX c #EEE1F3",
"iX c #F0E4F5",
"pX c #F6E9F6",
/* pixels */
"                                                                                                                        ",
"                                                                                                                        ",
"                                                                                                                        ",
"                                                                                                                        ",
"                                                  o + + # = & ; ; -                                                     ",
"                                              O + + # # , 5 # # & - - -                                                 ",
"                                          o O + + + # % 4 5 # # - - ; ; ; -                                             ",
"                                        o o o O # : q g c c q 1 < - ; & & & ;                                           ",
"                                        o . o $ 6 F Q _ ~ ~ R T U x 8 : & # # =                                         ",
"                                      . . @ 2 j L { }  . .} 3.3.3.5.[ J 4 # # * :                                       ",
"                                    . . . 2 F _  .4.4.4.i.u.u.6.6.e.e.e.*.q $ = >                                       ",
"                                    . . $ S _ } 6.j.k.j.l.l.k.j.c.x.z.z.E.8.y = 7 9                                     ",
"                                    . O h L { 4.k.Y.R.b.c.l.l.c.Y.Y.x.z.Y.Q.8.8 7 9                                     ",
"                                  . . 4 K _ } 6.k.c.c.c.c.c.l.l.j.z.z.j.x.^.(.N 7 7 :                                   ",
"                                  . o d ~ _  .6.j.j.k.c.c.c.c.l.j.j.d.e.z.`.|.#.0 > =                                   ",
"                                  . O g ~ _ { <./ T 1.c.Y.R.R.w.B k z m ^ (.+XV.t : $                                   ",
"                                  . O h K J m t : > N W.`.`._.O.< = & & > V |.|.N $ #                                   ",
"                                  X O v d 7 : # , u V W.`.`._.9.B b l N l k 9.OX$.: O                                   ",
"                                  X O v 1 : q B ^ R ~ 7.Q._.I.1.{ =.5.f.w.9.9.[.%.7 O                                   ",
"                                  X O h r v ~ +.T U P _ z.~.d.[ T I r z Y w.!._.$.9                                     ",
"                                    o d G F i 4 1 l h _ } 4.7.R S I w x M / x._.#.s                                     ",
"                                    @ y K A a S D D G ! ` :.7.=.[ ' ! ;.-.5.z._.s.8.p.i.                                ",
"                                      d L _ ] ] _ _ ` ..| u.T.z.0.p.6.6.6.p.Y.[.W.].~.                                  ",
"                                  W Q S ~ 3.7.4.} 5.:.` | u.Y.z.:.q.v.b.b./.[.|.(.E./.                                  ",
"                                  Q ] H _ 6.v.k.4.5.| ` i.a.a.p.=.5.p.R.`.].oX].(.x.7.Y.                                ",
"                                  ` ] F _ j.~.Y.3.:.] | v.R.Y.T.T.0.] v.].oXOX_.W.~.| ,.                                ",
"                                  :.:.~ ~ u.~.x.L ] :.] q.v.t.y.U.I.&.R z.^.[.E.C.Y.p.Y.                                ",
"                                  Q ` 3.T } 6.K R e.] a G ' / b Y y.r.@.T 6.c.x.1.e.`.].                                ",
"                                  L _ { K _ Q P ~ *.T q e f y 1 u C I I v ' j.d.*.C.(.                                  ",
"                                    2.8.K P P j x c r , > e p 4 8 k p q p T <.2.                                        ",
"                                      +.S S P 6 3 i p x D E ! &.y.&.i p / [ ^ #.                                        ",
"                                          h F S v 3 G v.T.`.'.oX|.W.I =.5./ Y @.                                        ",
"                                          e h L 3.' E h.|.@X@XXXC.>.0.I.1.I z Y                                         ",
"                                            4 h ~ 7.;.o.q.T.I.a.M.M.U.t.^ k t                                           ",
"                                            $ 2 h *.-.>.q.,.X.X.-.t.C.9.b 0 l                                           ",
"                                            : $ 4 H =./ T D n n I -.t.+.s 7 )                                           ",
"                                              > : c =.=.G x a n E 0.t.@.t k f.                                          ",
"                                              c $ 4 ( 5.0.&.E &.>.>.*.b u @.E.                                          ",
"                                              K e $ d ^ ;.@.U Y Y I b t k f.Q.                                          ",
"                                              K H > : e f y e e e t u 7 @.h.E.!.                                        ",
"                                              K ~ M , = , , $ # = : , l 8.g.E.f.N                                       ",
"                                            k K ' / m 1 $ O o o O : B w.w.g.E.E.@.O.O.                                  ",
"                                        L.Z x K ~ [ / J d 1 $ : 1 B g.g.w.g.E._.8.%.m %XuX                              ",
"                                  D.J.:X%XZ v K ' { *.( ^ U v v I 2.E.C.w.g.Q._.9.Z.+.;XuX6X<X7X1X                      ",
"                            K.G.K.#X:X1X*XO.F R [ { *.[ ( ( ( T ( 2.!.!.g.g.~.[.s.S.s.7XtX8X2X9X9X9X7X                  ",
"                        G. X%X#X X>X>X1X*Xm.G R [ { *.[ *.[ ' ~ / 8.!.Q.h.U.^.[.V.Z.S.wXqX6X2X6X7X1X7X7X9X              ",
"                    H.J.K.&X>X=X$X,X>X3X&XN.J ~ [ { { [ *.<.=.*.-.f.!.U.x.E.^.[.s.Z.$XtXqX8X9X8X7X8XrX<XwXuXeX          ",
"                K.J.#X%X X;X,X:X=X3X1X1X:XN.@.~ [ { { [ [ [ 1.1.0.g.g.e.d.E.^.Q.$.D.qXtXqXwXeXrX9XrXqX,XuXeX0XrXeX      ",
"            H.J.#X&X:X;X%X>X1X,X,X0X9X7X1XF.V.[ { =.{ [ ~ ( ' =.1.5.5.1.d.E.Q.w.O.J.tXyXyXyXyXyXqXrX,X9XeXqX9X9XeXeXrX  ",
"        H.#X-X>X:X>X,X,X:X1X9X3X9XrXrX9X9XK.D.V.[ =.=.{ ~ ( ~ ' *.*.*.1.d.x.g.9.B.:XyXyXuXuXuXyXeX9X,XrXeXqX7X9XyXrX0XiX",
"      J.#X:X:X1X1X1X1X7X,X9X9X9X9XeXeXeXrX-XD.$XV.=.=.{ [ ~ ~ T ( [ <.1.w.w.r.}.K.<XuXuXuXuXuXeXqX5X9XeXeXqX9XrXeX9XiXpX",
"    J.#X>X3X1X1X9X9X9X9X6X9XrXrX9XeXwXeXyX<XH.&X=XC.*.[ [ [ [ [ *.=.<.<.2.C.$X<XH.8XuXuXiXiXuXrXrX9XrXyXyXqX9XyXrX0XiXuX",
"    #X:X3X9X3X7XrXrXrXqX9X9XeXrXrXyXwXeXuX9XH.&X1X>X}.8.[ ' ' ' [ { <.r.{.,XwX1XL.wXuXuXuXiXuXeXrX9XrXyXeXqXeXuX9XeXeXuX",
"  &X>X1X9X9X3X9XrXeXeXrX9XrXeXeXrXyXeXeXuXeX X#X9X3X,X;X.X}.A.A.).}..X>XqXwXuX:X*XeXuXuXuXiXuXeX9X9XrXyXeXeXuXeXrXeXeXuX",
" X:X1X9X0X0X1X9XeXyXeXeXrXrXeXeXrXyXeXeXyXuX&X XqXeX9X7X6X6X7X7X8X8XqXqXyXuXuX%X:XyXyXuXuXiXuXeX9X9XrXyXyXyXiXrXeXeXyXuX",
"%X>X1X0XwXwX4X4XeXuXyXeXeXeXyXwXqXyXeXeXyXuX3XH.1XuXuXeXwXwXwXeXeXeXyXuXuXuXeX#X,XeXuXyXuXiXuXeX9XeXeXrXyXuXuXrXuXwXyXuX",
":X>X3X9XeXeX9X1XeXuXyXyXyXeXyXrXqXyXeXeXyXyXrX#XJ.rXuXuXuXuXuXuXuXuXuXuXuXuX,XH.7XuXuXyXuXiXuXeX9XyXeX0XeXuXyXeXuXeXuXiX",
",X1X1X9XrXuXeX1XeXuXuXyXyXyXyXrXqXyXeXeXeXuXuX1XH.3XuXuXyXyXyXeXeXuXuXuXuXeX#X XrXuXuXyXuXiXuXeX9XuXeX9XeXiXeXuXyXuXiXuX",
"1X4X3X9X9XeXuX3XrXyXuXyXyXyXyXqXqXyXeXeXeXyXuXrXJ.#XeXuXuXyXyXeXeXyXuXuXuX9XK.&XeXuXuXuXyXuXuXeX0XiXeX9XeXiXeXuXeXuXyXyX",
"3X9X9X3X0X9XuX9XrXyXuXyXyXyXyXqX8XuXeXeXeXyXuXyX&XG.3XyXuXuXuXuXuXuXyXyXyX&XP.1XyXuXuXyXyXuXuXeXrXiXrX9XyXiXeXuXyXyXeXyX"
};
