/* XPM */
static char *efea4d41c4d7460bdc2a06fe9e227ddaCbaSrebO7V5h4Jwu[] = {
/* columns rows colors chars-per-pixel */
"60 60 133 2 ",
"   c #000001",
".  c #060807",
"X  c #06050A",
"o  c #09050E",
"O  c #07090A",
"+  c #0A0B0D",
"@  c #0A0613",
"#  c #0C0D12",
"$  c #0F0819",
"%  c #100718",
"&  c #11091D",
"*  c #0D1012",
"=  c #140C24",
"-  c #170D28",
";  c #190E2C",
":  c #1B0F32",
">  c #1C1033",
",  c #1F1339",
"<  c #201236",
"1  c #22133B",
"2  c #242C2F",
"3  c #262D34",
"4  c #282F35",
"5  c #272E38",
"6  c #263036",
"7  c #293236",
"8  c #273139",
"9  c #2C353C",
"0  c #2E383E",
"q  c #30373E",
"w  c #313A3E",
"e  c #261643",
"r  c #281646",
"t  c #281648",
"y  c #2B194B",
"u  c #311C57",
"i  c #341D5D",
"p  c #2E3740",
"a  c #2F3C42",
"s  c #2C3D44",
"d  c #2F3C44",
"f  c #2E3D44",
"g  c #2D3E45",
"h  c #2F3E45",
"j  c #2E3A42",
"k  c #303741",
"l  c #303940",
"z  c #313A41",
"x  c #303B41",
"c  c #303942",
"v  c #313A43",
"b  c #323B42",
"n  c #313C42",
"m  c #303D43",
"M  c #333C43",
"N  c #313B44",
"B  c #323B44",
"V  c #303D45",
"C  c #333C45",
"Z  c #303D46",
"A  c #313E46",
"S  c #323C43",
"D  c #343F48",
"F  c #361F60",
"G  c #381F61",
"H  c #3A1F62",
"J  c #391F66",
"K  c #391F64",
"L  c #372162",
"P  c #392062",
"I  c #392064",
"U  c #3A2067",
"Y  c #3A2067",
"T  c #3C2269",
"R  c #3C226B",
"E  c #3D236C",
"W  c #3F236E",
"Q  c #3F256F",
"!  c #3D226B",
"~  c #3F2370",
"^  c #40246F",
"/  c #402471",
"(  c #412572",
")  c #422673",
"_  c #412474",
"`  c #422577",
"'  c #442777",
"]  c #412473",
"[  c #432678",
"{  c #43267A",
"}  c #442779",
"|  c #46267B",
" . c #47277C",
".. c #45267A",
"X. c #48277E",
"o. c #48277E",
"O. c #45287C",
"+. c #48287D",
"@. c #48287D",
"#. c #354046",
"$. c #384246",
"%. c #334048",
"&. c #344149",
"*. c #394449",
"=. c #482780",
"-. c #462880",
";. c #4A2982",
":. c #4B2A83",
">. c #4C2B86",
",. c #4C2A85",
"<. c #4E2C8B",
"1. c #4F2D8C",
"2. c #4E2C8B",
"3. c #512D8F",
"4. c #502C8C",
"5. c #522E90",
"6. c #56319A",
"7. c #56319B",
"8. c #59329D",
"9. c #59329F",
"0. c #58339D",
"q. c #5A33A0",
"w. c #5B34A1",
"e. c #5B33A2",
"r. c #5E36A8",
"t. c #6539B4",
"y. c #663AB5",
"u. c #653BB7",
"i. c #673BB6",
"p. c #673BB7",
"a. c #663AB6",
"s. c #653BB9",
"d. c #6839B9",
/* pixels */
"4 9 9 9 8 3 .                                                                                             . 3 7 5 8 8 8 ",
"9 0 0 0 0 7 .   - :.                    > }                     = ' @                   ; ) X             X 7 9 9 p p j ",
"9 9 9 9 x 6 .   - <.    X - X           > X.    o =             = +.@   @ ;             ; { X   X -       X 8 9 9 p 9 j ",
"9 0 0 9 j 4 .           - 3.$ o X               > >.@ o @               r e.o X X               ; 9.  o o X 8 q 9 p 9 N ",
"7 9 9 9 8 3 .           X $   E u               X $   { )               X &   U G               X $   ` { X 7 9 9 9 9 x ",
"9 d j d 9 3 .                 - &                     ; ;                     - -                     - ; . 9 0 9 9 9 x ",
"9 d j d 9 3 .   @ y y @   X e $         & y y &   X e @         @ y y $     t &         $ y y @     y @   . 9 0 9 9 9 x ",
"p j j d 9 3 .   > u.u.;   @ 9.,         e s.u.t   & w.-         ; u.u.,     r.e         e u.u.;     u.;   . 9 0 9 p p x ",
"8 9 9 p 9 3 X -.+.@ @       @ X       T E @ @ X     @         } :.@ @ X     @ X       P ` @ @       @     X 7 9 9 9 p N ",
"6 j j j j 6 X > >       & J @         ; ;       - G X         > >       > ) X         ; :       & Q       X 7 9 9 p 9 A ",
"8 j j j j 6 .           & U @                   - G X                   > ) X                   & Q       X 7 9 9 p p A ",
"9 j 0 p j 6 .                       + + + + + + + + + + + + + + + + + + + + + + + +                       X 7 9 9 9 p N ",
"8 0 p 0 j 8 .                     O 3 x x x 9 x x 9 9 p p x 9 j a j a m x x m j j p                       . 8 0 9 p p A ",
"3 9 9 p 9 3 .   & T               O 0 j 0 9 0 j 0 8 9 p p x 6 j j j 9 x x 0 9 9 x 8     - u X             X 8 9 9 p p N ",
"p j d d 0 8 .   =  .    o > X     + d a j A m a j j 9 p p j 9 A A %.9 x x x x x m 9     ; T X   @ 1       . 9 x 9 j j j ",
"p d j d 0 7 .           = 1.$ @ @ + A d a m a a j 0 9 9 9 x 9 A A %.9 x x x w x x 9             ; 6.  @ @ X 9 x 9 j j x ",
"p d j d 0 6 .             @   Q i + a x x x j x x 9 8 9 9 x 9 N d A 9 x x x x x 0 9               @   { } X 9 m 9 p j N ",
"0 d a d 9 3 .                 & @ + 3 8 8 8 8 8 8 8 6 8 8 8 9 A A A 8 8 9 9 0 0 9 9                   = = X 3 9 3 3 8 0 ",
"j d A A 0 8 .   o > > o   X ; @   O 8 x m x 0 x 0 x x x x x p A A A 9 a j a j j A 9     @ > : X     > o   O 9 D C C C C ",
"9 d d m 9 8 .   > d.u.;   @ 9.,   + m 9 j x x 0 0 x 0 0 0 w 9 A d A 0 j j j 9 a 0 9     1 u.u.;     p.;   X 8 C C C C &.",
"9 d d d 0 8 X 3.>.                + m m 9 x x x x x x 9 0 w 9 A j A 9 a a m m 0 9 p   Q O.                . 9 #.C $.C $.",
"j d d d 9 3 X - -       = ` @     + M C x 9 9 0 0 9 6 3 8 8 9 A p A 8 8 9 9 9 j A 0   & =       - ,.      X 8 0 7 7 7 w ",
"j d j D 0 7 .           = +.@     + M m x x A D %.j 9 p 9 p j d p A 8 x x x 9 A A j             - <.      X w m x A x x ",
"9 d d %.x 7 .                     + C m C x A A A x 9 9 9 p 0 a p A 9 x x 9 9 A %.j                       . x M x x A C ",
"9 d d A m 8 .                     + m m $.9 %.A A x 9 9 9 p j j p %.x x x x 9 A %.j                       . x C j x x C ",
"p d j A x 4 X   =  .              + x 0 C 8 d A d 0 9 9 9 j 0 j j &.9 0 0 9 9 A A x     ; T X             . 9 M p j 9 x ",
"j d d A 9 3 .   & T     @ e o     + j j A d m m a x m j j a 9 j A &.8 9 9 9 8 %.A N     = u X   @ y       X 9 A C C m C ",
"j d d A 9 3 .           ; e.$     + %.A A %.A m j a j 0 9 %.8 A A A 9 j j j 9 C #.A             > u.      X w #.#.$.$.$.",
"p j j A 9 3 .           X @   / i + A %.%.A A a j 0 0 9 9 a 9 a j &.9 j j p 9 C &.m               @    .X.. w #.#.#.*.*.",
"9 d d %.9 3 .                 ; - + A %.A A A m a j 0 0 m m 9 j j %.8 j j x 0 #.$.x                   > > X 9 $.$.*.*.*.",
"4 8 9 9 9 3 .   @ t e @   X 1 @   + j 9 p 8 x w 0 8 8 9 8 9 3 8 9 9 9 9 9 9 9 9 9 8     $ e e @     e @   . 4 7 9 9 9 x ",
"7 x x x m 7 . o 1 e.e.-   @ 1.>   + %.%.%.p C C x q 9 9 9 x 9 x q w x x x x m m x p   X e e.e.-     e.-   . w m x N x C ",
"8 x x x x 7 X 3.>.                + &.%.A m M C C 9 p 9 9 p 9 x 0 0 0 0 x C C C C k   Q }                 . 9 M x x x C ",
"9 x x x x 7 X 1 1       $ F @     + &.D &.m C C C 0 9 9 9 j 9 x 0 x x x x C C C M q   : >       & T       X 9 b x x x A ",
"8 9 0 0 9 2 .           & Q @     + &.A A 9 9 w x 9 9 9 9 x 8 0 0 0 9 9 9 9 9 0 w 8             =  .      X 9 w x N x C ",
"j A d A 9 3 .                     + *.A A 0 &.#.#.x 9 9 9 x 9 C C &.p p p j 9 C M 9                       X w C x N x C ",
"j A m %.j 5 .                     + *.A A C &.m C x 9 9 9 x 9 %.j C j p 9 p 0 m C q                       X x C x x C C ",
"j %.j %.x 3 .   - <.              # &.j A m #.A A 0 9 9 9 p 0 A m A 9 p p p 0 C C 9     > { o             . M $.x m M C ",
"9 0 p j 9 3 .   - :.    X ;       + A j &.w x b x 9 9 9 9 x 9 j x x 8 9 9 9 9 C m q     ; ~ o   o >       X 7 w w C x C ",
"0 a m A m 7 .           ; w.&     + A A x x M C &.9 9 9 9 p 9 m a j m a m C A 0 x 9             > u.      . 7 w x A N C ",
"j A m m m 9 .                 =.Y + &.9 9 C x x $.w 9 9 9 j 9 a x A A A C C m C 7 9                   <.>.. 9 w x M A x ",
"a m a a m 9 X                 = & + x 9 C m m m C w 9 p 9 j 9 A m A m #.C C C C A 4                   - - X 9 w x M C x ",
"0 m x a m 7 .   X ; ; X     - o   + 7 C x C x b b q 9 9 9 A 9 x m m C C C M C M m x     o ; - X     ; X   . 9 m N C x C ",
"6 j j j 9 3 . o , e.e.-   @ <.>   O j m j x j x x 9 9 9 p x 3 j C A 9 9 x w 9 9 9 8   X e e.9.-     e.-   X 7 0 x x p C ",
"j %.A &.x 8 X } } & $       $ X   + C #.m A A A A x 9 9 9 x x &.#.$.w C $.M m C C 9   F ) & $ X     & X   X 0 $.x p p x ",
"A A j A x 8 X ; ;       & ^ @     + #.A #.A A A j x 9 9 9 p m #.m &.w M C C x #.M 9   = -       =  .      X 0 $.x x p x ",
"A A j A x 7 .           $ i @     + #.A &.A m m N 0 9 9 9 k x C C &.x x x x x C m q             & T       . 9 M 0 x x x ",
"A A j A 9 3 .                     O 7 9 9 8 9 9 9 8 8 9 9 9 9 C #.C 9 9 9 7 0 0 w 9                       . 3 9 9 8 3 9 ",
"j d j &.0 9 X                       + # # * # # # * # # # # + * * * # # # # * * * #                       X 8 m M $.C *.",
"j j p A 0 9 .   & ^                     ; U                     & J o                   - G X             . 7 M C C x $.",
"j A A %.m 9 .   & Q     @ 1 X           ; U     $ 1             & J o   & e             - L X   @ e       . 7 M M C M #.",
"p %.A &.9 3 .           - 5.% o X               < 1.o o o               r e.o o X               ; e.  o o X 7 0 9 q w 9 ",
"9 A A %.x 8 .                 X.Y                     3.>.                    { )                     4.4.O x C 9 x x C ",
"9 A A #.m 7 .                 < ;                     1 1                     ; ;                     1 1 X M $.j x x D ",
"9 A A &.x 7 .   o , , o     > @         @ , , $   X > X         o 1 , @     < @         @ , 1 X     1 o   X C C p x x C ",
"p A A &.0 7 X @ 1 9.e.-   @ >.>       @ y 9.9.1   $ <.-       @ 1 6.9.>     5.>       @ r 9.6.-     9.-   X 9 x 9 x x N ",
"j A A &.9 3 X  .} @ @       @         T E @ @ X   X @         {  .@ @       @ X       G ) @ @       @     . 9 #.#.#.#.#.",
"9 A A &.9 3 X & &       = +.@         & $       > { o         = =       1 3.X         $ &       - 1.      X 9 #.#.#.#.*.",
"8 d A %.9 3 .           = ` @                   ; / o                   1 >.X                   - >.      . 9 #.#.#.#.*.",
"9 A m A 9 3 .                                                                                             X 9 #.#.C C *."
};
